<svg width="151" height="151" viewBox="0 0 151 151" fill="none" xmlns="http://www.w3.org/2000/svg">
<path d="M151 115.485H0V115.56H151V115.485Z" fill="#FAFAFA"/>
<path d="M127.812 118.771H120.314V118.846H127.812V118.771Z" fill="#E0E0E0"/>
<path d="M132.563 118.731H130.029V118.807H132.563V118.731Z" fill="#E0E0E0"/>
<path d="M100.273 119.239H84.5721V119.314H100.273V119.239Z" fill="#E0E0E0"/>
<path d="M80.8665 120.057H78.526V120.133H80.8665V120.057Z" fill="#E0E0E0"/>
<path d="M33.8089 117.668H29.7742V117.744H33.8089V117.668Z" fill="#E0E0E0"/>
<path d="M55.9485 117.668H35.485V117.744H55.9485V117.668Z" fill="#E0E0E0"/>
<path d="M38.505 119.492H24.2687V119.568H38.505V119.492Z" fill="#E0E0E0"/>
<path d="M71.574 102.016H13.2608C12.804 102.015 12.3662 101.833 12.0434 101.509C11.7207 101.186 11.5394 100.748 11.5394 100.291V18.3193C11.5434 17.8651 11.7264 17.4308 12.0487 17.1108C12.371 16.7907 12.8066 16.6108 13.2608 16.61H71.574C72.0314 16.61 72.47 16.7917 72.7934 17.1151C73.1167 17.4384 73.2984 17.8771 73.2984 18.3344V100.291C73.2984 100.749 73.1167 101.187 72.7934 101.511C72.47 101.834 72.0314 102.016 71.574 102.016ZM13.2608 16.6704C12.824 16.6712 12.4054 16.8453 12.0968 17.1544C11.7882 17.4636 11.6149 17.8825 11.6149 18.3193V100.291C11.6149 100.728 11.7882 101.147 12.0968 101.456C12.4054 101.765 12.824 101.939 13.2608 101.94H71.574C72.0111 101.939 72.43 101.765 72.7391 101.456C73.0481 101.147 73.2221 100.728 73.2229 100.291V18.3193C73.2221 17.8822 73.0481 17.4633 72.7391 17.1542C72.43 16.8452 72.0111 16.6712 71.574 16.6704H13.2608Z" fill="#E0E0E0"/>
<path d="M136.9 102.016H78.5834C78.1263 102.015 77.6882 101.833 77.365 101.51C77.0417 101.186 76.8598 100.748 76.859 100.291V18.3193C76.8638 17.8648 77.0475 17.4305 77.3702 17.1106C77.693 16.7906 78.1289 16.6108 78.5834 16.61H136.9C137.353 16.6116 137.788 16.7919 138.11 17.1118C138.431 17.4318 138.614 17.8656 138.618 18.3193V100.291C138.618 100.747 138.437 101.185 138.115 101.508C137.793 101.832 137.356 102.014 136.9 102.016ZM78.5834 16.6704C78.1463 16.6712 77.7274 16.8452 77.4183 17.1542C77.1093 17.4633 76.9353 17.8822 76.9345 18.3193V100.291C76.9353 100.728 77.1093 101.147 77.4183 101.456C77.7274 101.765 78.1463 101.939 78.5834 101.94H136.9C137.337 101.939 137.756 101.765 138.065 101.456C138.374 101.147 138.548 100.728 138.549 100.291V18.3193C138.548 17.8822 138.374 17.4633 138.065 17.1542C137.756 16.8452 137.337 16.6712 136.9 16.6704H78.5834Z" fill="#E0E0E0"/>
<path d="M103.209 115.485H113.878V96.1205H103.209V115.485Z" fill="#E0E0E0"/>
<path d="M126.607 96.1205H113.878V115.485H126.607V96.1205Z" fill="#EBEBEB"/>
<g style="mix-blend-mode:multiply" opacity="0.7">
<path d="M103.208 98.6362H126.719V97.7604H103.208V98.6362Z" fill="#E0E0E0"/>
</g>
<path d="M102.62 98.1258H113.878V94.0911H102.62V98.1258Z" fill="#E0E0E0"/>
<path d="M127.196 94.0941H113.878V98.1288H127.196V94.0941Z" fill="#EBEBEB"/>
<path d="M58.6061 22.345H22.6893V65.1988H58.6061V22.345Z" fill="#E0E0E0"/>
<path d="M60.252 22.345H23.4594V65.1988H60.252V22.345Z" fill="#EBEBEB"/>
<path d="M58.6061 65.1988H22.6893V68.252H58.6061V65.1988Z" fill="#E0E0E0"/>
<path d="M62.9881 65.1988H26.1955V68.252H62.9881V65.1988Z" fill="#EBEBEB"/>
<path d="M57.9508 62.8975V24.6462L25.7606 24.6462V62.8975H57.9508Z" fill="#F5F5F5"/>
<path d="M29.7108 62.8975L43.2132 24.6462H49.5854L36.086 62.8975H29.7108Z" fill="#FAFAFA"/>
<path d="M26.8236 49.9206C26.7801 49.9198 26.7386 49.902 26.7081 49.8709C26.6776 49.8398 26.6606 49.798 26.6606 49.7545V26.1411C26.6606 26.0979 26.6777 26.0564 26.7083 26.0258C26.7389 25.9952 26.7804 25.978 26.8236 25.978C26.8672 25.978 26.909 25.9951 26.94 26.0256C26.9711 26.0561 26.9889 26.0976 26.9897 26.1411V49.7545C26.9897 49.7985 26.9722 49.8408 26.9411 49.8719C26.9099 49.9031 26.8677 49.9206 26.8236 49.9206Z" fill="#EBEBEB"/>
<path d="M37.454 62.8975L50.9565 24.6462H53.4419L39.9395 62.8975H37.454Z" fill="#FAFAFA"/>
<path d="M57.9478 62.8975V24.6462H57.6548V62.8975H57.9478Z" fill="#E0E0E0"/>
<path d="M60.7926 27.5877H24.8788L24.6674 25.5401H60.5812L60.7926 27.5877Z" fill="#E0E0E0"/>
<path d="M60.7926 29.0886H24.8788L24.6674 27.0381H60.5812L60.7926 29.0886Z" fill="#E0E0E0"/>
<path d="M60.7926 30.8885H24.8788L24.6674 28.838H60.5812L60.7926 30.8885Z" fill="#E0E0E0"/>
<path d="M60.7926 32.8908H24.8788L24.6674 30.8432H60.5812L60.7926 32.8908Z" fill="#E0E0E0"/>
<path d="M60.7926 35.2917H24.8788L24.6674 33.2411H60.5812L60.7926 35.2917Z" fill="#E0E0E0"/>
<path d="M60.7926 37.9886H24.8788L24.6674 35.941H60.5812L60.7926 37.9886Z" fill="#E0E0E0"/>
<path d="M123.929 22.345H88.0119V65.1988H123.929V22.345Z" fill="#E0E0E0"/>
<path d="M125.572 22.345H88.7789V65.1988H125.572V22.345Z" fill="#EBEBEB"/>
<path d="M123.929 65.1988H88.0119V68.252H123.929V65.1988Z" fill="#E0E0E0"/>
<path d="M128.311 65.1988H91.5181V68.252H128.311V65.1988Z" fill="#EBEBEB"/>
<path d="M123.273 62.8975V24.6462L91.0832 24.6462V62.8975H123.273Z" fill="#F5F5F5"/>
<path d="M95.0334 62.8975L108.536 24.6462H114.908L101.406 62.8975H95.0334Z" fill="#FAFAFA"/>
<path d="M92.1462 49.9206C92.1027 49.9198 92.0612 49.902 92.0307 49.8709C92.0002 49.8398 91.9831 49.798 91.9832 49.7545V26.1411C91.9832 26.0979 92.0003 26.0564 92.0309 26.0258C92.0615 25.9952 92.103 25.978 92.1462 25.978C92.1895 25.978 92.231 25.9952 92.2616 26.0258C92.2921 26.0564 92.3093 26.0979 92.3093 26.1411V49.7545C92.3093 49.798 92.2922 49.8398 92.2617 49.8709C92.2312 49.902 92.1898 49.9198 92.1462 49.9206Z" fill="#EBEBEB"/>
<path d="M102.777 62.8975L116.279 24.6462H118.761L105.262 62.8975H102.777Z" fill="#FAFAFA"/>
<path d="M123.27 62.8975V24.6462H122.977V62.8975H123.27Z" fill="#E0E0E0"/>
<path d="M126.115 27.5877H90.2014L89.9869 25.5401H125.904L126.115 27.5877Z" fill="#E0E0E0"/>
<path d="M126.115 29.0886H90.2014L89.9869 27.0381H125.904L126.115 29.0886Z" fill="#E0E0E0"/>
<path d="M126.115 30.8885H90.2014L89.9869 28.838H125.904L126.115 30.8885Z" fill="#E0E0E0"/>
<path d="M126.115 32.8908H90.2014L89.9869 30.8432H125.904L126.115 32.8908Z" fill="#E0E0E0"/>
<path d="M126.115 35.2917H90.2014L89.9869 33.2411H125.904L126.115 35.2917Z" fill="#E0E0E0"/>
<path d="M126.115 37.9886H90.2014L89.9869 35.941H125.904L126.115 37.9886Z" fill="#E0E0E0"/>
<path d="M96.0481 88.3229H88.8756V115.485H96.0481V88.3229Z" fill="#E0E0E0"/>
<path d="M94.683 115.485H96.0451V112.157H93.2546L94.683 115.485Z" fill="#F5F5F5"/>
<path d="M26.4431 88.3229H19.2706V115.485H26.4431V88.3229Z" fill="#E0E0E0"/>
<path d="M96.0481 88.3229H25.2532V113.655H96.0481V88.3229Z" fill="#F5F5F5"/>
<path d="M61.1067 89.5913V107.681H94.9911V89.5913H61.1067Z" fill="#E0E0E0"/>
<path d="M26.3102 89.5913V107.681H60.1946V89.5913H26.3102Z" fill="#E0E0E0"/>
<path d="M94.9881 111.504V109.49H61.1037V111.504H94.9881Z" fill="#E0E0E0"/>
<path d="M60.1916 111.507V109.493H26.3072V111.507H60.1916Z" fill="#E0E0E0"/>
<path d="M55.1845 90.6725H31.3265C30.7967 90.6729 30.2724 90.566 29.7851 90.3584C29.2977 90.1508 28.8574 89.8467 28.4907 89.4645H58.0323C57.6642 89.8482 57.2219 90.1531 56.7324 90.3608C56.2428 90.5685 55.7162 90.6745 55.1845 90.6725Z" fill="#F5F5F5"/>
<path d="M90.1077 90.6725H66.2497C65.72 90.6729 65.1957 90.566 64.7083 90.3584C64.221 90.1508 63.7807 89.8467 63.414 89.4645H92.9556C92.5881 89.8491 92.146 90.1546 91.6563 90.3623C91.1666 90.57 90.6397 90.6755 90.1077 90.6725Z" fill="#F5F5F5"/>
<path d="M26.6153 115.485H25.2502V112.157H28.0407L26.6153 115.485Z" fill="#F5F5F5"/>
<g style="mix-blend-mode:multiply" opacity="0.4">
<path d="M77.1791 71.6465H69.1942V88.3229H77.1791V71.6465Z" fill="#E0E0E0"/>
</g>
<path d="M83.8865 88.3229H70.372L69.1006 70.3146H82.6121L83.8865 88.3229Z" fill="#E0E0E0"/>
<path d="M85.4237 88.3229H70.7556L69.4842 70.3146H84.1493L85.4237 88.3229Z" fill="#F5F5F5"/>
<path d="M71.4351 87.6343L70.2603 71.0032H83.4728L84.6506 87.6343H71.4351Z" fill="#FAFAFA"/>
<path d="M74.6333 83.9107L73.984 74.7269H80.2746L80.9239 83.9107H74.6333Z" fill="#F5F5F5"/>
<path d="M48.1237 85.3663C50.0618 85.3663 51.6329 83.7952 51.6329 81.8571C51.6329 79.919 50.0618 78.3478 48.1237 78.3478C46.1856 78.3478 44.6145 79.919 44.6145 81.8571C44.6145 83.7952 46.1856 85.3663 48.1237 85.3663Z" fill="#EBEBEB"/>
<path d="M54.1335 87.0394C56.0716 87.0394 57.6427 85.4683 57.6427 83.5302C57.6427 81.5921 56.0716 80.0209 54.1335 80.0209C52.1954 80.0209 50.6243 81.5921 50.6243 83.5302C50.6243 85.4683 52.1954 87.0394 54.1335 87.0394Z" fill="#EBEBEB"/>
<path d="M60.1049 84.2291C61.3001 83.7367 61.8698 82.3687 61.3774 81.1735C60.8851 79.9784 59.517 79.4086 58.3219 79.901C57.1267 80.3934 56.557 81.7614 57.0493 82.9566C57.5417 84.1517 58.9097 84.7215 60.1049 84.2291Z" fill="#EBEBEB"/>
<path d="M53.9495 80.1107C54.1562 78.8347 53.2893 77.6328 52.0133 77.4261C50.7373 77.2194 49.5354 78.0863 49.3287 79.3623C49.1221 80.6383 49.9889 81.8402 51.2649 82.0469C52.5409 82.2535 53.7428 81.3867 53.9495 80.1107Z" fill="#EBEBEB"/>
<path d="M42.5125 82.902C42.5125 82.902 42.7874 88.3229 53.3181 88.3229C63.8488 88.3229 64.1237 82.902 64.1237 82.902H42.5125Z" fill="#E0E0E0"/>
<path d="M32.7881 86.4656C32.7881 86.4656 29.3574 80.5524 34.1169 75.8443C34.1169 75.8443 35.3582 76.6536 35.3249 77.7438C35.2917 78.8341 33.9931 79.1059 34.274 80.0149C34.5548 80.9239 35.784 81.8269 34.9837 82.5668C34.1834 83.3067 35.1135 83.9832 35.0592 84.9043C35.0048 85.8254 32.7881 86.4656 32.7881 86.4656Z" fill="#E0E0E0"/>
<path d="M33.0479 87.0062C33.0479 87.0062 34.4371 80.3139 28.4363 77.3422C28.4363 77.3422 27.5122 78.5049 27.8746 79.5317C28.237 80.5585 29.5658 80.4045 29.5869 81.3437C29.6081 82.2829 28.7111 83.5302 29.7198 83.9862C30.7285 84.4422 30.043 85.3754 30.3842 86.2301C30.7255 87.0847 33.0479 87.0062 33.0479 87.0062Z" fill="#E0E0E0"/>
<path d="M27.784 83.9107C27.784 83.9107 27.8988 88.3229 32.2717 88.3229C36.6447 88.3229 36.7594 83.9107 36.7594 83.9107H27.784Z" fill="#EBEBEB"/>
<path d="M75.5 129.123C107.839 129.123 134.055 127.593 134.055 125.704C134.055 123.816 107.839 122.286 75.5 122.286C43.1611 122.286 16.9452 123.816 16.9452 125.704C16.9452 127.593 43.1611 129.123 75.5 129.123Z" fill="#F5F5F5"/>
<path d="M54.4959 82.2769C54.3169 82.2652 54.149 82.1858 54.0263 82.0548C53.9037 81.9239 53.8354 81.7511 53.8354 81.5717C53.8354 81.3923 53.9037 81.2196 54.0263 81.0886C54.149 80.9577 54.3169 80.8783 54.4959 80.8665C56.2233 80.8665 57.679 78.3932 57.679 75.4638C57.6907 75.2847 57.7701 75.1168 57.9011 74.9942C58.032 74.8715 58.2047 74.8033 58.3842 74.8033C58.5636 74.8033 58.7363 74.8715 58.8673 74.9942C58.9982 75.1168 59.0776 75.2847 59.0893 75.4638C59.0893 79.2841 57.078 82.2769 54.4959 82.2769Z" fill="#DAE1C2"/>
<path d="M65.1535 82.2769C64.9744 82.2652 64.8066 82.1858 64.6839 82.0548C64.5612 81.9239 64.493 81.7511 64.493 81.5717C64.493 81.3923 64.5612 81.2196 64.6839 81.0886C64.8066 80.9577 64.9744 80.8783 65.1535 80.8665C66.8809 80.8665 68.3366 78.3932 68.3366 75.4638C68.3483 75.2847 68.4277 75.1168 68.5586 74.9942C68.6896 74.8715 68.8623 74.8033 69.0417 74.8033C69.2212 74.8033 69.3939 74.8715 69.5248 74.9942C69.6558 75.1168 69.7352 75.2847 69.7469 75.4638C69.762 79.2841 67.7295 82.2769 65.1535 82.2769Z" fill="#DAE1C2"/>
<path d="M75.802 82.2769C75.623 82.2652 75.4551 82.1858 75.3324 82.0548C75.2097 81.9238 75.1415 81.7511 75.1415 81.5717C75.1415 81.3923 75.2097 81.2196 75.3324 81.0886C75.4551 80.9577 75.623 80.8783 75.802 80.8665C77.5264 80.8665 78.9851 78.3932 78.9851 75.4638C78.9851 75.2771 79.0592 75.0982 79.1912 74.9662C79.3231 74.8342 79.5021 74.7601 79.6887 74.7601C79.8754 74.7601 80.0543 74.8342 80.1863 74.9662C80.3183 75.0982 80.3924 75.2771 80.3924 75.4638C80.4015 79.2841 78.3871 82.2769 75.802 82.2769Z" fill="#DAE1C2"/>
<path d="M86.4686 82.2769C86.3722 82.2832 86.2754 82.2696 86.1844 82.2371C86.0933 82.2045 86.0099 82.1536 85.9394 82.0875C85.8688 82.0214 85.8125 81.9415 85.7741 81.8528C85.7356 81.7641 85.7158 81.6684 85.7158 81.5717C85.7158 81.475 85.7356 81.3794 85.7741 81.2906C85.8125 81.2019 85.8688 81.122 85.9394 81.0559C86.0099 80.9898 86.0933 80.9389 86.1844 80.9064C86.2754 80.8738 86.3722 80.8602 86.4686 80.8665C88.1931 80.8665 89.6517 78.3932 89.6517 75.4638C89.6517 75.2771 89.7259 75.0982 89.8578 74.9662C89.9898 74.8342 90.1688 74.7601 90.3554 74.7601C90.542 74.7601 90.721 74.8342 90.8529 74.9662C90.9849 75.0982 91.059 75.2771 91.059 75.4638C91.059 79.2841 89.0417 82.2769 86.4686 82.2769Z" fill="#DAE1C2"/>
<path d="M97.1232 82.2769C96.9442 82.2652 96.7763 82.1858 96.6536 82.0548C96.5309 81.9239 96.4627 81.7511 96.4627 81.5717C96.4627 81.3923 96.5309 81.2196 96.6536 81.0886C96.7763 80.9577 96.9442 80.8783 97.1232 80.8665C98.8506 80.8665 100.306 78.3932 100.306 75.4638C100.318 75.2847 100.397 75.1168 100.528 74.9942C100.659 74.8715 100.832 74.8033 101.011 74.8033C101.191 74.8033 101.364 74.8715 101.495 74.9942C101.626 75.1168 101.705 75.2847 101.717 75.4638C101.717 79.2841 99.6993 82.2769 97.1232 82.2769Z" fill="#DAE1C2"/>
<path d="M107.781 82.2769C107.602 82.2652 107.434 82.1858 107.311 82.0548C107.189 81.9239 107.12 81.7511 107.12 81.5717C107.12 81.3923 107.189 81.2196 107.311 81.0886C107.434 80.9577 107.602 80.8783 107.781 80.8665C109.505 80.8665 110.964 78.3932 110.964 75.4638C110.976 75.2847 111.055 75.1168 111.186 74.9942C111.317 74.8715 111.49 74.8033 111.669 74.8033C111.848 74.8033 112.021 74.8715 112.152 74.9942C112.283 75.1168 112.362 75.2847 112.374 75.4638C112.374 79.2841 110.357 82.2769 107.781 82.2769Z" fill="#DAE1C2"/>
<g opacity="0.3">
<path d="M54.4959 82.2769C54.3169 82.2652 54.149 82.1858 54.0263 82.0548C53.9037 81.9239 53.8354 81.7511 53.8354 81.5717C53.8354 81.3923 53.9037 81.2196 54.0263 81.0886C54.149 80.9577 54.3169 80.8783 54.4959 80.8665C56.2233 80.8665 57.679 78.3932 57.679 75.4638C57.6907 75.2847 57.7701 75.1168 57.9011 74.9942C58.032 74.8715 58.2047 74.8033 58.3842 74.8033C58.5636 74.8033 58.7363 74.8715 58.8673 74.9942C58.9982 75.1168 59.0776 75.2847 59.0893 75.4638C59.0893 79.2841 57.078 82.2769 54.4959 82.2769Z" fill="black"/>
<path d="M65.1535 82.2769C64.9744 82.2652 64.8066 82.1858 64.6839 82.0548C64.5612 81.9239 64.493 81.7511 64.493 81.5717C64.493 81.3923 64.5612 81.2196 64.6839 81.0886C64.8066 80.9577 64.9744 80.8783 65.1535 80.8665C66.8809 80.8665 68.3366 78.3932 68.3366 75.4638C68.3483 75.2847 68.4277 75.1168 68.5586 74.9942C68.6896 74.8715 68.8623 74.8033 69.0417 74.8033C69.2212 74.8033 69.3939 74.8715 69.5248 74.9942C69.6558 75.1168 69.7352 75.2847 69.7469 75.4638C69.762 79.2841 67.7295 82.2769 65.1535 82.2769Z" fill="black"/>
<path d="M75.802 82.2769C75.623 82.2652 75.4551 82.1858 75.3324 82.0548C75.2097 81.9238 75.1415 81.7511 75.1415 81.5717C75.1415 81.3923 75.2097 81.2196 75.3324 81.0886C75.4551 80.9577 75.623 80.8783 75.802 80.8665C77.5264 80.8665 78.9851 78.3932 78.9851 75.4638C78.9851 75.2771 79.0592 75.0982 79.1912 74.9662C79.3231 74.8342 79.5021 74.7601 79.6887 74.7601C79.8754 74.7601 80.0543 74.8342 80.1863 74.9662C80.3183 75.0982 80.3924 75.2771 80.3924 75.4638C80.4015 79.2841 78.3871 82.2769 75.802 82.2769Z" fill="black"/>
<path d="M86.4686 82.2769C86.3722 82.2832 86.2754 82.2696 86.1844 82.2371C86.0933 82.2045 86.0099 82.1536 85.9394 82.0875C85.8688 82.0214 85.8125 81.9415 85.7741 81.8528C85.7356 81.7641 85.7158 81.6684 85.7158 81.5717C85.7158 81.475 85.7356 81.3794 85.7741 81.2906C85.8125 81.2019 85.8688 81.122 85.9394 81.0559C86.0099 80.9898 86.0933 80.9389 86.1844 80.9064C86.2754 80.8738 86.3722 80.8602 86.4686 80.8665C88.1931 80.8665 89.6517 78.3932 89.6517 75.4638C89.6517 75.2771 89.7259 75.0982 89.8578 74.9662C89.9898 74.8342 90.1688 74.7601 90.3554 74.7601C90.542 74.7601 90.721 74.8342 90.8529 74.9662C90.9849 75.0982 91.059 75.2771 91.059 75.4638C91.059 79.2841 89.0417 82.2769 86.4686 82.2769Z" fill="black"/>
<path d="M97.1232 82.2769C96.9442 82.2652 96.7763 82.1858 96.6536 82.0548C96.531 81.9239 96.4627 81.7511 96.4627 81.5717C96.4627 81.3923 96.531 81.2196 96.6536 81.0886C96.7763 80.9577 96.9442 80.8783 97.1232 80.8665C98.8506 80.8665 100.306 78.3932 100.306 75.4638C100.318 75.2847 100.397 75.1168 100.528 74.9942C100.659 74.8715 100.832 74.8033 101.011 74.8033C101.191 74.8033 101.364 74.8715 101.495 74.9942C101.626 75.1168 101.705 75.2847 101.717 75.4638C101.717 79.2841 99.6993 82.2769 97.1232 82.2769Z" fill="black"/>
<path d="M107.781 82.2769C107.602 82.2652 107.434 82.1858 107.311 82.0548C107.189 81.9239 107.12 81.7511 107.12 81.5717C107.12 81.3923 107.189 81.2196 107.311 81.0886C107.434 80.9577 107.602 80.8783 107.781 80.8665C109.505 80.8665 110.964 78.3932 110.964 75.4638C110.976 75.2847 111.055 75.1168 111.186 74.9942C111.317 74.8715 111.49 74.8033 111.669 74.8033C111.848 74.8033 112.021 74.8715 112.152 74.9942C112.283 75.1168 112.362 75.2847 112.374 75.4638C112.374 79.2841 110.357 82.2769 107.781 82.2769Z" fill="black"/>
</g>
<path d="M47.8187 76.1855H116.427C117.347 76.2039 118.228 76.5574 118.906 77.1796C119.584 77.8018 120.012 78.6499 120.108 79.5649L123.908 122.398C123.954 122.827 123.908 123.262 123.774 123.673C123.64 124.084 123.42 124.461 123.128 124.781C122.837 125.1 122.481 125.354 122.085 125.526C121.688 125.698 121.259 125.783 120.827 125.777H52.2158C51.2963 125.757 50.4155 125.403 49.7379 124.781C49.0604 124.159 48.6326 123.312 48.5344 122.398L44.7383 79.5649C44.6916 79.135 44.7368 78.7001 44.8709 78.2891C45.0051 77.878 45.2251 77.5001 45.5164 77.1806C45.8077 76.861 46.1636 76.607 46.5605 76.4355C46.9575 76.2639 47.3863 76.1787 47.8187 76.1855Z" fill="#DAE1C2"/>
<path opacity="0.4" d="M47.8187 76.1855H116.427C117.347 76.2039 118.228 76.5574 118.906 77.1796C119.584 77.8018 120.012 78.6499 120.108 79.5649L123.908 122.398C123.954 122.827 123.908 123.262 123.774 123.673C123.64 124.084 123.42 124.461 123.128 124.781C122.837 125.1 122.481 125.354 122.085 125.526C121.688 125.698 121.259 125.783 120.827 125.777H52.2158C51.2963 125.757 50.4155 125.403 49.7379 124.781C49.0604 124.159 48.6326 123.312 48.5344 122.398L44.7383 79.5649C44.6916 79.135 44.7368 78.7001 44.8709 78.2891C45.0051 77.878 45.2251 77.5001 45.5164 77.1806C45.8077 76.861 46.1636 76.607 46.5605 76.4355C46.9575 76.2639 47.3863 76.1787 47.8187 76.1855Z" fill="#FAFAFA"/>
<path d="M115.856 76.1855H47.2449C46.3374 76.1963 45.4678 76.5513 44.8119 77.1786C44.156 77.8059 43.7627 78.6588 43.7115 79.5649L41.7787 122.398C41.7557 122.834 41.822 123.27 41.9735 123.68C42.1251 124.09 42.3587 124.465 42.6601 124.781C42.9615 125.097 43.3243 125.349 43.7263 125.52C44.1283 125.691 44.561 125.779 44.998 125.777H113.615C114.523 125.766 115.393 125.411 116.048 124.784C116.704 124.157 117.098 123.304 117.149 122.398L119.085 79.5649C119.107 79.1279 119.04 78.6909 118.888 78.2806C118.736 77.8704 118.501 77.4956 118.199 77.1791C117.897 76.8627 117.533 76.6114 117.13 76.4405C116.727 76.2697 116.294 76.1829 115.856 76.1855Z" fill="#DAE1C2"/>
<path opacity="0.2" d="M115.856 76.1855H47.2449C46.3374 76.1963 45.4678 76.5513 44.8119 77.1786C44.156 77.8059 43.7627 78.6588 43.7115 79.5649L41.7787 122.398C41.7557 122.834 41.822 123.27 41.9735 123.68C42.1251 124.09 42.3587 124.465 42.6601 124.781C42.9615 125.097 43.3243 125.349 43.7263 125.52C44.1283 125.691 44.561 125.779 44.998 125.777H113.615C114.523 125.766 115.393 125.411 116.048 124.784C116.704 124.157 117.098 123.304 117.149 122.398L119.085 79.5649C119.107 79.1279 119.04 78.6909 118.888 78.2806C118.736 77.8704 118.501 77.4956 118.199 77.1791C117.897 76.8627 117.533 76.6114 117.13 76.4405C116.727 76.2697 116.294 76.1829 115.856 76.1855Z" fill="#FAFAFA"/>
<path d="M48.5042 114.458L50.1018 79.0847C50.121 78.7377 50.2715 78.411 50.5227 78.171C50.774 77.9309 51.1073 77.7955 51.4548 77.7922H111.501C111.669 77.7911 111.835 77.8243 111.989 77.8896C112.143 77.9549 112.282 78.0511 112.398 78.1721C112.513 78.2931 112.603 78.4365 112.661 78.5934C112.72 78.7504 112.745 78.9175 112.737 79.0847L111.136 114.458C111.117 114.805 110.966 115.132 110.715 115.372C110.464 115.612 110.131 115.747 109.783 115.751H49.7394C49.572 115.752 49.4062 115.718 49.252 115.653C49.0979 115.588 48.9587 115.492 48.8431 115.371C48.7274 115.25 48.6377 115.106 48.5794 114.949C48.5212 114.792 48.4956 114.625 48.5042 114.458Z" fill="#DAE1C2"/>
<path opacity="0.1" d="M48.5042 114.458L50.1018 79.0847C50.121 78.7377 50.2715 78.411 50.5227 78.171C50.774 77.9309 51.1073 77.7955 51.4548 77.7922H111.501C111.669 77.7911 111.835 77.8243 111.989 77.8896C112.143 77.9549 112.282 78.0511 112.398 78.1721C112.513 78.2931 112.603 78.4365 112.661 78.5934C112.72 78.7504 112.745 78.9175 112.737 79.0847L111.136 114.458C111.117 114.805 110.966 115.132 110.715 115.372C110.464 115.612 110.131 115.747 109.783 115.751H49.7394C49.572 115.752 49.4062 115.718 49.252 115.653C49.0979 115.588 48.9587 115.492 48.8431 115.371C48.7274 115.25 48.6377 115.106 48.5794 114.949C48.5212 114.792 48.4956 114.625 48.5042 114.458Z" fill="#FAFAFA"/>
<path opacity="0.1" d="M46.81 117.345L48.4861 80.1991C48.5053 79.8348 48.663 79.4915 48.9268 79.2395C49.1906 78.9875 49.5407 78.8457 49.9055 78.8431H112.963C113.139 78.8416 113.313 78.8761 113.475 78.9446C113.637 79.013 113.783 79.1138 113.904 79.2408C114.026 79.3679 114.12 79.5185 114.181 79.6833C114.242 79.8481 114.268 80.0236 114.259 80.1991L112.58 117.345C112.56 117.709 112.403 118.052 112.14 118.305C111.877 118.557 111.528 118.7 111.163 118.704H48.0995C47.9239 118.705 47.75 118.67 47.5884 118.602C47.4268 118.533 47.2811 118.431 47.1602 118.304C47.0393 118.177 46.9459 118.026 46.8857 117.861C46.8254 117.696 46.7997 117.52 46.81 117.345Z" fill="black"/>
<path d="M45.2517 120.341L47.0003 81.5943C47.0237 81.2155 47.189 80.8593 47.4633 80.5969C47.7375 80.3344 48.1005 80.1848 48.4801 80.178H114.259C114.442 80.1765 114.624 80.2126 114.793 80.284C114.962 80.3555 115.115 80.4608 115.241 80.5935C115.368 80.7262 115.466 80.8835 115.53 81.0556C115.594 81.2278 115.622 81.4111 115.612 81.5943L113.854 120.341C113.831 120.72 113.665 121.076 113.391 121.338C113.117 121.601 112.754 121.75 112.374 121.757H46.6046C46.421 121.759 46.2389 121.723 46.0697 121.652C45.9005 121.581 45.7477 121.476 45.6208 121.343C45.494 121.21 45.3958 121.052 45.3323 120.88C45.2688 120.708 45.2413 120.524 45.2517 120.341Z" fill="#FAFAFA"/>
<path d="M107.772 82.5004C107.648 82.5006 107.526 82.4755 107.412 82.4266C107.298 82.3777 107.196 82.3061 107.111 82.2161C107.026 82.1261 106.961 82.0197 106.918 81.9034C106.876 81.7872 106.858 81.6635 106.866 81.54C106.877 81.2977 106.981 81.069 107.156 80.9006C107.33 80.7322 107.562 80.6368 107.805 80.634C107.929 80.6338 108.051 80.6589 108.165 80.7078C108.278 80.7567 108.381 80.8283 108.466 80.9183C108.55 81.0083 108.616 81.1147 108.658 81.2309C108.7 81.3472 108.718 81.4709 108.711 81.5944C108.699 81.8367 108.596 82.0654 108.421 82.2338C108.247 82.4022 108.014 82.4976 107.772 82.5004Z" fill="#DAE1C2"/>
<path d="M97.1141 82.5004C96.9905 82.5006 96.868 82.4755 96.7544 82.4266C96.6408 82.3777 96.5384 82.3061 96.4535 82.2161C96.3686 82.1261 96.303 82.0197 96.2609 81.9034C96.2187 81.7872 96.2007 81.6635 96.2081 81.54C96.2197 81.2977 96.3233 81.069 96.4979 80.9006C96.6725 80.7322 96.9048 80.6368 97.1474 80.634C97.2711 80.6338 97.3935 80.6589 97.5071 80.7078C97.6207 80.7567 97.7231 80.8283 97.808 80.9183C97.8929 81.0083 97.9585 81.1147 98.0007 81.2309C98.0428 81.3472 98.0608 81.4709 98.0534 81.5944C98.0425 81.8369 97.9391 82.0661 97.7644 82.2346C97.5896 82.4032 97.3569 82.4983 97.1141 82.5004Z" fill="#DAE1C2"/>
<path d="M86.4566 82.5004C86.3329 82.5006 86.2104 82.4755 86.0968 82.4266C85.9832 82.3777 85.8808 82.3061 85.7959 82.2161C85.711 82.1261 85.6455 82.0197 85.6033 81.9034C85.5611 81.7872 85.5431 81.6635 85.5506 81.54C85.5628 81.298 85.6667 81.0696 85.8411 80.9014C86.0155 80.7331 86.2475 80.6375 86.4898 80.634C86.6135 80.6338 86.7359 80.6589 86.8495 80.7078C86.9631 80.7567 87.0655 80.8283 87.1504 80.9183C87.2353 81.0083 87.3009 81.1147 87.3431 81.2309C87.3853 81.3472 87.4032 81.4709 87.3958 81.5944C87.385 81.8369 87.2815 82.0661 87.1068 82.2346C86.9321 82.4032 86.6993 82.4983 86.4566 82.5004Z" fill="#DAE1C2"/>
<path d="M75.802 82.5004C75.6783 82.5006 75.5559 82.4755 75.4423 82.4266C75.3286 82.3777 75.2262 82.3061 75.1413 82.2161C75.0565 82.1261 74.9909 82.0197 74.9487 81.9034C74.9065 81.7872 74.8886 81.6635 74.896 81.54C74.909 81.2977 75.0135 81.0694 75.1884 80.9012C75.3633 80.733 75.5956 80.6375 75.8382 80.634C75.9619 80.6338 76.0844 80.6589 76.198 80.7078C76.3116 80.7567 76.414 80.8283 76.4989 80.9183C76.5838 81.0083 76.6493 81.1147 76.6915 81.2309C76.7337 81.3472 76.7517 81.4709 76.7442 81.5944C76.7334 81.8374 76.6295 82.067 76.4542 82.2357C76.2788 82.4043 76.0453 82.4991 75.802 82.5004Z" fill="#DAE1C2"/>
<path d="M65.1444 82.5004C65.0207 82.5006 64.8983 82.4755 64.7847 82.4266C64.6711 82.3777 64.5687 82.3061 64.4838 82.2161C64.3989 82.1261 64.3333 82.0197 64.2911 81.9034C64.2489 81.7872 64.231 81.6635 64.2384 81.54C64.25 81.2977 64.3536 81.069 64.5282 80.9006C64.7028 80.7322 64.9351 80.6368 65.1776 80.634C65.3013 80.6338 65.4238 80.6589 65.5374 80.7078C65.651 80.7567 65.7534 80.8283 65.8383 80.9183C65.9232 81.0083 65.9887 81.1147 66.0309 81.2309C66.0731 81.3472 66.0911 81.4709 66.0836 81.5944C66.0721 81.8367 65.9685 82.0654 65.7939 82.2338C65.6193 82.4022 65.387 82.4976 65.1444 82.5004Z" fill="#DAE1C2"/>
<path d="M54.4868 82.5004C54.3631 82.5006 54.2407 82.4755 54.1271 82.4266C54.0135 82.3777 53.9111 82.3061 53.8262 82.2161C53.7413 82.1261 53.6757 82.0197 53.6336 81.9034C53.5914 81.7872 53.5734 81.6635 53.5808 81.54C53.5924 81.2977 53.696 81.069 53.8706 80.9006C54.0452 80.7322 54.2775 80.6368 54.5201 80.634C54.6438 80.6338 54.7662 80.6589 54.8798 80.7078C54.9934 80.7567 55.0958 80.8283 55.1807 80.9183C55.2656 81.0083 55.3312 81.1147 55.3733 81.2309C55.4155 81.3472 55.4335 81.4709 55.4261 81.5944C55.4152 81.8369 55.3118 82.0661 55.1371 82.2346C54.9623 82.4032 54.7296 82.4983 54.4868 82.5004Z" fill="#DAE1C2"/>
<g opacity="0.1">
<path d="M107.772 82.5004C107.648 82.5006 107.526 82.4755 107.412 82.4266C107.298 82.3777 107.196 82.3061 107.111 82.2161C107.026 82.1261 106.961 82.0197 106.918 81.9034C106.876 81.7872 106.858 81.6635 106.866 81.54C106.877 81.2977 106.981 81.069 107.156 80.9006C107.33 80.7322 107.562 80.6368 107.805 80.634C107.929 80.6338 108.051 80.6589 108.165 80.7078C108.278 80.7567 108.381 80.8283 108.466 80.9183C108.55 81.0083 108.616 81.1147 108.658 81.2309C108.7 81.3472 108.718 81.4709 108.711 81.5944C108.699 81.8367 108.596 82.0654 108.421 82.2338C108.247 82.4022 108.014 82.4976 107.772 82.5004Z" fill="#FAFAFA"/>
<path d="M97.1141 82.5004C96.9905 82.5006 96.868 82.4755 96.7544 82.4266C96.6408 82.3777 96.5384 82.3061 96.4535 82.2161C96.3686 82.1261 96.303 82.0197 96.2609 81.9034C96.2187 81.7872 96.2007 81.6635 96.2081 81.54C96.2197 81.2977 96.3233 81.069 96.4979 80.9006C96.6725 80.7322 96.9048 80.6368 97.1474 80.634C97.2711 80.6338 97.3935 80.6589 97.5071 80.7078C97.6207 80.7567 97.7231 80.8283 97.808 80.9183C97.8929 81.0083 97.9585 81.1147 98.0007 81.2309C98.0428 81.3472 98.0608 81.4709 98.0534 81.5944C98.0425 81.8369 97.9391 82.0661 97.7644 82.2346C97.5896 82.4032 97.3569 82.4983 97.1141 82.5004Z" fill="#FAFAFA"/>
<path d="M86.4566 82.5004C86.3329 82.5006 86.2104 82.4755 86.0968 82.4266C85.9832 82.3777 85.8808 82.3061 85.7959 82.2161C85.711 82.1261 85.6455 82.0197 85.6033 81.9034C85.5611 81.7872 85.5431 81.6635 85.5506 81.54C85.5628 81.298 85.6667 81.0696 85.8411 80.9014C86.0155 80.7331 86.2475 80.6375 86.4898 80.634C86.6135 80.6338 86.7359 80.6589 86.8495 80.7078C86.9631 80.7567 87.0655 80.8283 87.1504 80.9183C87.2353 81.0083 87.3009 81.1147 87.3431 81.2309C87.3853 81.3472 87.4032 81.4709 87.3958 81.5944C87.385 81.8369 87.2815 82.0661 87.1068 82.2346C86.9321 82.4032 86.6993 82.4983 86.4566 82.5004Z" fill="#FAFAFA"/>
<path d="M75.802 82.5004C75.6783 82.5006 75.5559 82.4755 75.4423 82.4266C75.3286 82.3777 75.2262 82.3061 75.1414 82.2161C75.0565 82.1261 74.9909 82.0197 74.9487 81.9034C74.9065 81.7872 74.8886 81.6635 74.896 81.54C74.909 81.2977 75.0135 81.0694 75.1884 80.9012C75.3633 80.733 75.5956 80.6375 75.8382 80.634C75.9619 80.6338 76.0844 80.6589 76.198 80.7078C76.3116 80.7567 76.414 80.8283 76.4989 80.9183C76.5838 81.0083 76.6493 81.1147 76.6915 81.2309C76.7337 81.3472 76.7517 81.4709 76.7442 81.5944C76.7334 81.8374 76.6295 82.067 76.4542 82.2357C76.2788 82.4043 76.0453 82.4991 75.802 82.5004Z" fill="#FAFAFA"/>
<path d="M65.1444 82.5004C65.0207 82.5006 64.8983 82.4755 64.7847 82.4266C64.6711 82.3777 64.5687 82.3061 64.4838 82.2161C64.3989 82.1261 64.3333 82.0197 64.2911 81.9034C64.2489 81.7872 64.231 81.6635 64.2384 81.54C64.25 81.2977 64.3536 81.069 64.5282 80.9006C64.7028 80.7322 64.9351 80.6368 65.1776 80.634C65.3013 80.6338 65.4238 80.6589 65.5374 80.7078C65.651 80.7567 65.7534 80.8283 65.8383 80.9183C65.9232 81.0083 65.9887 81.1147 66.0309 81.2309C66.0731 81.3472 66.0911 81.4709 66.0836 81.5944C66.0721 81.8367 65.9684 82.0654 65.7939 82.2338C65.6193 82.4022 65.387 82.4976 65.1444 82.5004Z" fill="#FAFAFA"/>
<path d="M54.4868 82.5004C54.3631 82.5006 54.2407 82.4755 54.1271 82.4266C54.0135 82.3777 53.9111 82.3061 53.8262 82.2161C53.7413 82.1261 53.6757 82.0197 53.6336 81.9034C53.5914 81.7872 53.5734 81.6635 53.5808 81.54C53.5924 81.2977 53.696 81.069 53.8706 80.9006C54.0452 80.7322 54.2775 80.6368 54.5201 80.634C54.6438 80.6338 54.7662 80.6589 54.8798 80.7078C54.9934 80.7567 55.0958 80.8283 55.1807 80.9183C55.2656 81.0083 55.3312 81.1147 55.3733 81.2309C55.4155 81.3472 55.4335 81.4709 55.4261 81.5944C55.4152 81.8369 55.3118 82.0661 55.1371 82.2346C54.9623 82.4032 54.7296 82.4983 54.4868 82.5004Z" fill="#FAFAFA"/>
</g>
<path d="M57.1505 85.8767H51.79C51.7123 85.8774 51.6353 85.8619 51.5638 85.8312C51.4924 85.8006 51.4281 85.7554 51.3751 85.6987C51.322 85.6419 51.2813 85.5747 51.2555 85.5014C51.2297 85.4281 51.2194 85.3502 51.2252 85.2727C51.2312 85.1144 51.2968 84.9643 51.4088 84.8523C51.5208 84.7403 51.671 84.6747 51.8292 84.6687H57.1897C57.2675 84.6681 57.3445 84.6836 57.4159 84.7142C57.4873 84.7449 57.5516 84.79 57.6047 84.8468C57.6577 84.9036 57.6985 84.9707 57.7243 85.044C57.75 85.1174 57.7603 85.1952 57.7545 85.2727C57.7485 85.431 57.6829 85.5812 57.5709 85.6932C57.4589 85.8052 57.3088 85.8707 57.1505 85.8767Z" fill="#DAE1C2"/>
<path d="M67.8081 85.8767H62.4476C62.3698 85.8774 62.2928 85.8619 62.2214 85.8312C62.15 85.8006 62.0857 85.7554 62.0326 85.6987C61.9796 85.6419 61.9388 85.5747 61.913 85.5014C61.8873 85.4281 61.877 85.3502 61.8828 85.2727C61.889 85.1119 61.9567 84.9596 62.0719 84.8472C62.1871 84.7348 62.341 84.6709 62.5019 84.6687H67.8594C67.9372 84.6681 68.0144 84.6836 68.0859 84.7142C68.1575 84.7448 68.222 84.7899 68.2753 84.8466C68.3286 84.9034 68.3696 84.9705 68.3957 85.0438C68.4219 85.1171 68.4326 85.1951 68.4272 85.2727C68.421 85.4335 68.3533 85.5859 68.2381 85.6982C68.1229 85.8106 67.969 85.8745 67.8081 85.8767Z" fill="#DAE1C2"/>
<path d="M78.4656 85.8767H73.1051C73.0273 85.8773 72.9502 85.8618 72.8786 85.8312C72.807 85.8006 72.7426 85.7555 72.6893 85.6988C72.6359 85.6421 72.5949 85.575 72.5688 85.5016C72.5427 85.4283 72.532 85.3504 72.5374 85.2727C72.5436 85.1119 72.6112 84.9596 72.7264 84.8472C72.8416 84.7348 72.9956 84.6709 73.1565 84.6687H78.52C78.5977 84.6681 78.6747 84.6836 78.7461 84.7142C78.8176 84.7449 78.8818 84.79 78.9349 84.8468C78.988 84.9036 79.0287 84.9707 79.0545 85.044C79.0803 85.1174 79.0906 85.1952 79.0847 85.2727C79.0793 85.4338 79.0119 85.5865 78.8965 85.6991C78.7811 85.8116 78.6268 85.8753 78.4656 85.8767Z" fill="#DAE1C2"/>
<path d="M89.1202 85.8767H83.7597C83.682 85.8774 83.605 85.8619 83.5336 85.8312C83.4621 85.8006 83.3979 85.7554 83.3448 85.6987C83.2917 85.6419 83.251 85.5747 83.2252 85.5014C83.1994 85.4281 83.1891 85.3502 83.195 85.2727C83.2009 85.1144 83.2665 84.9643 83.3785 84.8523C83.4905 84.7403 83.6407 84.6747 83.799 84.6687H89.1595C89.2372 84.6681 89.3142 84.6836 89.3856 84.7142C89.457 84.7449 89.5213 84.79 89.5744 84.8468C89.6275 84.9036 89.6682 84.9707 89.694 85.044C89.7198 85.1174 89.7301 85.1952 89.7242 85.2727C89.7182 85.431 89.6527 85.5812 89.5407 85.6932C89.4287 85.8052 89.2785 85.8707 89.1202 85.8767Z" fill="#DAE1C2"/>
<path d="M99.7778 85.8767H94.4173C94.3396 85.8774 94.2626 85.8619 94.1911 85.8312C94.1197 85.8006 94.0554 85.7554 94.0024 85.6987C93.9493 85.6419 93.9085 85.5747 93.8828 85.5014C93.857 85.4281 93.8467 85.3502 93.8525 85.2727C93.8587 85.1119 93.9264 84.9596 94.0416 84.8472C94.1568 84.7348 94.3107 84.6709 94.4716 84.6687H99.8321C99.9099 84.6681 99.9869 84.6836 100.058 84.7142C100.13 84.7449 100.194 84.79 100.247 84.8468C100.3 84.9036 100.341 84.9707 100.367 85.044C100.392 85.1174 100.403 85.1952 100.397 85.2727C100.391 85.4335 100.323 85.5859 100.208 85.6982C100.093 85.8106 99.9387 85.8745 99.7778 85.8767Z" fill="#DAE1C2"/>
<path d="M110.435 85.8767H105.075C104.997 85.8774 104.92 85.8619 104.849 85.8312C104.777 85.8006 104.713 85.7554 104.66 85.6987C104.607 85.6419 104.566 85.5747 104.54 85.5014C104.515 85.4281 104.504 85.3502 104.51 85.2727C104.516 85.1119 104.584 84.9596 104.699 84.8472C104.814 84.7348 104.968 84.6709 105.129 84.6687H110.487C110.565 84.6681 110.642 84.6836 110.713 84.7142C110.785 84.7448 110.849 84.7899 110.903 84.8466C110.956 84.9034 110.997 84.9705 111.023 85.0438C111.049 85.1171 111.06 85.1951 111.054 85.2727C111.048 85.4335 110.981 85.5859 110.865 85.6982C110.75 85.8106 110.596 85.8745 110.435 85.8767Z" fill="#DAE1C2"/>
<g opacity="0.3">
<path d="M57.1505 85.8767H51.79C51.7123 85.8774 51.6353 85.8619 51.5638 85.8312C51.4924 85.8006 51.4281 85.7554 51.3751 85.6987C51.322 85.6419 51.2813 85.5747 51.2555 85.5014C51.2297 85.4281 51.2194 85.3502 51.2252 85.2727C51.2312 85.1144 51.2968 84.9643 51.4088 84.8523C51.5208 84.7403 51.671 84.6747 51.8292 84.6687H57.1897C57.2675 84.6681 57.3445 84.6836 57.4159 84.7142C57.4873 84.7449 57.5516 84.79 57.6047 84.8468C57.6577 84.9036 57.6985 84.9707 57.7243 85.044C57.75 85.1174 57.7603 85.1952 57.7545 85.2727C57.7485 85.431 57.6829 85.5812 57.5709 85.6932C57.4589 85.8052 57.3088 85.8707 57.1505 85.8767Z" fill="black"/>
<path d="M67.8081 85.8767H62.4476C62.3698 85.8774 62.2928 85.8619 62.2214 85.8312C62.15 85.8006 62.0857 85.7554 62.0326 85.6987C61.9796 85.6419 61.9388 85.5747 61.913 85.5014C61.8873 85.4281 61.877 85.3502 61.8828 85.2727C61.889 85.1119 61.9567 84.9596 62.0719 84.8472C62.1871 84.7348 62.341 84.6709 62.5019 84.6687H67.8594C67.9372 84.6681 68.0144 84.6836 68.0859 84.7142C68.1575 84.7448 68.222 84.7899 68.2753 84.8466C68.3286 84.9034 68.3696 84.9705 68.3957 85.0438C68.4219 85.1171 68.4326 85.1951 68.4272 85.2727C68.421 85.4335 68.3533 85.5859 68.2381 85.6982C68.1229 85.8106 67.969 85.8745 67.8081 85.8767Z" fill="black"/>
<path d="M78.4656 85.8767H73.1051C73.0273 85.8773 72.9502 85.8618 72.8786 85.8312C72.807 85.8006 72.7426 85.7555 72.6893 85.6988C72.6359 85.6421 72.5949 85.575 72.5688 85.5016C72.5427 85.4283 72.532 85.3504 72.5374 85.2727C72.5436 85.1119 72.6112 84.9596 72.7264 84.8472C72.8416 84.7348 72.9956 84.6709 73.1565 84.6687H78.52C78.5977 84.6681 78.6747 84.6836 78.7461 84.7142C78.8176 84.7449 78.8818 84.79 78.9349 84.8468C78.988 84.9036 79.0287 84.9707 79.0545 85.044C79.0803 85.1174 79.0906 85.1952 79.0847 85.2727C79.0793 85.4338 79.0119 85.5865 78.8965 85.6991C78.7811 85.8116 78.6268 85.8753 78.4656 85.8767Z" fill="black"/>
<path d="M89.1202 85.8767H83.7597C83.682 85.8774 83.605 85.8619 83.5336 85.8312C83.4621 85.8006 83.3979 85.7554 83.3448 85.6987C83.2917 85.6419 83.251 85.5747 83.2252 85.5014C83.1994 85.4281 83.1891 85.3502 83.195 85.2727C83.2009 85.1144 83.2665 84.9643 83.3785 84.8523C83.4905 84.7403 83.6407 84.6747 83.799 84.6687H89.1595C89.2372 84.6681 89.3142 84.6836 89.3856 84.7142C89.457 84.7449 89.5213 84.79 89.5744 84.8468C89.6275 84.9036 89.6682 84.9707 89.694 85.044C89.7198 85.1174 89.7301 85.1952 89.7242 85.2727C89.7182 85.431 89.6527 85.5812 89.5407 85.6932C89.4287 85.8052 89.2785 85.8707 89.1202 85.8767Z" fill="black"/>
<path d="M99.7778 85.8767H94.4173C94.3396 85.8774 94.2626 85.8619 94.1911 85.8312C94.1197 85.8006 94.0554 85.7554 94.0024 85.6987C93.9493 85.6419 93.9085 85.5747 93.8828 85.5014C93.857 85.4281 93.8467 85.3502 93.8525 85.2727C93.8587 85.1119 93.9264 84.9596 94.0416 84.8472C94.1568 84.7348 94.3107 84.6709 94.4716 84.6687H99.8321C99.9099 84.6681 99.9869 84.6836 100.058 84.7142C100.13 84.7449 100.194 84.79 100.247 84.8468C100.3 84.9036 100.341 84.9707 100.367 85.044C100.392 85.1174 100.403 85.1952 100.397 85.2727C100.391 85.4335 100.323 85.5859 100.208 85.6982C100.093 85.8106 99.9387 85.8745 99.7778 85.8767Z" fill="black"/>
<path d="M110.435 85.8767H105.075C104.997 85.8774 104.92 85.8619 104.849 85.8312C104.777 85.8006 104.713 85.7554 104.66 85.6987C104.607 85.6419 104.566 85.5747 104.54 85.5014C104.515 85.4281 104.504 85.3502 104.51 85.2727C104.516 85.1119 104.584 84.9596 104.699 84.8472C104.814 84.7348 104.968 84.6709 105.129 84.6687H110.487C110.565 84.6681 110.642 84.6836 110.713 84.7142C110.785 84.7448 110.849 84.7899 110.903 84.8466C110.956 84.9034 110.997 84.9705 111.023 85.0438C111.049 85.1171 111.06 85.1951 111.054 85.2727C111.048 85.4335 110.981 85.5859 110.865 85.6982C110.75 85.8106 110.596 85.8745 110.435 85.8767Z" fill="black"/>
</g>
<path d="M57.4464 97.2832H50.4642C50.3111 97.2839 50.1594 97.2532 50.0185 97.1932C49.8776 97.1333 49.7504 97.0452 49.6447 96.9344C49.539 96.8236 49.457 96.6924 49.4037 96.5488C49.3504 96.4053 49.3269 96.2523 49.3347 96.0994L49.6367 89.1172C49.655 88.7998 49.793 88.5012 50.0228 88.2815C50.2525 88.0618 50.5571 87.9374 50.8749 87.9333H57.8572C58.0103 87.9327 58.162 87.9633 58.3029 88.0233C58.4438 88.0833 58.571 88.1714 58.6767 88.2822C58.7824 88.393 58.8644 88.5242 58.9177 88.6677C58.971 88.8113 58.9944 88.9642 58.9866 89.1172L58.6846 96.0994C58.6656 96.4165 58.5275 96.7147 58.2978 96.9343C58.0682 97.1538 57.7641 97.2785 57.4464 97.2832Z" fill="#DAE1C2"/>
<path d="M68.104 97.2832H61.1218C60.9685 97.2843 60.8167 97.254 60.6756 97.1941C60.5344 97.1343 60.4071 97.0462 60.3013 96.9353C60.1955 96.8244 60.1135 96.6931 60.0603 96.5493C60.0072 96.4056 59.9841 96.2524 59.9923 96.0994L60.2943 89.1172C60.3126 88.7998 60.4506 88.5012 60.6803 88.2815C60.9101 88.0618 61.2146 87.9374 61.5325 87.9333H68.5238C68.6771 87.9327 68.8288 87.9633 68.9699 88.0233C69.111 88.0832 69.2383 88.1713 69.3443 88.282C69.4502 88.3928 69.5325 88.5239 69.5862 88.6675C69.6398 88.8111 69.6637 88.9641 69.6563 89.1172L69.3392 96.0994C69.3216 96.4165 69.1843 96.7151 68.955 96.9349C68.7257 97.1546 68.4216 97.2791 68.104 97.2832Z" fill="#DAE1C2"/>
<path d="M78.7586 97.2833H71.7794C71.6261 97.2838 71.4743 97.2532 71.3333 97.1933C71.1922 97.1333 71.0648 97.0453 70.9589 96.9346C70.8529 96.8238 70.7706 96.6926 70.717 96.5491C70.6633 96.4055 70.6395 96.2525 70.6469 96.0994L70.9489 89.1172C70.9672 88.7998 71.1051 88.5012 71.3349 88.2815C71.5647 88.0618 71.8692 87.9374 72.1871 87.9333H79.1663C79.3195 87.9323 79.4714 87.9626 79.6125 88.0224C79.7536 88.0823 79.881 88.1704 79.9868 88.2812C80.0926 88.3921 80.1746 88.5235 80.2277 88.6673C80.2808 88.811 80.304 88.9641 80.2958 89.1172L79.9938 96.0994C79.9755 96.4163 79.838 96.7145 79.6088 96.9341C79.3797 97.1537 79.0759 97.2784 78.7586 97.2833Z" fill="#DAE1C2"/>
<path d="M89.4162 97.2832H82.446C82.2926 97.2843 82.1406 97.2539 81.9994 97.1942C81.8581 97.1344 81.7305 97.0463 81.6245 96.9355C81.5185 96.8246 81.4362 96.6933 81.3827 96.5495C81.3292 96.4058 81.3057 96.2526 81.3135 96.0994L81.6155 89.1172C81.6331 88.8001 81.7704 88.5015 81.9997 88.2817C82.2289 88.0619 82.5331 87.9374 82.8507 87.9333H89.8329C89.9861 87.9327 90.1377 87.9633 90.2786 88.0233C90.4195 88.0833 90.5467 88.1714 90.6524 88.2822C90.7581 88.393 90.8401 88.5242 90.8934 88.6677C90.9467 88.8113 90.9702 88.9642 90.9624 89.1172L90.6604 96.0994C90.642 96.4178 90.5032 96.7173 90.2722 96.9371C90.0411 97.157 89.7351 97.2807 89.4162 97.2832Z" fill="#DAE1C2"/>
<path d="M100.074 97.2833H93.0915C92.9384 97.2839 92.7867 97.2532 92.6458 97.1933C92.5049 97.1333 92.3777 97.0452 92.272 96.9344C92.1663 96.8236 92.0843 96.6924 92.031 96.5489C91.9777 96.4053 91.9542 96.2524 91.962 96.0994L92.264 89.1172C92.2823 88.7998 92.4203 88.5012 92.6501 88.2815C92.8798 88.0618 93.1843 87.9374 93.5022 87.9333H100.481C100.635 87.9323 100.787 87.9626 100.928 88.0224C101.069 88.0822 101.197 88.1703 101.303 88.2811C101.409 88.3919 101.491 88.5233 101.545 88.667C101.598 88.8108 101.622 88.964 101.614 89.1172L101.312 96.0994C101.293 96.4165 101.155 96.7148 100.925 96.9343C100.696 97.1538 100.391 97.2785 100.074 97.2833Z" fill="#DAE1C2"/>
<path d="M110.728 97.2832H103.749C103.596 97.2843 103.444 97.254 103.303 97.1941C103.162 97.1343 103.034 97.0462 102.929 96.9353C102.823 96.8244 102.741 96.6931 102.688 96.5493C102.635 96.4056 102.611 96.2524 102.62 96.0994L102.922 89.1172C102.94 88.7998 103.078 88.5012 103.308 88.2815C103.537 88.0618 103.842 87.9374 104.16 87.9333H111.139C111.292 87.9327 111.444 87.9633 111.585 88.0233C111.726 88.0832 111.854 88.1713 111.96 88.282C112.065 88.3928 112.148 88.5239 112.201 88.6675C112.255 88.8111 112.279 88.9641 112.272 89.1172L111.954 96.0994C111.937 96.415 111.801 96.7123 111.574 96.9318C111.346 97.1514 111.044 97.2769 110.728 97.2832Z" fill="#DAE1C2"/>
<g opacity="0.8">
<path d="M57.4464 97.2833H50.4642C50.3111 97.2839 50.1594 97.2533 50.0185 97.1933C49.8776 97.1333 49.7504 97.0452 49.6447 96.9345C49.539 96.8237 49.457 96.6925 49.4037 96.5489C49.3504 96.4053 49.3269 96.2524 49.3347 96.0995L49.6367 89.1172C49.655 88.7999 49.793 88.5012 50.0228 88.2815C50.2525 88.0619 50.5571 87.9374 50.8749 87.9334H57.8572C58.0103 87.9328 58.162 87.9634 58.3029 88.0234C58.4438 88.0834 58.571 88.1714 58.6767 88.2822C58.7824 88.393 58.8644 88.5242 58.9177 88.6678C58.971 88.8114 58.9944 88.9643 58.9866 89.1172L58.6846 96.0995C58.6656 96.4166 58.5275 96.7148 58.2978 96.9344C58.0682 97.1539 57.7641 97.2785 57.4464 97.2833Z" fill="#FAFAFA"/>
<path d="M68.104 97.2833H61.1218C60.9685 97.2843 60.8167 97.254 60.6756 97.1942C60.5344 97.1343 60.4071 97.0463 60.3013 96.9354C60.1955 96.8245 60.1135 96.6931 60.0603 96.5494C60.0072 96.4056 59.9841 96.2525 59.9923 96.0994L60.2943 89.1172C60.3126 88.7998 60.4506 88.5012 60.6803 88.2815C60.9101 88.0618 61.2146 87.9374 61.5325 87.9334H68.5238C68.6771 87.9328 68.8288 87.9634 68.9699 88.0233C69.111 88.0833 69.2383 88.1713 69.3443 88.2821C69.4502 88.3928 69.5325 88.524 69.5862 88.6675C69.6398 88.8111 69.6637 88.9641 69.6563 89.1172L69.3392 96.0994C69.3216 96.4165 69.1843 96.7151 68.955 96.9349C68.7257 97.1547 68.4216 97.2792 68.104 97.2833Z" fill="#FAFAFA"/>
<path d="M78.7586 97.2833H71.7794C71.6261 97.2838 71.4743 97.2532 71.3333 97.1933C71.1922 97.1333 71.0648 97.0453 70.9589 96.9346C70.8529 96.8238 70.7706 96.6926 70.717 96.5491C70.6633 96.4055 70.6395 96.2525 70.6469 96.0994L70.9489 89.1172C70.9672 88.7998 71.1051 88.5012 71.3349 88.2815C71.5647 88.0618 71.8692 87.9374 72.1871 87.9333H79.1663C79.3195 87.9323 79.4714 87.9626 79.6125 88.0224C79.7536 88.0823 79.881 88.1704 79.9868 88.2812C80.0926 88.3921 80.1746 88.5235 80.2277 88.6673C80.2808 88.811 80.304 88.9641 80.2958 89.1172L79.9938 96.0994C79.9755 96.4163 79.838 96.7145 79.6088 96.9341C79.3797 97.1537 79.0759 97.2784 78.7586 97.2833Z" fill="#FAFAFA"/>
<path d="M89.4162 97.2833H82.446C82.2926 97.2843 82.1406 97.254 81.9994 97.1942C81.8581 97.1344 81.7305 97.0464 81.6245 96.9355C81.5185 96.8247 81.4362 96.6933 81.3827 96.5496C81.3292 96.4058 81.3057 96.2526 81.3135 96.0994L81.6155 89.1172C81.6331 88.8001 81.7704 88.5015 81.9997 88.2817C82.2289 88.062 82.5331 87.9375 82.8507 87.9334H89.8329C89.9861 87.9327 90.1377 87.9634 90.2786 88.0233C90.4195 88.0833 90.5467 88.1714 90.6524 88.2822C90.7581 88.393 90.8401 88.5242 90.8934 88.6678C90.9467 88.8113 90.9702 88.9643 90.9624 89.1172L90.6604 96.0994C90.642 96.4178 90.5032 96.7173 90.2722 96.9372C90.0411 97.157 89.7351 97.2807 89.4162 97.2833Z" fill="#FAFAFA"/>
<path d="M100.074 97.2833H93.0915C92.9384 97.2839 92.7867 97.2532 92.6458 97.1933C92.5049 97.1333 92.3777 97.0452 92.272 96.9344C92.1663 96.8236 92.0843 96.6924 92.031 96.5489C91.9777 96.4053 91.9542 96.2524 91.962 96.0994L92.264 89.1172C92.2823 88.7998 92.4203 88.5012 92.6501 88.2815C92.8798 88.0618 93.1843 87.9374 93.5022 87.9333H100.481C100.635 87.9323 100.787 87.9626 100.928 88.0224C101.069 88.0822 101.197 88.1703 101.303 88.2811C101.409 88.3919 101.491 88.5233 101.545 88.667C101.598 88.8108 101.622 88.964 101.614 89.1172L101.312 96.0994C101.293 96.4165 101.155 96.7148 100.925 96.9343C100.696 97.1538 100.391 97.2785 100.074 97.2833Z" fill="#FAFAFA"/>
<path d="M110.728 97.2833H103.749C103.596 97.2843 103.444 97.254 103.303 97.1942C103.162 97.1343 103.034 97.0463 102.929 96.9354C102.823 96.8245 102.741 96.6931 102.688 96.5494C102.635 96.4056 102.611 96.2525 102.62 96.0994L102.922 89.1172C102.94 88.7998 103.078 88.5012 103.308 88.2815C103.537 88.0618 103.842 87.9374 104.16 87.9334H111.139C111.292 87.9328 111.444 87.9634 111.585 88.0233C111.726 88.0833 111.854 88.1713 111.96 88.2821C112.065 88.3928 112.148 88.524 112.201 88.6675C112.255 88.8111 112.279 88.9641 112.272 89.1172L111.954 96.0994C111.937 96.415 111.801 96.7123 111.574 96.9319C111.346 97.1514 111.044 97.2769 110.728 97.2833Z" fill="#FAFAFA"/>
</g>
<path d="M56.9572 108.116H49.975C49.8218 108.117 49.6702 108.086 49.5293 108.026C49.3884 107.966 49.2612 107.878 49.1555 107.767C49.0497 107.656 48.9677 107.525 48.9144 107.382C48.8611 107.238 48.8377 107.085 48.8455 106.932L49.1475 99.9499C49.1665 99.6328 49.3047 99.3346 49.5343 99.115C49.7639 98.8955 50.068 98.7708 50.3857 98.7661H57.38C57.5331 98.7655 57.6848 98.7961 57.8257 98.856C57.9666 98.916 58.0938 99.0041 58.1995 99.1149C58.3052 99.2257 58.3872 99.3569 58.4405 99.5005C58.4938 99.644 58.5173 99.797 58.5095 99.9499L58.2075 106.932C58.1883 107.251 58.0485 107.551 57.8163 107.771C57.5841 107.991 57.277 108.114 56.9572 108.116Z" fill="#DAE1C2"/>
<path d="M67.6148 108.116H60.6325C60.4794 108.117 60.3277 108.086 60.1868 108.026C60.0459 107.966 59.9187 107.878 59.813 107.767C59.7073 107.656 59.6253 107.525 59.572 107.382C59.5187 107.238 59.4953 107.085 59.5031 106.932L59.8051 99.9499C59.8234 99.6325 59.9613 99.3339 60.1911 99.1142C60.4209 98.8945 60.7254 98.7701 61.0433 98.7661H68.0225C68.1771 98.765 68.3302 98.7956 68.4725 98.8561C68.6148 98.9166 68.7431 99.0057 68.8496 99.1178C68.956 99.2299 69.0383 99.3627 69.0914 99.5079C69.1444 99.6531 69.1671 99.8077 69.158 99.962L68.856 106.932C68.8384 107.25 68.7002 107.55 68.4696 107.77C68.2391 107.99 67.9334 108.113 67.6148 108.116Z" fill="#DAE1C2"/>
<path d="M78.2693 108.116H71.2901C71.1369 108.117 70.985 108.087 70.8439 108.027C70.7028 107.967 70.5754 107.879 70.4696 107.768C70.3638 107.657 70.2818 107.526 70.2287 107.382C70.1756 107.238 70.1524 107.085 70.1606 106.932L70.4626 99.9499C70.481 99.6325 70.6189 99.3339 70.8487 99.1142C71.0785 98.8945 71.383 98.7701 71.7008 98.7661H78.6801C78.8333 98.765 78.9852 98.7954 79.1263 98.8552C79.2674 98.915 79.3948 99.0031 79.5006 99.114C79.6064 99.2249 79.6883 99.3562 79.7415 99.5C79.7946 99.6438 79.8178 99.7969 79.8095 99.9499L79.5075 106.932C79.4892 107.25 79.3513 107.548 79.1215 107.768C78.8917 107.988 78.5872 108.112 78.2693 108.116Z" fill="#DAE1C2"/>
<path d="M88.9269 108.116H81.9477C81.7944 108.117 81.6427 108.086 81.5016 108.026C81.3605 107.966 81.2332 107.878 81.1272 107.767C81.0213 107.657 80.939 107.525 80.8853 107.382C80.8317 107.238 80.8078 107.085 80.8152 106.932L81.1172 99.9499C81.1348 99.6328 81.2721 99.3342 81.5014 99.1144C81.7307 98.8947 82.0348 98.7702 82.3524 98.7661H89.3346C89.4901 98.7633 89.6445 98.7927 89.788 98.8525C89.9316 98.9123 90.0612 99.0011 90.1687 99.1135C90.2762 99.2258 90.3593 99.3592 90.4128 99.5052C90.4662 99.6513 90.4888 99.8068 90.4792 99.962L90.1772 106.944C90.1558 107.262 90.0149 107.559 89.7828 107.776C89.5508 107.994 89.2449 108.115 88.9269 108.116Z" fill="#DAE1C2"/>
<path d="M99.5845 108.116H92.6023C92.4491 108.117 92.2975 108.086 92.1566 108.026C92.0157 107.966 91.8885 107.878 91.7827 107.767C91.677 107.656 91.595 107.525 91.5417 107.382C91.4884 107.238 91.465 107.085 91.4728 106.932L91.7748 99.9499C91.7909 99.6301 91.9282 99.3285 92.1587 99.1063C92.3893 98.8842 92.6958 98.7582 93.016 98.754H99.9982C100.151 98.7534 100.303 98.784 100.444 98.844C100.585 98.904 100.712 98.992 100.818 99.1028C100.923 99.2136 101.005 99.3448 101.059 99.4884C101.112 99.632 101.136 99.7849 101.128 99.9378L100.826 106.92C100.81 107.24 100.672 107.541 100.442 107.764C100.211 107.986 99.9046 108.112 99.5845 108.116Z" fill="#DAE1C2"/>
<path d="M110.23 108.116H103.26C103.107 108.117 102.955 108.087 102.814 108.027C102.673 107.967 102.545 107.879 102.439 107.768C102.334 107.657 102.252 107.526 102.198 107.382C102.145 107.238 102.122 107.085 102.13 106.932L102.432 99.9499C102.451 99.6325 102.589 99.3339 102.818 99.1142C103.048 98.8945 103.353 98.7701 103.671 98.7661H110.65C110.803 98.7655 110.955 98.7961 111.096 98.856C111.237 98.916 111.364 99.004 111.47 99.1148C111.576 99.2255 111.659 99.3567 111.712 99.5002C111.766 99.6438 111.79 99.7968 111.782 99.9499L111.465 106.932C111.448 107.249 111.31 107.548 111.081 107.768C110.852 107.987 110.548 108.112 110.23 108.116Z" fill="#DAE1C2"/>
<g opacity="0.8">
<path d="M56.9572 108.116H49.975C49.8218 108.117 49.6702 108.086 49.5293 108.026C49.3884 107.966 49.2612 107.878 49.1555 107.767C49.0497 107.656 48.9677 107.525 48.9144 107.382C48.8611 107.238 48.8377 107.085 48.8455 106.932L49.1475 99.9499C49.1665 99.6328 49.3047 99.3346 49.5343 99.115C49.7639 98.8955 50.068 98.7708 50.3857 98.7661H57.38C57.5331 98.7655 57.6848 98.7961 57.8257 98.856C57.9666 98.916 58.0938 99.0041 58.1995 99.1149C58.3052 99.2257 58.3872 99.3569 58.4405 99.5005C58.4938 99.644 58.5173 99.797 58.5095 99.9499L58.2075 106.932C58.1883 107.251 58.0485 107.551 57.8163 107.771C57.5841 107.991 57.277 108.114 56.9572 108.116Z" fill="#FAFAFA"/>
<path d="M67.6148 108.116H60.6325C60.4794 108.117 60.3277 108.086 60.1868 108.026C60.0459 107.966 59.9187 107.878 59.813 107.767C59.7073 107.656 59.6253 107.525 59.572 107.382C59.5187 107.238 59.4953 107.085 59.5031 106.932L59.8051 99.9499C59.8234 99.6325 59.9613 99.3339 60.1911 99.1142C60.4209 98.8945 60.7254 98.7701 61.0433 98.7661H68.0225C68.1771 98.765 68.3302 98.7956 68.4725 98.8561C68.6148 98.9166 68.7431 99.0057 68.8496 99.1178C68.956 99.2299 69.0383 99.3627 69.0914 99.5079C69.1444 99.6531 69.1671 99.8076 69.158 99.962L68.856 106.932C68.8384 107.25 68.7002 107.55 68.4696 107.77C68.2391 107.99 67.9334 108.113 67.6148 108.116Z" fill="#FAFAFA"/>
<path d="M78.2693 108.116H71.2901C71.1369 108.117 70.985 108.087 70.8439 108.027C70.7028 107.967 70.5754 107.879 70.4696 107.768C70.3638 107.657 70.2818 107.526 70.2287 107.382C70.1756 107.238 70.1524 107.085 70.1606 106.932L70.4626 99.9499C70.481 99.6325 70.6189 99.3339 70.8487 99.1142C71.0785 98.8945 71.383 98.7701 71.7008 98.766H78.6801C78.8333 98.765 78.9852 98.7953 79.1263 98.8552C79.2674 98.915 79.3948 99.0031 79.5006 99.1139C79.6064 99.2248 79.6883 99.3562 79.7415 99.5C79.7946 99.6437 79.8178 99.7968 79.8095 99.9499L79.5075 106.932C79.4892 107.249 79.3513 107.548 79.1215 107.768C78.8917 107.987 78.5872 108.112 78.2693 108.116Z" fill="#FAFAFA"/>
<path d="M88.9269 108.116H81.9477C81.7944 108.117 81.6427 108.086 81.5016 108.026C81.3605 107.966 81.2332 107.878 81.1272 107.767C81.0213 107.657 80.939 107.525 80.8853 107.382C80.8317 107.238 80.8078 107.085 80.8152 106.932L81.1172 99.9499C81.1348 99.6328 81.2721 99.3342 81.5014 99.1144C81.7307 98.8947 82.0348 98.7702 82.3524 98.7661H89.3346C89.4901 98.7633 89.6445 98.7927 89.788 98.8525C89.9316 98.9123 90.0612 99.0011 90.1687 99.1135C90.2762 99.2258 90.3593 99.3592 90.4128 99.5052C90.4662 99.6512 90.4888 99.8068 90.4792 99.962L90.1772 106.944C90.1558 107.261 90.0149 107.559 89.7828 107.776C89.5508 107.994 89.2449 108.115 88.9269 108.116Z" fill="#FAFAFA"/>
<path d="M99.5845 108.116H92.6023C92.4491 108.117 92.2975 108.086 92.1566 108.026C92.0157 107.966 91.8885 107.878 91.7827 107.767C91.677 107.656 91.595 107.525 91.5417 107.382C91.4884 107.238 91.465 107.085 91.4728 106.932L91.7748 99.9499C91.7909 99.6301 91.9282 99.3285 92.1587 99.1063C92.3893 98.8842 92.6958 98.7582 93.016 98.754H99.9982C100.151 98.7534 100.303 98.784 100.444 98.844C100.585 98.904 100.712 98.992 100.818 99.1028C100.923 99.2136 101.005 99.3448 101.059 99.4884C101.112 99.632 101.136 99.7849 101.128 99.9378L100.826 106.92C100.81 107.24 100.672 107.541 100.442 107.764C100.211 107.986 99.9046 108.112 99.5845 108.116Z" fill="#FAFAFA"/>
<path d="M110.23 108.116H103.26C103.107 108.117 102.955 108.087 102.814 108.027C102.673 107.967 102.545 107.879 102.439 107.768C102.334 107.657 102.252 107.526 102.198 107.382C102.145 107.238 102.122 107.085 102.13 106.932L102.432 99.9499C102.451 99.6325 102.589 99.3339 102.818 99.1142C103.048 98.8945 103.353 98.7701 103.671 98.7661H110.65C110.803 98.7655 110.955 98.7961 111.096 98.856C111.237 98.916 111.364 99.004 111.47 99.1148C111.576 99.2255 111.659 99.3567 111.712 99.5002C111.766 99.6438 111.79 99.7968 111.782 99.9499L111.465 106.932C111.448 107.249 111.31 107.548 111.081 107.768C110.852 107.987 110.548 108.112 110.23 108.116Z" fill="#FAFAFA"/>
</g>
<path d="M56.474 118.946H49.4857C49.3325 118.947 49.1806 118.916 49.0395 118.857C48.8984 118.797 48.771 118.709 48.6652 118.598C48.5594 118.487 48.4774 118.356 48.4243 118.212C48.3712 118.068 48.348 117.915 48.3562 117.762L48.6582 110.783C48.6766 110.465 48.8145 110.167 49.0443 109.947C49.2741 109.727 49.5786 109.603 49.8964 109.599H56.8787C57.0319 109.598 57.1838 109.628 57.3249 109.688C57.466 109.748 57.5934 109.836 57.6992 109.947C57.805 110.058 57.887 110.189 57.9401 110.333C57.9932 110.476 58.0164 110.63 58.0082 110.783L57.7062 117.762C57.6886 118.078 57.5517 118.377 57.3231 118.596C57.0945 118.816 56.791 118.941 56.474 118.946Z" fill="#DAE1C2"/>
<path d="M67.1255 118.946H60.1433C59.99 118.947 59.8382 118.916 59.6971 118.857C59.556 118.797 59.4286 118.709 59.3228 118.598C59.217 118.487 59.135 118.356 59.0819 118.212C59.0287 118.068 59.0056 117.915 59.0138 117.762L59.3158 110.783C59.3334 110.465 59.4712 110.166 59.7011 109.946C59.931 109.726 60.2359 109.602 60.554 109.599H67.5332C67.6868 109.597 67.8389 109.627 67.9804 109.687C68.1219 109.747 68.2496 109.835 68.3557 109.946C68.4619 110.057 68.5441 110.188 68.5974 110.332C68.6508 110.476 68.674 110.629 68.6657 110.783L68.3637 117.762C68.3468 118.08 68.2093 118.379 67.9792 118.599C67.7492 118.819 67.4438 118.943 67.1255 118.946Z" fill="#DAE1C2"/>
<path d="M77.7801 118.946H70.8009C70.6476 118.947 70.4958 118.916 70.3547 118.857C70.2135 118.797 70.0862 118.709 69.9804 118.598C69.8746 118.487 69.7926 118.356 69.7395 118.212C69.6863 118.068 69.6632 117.915 69.6714 117.762L69.9734 110.783C69.991 110.465 70.1287 110.166 70.3587 109.946C70.5886 109.726 70.8935 109.602 71.2116 109.599H78.218C78.3714 109.598 78.5234 109.628 78.6646 109.688C78.8059 109.748 78.9335 109.836 79.0395 109.947C79.1455 110.057 79.2278 110.189 79.2813 110.333C79.3348 110.476 79.3583 110.629 79.3505 110.783L79.0334 117.762C79.0156 118.082 78.8758 118.383 78.6426 118.604C78.4095 118.824 78.1008 118.946 77.7801 118.946Z" fill="#DAE1C2"/>
<path d="M88.4377 118.946H81.4585C81.3051 118.947 81.1531 118.916 81.0118 118.857C80.8706 118.797 80.743 118.709 80.637 118.598C80.5309 118.487 80.4487 118.356 80.3952 118.212C80.3417 118.068 80.3181 117.915 80.326 117.762L80.628 110.783C80.6448 110.465 80.7819 110.166 81.0114 109.946C81.2408 109.726 81.5454 109.602 81.8631 109.599H88.8454C88.9986 109.598 89.1505 109.628 89.2916 109.688C89.4327 109.748 89.5601 109.836 89.6659 109.947C89.7717 110.058 89.8537 110.189 89.9068 110.333C89.9599 110.476 89.9831 110.63 89.9749 110.783L89.6729 117.762C89.6553 118.079 89.518 118.378 89.2887 118.597C89.0594 118.817 88.7552 118.942 88.4377 118.946Z" fill="#DAE1C2"/>
<path d="M99.0953 118.946H92.11C91.9567 118.947 91.8049 118.916 91.6638 118.857C91.5227 118.797 91.3953 118.709 91.2895 118.598C91.1837 118.487 91.1017 118.356 91.0486 118.212C90.9954 118.068 90.9723 117.915 90.9805 117.762L91.2825 110.783C91.3008 110.465 91.4388 110.167 91.6686 109.947C91.8983 109.727 92.2028 109.603 92.5207 109.599H99.503C99.6562 109.598 99.8081 109.628 99.9492 109.688C100.09 109.748 100.218 109.836 100.323 109.947C100.429 110.058 100.511 110.189 100.564 110.333C100.618 110.476 100.641 110.63 100.632 110.783L100.33 117.762C100.312 118.079 100.175 118.377 99.9455 118.597C99.7164 118.816 99.4126 118.941 99.0953 118.946Z" fill="#DAE1C2"/>
<path d="M109.753 118.946H102.771C102.617 118.947 102.465 118.916 102.324 118.857C102.183 118.797 102.056 118.709 101.95 118.598C101.844 118.487 101.762 118.356 101.709 118.212C101.656 118.068 101.633 117.915 101.641 117.762L101.943 110.783C101.961 110.465 102.098 110.166 102.328 109.946C102.558 109.726 102.863 109.602 103.181 109.599H110.161C110.314 109.598 110.466 109.628 110.607 109.688C110.748 109.748 110.876 109.836 110.982 109.947C111.088 110.057 111.17 110.189 111.224 110.333C111.277 110.476 111.301 110.629 111.293 110.783L110.976 117.762C110.959 118.077 110.824 118.374 110.597 118.594C110.37 118.814 110.069 118.939 109.753 118.946Z" fill="#DAE1C2"/>
<g opacity="0.8">
<path d="M56.474 118.946H49.4857C49.3325 118.947 49.1806 118.916 49.0395 118.857C48.8984 118.797 48.771 118.709 48.6652 118.598C48.5594 118.487 48.4774 118.356 48.4243 118.212C48.3712 118.068 48.348 117.915 48.3562 117.762L48.6582 110.783C48.6766 110.465 48.8145 110.167 49.0443 109.947C49.2741 109.727 49.5786 109.603 49.8964 109.599H56.8787C57.0319 109.598 57.1838 109.628 57.3249 109.688C57.466 109.748 57.5934 109.836 57.6992 109.947C57.805 110.058 57.887 110.189 57.9401 110.333C57.9932 110.477 58.0164 110.63 58.0082 110.783L57.7062 117.762C57.6886 118.079 57.5517 118.377 57.3231 118.596C57.0945 118.816 56.791 118.941 56.474 118.946Z" fill="#FAFAFA"/>
<path d="M67.1255 118.946H60.1433C59.99 118.947 59.8382 118.916 59.6971 118.857C59.556 118.797 59.4286 118.709 59.3228 118.598C59.217 118.487 59.135 118.356 59.0819 118.212C59.0287 118.068 59.0056 117.915 59.0138 117.762L59.3158 110.783C59.3334 110.465 59.4712 110.166 59.7011 109.946C59.931 109.726 60.2359 109.602 60.554 109.599H67.5332C67.6868 109.597 67.8389 109.627 67.9804 109.687C68.1219 109.747 68.2496 109.835 68.3557 109.946C68.4619 110.057 68.5441 110.188 68.5974 110.332C68.6508 110.476 68.674 110.629 68.6657 110.783L68.3637 117.762C68.3468 118.08 68.2093 118.379 67.9792 118.599C67.7492 118.819 67.4439 118.943 67.1255 118.946Z" fill="#FAFAFA"/>
<path d="M77.7801 118.946H70.8009C70.6476 118.947 70.4958 118.916 70.3547 118.857C70.2135 118.797 70.0862 118.709 69.9804 118.598C69.8746 118.487 69.7926 118.356 69.7395 118.212C69.6863 118.068 69.6632 117.915 69.6714 117.762L69.9734 110.783C69.991 110.465 70.1287 110.166 70.3587 109.946C70.5886 109.726 70.8935 109.602 71.2116 109.599H78.218C78.3714 109.598 78.5234 109.628 78.6646 109.688C78.8059 109.748 78.9335 109.836 79.0395 109.947C79.1455 110.057 79.2278 110.189 79.2813 110.333C79.3348 110.476 79.3583 110.629 79.3505 110.783L79.0334 117.762C79.0156 118.082 78.8758 118.383 78.6426 118.604C78.4095 118.824 78.1008 118.946 77.7801 118.946Z" fill="#FAFAFA"/>
<path d="M88.4377 118.946H81.4585C81.3051 118.947 81.1531 118.916 81.0118 118.857C80.8706 118.797 80.743 118.709 80.637 118.598C80.5309 118.487 80.4487 118.356 80.3952 118.212C80.3417 118.068 80.3181 117.915 80.326 117.762L80.628 110.783C80.6448 110.465 80.7819 110.166 81.0114 109.946C81.2408 109.726 81.5454 109.602 81.8631 109.599H88.8454C88.9986 109.598 89.1505 109.628 89.2916 109.688C89.4327 109.748 89.5601 109.836 89.6659 109.947C89.7717 110.058 89.8537 110.189 89.9068 110.333C89.9599 110.476 89.9831 110.63 89.9749 110.783L89.6729 117.762C89.6553 118.079 89.518 118.378 89.2887 118.597C89.0594 118.817 88.7552 118.942 88.4377 118.946Z" fill="#FAFAFA"/>
<path d="M99.0953 118.946H92.11C91.9567 118.947 91.8049 118.916 91.6638 118.857C91.5227 118.797 91.3953 118.709 91.2895 118.598C91.1837 118.487 91.1017 118.356 91.0486 118.212C90.9954 118.068 90.9723 117.915 90.9805 117.762L91.2825 110.783C91.3008 110.465 91.4388 110.167 91.6686 109.947C91.8983 109.727 92.2029 109.603 92.5207 109.599H99.503C99.6562 109.598 99.8081 109.628 99.9492 109.688C100.09 109.748 100.218 109.836 100.323 109.947C100.429 110.058 100.511 110.189 100.564 110.333C100.618 110.476 100.641 110.63 100.632 110.783L100.33 117.762C100.312 118.079 100.175 118.377 99.9455 118.597C99.7164 118.816 99.4126 118.941 99.0953 118.946Z" fill="#FAFAFA"/>
<path d="M109.753 118.946H102.771C102.617 118.947 102.465 118.916 102.324 118.857C102.183 118.797 102.056 118.709 101.95 118.598C101.844 118.487 101.762 118.356 101.709 118.212C101.656 118.068 101.633 117.915 101.641 117.762L101.943 110.783C101.961 110.465 102.098 110.166 102.328 109.946C102.558 109.726 102.863 109.602 103.181 109.599H110.161C110.314 109.598 110.466 109.628 110.607 109.688C110.748 109.748 110.876 109.836 110.982 109.947C111.088 110.057 111.17 110.189 111.224 110.333C111.277 110.476 111.301 110.629 111.293 110.783L110.976 117.762C110.959 118.077 110.824 118.374 110.597 118.594C110.37 118.814 110.069 118.939 109.753 118.946Z" fill="#FAFAFA"/>
</g>
<path d="M54.4959 82.2769C51.9229 82.2769 49.9055 79.2841 49.9055 75.4638C49.9055 71.6435 51.9229 68.6537 54.4959 68.6537C57.0689 68.6537 59.0893 71.6465 59.0893 75.4638C59.0776 75.6428 58.9982 75.8107 58.8672 75.9333C58.7363 76.056 58.5636 76.1243 58.3841 76.1243C58.2047 76.1243 58.032 76.056 57.9011 75.9333C57.7701 75.8107 57.6907 75.6428 57.679 75.4638C57.679 72.5374 56.2233 70.061 54.4959 70.061C52.7685 70.061 51.3128 72.5374 51.3128 75.4638C51.3128 78.3901 52.7715 80.8665 54.4959 80.8665C54.5924 80.8602 54.6891 80.8738 54.7802 80.9063C54.8712 80.9389 54.9546 80.9898 55.0252 81.0559C55.0957 81.122 55.152 81.2019 55.1905 81.2906C55.2289 81.3794 55.2488 81.475 55.2488 81.5717C55.2488 81.6684 55.2289 81.7641 55.1905 81.8528C55.152 81.9415 55.0957 82.0214 55.0252 82.0875C54.9546 82.1536 54.8712 82.2045 54.7802 82.2371C54.6891 82.2696 54.5924 82.2832 54.4959 82.2769Z" fill="#DAE1C2"/>
<path d="M65.1535 82.2769C62.5804 82.2769 60.5631 79.2841 60.5631 75.4638C60.5631 71.6435 62.5804 68.6537 65.1535 68.6537C67.7265 68.6537 69.762 71.6465 69.762 75.4638C69.7503 75.6428 69.6709 75.8107 69.5399 75.9333C69.409 76.056 69.2363 76.1243 69.0568 76.1243C68.8774 76.1243 68.7047 76.056 68.5737 75.9333C68.4428 75.8107 68.3634 75.6428 68.3517 75.4638C68.3517 72.5374 66.896 70.061 65.1686 70.061C63.4411 70.061 61.9855 72.5374 61.9855 75.4638C61.9855 78.3901 63.4442 80.8665 65.1686 80.8665C65.3476 80.8783 65.5155 80.9577 65.6382 81.0886C65.7608 81.2196 65.8291 81.3923 65.8291 81.5717C65.8291 81.7511 65.7608 81.9238 65.6382 82.0548C65.5155 82.1858 65.3476 82.2652 65.1686 82.2769H65.1535Z" fill="#DAE1C2"/>
<path d="M75.802 82.2769C73.2259 82.2769 71.2086 79.2841 71.2086 75.4638C71.2086 71.6435 73.2259 68.6537 75.802 68.6537C78.3781 68.6537 80.3924 71.6465 80.3924 75.4638C80.3924 75.6504 80.3183 75.8294 80.1863 75.9613C80.0543 76.0933 79.8754 76.1674 79.6887 76.1674C79.5021 76.1674 79.3231 76.0933 79.1912 75.9613C79.0592 75.8294 78.9851 75.6504 78.9851 75.4638C78.9851 72.5374 77.5264 70.061 75.802 70.061C74.0776 70.061 72.6189 72.5374 72.6189 75.4638C72.6189 78.3901 74.0776 80.8665 75.802 80.8665C75.981 80.8783 76.1489 80.9577 76.2716 81.0886C76.3943 81.2196 76.4625 81.3923 76.4625 81.5717C76.4625 81.7511 76.3943 81.9238 76.2716 82.0548C76.1489 82.1858 75.981 82.2652 75.802 82.2769Z" fill="#DAE1C2"/>
<path d="M86.4686 82.2769C83.8926 82.2769 81.8752 79.2841 81.8752 75.4638C81.8752 71.6435 83.8926 68.6537 86.4686 68.6537C89.0447 68.6537 91.059 71.6465 91.059 75.4638C91.059 75.6504 90.9849 75.8294 90.8529 75.9613C90.721 76.0933 90.542 76.1674 90.3554 76.1674C90.1688 76.1674 89.9898 76.0933 89.8578 75.9613C89.7259 75.8294 89.6517 75.6504 89.6517 75.4638C89.6517 72.5374 88.1931 70.061 86.4686 70.061C84.7442 70.061 83.2856 72.5374 83.2856 75.4638C83.2856 78.3901 84.7412 80.8665 86.4686 80.8665C86.6477 80.8783 86.8156 80.9577 86.9382 81.0886C87.0609 81.2196 87.1291 81.3923 87.1291 81.5717C87.1291 81.7511 87.0609 81.9238 86.9382 82.0548C86.8156 82.1858 86.6477 82.2652 86.4686 82.2769Z" fill="#DAE1C2"/>
<path d="M97.1232 82.2769C94.5502 82.2769 92.5328 79.2841 92.5328 75.4638C92.5328 71.6435 94.5502 68.6537 97.1232 68.6537C99.6962 68.6537 101.717 71.6465 101.717 75.4638C101.705 75.6428 101.626 75.8107 101.495 75.9333C101.364 76.056 101.191 76.1243 101.011 76.1243C100.832 76.1243 100.659 76.056 100.528 75.9333C100.397 75.8107 100.318 75.6428 100.306 75.4638C100.306 72.5374 98.8506 70.061 97.1232 70.061C95.3958 70.061 93.9401 72.5374 93.9401 75.4638C93.9401 78.3901 95.3988 80.8665 97.1232 80.8665C97.2197 80.8602 97.3164 80.8738 97.4075 80.9063C97.4985 80.9389 97.5819 80.9898 97.6525 81.0559C97.723 81.122 97.7793 81.2019 97.8178 81.2906C97.8562 81.3794 97.8761 81.475 97.8761 81.5717C97.8761 81.6684 97.8562 81.7641 97.8178 81.8528C97.7793 81.9415 97.723 82.0214 97.6525 82.0875C97.5819 82.1536 97.4985 82.2045 97.4075 82.2371C97.3164 82.2696 97.2197 82.2832 97.1232 82.2769Z" fill="#DAE1C2"/>
<path d="M107.781 82.2769C105.208 82.2769 103.19 79.2841 103.19 75.4638C103.19 71.6435 105.208 68.6537 107.781 68.6537C110.354 68.6537 112.374 71.6465 112.374 75.4638C112.362 75.6428 112.283 75.8107 112.152 75.9333C112.021 76.056 111.848 76.1243 111.669 76.1243C111.49 76.1243 111.317 76.056 111.186 75.9333C111.055 75.8107 110.976 75.6428 110.964 75.4638C110.964 72.5374 109.505 70.061 107.781 70.061C106.056 70.061 104.598 72.5374 104.598 75.4638C104.598 78.3901 106.056 80.8665 107.781 80.8665C107.96 80.8783 108.128 80.9577 108.25 81.0886C108.373 81.2196 108.441 81.3923 108.441 81.5717C108.441 81.7511 108.373 81.9238 108.25 82.0548C108.128 82.1858 107.96 82.2652 107.781 82.2769Z" fill="#DAE1C2"/>
<g opacity="0.3">
<path d="M54.4959 82.2769C51.9229 82.2769 49.9055 79.2841 49.9055 75.4638C49.9055 71.6435 51.9229 68.6537 54.4959 68.6537C57.0689 68.6537 59.0893 71.6465 59.0893 75.4638C59.0776 75.6428 58.9982 75.8107 58.8672 75.9333C58.7363 76.056 58.5636 76.1243 58.3841 76.1243C58.2047 76.1243 58.032 76.056 57.9011 75.9333C57.7701 75.8107 57.6907 75.6428 57.679 75.4638C57.679 72.5374 56.2233 70.061 54.4959 70.061C52.7685 70.061 51.3128 72.5374 51.3128 75.4638C51.3128 78.3901 52.7715 80.8665 54.4959 80.8665C54.5924 80.8602 54.6891 80.8738 54.7802 80.9063C54.8712 80.9389 54.9546 80.9898 55.0252 81.0559C55.0957 81.122 55.152 81.2019 55.1905 81.2906C55.2289 81.3794 55.2488 81.475 55.2488 81.5717C55.2488 81.6684 55.2289 81.7641 55.1905 81.8528C55.152 81.9415 55.0957 82.0214 55.0252 82.0875C54.9546 82.1536 54.8712 82.2045 54.7802 82.2371C54.6891 82.2696 54.5924 82.2832 54.4959 82.2769Z" fill="black"/>
<path d="M65.1535 82.2769C62.5804 82.2769 60.5631 79.2841 60.5631 75.4638C60.5631 71.6435 62.5804 68.6537 65.1535 68.6537C67.7265 68.6537 69.762 71.6465 69.762 75.4638C69.7503 75.6428 69.6709 75.8107 69.5399 75.9333C69.409 76.056 69.2363 76.1243 69.0568 76.1243C68.8774 76.1243 68.7047 76.056 68.5737 75.9333C68.4428 75.8107 68.3634 75.6428 68.3517 75.4638C68.3517 72.5374 66.896 70.061 65.1686 70.061C63.4411 70.061 61.9855 72.5374 61.9855 75.4638C61.9855 78.3901 63.4442 80.8665 65.1686 80.8665C65.3476 80.8783 65.5155 80.9577 65.6382 81.0886C65.7608 81.2196 65.8291 81.3923 65.8291 81.5717C65.8291 81.7511 65.7608 81.9238 65.6382 82.0548C65.5155 82.1858 65.3476 82.2652 65.1686 82.2769H65.1535Z" fill="black"/>
<path d="M75.802 82.2769C73.2259 82.2769 71.2086 79.2841 71.2086 75.4638C71.2086 71.6435 73.2259 68.6537 75.802 68.6537C78.3781 68.6537 80.3924 71.6465 80.3924 75.4638C80.3924 75.6504 80.3183 75.8294 80.1863 75.9613C80.0543 76.0933 79.8754 76.1674 79.6887 76.1674C79.5021 76.1674 79.3231 76.0933 79.1912 75.9613C79.0592 75.8294 78.9851 75.6504 78.9851 75.4638C78.9851 72.5374 77.5264 70.061 75.802 70.061C74.0776 70.061 72.6189 72.5374 72.6189 75.4638C72.6189 78.3901 74.0776 80.8665 75.802 80.8665C75.981 80.8783 76.1489 80.9577 76.2716 81.0886C76.3943 81.2196 76.4625 81.3923 76.4625 81.5717C76.4625 81.7511 76.3943 81.9238 76.2716 82.0548C76.1489 82.1858 75.981 82.2652 75.802 82.2769Z" fill="black"/>
<path d="M86.4686 82.2769C83.8926 82.2769 81.8752 79.2841 81.8752 75.4638C81.8752 71.6435 83.8926 68.6537 86.4686 68.6537C89.0447 68.6537 91.059 71.6465 91.059 75.4638C91.059 75.6504 90.9849 75.8294 90.8529 75.9613C90.721 76.0933 90.542 76.1674 90.3554 76.1674C90.1688 76.1674 89.9898 76.0933 89.8578 75.9613C89.7259 75.8294 89.6517 75.6504 89.6517 75.4638C89.6517 72.5374 88.1931 70.061 86.4686 70.061C84.7442 70.061 83.2856 72.5374 83.2856 75.4638C83.2856 78.3901 84.7412 80.8665 86.4686 80.8665C86.6477 80.8783 86.8156 80.9577 86.9382 81.0886C87.0609 81.2196 87.1291 81.3923 87.1291 81.5717C87.1291 81.7511 87.0609 81.9238 86.9382 82.0548C86.8156 82.1858 86.6477 82.2652 86.4686 82.2769Z" fill="black"/>
<path d="M97.1232 82.2769C94.5502 82.2769 92.5328 79.2841 92.5328 75.4638C92.5328 71.6435 94.5502 68.6537 97.1232 68.6537C99.6962 68.6537 101.717 71.6465 101.717 75.4638C101.705 75.6428 101.626 75.8107 101.495 75.9333C101.364 76.056 101.191 76.1243 101.011 76.1243C100.832 76.1243 100.659 76.056 100.528 75.9333C100.397 75.8107 100.318 75.6428 100.306 75.4638C100.306 72.5374 98.8506 70.061 97.1232 70.061C95.3958 70.061 93.9401 72.5374 93.9401 75.4638C93.9401 78.3901 95.3988 80.8665 97.1232 80.8665C97.2197 80.8602 97.3164 80.8738 97.4075 80.9063C97.4985 80.9389 97.5819 80.9898 97.6525 81.0559C97.723 81.122 97.7793 81.2019 97.8178 81.2906C97.8562 81.3794 97.8761 81.475 97.8761 81.5717C97.8761 81.6684 97.8562 81.7641 97.8178 81.8528C97.7793 81.9415 97.723 82.0214 97.6525 82.0875C97.5819 82.1536 97.4985 82.2045 97.4075 82.2371C97.3164 82.2696 97.2197 82.2832 97.1232 82.2769Z" fill="black"/>
<path d="M107.781 82.2769C105.208 82.2769 103.19 79.2841 103.19 75.4638C103.19 71.6435 105.208 68.6537 107.781 68.6537C110.354 68.6537 112.374 71.6465 112.374 75.4638C112.362 75.6428 112.283 75.8107 112.152 75.9333C112.021 76.056 111.848 76.1243 111.669 76.1243C111.49 76.1243 111.317 76.056 111.186 75.9333C111.055 75.8107 110.976 75.6428 110.964 75.4638C110.964 72.5374 109.505 70.061 107.781 70.061C106.056 70.061 104.598 72.5374 104.598 75.4638C104.598 78.3901 106.056 80.8665 107.781 80.8665C107.96 80.8783 108.128 80.9577 108.25 81.0886C108.373 81.2196 108.441 81.3923 108.441 81.5717C108.441 81.7511 108.373 81.9238 108.25 82.0548C108.128 82.1858 107.96 82.2652 107.781 82.2769Z" fill="black"/>
</g>
<path d="M87.1814 97.6728C84.717 97.1836 81.9507 97.7544 80.9632 100.352C80.1689 102.441 81.1867 104.706 83.3792 105.259C85.312 105.745 88.6461 105.15 89.3346 102.922C90.1228 100.373 86.9186 99.5452 85.1217 99.3942C84.5811 99.3489 84.5842 100.195 85.1217 100.24C85.9401 100.309 86.8763 100.355 87.6011 100.805C89.1111 101.75 88.489 103.266 87.2025 103.991C85.916 104.715 83.9439 104.897 82.6725 104.093C81.2833 103.208 81.238 101.264 82.0685 99.9952C83.1587 98.3191 85.1489 98.1319 86.9428 98.4852C87.4743 98.5909 87.7008 97.7755 87.1663 97.6698L87.1814 97.6728Z" fill="#DAE1C2"/>
<path opacity="0.1" d="M87.1814 97.6728C84.717 97.1836 81.9507 97.7544 80.9632 100.352C80.1689 102.441 81.1867 104.706 83.3792 105.259C85.312 105.745 88.6461 105.15 89.3346 102.922C90.1228 100.373 86.9186 99.5452 85.1217 99.3942C84.5811 99.3489 84.5842 100.195 85.1217 100.24C85.9401 100.309 86.8763 100.355 87.6011 100.805C89.1111 101.75 88.489 103.266 87.2025 103.991C85.916 104.715 83.9439 104.897 82.6725 104.093C81.2833 103.208 81.238 101.264 82.0685 99.9952C83.1587 98.3191 85.1489 98.1319 86.9428 98.4852C87.4743 98.5909 87.7008 97.7755 87.1663 97.6698L87.1814 97.6728Z" fill="#FAFAFA"/>
<path d="M59.9923 87.9454C62.349 91.0697 64.9765 93.9801 67.8443 96.643C68.2429 97.0145 68.8439 96.4165 68.4483 96.039C65.6297 93.4287 63.0457 90.5759 60.7262 87.5136C60.403 87.0847 59.6692 87.5136 59.9983 87.9394L59.9923 87.9454Z" fill="#DAE1C2"/>
<path d="M60.8651 96.2897C62.6469 93.1217 65.7665 90.4188 68.7171 88.3501C69.158 88.0481 68.7382 87.3052 68.2913 87.6192C65.2229 89.7755 61.9976 92.56 60.1373 95.8608C60.0862 95.957 60.0742 96.0691 60.1038 96.1739C60.1334 96.2787 60.2023 96.368 60.2961 96.4233C60.3899 96.4786 60.5014 96.4955 60.6074 96.4706C60.7134 96.4457 60.8057 96.3809 60.8651 96.2897Z" fill="#DAE1C2"/>
<g opacity="0.2">
<path d="M59.9923 87.9454C62.349 91.0697 64.9765 93.9801 67.8443 96.643C68.2429 97.0145 68.8439 96.4165 68.4483 96.039C65.6297 93.4287 63.0457 90.5759 60.7262 87.5136C60.403 87.0847 59.6692 87.5136 59.9983 87.9394L59.9923 87.9454Z" fill="black"/>
<path d="M60.8651 96.2897C62.6469 93.1217 65.7665 90.4188 68.7171 88.3501C69.158 88.0481 68.7382 87.3052 68.2913 87.6193C65.2229 89.7755 61.9976 92.56 60.1373 95.8608C60.0862 95.957 60.0742 96.0692 60.1038 96.174C60.1334 96.2787 60.2023 96.3681 60.2961 96.4233C60.3899 96.4786 60.5014 96.4956 60.6074 96.4707C60.7134 96.4458 60.8057 96.3809 60.8651 96.2897Z" fill="black"/>
</g>
<path d="M93.5807 90.6483H99.0922C99.1978 90.6394 99.2962 90.5911 99.3679 90.5131C99.4396 90.4351 99.4793 90.333 99.4793 90.227C99.4793 90.1211 99.4396 90.019 99.3679 89.941C99.2962 89.8629 99.1978 89.8147 99.0922 89.8057H93.5807C93.4752 89.8147 93.3768 89.8629 93.3051 89.941C93.2334 90.019 93.1936 90.1211 93.1936 90.227C93.1936 90.333 93.2334 90.4351 93.3051 90.5131C93.3768 90.5911 93.4752 90.6394 93.5807 90.6483Z" fill="#DAE1C2"/>
<path d="M93.5173 92.2157H96.7125C96.8246 92.2157 96.9322 92.1711 97.0115 92.0919C97.0907 92.0126 97.1353 91.905 97.1353 91.7929C97.1353 91.6808 97.0907 91.5732 97.0115 91.4939C96.9322 91.4146 96.8246 91.3701 96.7125 91.3701H93.5173C93.4052 91.3701 93.2976 91.4146 93.2184 91.4939C93.1391 91.5732 93.0945 91.6808 93.0945 91.7929C93.0945 91.905 93.1391 92.0126 93.2184 92.0919C93.2976 92.1711 93.4052 92.2157 93.5173 92.2157Z" fill="#DAE1C2"/>
<g opacity="0.1">
<path d="M93.5807 90.6483H99.0922C99.1978 90.6394 99.2962 90.5911 99.3679 90.5131C99.4396 90.4351 99.4793 90.333 99.4793 90.227C99.4793 90.1211 99.4396 90.019 99.3679 89.941C99.2962 89.8629 99.1978 89.8147 99.0922 89.8057H93.5807C93.4752 89.8147 93.3768 89.8629 93.3051 89.941C93.2334 90.019 93.1936 90.1211 93.1936 90.227C93.1936 90.333 93.2334 90.4351 93.3051 90.5131C93.3768 90.5911 93.4752 90.6394 93.5807 90.6483Z" fill="#FAFAFA"/>
<path d="M93.5173 92.2157H96.7125C96.8246 92.2157 96.9322 92.1711 97.0115 92.0919C97.0907 92.0126 97.1353 91.905 97.1353 91.7929C97.1353 91.6808 97.0907 91.5732 97.0115 91.4939C96.9322 91.4146 96.8246 91.3701 96.7125 91.3701H93.5173C93.4052 91.3701 93.2976 91.4146 93.2184 91.4939C93.1391 91.5732 93.0945 91.6808 93.0945 91.7929C93.0945 91.905 93.1391 92.0126 93.2184 92.0919C93.2976 92.1711 93.4052 92.2157 93.5173 92.2157Z" fill="#FAFAFA"/>
</g>
<path d="M60.5691 112.284H65.2954C65.4076 112.284 65.5151 112.239 65.5944 112.16C65.6737 112.08 65.7182 111.973 65.7182 111.861C65.7182 111.749 65.6737 111.641 65.5944 111.562C65.5151 111.483 65.4076 111.438 65.2954 111.438H60.5691C60.457 111.438 60.3494 111.483 60.2702 111.562C60.1909 111.641 60.1463 111.749 60.1463 111.861C60.1463 111.973 60.1909 112.08 60.2702 112.16C60.3494 112.239 60.457 112.284 60.5691 112.284Z" fill="#DAE1C2"/>
<path d="M60.4 114.099H66.5306C66.6427 114.099 66.7503 114.054 66.8296 113.975C66.9089 113.895 66.9534 113.788 66.9534 113.676C66.9534 113.564 66.9089 113.456 66.8296 113.377C66.7503 113.298 66.6427 113.253 66.5306 113.253H60.4C60.2879 113.253 60.1803 113.298 60.101 113.377C60.0217 113.456 59.9772 113.564 59.9772 113.676C59.9772 113.788 60.0217 113.895 60.101 113.975C60.1803 114.054 60.2879 114.099 60.4 114.099Z" fill="#DAE1C2"/>
<path d="M60.4 115.968H63.4653C63.5774 115.968 63.685 115.923 63.7643 115.844C63.8436 115.765 63.8881 115.657 63.8881 115.545C63.8881 115.433 63.8436 115.326 63.7643 115.246C63.685 115.167 63.5774 115.122 63.4653 115.122H60.4C60.2879 115.122 60.1803 115.167 60.101 115.246C60.0217 115.326 59.9772 115.433 59.9772 115.545C59.9772 115.657 60.0217 115.765 60.101 115.844C60.1803 115.923 60.2879 115.968 60.4 115.968Z" fill="#DAE1C2"/>
<g opacity="0.1">
<path d="M60.5691 112.284H65.2954C65.4076 112.284 65.5151 112.239 65.5944 112.16C65.6737 112.08 65.7182 111.973 65.7182 111.861C65.7182 111.749 65.6737 111.641 65.5944 111.562C65.5151 111.483 65.4076 111.438 65.2954 111.438H60.5691C60.457 111.438 60.3494 111.483 60.2702 111.562C60.1909 111.641 60.1463 111.749 60.1463 111.861C60.1463 111.973 60.1909 112.08 60.2702 112.16C60.3494 112.239 60.457 112.284 60.5691 112.284Z" fill="#FAFAFA"/>
<path d="M60.4 114.099H66.5306C66.6427 114.099 66.7503 114.054 66.8296 113.975C66.9089 113.895 66.9534 113.788 66.9534 113.676C66.9534 113.564 66.9089 113.456 66.8296 113.377C66.7503 113.298 66.6427 113.253 66.5306 113.253H60.4C60.2879 113.253 60.1803 113.298 60.101 113.377C60.0217 113.456 59.9772 113.564 59.9772 113.676C59.9772 113.788 60.0217 113.895 60.101 113.975C60.1803 114.054 60.2879 114.099 60.4 114.099Z" fill="#FAFAFA"/>
<path d="M60.4 115.968H63.4653C63.5774 115.968 63.685 115.923 63.7643 115.844C63.8436 115.765 63.8881 115.657 63.8881 115.545C63.8881 115.433 63.8436 115.326 63.7643 115.246C63.685 115.167 63.5774 115.122 63.4653 115.122H60.4C60.2879 115.122 60.1803 115.167 60.101 115.246C60.0217 115.326 59.9772 115.433 59.9772 115.545C59.9772 115.657 60.0217 115.765 60.101 115.844C60.1803 115.923 60.2879 115.968 60.4 115.968Z" fill="#FAFAFA"/>
</g>
<path d="M27.2374 64.8666L28.6658 64.8032L28.0196 67.5212C27.5098 67.1721 27.0452 66.7613 26.6364 66.2981C26.5185 66.1594 26.46 65.9799 26.4736 65.7985C26.4871 65.617 26.5717 65.4482 26.7089 65.3286L27.2374 64.8666Z" fill="#E4897B"/>
<path d="M30.3238 66.2679L29.6836 68.4785L28.0196 67.5151L28.6658 64.8032L30.3238 66.2679Z" fill="#E4897B"/>
<path d="M30.0421 53.1441L27.1192 53.4147L33.8231 125.818L36.746 125.547L30.0421 53.1441Z" fill="#DAE1C2"/>
<path opacity="0.3" d="M30.0421 53.1441L27.1192 53.4147L33.8231 125.818L36.746 125.547L30.0421 53.1441Z" fill="black"/>
<path d="M35.8893 52.6013L32.9664 52.8719L39.6703 125.275L42.5932 125.004L35.8893 52.6013Z" fill="#DAE1C2"/>
<path opacity="0.3" d="M35.8893 52.6013L32.9664 52.8719L39.6703 125.275L42.5932 125.004L35.8893 52.6013Z" fill="black"/>
<path d="M32.9672 52.8727L30.0443 53.1433L36.7482 125.546L39.6711 125.276L32.9672 52.8727Z" fill="#DAE1C2"/>
<path opacity="0.1" d="M32.9672 52.8727L30.0443 53.1433L36.7482 125.546L39.6711 125.276L32.9672 52.8727Z" fill="black"/>
<path d="M32.3502 47.8096L29.7198 48.0542L27.1196 53.4147L35.8897 52.6023L32.3502 47.8096Z" fill="#DAE1C2"/>
<g opacity="0.8">
<path d="M32.3502 47.8096L29.7198 48.0542L27.1196 53.4147L35.8897 52.6023L32.3502 47.8096Z" fill="#FAFAFA"/>
</g>
<path d="M30.8342 45.756L29.7198 48.0542L32.3502 47.8096L30.8342 45.756Z" fill="#263238"/>
<path d="M52.9346 49.8481C53.2366 50.1501 53.4872 50.437 53.7469 50.7541C54.0067 51.0712 54.2543 51.3581 54.5019 51.6601C55.0002 52.2641 55.4653 52.9013 55.9183 53.5506C56.8522 54.8708 57.64 56.2884 58.2679 57.7786C58.3434 57.9719 58.4128 58.1743 58.4853 58.3826L58.594 58.6846C58.6539 58.8654 58.6964 59.0515 58.7209 59.2403C58.7864 59.8413 58.7067 60.4493 58.4883 61.0131C58.1624 61.8453 57.7057 62.6201 57.1354 63.3083C56.1271 64.5423 54.9662 65.6433 53.6805 66.585L52.542 65.377C53.438 64.2568 54.2573 63.0773 54.9942 61.8466C55.317 61.3208 55.565 60.7526 55.7311 60.1584C55.777 60.0126 55.7822 59.857 55.7462 59.7084L55.6435 59.4849C55.574 59.337 55.5136 59.1829 55.4381 59.038C54.7989 57.7975 54.051 56.6161 53.2033 55.5076C52.7805 54.9308 52.3336 54.3691 51.8806 53.8073C51.6541 53.5295 51.4246 53.2517 51.189 52.9799L50.5004 52.1856L52.9346 49.8481Z" fill="#E4897B"/>
<path d="M50.7149 66.298L52.0014 68.8439L53.2607 67.7597L52.2279 65.9507L50.7149 66.298Z" fill="#E4897B"/>
<path d="M41.0237 51.34C40.2405 52.8319 39.4271 54.3067 38.5835 55.7643C38.1698 56.4982 37.7349 57.2199 37.3121 57.9478L36.6628 59.035L36.4997 59.3068C36.4182 59.4366 36.3276 59.5906 36.246 59.6933C36.1645 59.796 36.083 59.9198 36.0044 60.0134C35.9259 60.1071 35.8414 60.2128 35.7628 60.3003C35.1528 60.9649 34.5033 61.5922 33.818 62.1788C33.1566 62.7435 32.4952 63.2932 31.8127 63.8156C30.4627 64.8696 29.0766 65.8511 27.639 66.7873L26.6032 65.4827L30.1819 61.9583C30.7678 61.3543 31.3597 60.7866 31.9184 60.1886C32.4673 59.6259 32.9846 59.033 33.4676 58.4128C33.526 58.3404 33.5774 58.2709 33.6217 58.2045C33.673 58.132 33.7092 58.0716 33.7455 58.0112C33.7767 57.9626 33.8049 57.9122 33.83 57.8602L33.969 57.5793L34.5277 56.4408C34.9112 55.6888 35.2857 54.9308 35.6753 54.1848C36.4464 52.6809 37.2517 51.194 38.0913 49.7243L41.0237 51.34Z" fill="#E4897B"/>
<path d="M49.5008 41.1384C49.4616 41.3136 49.525 41.4797 49.6367 41.5099C49.7485 41.5401 49.8723 41.4193 49.9115 41.2441C49.9508 41.069 49.8844 40.9029 49.7726 40.8727C49.6609 40.8425 49.528 40.9633 49.5008 41.1384Z" fill="#263238"/>
<path d="M49.5069 41.4767C49.6015 42.0657 49.7741 42.6395 50.0203 43.183C49.8813 43.238 49.7319 43.2619 49.5827 43.253C49.4335 43.2442 49.288 43.2027 49.1565 43.1316L49.5069 41.4767Z" fill="#DE5753"/>
<path d="M49.9629 40.0754C49.9414 40.0755 49.9204 40.0692 49.9025 40.0573C49.7909 39.9891 49.6644 39.9491 49.534 39.9407C49.4035 39.9323 49.2729 39.9557 49.1535 40.009C49.1274 40.0191 49.0984 40.0188 49.0725 40.0082C49.0467 39.9975 49.0259 39.9772 49.0146 39.9516C49.0044 39.9255 49.0047 39.8965 49.0154 39.8706C49.0261 39.8447 49.0464 39.824 49.072 39.8127C49.2246 39.7471 49.3909 39.7195 49.5565 39.7321C49.7222 39.7447 49.8823 39.7972 50.0233 39.8852C50.0348 39.8927 50.0446 39.9026 50.0522 39.914C50.0598 39.9255 50.065 39.9384 50.0676 39.9519C50.0701 39.9654 50.0699 39.9793 50.067 39.9927C50.064 40.0062 50.0584 40.0189 50.0505 40.0301C50.0406 40.0442 50.0275 40.0557 50.0123 40.0636C49.997 40.0715 49.9801 40.0755 49.9629 40.0754Z" fill="#263238"/>
<path d="M43.3914 41.8058C43.7719 43.4306 44.2037 46.4023 43.1105 47.4865C43.1105 47.4865 43.6179 49.1324 46.6348 49.1324C49.9568 49.1324 48.1448 47.4865 48.1448 47.4865C46.3177 47.0546 46.3117 45.7107 46.5775 44.4514L43.3914 41.8058Z" fill="#E4897B"/>
<path d="M42.6998 48.0512C42.4401 47.5318 42.1562 46.9338 42.6998 46.7466C43.2857 46.5412 46.5382 46.3328 47.6767 46.7164C47.9801 46.7975 48.2399 46.9936 48.4012 47.2631C48.5624 47.5326 48.6124 47.8542 48.5405 48.1599L42.6998 48.0512Z" fill="#DAE1C2"/>
<path opacity="0.6" d="M42.6998 48.0512C42.4401 47.5318 42.1562 46.9338 42.6998 46.7466C43.2857 46.5412 46.5382 46.3328 47.6767 46.7164C47.9801 46.7975 48.2399 46.9936 48.4012 47.2631C48.5624 47.5326 48.6124 47.8542 48.5405 48.1599L42.6998 48.0512Z" fill="#FAFAFA"/>
<path d="M38.354 123.82C38.159 123.819 37.9647 123.798 37.7742 123.757C37.7644 123.755 37.7554 123.75 37.7483 123.743C37.7413 123.736 37.7366 123.727 37.7349 123.717C37.7329 123.707 37.7338 123.697 37.7376 123.687C37.7413 123.677 37.7477 123.669 37.756 123.663C37.7802 123.645 38.36 123.228 38.6983 123.301C38.7348 123.307 38.7695 123.321 38.7998 123.343C38.8301 123.364 38.8552 123.392 38.8734 123.424C38.9006 123.46 38.9153 123.504 38.9153 123.55C38.9153 123.595 38.9006 123.639 38.8734 123.675C38.801 123.793 38.5805 123.82 38.354 123.82ZM37.9221 123.681C38.2543 123.735 38.7073 123.735 38.7979 123.612C38.7979 123.612 38.8342 123.563 38.7828 123.476C38.7718 123.456 38.7565 123.44 38.7382 123.427C38.7199 123.415 38.6991 123.407 38.6771 123.403C38.4029 123.421 38.1401 123.52 37.9221 123.687V123.681Z" fill="#FAFAFA"/>
<path d="M37.7862 123.766H37.7591C37.7512 123.761 37.7447 123.754 37.7405 123.746C37.7362 123.738 37.7343 123.729 37.7349 123.72C37.7349 123.693 37.7621 123.053 38.0127 122.842C38.0428 122.815 38.0783 122.794 38.1169 122.782C38.1555 122.77 38.1962 122.767 38.2362 122.772C38.2769 122.772 38.3164 122.786 38.3478 122.812C38.3792 122.838 38.4006 122.874 38.4084 122.914C38.4567 123.162 38.0339 123.645 37.8044 123.769L37.7862 123.766ZM38.2 122.86C38.1566 122.86 38.1148 122.876 38.0822 122.905C37.9341 123.108 37.8518 123.351 37.8466 123.603C38.0641 123.43 38.3329 123.065 38.3057 122.92C38.3057 122.905 38.3057 122.869 38.2241 122.86H38.2Z" fill="#FAFAFA"/>
<path d="M51.6782 123.82C51.4493 123.82 51.2208 123.799 50.9957 123.757C50.9851 123.755 50.9754 123.75 50.9678 123.742C50.9602 123.735 50.9552 123.725 50.9534 123.714C50.9517 123.704 50.9531 123.693 50.9574 123.684C50.9617 123.674 50.9687 123.666 50.9776 123.66C51.0893 123.597 52.0739 123.032 52.3124 123.421C52.3364 123.455 52.3492 123.496 52.3492 123.538C52.3492 123.579 52.3364 123.62 52.3124 123.654C52.246 123.787 51.9621 123.82 51.6782 123.82ZM51.1618 123.678C51.5786 123.738 52.1403 123.729 52.2369 123.593C52.2369 123.593 52.2671 123.551 52.2218 123.476C52.089 123.261 51.491 123.518 51.1618 123.684V123.678Z" fill="#FAFAFA"/>
<path d="M51.0048 123.766C50.9949 123.768 50.9845 123.768 50.9746 123.766C50.967 123.76 50.9611 123.753 50.9573 123.744C50.9536 123.736 50.9523 123.727 50.9534 123.717C50.9534 123.693 50.9897 123.095 51.2554 122.863C51.2957 122.826 51.3438 122.798 51.3961 122.783C51.4484 122.767 51.5035 122.763 51.5574 122.772C51.7054 122.787 51.7477 122.863 51.7568 122.923C51.799 123.18 51.2947 123.648 51.0289 123.769L51.0048 123.766ZM51.5121 122.86C51.4451 122.859 51.3803 122.884 51.3309 122.929C51.1722 123.124 51.0801 123.364 51.0682 123.615C51.334 123.452 51.6722 123.08 51.6511 122.926C51.6511 122.911 51.6511 122.872 51.5423 122.86H51.5121Z" fill="#FAFAFA"/>
<path d="M48.5646 123.711H50.7843L50.8055 118.574H48.5888L48.5646 123.711Z" fill="#E4897B"/>
<path d="M35.2434 123.711H37.4631L38.3812 118.574H36.1615L35.2434 123.711Z" fill="#E4897B"/>
<path d="M37.6111 123.455H35.1196C35.0755 123.454 35.0327 123.469 34.9989 123.497C34.9651 123.526 34.9426 123.565 34.9354 123.609L34.573 125.581C34.5655 125.63 34.5688 125.68 34.5826 125.727C34.5964 125.775 34.6203 125.819 34.6528 125.856C34.6852 125.893 34.7254 125.923 34.7706 125.943C34.8157 125.964 34.8647 125.974 34.9142 125.973C35.784 125.958 36.2038 125.907 37.3 125.907C37.9735 125.907 39.3657 125.979 40.2989 125.979C41.2321 125.979 41.3136 125.073 40.9301 124.974C39.2056 124.599 38.5412 124.083 37.9765 123.593C37.8757 123.504 37.7457 123.455 37.6111 123.455Z" fill="#263238"/>
<path d="M50.7602 123.455H48.3442C48.3001 123.454 48.2573 123.469 48.2235 123.497C48.1897 123.526 48.1672 123.565 48.1599 123.609L47.7975 125.581C47.7891 125.629 47.7915 125.679 47.8045 125.727C47.8175 125.774 47.8409 125.818 47.8729 125.856C47.9049 125.893 47.9448 125.923 47.9897 125.944C48.0346 125.964 48.0835 125.974 48.1328 125.973C49.0055 125.958 50.2649 125.907 51.3642 125.907C52.6507 125.907 53.762 125.979 55.269 125.979C56.175 125.979 56.3955 125.073 56.0119 124.974C54.2603 124.593 52.8409 124.554 51.3068 123.63C51.1445 123.521 50.9551 123.461 50.7602 123.455Z" fill="#263238"/>
<path d="M38.8795 47.9878C36.8168 48.465 34.6515 54.1335 34.6515 54.1335L38.9369 56.9965C39.9207 55.5047 40.7832 53.9363 41.5159 52.3064C42.6484 49.7122 40.9844 47.5016 38.8795 47.9878Z" fill="#DAE1C2"/>
<path opacity="0.7" d="M38.8795 47.9878C36.8168 48.465 34.6515 54.1335 34.6515 54.1335L38.9369 56.9965C39.9207 55.5047 40.7832 53.9363 41.5159 52.3064C42.6484 49.7122 40.9844 47.5016 38.8795 47.9878Z" fill="black"/>
<path d="M40.5073 51.6027L38.7345 56.8605L38.9369 56.9964C38.9369 56.9964 39.7462 55.7884 40.6069 54.1788L40.5073 51.6027Z" fill="#DAE1C2"/>
<path opacity="0.8" d="M40.5073 51.6027L38.7345 56.8605L38.9369 56.9964C38.9369 56.9964 39.7462 55.7884 40.6069 54.1788L40.5073 51.6027Z" fill="black"/>
<path d="M52.7201 57.8994C52.702 60.3758 52.554 63.4562 52.1856 67.2795H40.317C40.163 65.4675 40.9663 56.5706 38.8795 47.9878C40.1849 47.7347 41.5054 47.5673 42.8327 47.4865C44.5124 47.3898 46.1963 47.3898 47.8761 47.4865C49.0345 47.5991 50.1825 47.801 51.3098 48.0905C51.3098 48.0905 52.3245 49.1897 52.6326 54.3449C52.693 55.3747 52.7262 56.5465 52.7201 57.8994Z" fill="#DAE1C2"/>
<path opacity="0.7" d="M52.7201 57.8994C52.702 60.3758 52.554 63.4562 52.1856 67.2795H40.317C40.163 65.4675 40.9663 56.5706 38.8795 47.9878C40.1849 47.7347 41.5054 47.5673 42.8327 47.4865C44.5124 47.3898 46.1963 47.3898 47.8761 47.4865C49.0345 47.5991 50.1825 47.801 51.3098 48.0905C51.3098 48.0905 52.3245 49.1897 52.6326 54.3449C52.693 55.3747 52.7262 56.5465 52.7201 57.8994Z" fill="black"/>
<path d="M52.7201 57.8994C52.0014 56.5888 50.6967 53.9583 50.881 52.4634L52.6326 54.36C52.693 55.3747 52.7262 56.5465 52.7201 57.8994Z" fill="#DAE1C2"/>
<path opacity="0.8" d="M52.7201 57.8994C52.0014 56.5888 50.6967 53.9583 50.881 52.4634L52.6326 54.36C52.693 55.3747 52.7262 56.5465 52.7201 57.8994Z" fill="black"/>
<path d="M48.9844 50.1078C48.7972 52.2218 53.5899 57.3075 53.5899 57.3075L57.4313 54.1788C56.4252 52.481 55.2197 50.9095 53.8406 49.4978C51.5937 47.3264 49.1958 47.7402 48.9844 50.1078Z" fill="#DAE1C2"/>
<path opacity="0.7" d="M48.9844 50.1078C48.7972 52.2218 53.5899 57.3075 53.5899 57.3075L57.4313 54.1788C56.4252 52.481 55.2197 50.9095 53.8406 49.4978C51.5937 47.3264 49.1958 47.7402 48.9844 50.1078Z" fill="black"/>
<path d="M50.8055 118.577L50.7934 121.223H48.5767L48.5858 118.577H50.8055Z" fill="#CE6F64"/>
<path d="M36.1615 118.577H38.3812L37.907 121.223H35.6873L36.1615 118.577Z" fill="#CE6F64"/>
<path d="M43.79 39.3053C43.4669 41.4918 43.1679 42.7481 44.0074 44.1373C44.2743 44.5872 44.6592 44.9555 45.1205 45.2022C45.5817 45.4489 46.1017 45.5647 46.624 45.537C47.1464 45.5094 47.6512 45.3392 48.0838 45.0451C48.5164 44.751 48.8602 44.3441 49.078 43.8685C49.9448 42.0565 50.3313 38.7828 48.4257 37.3997C48.0236 37.0892 47.5468 36.8901 47.0433 36.8223C46.5398 36.7546 46.0274 36.8206 45.5575 37.0137C45.0877 37.2069 44.6769 37.5204 44.3666 37.9226C44.0564 38.3249 43.8575 38.8018 43.79 39.3053Z" fill="#E4897B"/>
<path d="M50.3585 38.2694C49.7049 38.6264 48.9858 38.8473 48.2445 38.9187C47.6918 41.4465 46.2211 44.3547 43.8413 43.5182C42.9353 43.2162 42.0293 41.0207 41.9357 39.0728C41.7787 39.263 41.673 39.5107 41.5914 39.6133C41.4556 38.7477 41.5536 37.8614 41.8753 37.0463C42.5337 35.18 42.9716 36.4182 43.6873 35.2857C44.1494 34.5367 44.9708 34.1502 46.4053 34.1018C46.0037 34.3102 45.9282 34.6454 46.5231 34.5971C47.118 34.5488 49.6579 34.4099 51.1377 35.4095C50.138 35.636 50.7481 37.2215 52.0829 36.3759C51.5967 37.1641 50.9927 37.9131 50.3585 38.2694Z" fill="#263238"/>
<path d="M46.5352 40.6583C46.5436 41.2143 46.7299 41.753 47.0667 42.1954C47.5167 42.7753 48.0331 42.4974 48.1569 41.8451C48.2656 41.2653 48.1569 40.2626 47.5952 39.9123C47.0335 39.562 46.5322 39.9939 46.5352 40.6583Z" fill="#E4897B"/>
<path d="M43.8293 35.5212C43.5279 35.5021 43.2357 35.4096 42.9783 35.2517C42.7209 35.0937 42.5061 34.8752 42.3525 34.6152C42.3525 34.6152 42.3132 36.385 43.8293 35.5212Z" fill="#1E2A4C"/>
<path d="M47.9727 67.2796C47.9727 67.2796 46.1124 84.2338 44.9738 90.5849C43.7296 97.5309 38.9338 120.712 38.9338 120.712H34.8568C34.8568 120.712 37.75 98.1017 38.354 91.204C39.0033 83.7295 40.3291 67.2675 40.3291 67.2675L47.9727 67.2796Z" fill="#DAE1C2"/>
<path opacity="0.6" d="M47.9727 67.2796C47.9727 67.2796 46.1124 84.2338 44.9738 90.5849C43.7296 97.5309 38.9338 120.712 38.9338 120.712H34.8568C34.8568 120.712 37.75 98.1017 38.354 91.204C39.0033 83.7295 40.3291 67.2675 40.3291 67.2675L47.9727 67.2796Z" fill="#FAFAFA"/>
<path d="M39.5107 119.215C39.5288 119.215 39.1513 120.776 39.1513 120.776H34.582L34.6122 119.384L39.5107 119.215Z" fill="#DAE1C2"/>
<path opacity="0.1" d="M39.5107 119.215C39.5288 119.215 39.1513 120.776 39.1513 120.776H34.582L34.6122 119.384L39.5107 119.215Z" fill="#FAFAFA"/>
<path d="M46.6167 73.3196C43.7266 73.8903 44.4544 84.7472 45.0191 90.3312C45.7077 86.3841 46.6439 78.7888 47.2751 73.3981C47.0707 73.2985 46.8388 73.2708 46.6167 73.3196Z" fill="#DAE1C2"/>
<path opacity="0.4" d="M46.6167 73.3196C43.7266 73.8903 44.4544 84.7472 45.0191 90.3312C45.7077 86.3841 46.6439 78.7888 47.2751 73.3981C47.0707 73.2985 46.8388 73.2708 46.6167 73.3196Z" fill="#FAFAFA"/>
<path d="M52.1826 67.2795C52.1826 67.2795 53.1309 83.8654 53.149 90.6332C53.1701 97.6698 51.6027 120.712 51.6027 120.712H47.8428C47.8428 120.712 46.8311 98.0805 46.3963 91.1708C45.9251 83.6359 44.3819 67.2795 44.3819 67.2795H52.1826Z" fill="#DAE1C2"/>
<path opacity="0.6" d="M52.1826 67.2795C52.1826 67.2795 53.1309 83.8654 53.149 90.6332C53.1701 97.6698 51.6027 120.712 51.6027 120.712H47.8428C47.8428 120.712 46.8311 98.0805 46.3963 91.1708C45.9251 83.6359 44.3819 67.2795 44.3819 67.2795H52.1826Z" fill="#FAFAFA"/>
<path d="M53.0916 65.1474L52.0376 65.232C51.9518 65.2392 51.8686 65.2654 51.7941 65.3088C51.7197 65.3522 51.6559 65.4116 51.6073 65.4828C51.5587 65.5539 51.5265 65.635 51.5132 65.7202C51.4999 65.8053 51.5057 65.8923 51.5303 65.9749L51.9651 67.4396C52.0018 67.5586 52.0668 67.667 52.1544 67.7555C52.242 67.8441 52.3497 67.9101 52.4683 67.9481C52.5869 67.986 52.7129 67.9948 52.8357 67.9735C52.9584 67.9523 53.0742 67.9018 53.1731 67.8262C53.7176 67.3194 54.108 66.6694 54.2996 65.9508L53.0916 65.1474Z" fill="#E4897B"/>
<path d="M50.7118 118.013C50.7017 118.011 50.6924 118.006 50.6858 117.998C50.6791 117.99 50.6755 117.98 50.6756 117.97C51.0924 111.595 52.0588 96.1659 52.0406 90.6332C52.0406 84.9707 51.3521 72.3048 51.1346 68.557C51.1342 68.552 51.1348 68.547 51.1365 68.5422C51.1381 68.5375 51.1407 68.5331 51.1441 68.5294C51.1475 68.5257 51.1517 68.5228 51.1563 68.5208C51.1609 68.5188 51.1659 68.5177 51.1709 68.5178C51.1808 68.5177 51.1903 68.5214 51.1976 68.5282C51.2049 68.5349 51.2094 68.5441 51.2101 68.554C51.4155 72.3018 52.089 84.9677 52.1161 90.6332C52.1343 96.1689 51.1679 111.598 50.7511 117.976C50.7511 117.981 50.7501 117.986 50.7481 117.991C50.7461 117.996 50.7431 118 50.7394 118.003C50.7358 118.006 50.7314 118.009 50.7266 118.011C50.7219 118.012 50.7168 118.013 50.7118 118.013Z" fill="#DAE1C2"/>
<path opacity="0.3" d="M50.7118 118.013C50.7017 118.011 50.6924 118.006 50.6858 117.998C50.6791 117.99 50.6755 117.98 50.6756 117.97C51.0924 111.595 52.0588 96.1659 52.0406 90.6332C52.0406 84.9707 51.3521 72.3048 51.1346 68.557C51.1342 68.552 51.1348 68.547 51.1365 68.5422C51.1381 68.5375 51.1407 68.5331 51.1441 68.5294C51.1475 68.5257 51.1517 68.5228 51.1563 68.5208C51.1609 68.5188 51.1659 68.5177 51.1709 68.5178C51.1808 68.5177 51.1903 68.5214 51.1976 68.5282C51.2049 68.5349 51.2094 68.5441 51.2101 68.554C51.4155 72.3018 52.089 84.9677 52.1161 90.6332C52.1343 96.1689 51.1679 111.598 50.7511 117.976C50.7511 117.981 50.7501 117.986 50.7481 117.991C50.7461 117.996 50.7431 118 50.7394 118.003C50.7358 118.006 50.7314 118.009 50.7266 118.011C50.7219 118.012 50.7168 118.013 50.7118 118.013Z" fill="#FAFAFA"/>
<path d="M52.2671 119.215C52.2853 119.215 52.1161 120.776 52.1161 120.776H47.5439L47.3657 119.384L52.2671 119.215Z" fill="#DAE1C2"/>
<path opacity="0.1" d="M52.2671 119.215C52.2853 119.215 52.1161 120.776 52.1161 120.776H47.5439L47.3657 119.384L52.2671 119.215Z" fill="#FAFAFA"/>
</svg>
