<svg width="123" height="123" viewBox="0 0 123 123" fill="none" xmlns="http://www.w3.org/2000/svg">
<path d="M8.69363 104.279V110.454H10.118C10.0433 109.804 10.0433 109.148 10.118 108.498C10.2533 107.773 11.8006 105.898 11.7539 104.289L8.69363 104.279Z" fill="#EBEBEB"/>
<path d="M20.0883 104.279V110.454H21.5127C21.438 109.804 21.438 109.148 21.5127 108.498C21.648 107.773 23.1953 105.898 23.1486 104.289L20.0883 104.279Z" fill="#E0E0E0"/>
<path d="M31.242 104.279V110.454H29.8152C29.8885 109.804 29.8885 109.148 29.8152 108.498C29.6774 107.773 28.1326 105.898 28.1768 104.289L31.242 104.279Z" fill="#EBEBEB"/>
<path d="M41.1017 104.279V110.454H39.6773C39.7507 109.804 39.7507 109.148 39.6773 108.498C39.542 107.773 37.9947 105.898 38.0414 104.289L41.1017 104.279Z" fill="#E0E0E0"/>
<path d="M41.8495 73.832H7.7244V104.476H41.8495V73.832Z" fill="#F5F5F5"/>
<path d="M32.6565 73.832L32.9099 104.476H41.8495V73.832H32.6565Z" fill="#E0E0E0"/>
<path d="M31.1682 76.0878H9.25943V83.886H31.1682V76.0878Z" fill="#EBEBEB"/>
<path d="M31.1682 85.4383H9.25943V93.2365H31.1682V85.4383Z" fill="#EBEBEB"/>
<path d="M31.1682 94.7912H9.25943V102.589H31.1682V94.7912Z" fill="#EBEBEB"/>
<path d="M17.6579 65.0276L16.7132 73.7975H28.8214L29.825 65.0276H17.6579Z" fill="#E0E0E0"/>
<path d="M18.1573 65.6574L17.2372 73.3302H28.1645L29.0477 65.6574H18.1573Z" fill="white"/>
<path d="M19.9949 66.9489L19.4291 72.0411H26.3245L26.6787 66.9489H19.9949Z" fill="#EBEBEB"/>
<path d="M29.3921 68.8037L31.8939 73.832L28.8214 73.7975L29.3921 68.8037Z" fill="#EBEBEB"/>
<path d="M21.0158 80.3928C21.0163 80.5515 20.9696 80.7068 20.8818 80.839C20.794 80.9712 20.6689 81.0744 20.5224 81.1355C20.3759 81.1965 20.2146 81.2128 20.0589 81.1821C19.9032 81.1514 19.76 81.0753 19.6476 80.9632C19.5352 80.8511 19.4586 80.7082 19.4275 80.5526C19.3963 80.397 19.4121 80.2356 19.4727 80.0889C19.5333 79.9422 19.6361 79.8168 19.768 79.7286C19.9 79.6404 20.0551 79.5933 20.2138 79.5933C20.4261 79.5933 20.6297 79.6774 20.78 79.8273C20.9304 79.9772 21.0151 80.1805 21.0158 80.3928Z" fill="#E0E0E0"/>
<path d="M21.0158 89.8392C21.0158 89.9978 20.9687 90.1529 20.8806 90.2847C20.7925 90.4166 20.6672 90.5194 20.5207 90.5801C20.3742 90.6408 20.2129 90.6567 20.0574 90.6257C19.9018 90.5948 19.7589 90.5184 19.6467 90.4063C19.5346 90.2941 19.4582 90.1512 19.4273 89.9957C19.3963 89.8401 19.4122 89.6788 19.4729 89.5323C19.5336 89.3858 19.6364 89.2605 19.7683 89.1724C19.9001 89.0843 20.0552 89.0372 20.2138 89.0372C20.3192 89.0369 20.4236 89.0574 20.5211 89.0976C20.6185 89.1378 20.7071 89.1969 20.7816 89.2714C20.8561 89.3459 20.9152 89.4345 20.9554 89.5319C20.9956 89.6294 21.0161 89.7338 21.0158 89.8392Z" fill="#E0E0E0"/>
<path d="M21.0158 99.2831C21.0158 99.4417 20.9687 99.5968 20.8806 99.7287C20.7925 99.8606 20.6672 99.9633 20.5207 100.024C20.3742 100.085 20.2129 100.101 20.0574 100.07C19.9018 100.039 19.7589 99.9624 19.6467 99.8502C19.5346 99.7381 19.4582 99.5952 19.4273 99.4396C19.3963 99.284 19.4122 99.1228 19.4729 98.9762C19.5336 98.8297 19.6364 98.7044 19.7683 98.6163C19.9001 98.5282 20.0552 98.4812 20.2138 98.4812C20.4265 98.4812 20.6305 98.5657 20.7809 98.7161C20.9313 98.8665 21.0158 99.0704 21.0158 99.2831Z" fill="#E0E0E0"/>
<path d="M31.1338 24.017L11.7859 23.83L12.3246 49.045L31.6725 49.1164L31.1338 24.017Z" fill="#E0E0E0"/>
<path d="M29.8865 25.1412L12.9494 24.7033L13.439 47.5715L30.3712 47.7806L29.8865 25.1412Z" fill="#FAFAFA"/>
<path d="M26.996 28.5581L15.7563 28.3712L16.1007 44.3563L27.3281 44.1152L26.996 28.5581Z" fill="#EBEBEB"/>
<path d="M16.1007 44.3563L27.1535 35.9037L15.7563 28.3712L16.1007 44.3563Z" fill="#F5F5F5"/>
<path d="M114.392 10.8732L97.416 10.7084L97.8908 32.8312L114.862 32.8927L114.392 10.8732Z" fill="#E0E0E0"/>
<path d="M113.295 11.8621L98.4369 11.4759L98.8674 31.5372L113.721 31.7192L113.295 11.8621Z" fill="#FAFAFA"/>
<path d="M110.759 14.8584L100.902 14.6936L101.202 28.7156L111.052 28.5065L110.759 14.8584Z" fill="#EBEBEB"/>
<path d="M101.202 28.7156L110.899 21.3011L100.902 14.6936L101.202 28.7156Z" fill="#F5F5F5"/>
<path d="M95.3767 94.0458C95.3053 94.2623 97.8367 103.886 97.8367 103.886L99.5734 103.524L97.1848 94.0458H95.3767Z" fill="#EBEBEB"/>
<path d="M108.835 92.6707L105.362 103.886H107.389L110.717 93.4677L108.835 92.6707Z" fill="#F5F5F5"/>
<path d="M112.019 90.9339L108.038 103.886H110.065L113.9 91.7309L112.019 90.9339Z" fill="#EBEBEB"/>
<path d="M96.6067 103.091L98.6337 110.11H108.835L110.717 103.091H96.6067Z" fill="#E0E0E0"/>
<path d="M101.869 103.091C101.86 103.067 101.852 103.042 101.846 103.017L101.792 102.803C101.746 102.607 101.682 102.329 101.598 101.974L100.897 98.9092L98.6066 88.6879L98.6681 88.7396H96.8822L96.9437 88.6608C97.8514 92.6829 98.6657 96.2868 99.2487 98.8895C99.5341 100.186 99.7653 101.231 99.9277 101.965C100.001 102.321 100.063 102.599 100.105 102.798C100.122 102.889 100.137 102.961 100.147 103.015C100.151 103.04 100.151 103.066 100.147 103.091C100.138 103.067 100.13 103.042 100.124 103.017C100.11 102.963 100.092 102.892 100.07 102.803C100.021 102.607 99.9547 102.329 99.8686 101.974C99.6989 101.236 99.4553 100.201 99.1528 98.9092C98.555 96.3065 97.7309 92.7075 96.8108 88.6879L96.7912 88.6116H98.71L98.7223 88.6608C99.6054 92.6829 100.4 96.2868 100.973 98.8895C101.251 100.186 101.477 101.231 101.635 101.965C101.709 102.321 101.765 102.599 101.807 102.798L101.849 103.015C101.86 103.039 101.866 103.065 101.869 103.091Z" fill="#E0E0E0"/>
<path d="M111.839 110.402C111.839 110.437 88.4837 110.466 59.687 110.466C30.8902 110.466 7.53497 110.437 7.53497 110.402C7.53497 110.368 30.8853 110.338 59.6993 110.338C88.5133 110.338 111.839 110.368 111.839 110.402Z" fill="#263238"/>
<path d="M105.123 43.2591C105.067 43.2353 105.008 43.2172 104.949 43.205C104.773 43.1654 104.59 43.1654 104.415 43.205C104.13 43.2782 103.865 43.4144 103.64 43.6035C103.333 43.8687 103.068 44.178 102.853 44.5211C102.348 45.2935 101.952 46.3612 101.49 47.6059C100.955 49.0273 100.492 50.4748 100.102 51.9429C100.03 52.0783 99.9332 52.1992 99.817 52.2996C99.757 52.3542 99.686 52.3952 99.6087 52.4198C99.5314 52.4445 99.4497 52.4521 99.3692 52.4423C99.2113 52.4021 99.0685 52.3166 98.9584 52.1963C98.8428 52.0905 98.7346 51.9773 98.6263 51.8617C98.4127 51.6269 98.1852 51.405 97.9449 51.1975C97.7127 50.9741 97.4037 50.8482 97.0814 50.8457C96.9203 50.8732 96.7667 50.9343 96.6306 51.025C96.4946 51.1157 96.3791 51.234 96.2918 51.3722C96.1171 51.671 96.0231 52.0101 96.0187 52.3562C95.9769 53.0597 96.1811 53.7707 96.3041 54.5062C96.4271 55.2418 96.5821 55.997 96.7247 56.767C96.7985 57.1532 96.8699 57.5419 96.9437 57.9355L97.0544 58.5308C97.0882 58.6347 97.0993 58.7448 97.087 58.8534C97.0747 58.962 97.0392 59.0668 96.983 59.1605C96.9461 59.2099 96.895 59.2469 96.8366 59.2667C96.7782 59.2864 96.7152 59.288 96.6559 59.2712C96.5496 59.2403 96.4503 59.1894 96.3631 59.1212L95.8711 58.7473C95.5363 58.4942 95.1881 58.2594 94.8281 58.0437C94.4677 57.8194 94.0742 57.6534 93.662 57.5517C93.4582 57.5037 93.246 57.5037 93.0421 57.5517C92.8391 57.603 92.6601 57.723 92.5354 57.8912C92.2986 58.2563 92.1825 58.6865 92.2033 59.1212C92.204 59.5688 92.2476 60.0153 92.3336 60.4545C92.5111 61.3574 92.762 62.2443 93.0839 63.1064C93.1776 63.3267 93.2493 63.5558 93.298 63.7903C93.3097 63.8567 93.3077 63.9248 93.2921 63.9904C93.2764 64.056 93.2474 64.1176 93.2069 64.1716C93.185 64.1971 93.1612 64.221 93.1356 64.2429C93.1077 64.268 93.0751 64.2872 93.0397 64.2995C92.9647 64.3107 92.8882 64.2931 92.8256 64.2503C92.6213 64.1192 92.4309 63.9675 92.2574 63.7976L91.7309 63.3056C91.3862 62.9719 91.0115 62.6705 90.6116 62.4053C90.4124 62.2743 90.1942 62.1747 89.9647 62.1101C89.8557 62.0762 89.7408 62.066 89.6275 62.08C89.5143 62.094 89.4053 62.1319 89.3078 62.1913C89.1179 62.3292 88.9856 62.5324 88.9364 62.762C88.8772 62.9968 88.8474 63.2381 88.8478 63.4803C88.8501 63.9779 88.9121 64.4734 89.0323 64.9563C89.2754 65.9377 89.6346 66.8866 90.1024 67.7828C90.5681 68.7018 91.1001 69.5856 91.694 70.4273C91.9913 70.8544 92.3116 71.265 92.6534 71.6573C92.9831 72.0657 93.3176 72.4716 93.6522 72.8873V72.9021L93.5932 72.8775L95.1577 72.6512C95.6761 72.5894 96.191 72.5007 96.7001 72.3855C97.7039 72.1597 98.6904 71.8629 99.6521 71.4974C100.601 71.1466 101.505 70.685 102.346 70.1223C102.759 69.849 103.136 69.526 103.47 69.1604C103.635 68.9813 103.776 68.7821 103.891 68.5676C104.008 68.3646 104.047 68.1256 103.999 67.896C103.967 67.7861 103.913 67.6843 103.838 67.5973C103.764 67.5103 103.672 67.4402 103.568 67.3917C103.355 67.2872 103.127 67.2143 102.892 67.1752C102.417 67.1035 101.937 67.0746 101.458 67.0891H100.739C100.493 67.0987 100.245 67.0831 100.001 67.0424C99.9259 67.0327 99.857 66.9938 99.8096 66.9341C99.7916 66.9007 99.7807 66.8638 99.7776 66.8259C99.7739 66.7924 99.7739 66.7586 99.7776 66.725C99.7851 66.6584 99.8057 66.5938 99.8382 66.5352C99.8707 66.4765 99.9145 66.4248 99.967 66.3831C100.161 66.2429 100.367 66.1218 100.584 66.0215C101.403 65.6005 102.186 65.1126 102.924 64.5627C103.281 64.2963 103.611 63.9946 103.908 63.6623C104.215 63.3552 104.418 62.9594 104.489 62.5307C104.509 62.322 104.457 62.1126 104.341 61.9379C104.223 61.7645 104.067 61.6213 103.883 61.5197C103.512 61.3157 103.111 61.172 102.695 61.0941C102.284 61.0112 101.868 60.9513 101.45 60.9145L100.83 60.8555C100.72 60.8491 100.612 60.8198 100.513 60.7694C100.458 60.741 100.413 60.6967 100.384 60.6423C100.354 60.5879 100.342 60.5259 100.348 60.4643C100.371 60.3578 100.416 60.2572 100.48 60.169C100.544 60.0809 100.625 60.0072 100.72 59.9527L101.212 59.5886L102.159 58.8678L103.989 57.4779C104.577 57.0179 105.204 56.6292 105.647 56.0782C105.874 55.8206 106.03 55.5087 106.1 55.1729C106.128 55.0115 106.123 54.8459 106.083 54.6869C106.043 54.5279 105.97 54.3792 105.869 54.2504C105.761 54.1317 105.622 54.0463 105.468 54.0044C105.313 53.9585 105.154 53.932 104.993 53.9257C104.676 53.9173 104.359 53.9288 104.043 53.9601C103.886 53.9601 103.728 53.9822 103.573 53.9847C103.412 53.9968 103.25 53.9618 103.108 53.8838C103.041 53.8379 102.983 53.7779 102.941 53.7078C102.899 53.6377 102.872 53.5593 102.862 53.4779C102.844 53.325 102.853 53.1701 102.89 53.0204C103.594 51.6864 104.23 50.3177 104.796 48.9196C105.288 47.6896 105.714 46.6318 105.866 45.7216C105.941 45.3242 105.957 44.9182 105.915 44.5162C105.883 44.2239 105.785 43.9428 105.627 43.6945C105.532 43.5426 105.402 43.4153 105.249 43.3231C105.196 43.291 105.141 43.2639 105.084 43.2419C105.143 43.2579 105.2 43.2819 105.254 43.3132C105.412 43.4037 105.547 43.5301 105.647 43.6822C105.808 43.9325 105.91 44.216 105.945 44.5112C105.993 44.9167 105.98 45.3271 105.908 45.7289C105.76 46.6416 105.342 47.6969 104.853 48.9269C104.298 50.3411 103.673 51.7262 102.978 53.077C102.944 53.2153 102.936 53.3587 102.953 53.5001C102.96 53.5697 102.982 53.6371 103.016 53.6977C103.051 53.7584 103.098 53.8109 103.155 53.8519C103.284 53.9198 103.429 53.9497 103.573 53.938C103.726 53.938 103.881 53.9232 104.038 53.9109C104.358 53.8787 104.679 53.8663 105 53.874C105.167 53.8806 105.332 53.9079 105.492 53.9552C105.661 54.0002 105.815 54.0913 105.935 54.2184C106.042 54.3563 106.119 54.515 106.162 54.6844C106.204 54.8539 106.211 55.0303 106.181 55.2024C106.109 55.5548 105.947 55.8823 105.709 56.152C105.254 56.7178 104.621 57.1114 104.038 57.5738L102.211 58.9662L101.266 59.6845L100.786 60.0511C100.705 60.1052 100.632 60.1697 100.567 60.2429C100.508 60.3132 100.469 60.3982 100.454 60.4889C100.45 60.5298 100.458 60.5711 100.478 60.6071C100.498 60.6432 100.528 60.6723 100.565 60.6907C100.652 60.7328 100.746 60.757 100.843 60.762L101.463 60.821C101.884 60.8569 102.303 60.9168 102.717 61.0006C103.148 61.08 103.563 61.2269 103.947 61.436C104.143 61.5488 104.312 61.7044 104.439 61.8911C104.568 62.0868 104.626 62.3198 104.607 62.5529C104.533 63.0064 104.321 63.4259 103.999 63.7534C103.693 64.0913 103.356 64.3986 102.99 64.6709C102.247 65.2264 101.46 65.72 100.636 66.1469C100.427 66.2419 100.227 66.3572 100.041 66.4913C100 66.5227 99.9659 66.5619 99.9405 66.6067C99.9152 66.6515 99.8991 66.701 99.8932 66.7521C99.8908 66.7766 99.8908 66.8014 99.8932 66.8259C99.8932 66.8456 99.8932 66.8923 99.9104 66.8899C99.9421 66.9182 99.9815 66.9362 100.024 66.9415C100.255 66.9788 100.488 66.9937 100.722 66.9858H101.441C101.928 66.9681 102.415 66.9969 102.897 67.0719C103.145 67.1106 103.386 67.1878 103.61 67.3007C103.729 67.3574 103.834 67.4387 103.919 67.5393C104.004 67.6398 104.066 67.7572 104.102 67.8837C104.158 68.1422 104.116 68.4122 103.984 68.6414C103.865 68.8651 103.718 69.0727 103.546 69.2588C103.206 69.6326 102.821 69.9631 102.4 70.2428C101.552 70.8133 100.638 71.2799 99.6792 71.6327C98.7099 72.0025 97.7151 72.3017 96.7026 72.5282C96.1919 72.644 95.6754 72.7327 95.1553 72.7939L93.5882 73.0226H93.5513L93.5292 72.9931H93.5169L92.5181 71.7631C92.1764 71.37 91.8554 70.9595 91.5563 70.5331C90.9577 69.6852 90.4216 68.7948 89.9524 67.8689C89.4823 66.9628 89.1214 66.0041 88.8773 65.0129C88.7529 64.5232 88.6893 64.02 88.6879 63.5147C88.6882 63.2609 88.7196 63.0081 88.7814 62.762C88.8394 62.5042 88.99 62.2766 89.2045 62.1224C89.3166 62.0531 89.4421 62.0085 89.5728 61.9915C89.7034 61.9746 89.8362 61.9856 89.9622 62.024C90.203 62.0922 90.4319 62.1967 90.6412 62.3339C91.0477 62.6028 91.4282 62.9092 91.7777 63.2491L92.3041 63.7411C92.4716 63.9036 92.6545 64.0494 92.8502 64.1765C92.8854 64.2018 92.9275 64.2155 92.9708 64.2158C92.9708 64.2158 93.0077 64.1937 93.0249 64.1814L93.079 64.1273C93.1088 64.0858 93.1299 64.0386 93.1409 63.9887C93.1519 63.9388 93.1526 63.8872 93.143 63.837C93.0963 63.6117 93.0271 63.3916 92.9363 63.1802C92.6129 62.3117 92.3612 61.4182 92.1836 60.5086C92.0962 60.0621 92.0526 59.6081 92.0532 59.1532C92.0337 58.6932 92.1594 58.2388 92.4124 57.8543C92.5526 57.6675 92.7521 57.534 92.9782 57.4754C93.199 57.4238 93.4289 57.4238 93.6497 57.4754C94.0725 57.5754 94.4768 57.7415 94.8478 57.9674C95.2122 58.1838 95.5637 58.4212 95.9006 58.6784L96.3926 59.0523C96.466 59.1116 96.5493 59.1575 96.6386 59.1876C96.6783 59.1992 96.7206 59.1983 96.7597 59.1851C96.7989 59.1719 96.833 59.147 96.8576 59.1138C96.9061 59.0405 96.9342 58.9556 96.9388 58.8678C96.9413 58.77 96.9305 58.6724 96.9068 58.5775C96.8699 58.3783 96.8354 58.1815 96.7985 57.9847C96.7247 57.5911 96.6534 57.1999 96.5821 56.8162C96.4418 56.0437 96.3016 55.291 96.1663 54.5554C96.031 53.8199 95.8416 53.1065 95.8834 52.3808C95.8907 52.0212 95.9906 51.6695 96.1737 51.3599C96.2685 51.2101 96.3941 51.0821 96.5421 50.9846C96.6901 50.887 96.8572 50.8221 97.0322 50.7941C97.2065 50.7798 97.3812 50.8147 97.5365 50.8949C97.6875 50.9682 97.8288 51.0599 97.9572 51.168C98.2005 51.3782 98.4306 51.6033 98.646 51.842C98.751 51.9568 98.8592 52.0675 98.9707 52.1741C99.0708 52.2802 99.1987 52.356 99.3397 52.3931C99.4093 52.4009 99.4798 52.3937 99.5464 52.3721C99.613 52.3504 99.6742 52.3148 99.7259 52.2676C99.8337 52.1747 99.9237 52.063 99.9916 51.938C100.386 50.4675 100.855 49.0182 101.399 47.5961C101.866 46.3538 102.27 45.2837 102.784 44.5112C103.004 44.1662 103.274 43.8561 103.586 43.5912C103.815 43.401 104.085 43.2664 104.375 43.1976C104.553 43.1556 104.739 43.1556 104.917 43.1976C104.988 43.2062 105.058 43.227 105.123 43.2591Z" fill="#263238"/>
<path d="M103.832 46.6047C103.827 46.6328 103.819 46.6602 103.807 46.6859L103.723 46.9171C103.642 47.1262 103.529 47.4239 103.386 47.8003C103.086 48.5752 102.661 49.6846 102.134 51.0499L98.0482 61.7854C96.4591 65.9674 95.0027 69.773 93.9253 72.5085C93.389 73.8763 92.9413 74.9808 92.6362 75.7434C92.4837 76.1173 92.3632 76.4101 92.2771 76.6167C92.2352 76.7127 92.2057 76.7864 92.1811 76.8455L92.1442 76.9193C92.1487 76.892 92.157 76.8655 92.1688 76.8406C92.1885 76.7815 92.218 76.7053 92.2525 76.6093C92.3336 76.3978 92.4468 76.1026 92.5895 75.7237C92.8896 74.9488 93.3152 73.8418 93.8416 72.4765L97.9277 61.746C99.5168 57.5517 100.971 53.7608 102.051 51.0253C102.587 49.6576 103.035 48.5506 103.34 47.7904C103.492 47.4165 103.613 47.1213 103.699 46.9147C103.741 46.8212 103.77 46.7449 103.795 46.6883L103.832 46.6047Z" fill="#263238"/>
<path d="M103.965 55.104C103.77 55.2432 103.564 55.3659 103.35 55.4705L101.844 56.3069C101.254 56.6341 100.717 56.9269 100.321 57.1261C100.113 57.2443 99.8929 57.3399 99.6644 57.4115C99.8604 57.2748 100.066 57.1523 100.279 57.0449L101.78 56.1962C102.37 55.8691 102.909 55.5837 103.308 55.3894C103.517 55.2735 103.737 55.1779 103.965 55.104Z" fill="#263238"/>
<path d="M99.4652 57.254C99.4332 57.2688 98.8477 56.152 98.1589 54.7596C97.4701 53.3672 96.9289 52.2258 96.9658 52.2086C97.0027 52.1914 97.5833 53.3107 98.2745 54.703C98.9658 56.0954 99.4972 57.2368 99.4652 57.254Z" fill="#263238"/>
<path d="M97.3151 63.805C97.1186 63.6597 96.9372 63.4949 96.7739 63.313C96.4541 62.9932 96.0359 62.5381 95.5808 62.0117C95.1257 61.4853 94.7567 60.9883 94.496 60.6193C94.3427 60.4289 94.2099 60.2227 94.0999 60.0043C94.2689 60.1799 94.4251 60.3674 94.5673 60.5652C94.8478 60.9195 95.234 61.4041 95.6792 61.9281C96.1245 62.452 96.5378 62.9121 96.8379 63.2491C97.0107 63.4221 97.1702 63.608 97.3151 63.805Z" fill="#263238"/>
<path d="M101.814 62.7472C101.604 62.8312 101.387 62.8954 101.165 62.9391C100.762 63.04 100.201 63.1703 99.5808 63.3081C98.9609 63.4459 98.3951 63.5541 97.9867 63.6427C97.7675 63.6979 97.5434 63.7317 97.3176 63.7435C97.5277 63.6603 97.7451 63.5969 97.967 63.5541C98.3705 63.4532 98.9314 63.3081 99.5537 63.1826C100.176 63.0572 100.737 62.9366 101.145 62.8505C101.365 62.7956 101.589 62.761 101.814 62.7472Z" fill="#263238"/>
<path d="M100.651 68.7742C100.378 68.8688 100.098 68.9436 99.8145 68.9981C99.293 69.1186 98.5845 69.2785 97.7776 69.4458C96.9707 69.6131 96.2549 69.7607 95.7309 69.8591C95.4503 69.9261 95.1649 69.9713 94.8773 69.9944C95.1501 69.899 95.4297 69.8242 95.7137 69.7705C96.2327 69.65 96.9437 69.4901 97.7506 69.3228C98.5574 69.1555 99.2708 69.0079 99.7948 68.9095C100.076 68.8424 100.362 68.7972 100.651 68.7742Z" fill="#263238"/>
<path d="M95.0052 69.9255C94.9367 69.878 94.8747 69.8218 94.8207 69.7582C94.7075 69.6451 94.5501 69.4778 94.3558 69.2662C93.9695 68.8431 93.4505 68.2453 92.9044 67.5639C92.3582 66.8825 91.8884 66.2429 91.5612 65.773C91.3964 65.5393 91.2685 65.3474 91.1824 65.2121C91.1311 65.1454 91.0896 65.0717 91.0594 64.9932C91.121 65.0495 91.1755 65.1131 91.2217 65.1826L91.635 65.7214C91.9794 66.1765 92.4591 66.8038 93.0052 67.4827C93.5513 68.1617 94.0556 68.7693 94.4246 69.2047C94.6338 69.432 94.8277 69.6727 95.0052 69.9255Z" fill="#263238"/>
<path d="M92.5452 86.405C88.2746 82.961 87.6547 77.0743 88.191 71.8566C88.282 70.9858 88.2476 70.0583 88.715 69.3203C89.1824 68.5823 90.191 68.1272 90.9462 68.5479C91.5735 68.8972 91.8023 69.6721 92.1221 70.3191C92.5501 71.1839 93.2135 71.9104 94.036 72.415C94.5722 72.7422 95.2487 72.9661 95.817 72.7004C96.5993 72.3363 96.7592 71.3031 96.8133 70.4347L97.1159 65.5787C97.17 64.7078 97.229 63.8222 97.5562 63.0178C97.8834 62.2134 98.5402 61.4877 99.3742 61.3106C100.208 61.1335 101.204 61.6845 101.32 62.5406C101.328 62.9021 101.312 63.2637 101.271 63.623C101.271 63.9846 101.411 64.3954 101.746 64.5184C102.08 64.6414 102.449 64.4225 102.73 64.1863C103.687 63.3721 104.37 62.2847 105.017 61.1999C105.664 60.115 106.292 59.0031 107.172 58.1027C108.053 57.2024 109.226 56.521 110.476 56.5357C111.726 56.5505 112.995 57.409 113.226 58.6513C113.458 59.8936 112.658 61.0916 111.812 62.0289C110.556 63.4223 109.104 64.6263 107.502 65.6033C107.189 65.7443 106.931 65.9824 106.764 66.2822C106.535 66.848 107.044 67.4606 107.603 67.6918C108.235 67.9501 108.944 67.9378 109.615 68.0584C110.287 68.1789 111 68.5331 111.212 69.19C111.507 70.1026 110.7 70.9808 109.928 71.5417C108.388 72.6607 106.668 73.5077 104.843 74.046C104.186 74.2354 103.5 74.3929 102.953 74.8061C102.407 75.2194 102.043 75.9796 102.314 76.6118C102.584 77.244 103.369 77.4974 104.036 77.4187C104.703 77.3399 105.337 77.0177 105.992 76.8209C107.222 76.4519 108.752 76.6413 109.436 77.7237C109.891 78.4371 109.871 79.3842 109.561 80.1837C109.215 80.9601 108.718 81.6593 108.097 82.2403C106.051 84.3827 103.471 85.9431 100.624 86.7617C97.7899 87.5317 95.2118 87.6154 92.5255 86.4198" fill="#E9EDDA"/>
<g opacity="0.1">
<path d="M92.5452 86.405C88.2746 82.961 87.6547 77.0743 88.191 71.8566C88.282 70.9858 88.2476 70.0583 88.715 69.3203C89.1824 68.5823 90.191 68.1272 90.9462 68.5479C91.5735 68.8972 91.8023 69.6721 92.1221 70.3191C92.5501 71.1839 93.2135 71.9104 94.036 72.415C94.5722 72.7422 95.2487 72.9661 95.817 72.7004C96.5993 72.3363 96.7592 71.3031 96.8133 70.4347L97.1159 65.5787C97.17 64.7078 97.229 63.8222 97.5562 63.0178C97.8834 62.2134 98.5402 61.4877 99.3742 61.3106C100.208 61.1335 101.204 61.6845 101.32 62.5406C101.328 62.9021 101.312 63.2637 101.271 63.623C101.271 63.9846 101.411 64.3954 101.746 64.5184C102.08 64.6414 102.449 64.4225 102.73 64.1863C103.687 63.3721 104.37 62.2847 105.017 61.1999C105.664 60.115 106.292 59.0031 107.172 58.1027C108.053 57.2024 109.226 56.521 110.476 56.5357C111.726 56.5505 112.995 57.409 113.226 58.6513C113.458 59.8936 112.658 61.0916 111.812 62.0289C110.556 63.4223 109.104 64.6263 107.502 65.6033C107.189 65.7443 106.931 65.9824 106.764 66.2822C106.535 66.848 107.044 67.4606 107.603 67.6918C108.235 67.9501 108.944 67.9378 109.615 68.0584C110.287 68.1789 111 68.5331 111.212 69.19C111.507 70.1026 110.7 70.9808 109.928 71.5417C108.388 72.6607 106.668 73.5077 104.843 74.046C104.186 74.2354 103.5 74.3929 102.953 74.8061C102.407 75.2194 102.043 75.9796 102.314 76.6118C102.584 77.244 103.369 77.4974 104.036 77.4187C104.703 77.3399 105.337 77.0177 105.992 76.8209C107.222 76.4519 108.752 76.6413 109.436 77.7237C109.891 78.4371 109.871 79.3842 109.561 80.1837C109.215 80.9601 108.718 81.6593 108.097 82.2403C106.051 84.3827 103.471 85.9431 100.624 86.7617C97.7899 87.5317 95.2118 87.6154 92.5255 86.4198" fill="black"/>
</g>
<path d="M92.2106 90.282C92.6205 87.874 93.2597 85.5106 94.1196 83.2243C95.1837 80.435 96.4067 77.709 97.7825 75.0595L98.8526 72.9685C99.2069 72.2822 99.5562 71.6032 99.94 70.9587C100.679 69.725 101.484 68.5326 102.353 67.3868C103.177 66.2872 103.996 65.2737 104.771 64.3315C105.546 63.3893 106.289 62.5283 106.998 61.7706C108.11 60.5695 109.316 59.4583 110.604 58.4471C111.059 58.0904 111.421 57.8248 111.669 57.6476L111.952 57.4484C111.983 57.4247 112.016 57.4033 112.051 57.3844C112.025 57.4138 111.995 57.4395 111.962 57.4607L111.689 57.6747C111.443 57.8592 111.091 58.1323 110.643 58.4988C109.374 59.5248 108.183 60.6448 107.081 61.8493C106.38 62.6095 105.645 63.4754 104.867 64.4176C104.09 65.3597 103.281 66.3856 102.464 67.4778C101.6 68.6197 100.8 69.8089 100.068 71.0399C99.6866 71.6819 99.3299 72.356 98.9879 73.0423L97.9178 75.1333C96.5456 77.7776 95.3211 80.496 94.25 83.2759C93.3874 85.5525 92.7393 87.9046 92.314 90.3017" fill="#263238"/>
<path d="M99.9867 70.9513C99.952 70.8286 99.9314 70.7023 99.9252 70.5749C99.8981 70.3289 99.8662 69.9796 99.8342 69.5417C99.7727 68.6709 99.7259 67.4606 99.6792 66.1297C99.6325 64.7989 99.5685 63.591 99.4922 62.7202C99.4553 62.2872 99.4234 61.9354 99.3963 61.6919C99.3742 61.5661 99.3668 61.4381 99.3742 61.3106C99.4142 61.4313 99.4422 61.5558 99.4578 61.682C99.5021 61.928 99.5537 62.2749 99.6054 62.7103C99.7112 63.5787 99.7924 64.7866 99.8514 66.1223C99.9104 67.4581 99.9326 68.6266 99.9596 69.5368C99.9769 69.9476 99.9892 70.292 100.001 70.57C100.009 70.6973 100.004 70.825 99.9867 70.9513Z" fill="#263238"/>
<path d="M111.293 69.6303C111.144 69.6536 110.993 69.6618 110.843 69.6549C110.555 69.6549 110.139 69.6549 109.613 69.6894C108.584 69.7312 107.153 69.8345 105.6 70.0215C104.048 70.2084 102.631 70.4372 101.618 70.634C101.111 70.7275 100.703 70.816 100.42 70.88C100.275 70.9184 100.126 70.9439 99.9769 70.9563C100.115 70.8978 100.258 70.8517 100.405 70.8185C100.683 70.7398 101.089 70.6365 101.596 70.5258C102.604 70.3019 104.014 70.0534 105.581 69.864C106.918 69.7008 108.263 69.6064 109.61 69.5811C110.127 69.5811 110.545 69.5811 110.84 69.5959C110.992 69.5939 111.143 69.6055 111.293 69.6303Z" fill="#263238"/>
<path d="M94.2721 83.0225C94.2429 82.9795 94.2205 82.9322 94.2057 82.8823L94.0409 82.4641C93.9007 82.1025 93.7112 81.5711 93.4874 80.9143C93.0372 79.5982 92.4714 77.7606 91.8736 75.7262C91.2758 73.6918 90.7297 71.8492 90.3066 70.5257C90.1 69.8812 89.9278 69.3523 89.8023 68.9587L89.667 68.5331C89.6478 68.4842 89.6354 68.4329 89.6301 68.3806C89.6581 68.4244 89.6804 68.4715 89.6965 68.5208C89.7408 68.634 89.7949 68.7668 89.8589 68.939C89.9991 69.3007 90.1885 69.832 90.4148 70.4888C90.865 71.8049 91.4308 73.6426 92.0261 75.6794C92.6215 77.7163 93.1725 79.5539 93.5956 80.8774C93.8023 81.5219 93.972 82.0508 94.0876 82.4444L94.2229 82.87C94.2463 82.9183 94.2629 82.9697 94.2721 83.0225Z" fill="#263238"/>
<path d="M109.436 79.2587C109.388 79.2842 109.336 79.3017 109.283 79.3104L108.843 79.426L107.219 79.8319C105.846 80.1738 103.96 80.6683 101.874 81.2193C99.7874 81.7704 97.8932 82.2476 96.5132 82.5625C95.8244 82.7199 95.266 82.8429 94.8773 82.9192L94.4296 83.0053C94.3781 83.0182 94.3251 83.024 94.2721 83.0225C94.3198 82.9997 94.3702 82.9832 94.4222 82.9733L94.865 82.8577L96.4886 82.4518C97.8588 82.1099 99.7481 81.6129 101.834 81.0619C103.92 80.5109 105.814 80.0336 107.192 79.7187C107.881 79.5613 108.442 79.4408 108.828 79.3645L109.276 79.2784C109.328 79.2657 109.382 79.2591 109.436 79.2587Z" fill="#263238"/>
<path d="M93.539 18.4967H33.8816V100.243H93.539V18.4967Z" fill="#455A64"/>
<path d="M91.1799 95.3816H80.132H38.8508V21.8005H91.1799V86.2279V95.3816Z" fill="#E0E0E0"/>
<path d="M90.3533 94.0163H79.4039H38.4941V20.8288H90.3533V84.9118V94.0163Z" fill="#EBEBEB"/>
<path d="M84.7814 88.3214L78.8086 93.1848H37.5273V21.0133H89.8564V84.2058L84.7814 88.3214Z" fill="#FAFAFA"/>
<path d="M84.7814 88.314C84.7814 88.314 84.8872 88.223 85.1012 88.0483L86.0582 87.266L89.8441 84.1837V84.1984C89.8441 73.8172 89.8244 50.7424 89.8072 21.0059L89.8638 21.065H37.9898H37.5347L37.5986 21.001C37.5986 48.1348 37.5986 73.1653 37.5839 93.1725L37.5347 93.1208L78.8159 93.1504H78.8012L83.2882 89.512L84.4124 88.6043C84.6584 88.4026 84.7888 88.3042 84.7888 88.3042L84.4198 88.6117L83.2956 89.544L78.8233 93.1996L37.5273 93.234H37.4756V93.1823C37.4756 73.1752 37.4756 48.1447 37.4633 21.0109V20.9469H37.9824H89.8564H89.9155V21.0035C89.8982 50.7498 89.8835 73.8148 89.8786 84.196L86.0779 87.2636L85.116 88.068L84.7814 88.314Z" fill="#263238"/>
<path d="M56.6317 15.9703H70.9366C71.8598 15.9703 72.7451 16.337 73.3979 16.9898C74.0507 17.6426 74.4175 18.528 74.4175 19.4512V23.3109H53.0007V19.5988C53.0014 18.6362 53.3842 17.7133 54.0651 17.0329C54.7459 16.3525 55.6691 15.9703 56.6317 15.9703Z" fill="#E9EDDA"/>
<path d="M58.2479 15.9703L57.4656 12.0097H69.7976L69.1112 15.9703H58.2479Z" fill="#E9EDDA"/>
<path d="M51.815 41.328H43.0008V32.5114H51.815V41.328ZM43.2468 41.082H51.569V32.7574H43.2468V41.082Z" fill="#E9EDDA"/>
<path d="M82.9709 34.6417C82.9709 34.6762 76.8332 34.7057 69.2662 34.7057C61.6993 34.7057 55.5591 34.6762 55.5591 34.6417C55.5591 34.6073 61.6943 34.5778 69.2662 34.5778C76.8381 34.5778 82.9709 34.6048 82.9709 34.6417Z" fill="#263238"/>
<path d="M82.9709 36.4719C82.9709 36.5088 76.8332 36.5359 69.2662 36.5359C61.6993 36.5359 55.5591 36.5088 55.5591 36.4719C55.5591 36.435 61.6943 36.408 69.2662 36.408C76.8381 36.408 82.9709 36.4375 82.9709 36.4719Z" fill="#263238"/>
<path d="M82.9709 38.3047C82.9709 38.3391 76.8332 38.3686 69.2662 38.3686C61.6993 38.3686 55.5591 38.3391 55.5591 38.3047C55.5591 38.2702 61.6943 38.2407 69.2662 38.2407C76.8381 38.2407 82.9709 38.2702 82.9709 38.3047Z" fill="#263238"/>
<path d="M82.9709 40.1374C82.9709 40.1718 76.8332 40.2013 69.2662 40.2013C61.6993 40.2013 55.5591 40.1718 55.5591 40.1374C55.5591 40.1029 61.6943 40.0734 69.2662 40.0734C76.8381 40.0734 82.9709 40.098 82.9709 40.1374Z" fill="#263238"/>
<path d="M51.815 54.9146H43.0008V46.0979H51.815V54.9146ZM43.2468 54.6686H51.569V46.3439H43.2468V54.6686Z" fill="#E9EDDA"/>
<path d="M44.7523 50.6883L45.9233 49.4312L47.8741 50.9909L52.339 46.6563L53.4091 47.9183L47.788 53.4632L44.7523 50.6883Z" fill="#E9EDDA"/>
<path d="M82.9709 48.2283C82.9709 48.2627 76.8332 48.2923 69.2662 48.2923C61.6993 48.2923 55.5591 48.2627 55.5591 48.2283C55.5591 48.1939 61.6943 48.1643 69.2662 48.1643C76.8381 48.1643 82.9709 48.1939 82.9709 48.2283Z" fill="#263238"/>
<path d="M82.9709 50.061C82.9709 50.0954 76.8332 50.125 69.2662 50.125C61.6993 50.125 55.5591 50.0954 55.5591 50.061C55.5591 50.0266 61.6943 49.997 69.2662 49.997C76.8381 49.997 82.9709 50.0241 82.9709 50.061Z" fill="#263238"/>
<path d="M82.9709 51.8912C82.9709 51.9281 76.8332 51.9552 69.2662 51.9552C61.6993 51.9552 55.5591 51.9281 55.5591 51.8912C55.5591 51.8543 61.6943 51.8273 69.2662 51.8273C76.8381 51.8273 82.9709 51.8568 82.9709 51.8912Z" fill="#263238"/>
<path d="M82.9709 53.7239C82.9709 53.7584 76.8332 53.7879 69.2662 53.7879C61.6993 53.7879 55.5591 53.7584 55.5591 53.7239C55.5591 53.6895 61.6943 53.66 69.2662 53.66C76.8381 53.66 82.9709 53.6895 82.9709 53.7239Z" fill="#263238"/>
<path d="M51.815 68.0633H43.0008V59.2466H51.815V68.0633ZM43.2468 67.8173H51.569V59.4926H43.2468V67.8173Z" fill="#E9EDDA"/>
<path d="M44.7523 63.837L45.9233 62.5799L47.8741 64.1396L52.339 59.8051L53.4091 61.067L47.788 66.6119L44.7523 63.837Z" fill="#E9EDDA"/>
<path d="M82.9709 61.377C82.9709 61.4114 76.8332 61.4409 69.2662 61.4409C61.6993 61.4409 55.5591 61.4114 55.5591 61.377C55.5591 61.3425 61.6943 61.313 69.2662 61.313C76.8381 61.313 82.9709 61.3401 82.9709 61.377Z" fill="#263238"/>
<path d="M82.9709 63.2072C82.9709 63.2441 76.8332 63.2712 69.2662 63.2712C61.6993 63.2712 55.5591 63.2441 55.5591 63.2072C55.5591 63.1703 61.6943 63.1432 69.2662 63.1432C76.8381 63.1432 82.9709 63.1728 82.9709 63.2072Z" fill="#263238"/>
<path d="M82.9709 65.0399C82.9709 65.0768 76.8332 65.1039 69.2662 65.1039C61.6993 65.1039 55.5591 65.0768 55.5591 65.0399C55.5591 65.003 61.6943 64.976 69.2662 64.976C76.8381 64.976 82.9709 65.0055 82.9709 65.0399Z" fill="#263238"/>
<path d="M82.9709 66.8726C82.9709 66.9071 76.8332 66.9366 69.2662 66.9366C61.6993 66.9366 55.5591 66.9071 55.5591 66.8726C55.5591 66.8382 61.6943 66.8087 69.2662 66.8087C76.8381 66.8087 82.9709 66.8382 82.9709 66.8726Z" fill="#263238"/>
<path d="M51.815 80.7593H43.0008V71.9427H51.815V80.7593ZM43.2468 80.5133H51.569V72.1887H43.2468V80.5133Z" fill="#E9EDDA"/>
<path d="M44.7523 76.533L45.9233 75.276L47.8741 76.8356L52.339 72.5011L53.4091 73.7606L47.788 79.3055L44.7523 76.533Z" fill="#E9EDDA"/>
<path d="M82.9709 74.0706C82.9709 74.1075 76.8332 74.1345 69.2662 74.1345C61.6993 74.1345 55.5591 74.1075 55.5591 74.0706C55.5591 74.0337 61.6943 74.0066 69.2662 74.0066C76.8381 74.0066 82.9709 74.046 82.9709 74.0706Z" fill="#263238"/>
<path d="M82.9709 75.9033C82.9709 75.9377 76.8332 75.9672 69.2662 75.9672C61.6993 75.9672 55.5591 75.9377 55.5591 75.9033C55.5591 75.8688 61.6943 75.8393 69.2662 75.8393C76.8381 75.8393 82.9709 75.8688 82.9709 75.9033Z" fill="#263238"/>
<path d="M82.9709 77.736C82.9709 77.7704 76.8332 77.8 69.2662 77.8C61.6993 77.8 55.5591 77.7704 55.5591 77.736C55.5591 77.7015 61.6943 77.672 69.2662 77.672C76.8381 77.672 82.9709 77.6991 82.9709 77.736Z" fill="#263238"/>
<path d="M82.9709 79.5662C82.9709 79.6031 76.8332 79.6302 69.2662 79.6302C61.6993 79.6302 55.5591 79.6031 55.5591 79.5662C55.5591 79.5293 61.6943 79.5023 69.2662 79.5023C76.8381 79.5023 82.9709 79.5318 82.9709 79.5662Z" fill="#263238"/>
<path d="M80.4494 81.2366L74.7127 93.1184H78.8086L80.4494 81.2366Z" fill="#E0E0E0"/>
<path d="M78.8085 93.1848L80.4494 81.303L89.8564 84.2058L78.8085 93.1848Z" fill="#FAFAFA"/>
<path d="M78.8085 93.1848L81.9721 90.5796L89.817 84.1566L89.8392 84.2648L86.2058 83.148L80.442 81.3596L80.5183 81.3104C80.0263 84.7544 79.6056 87.7187 79.3079 89.8195C79.0103 91.8638 78.8578 92.9191 78.8159 93.1848C78.815 93.1667 78.815 93.1487 78.8159 93.1306L78.8381 92.9683C78.8578 92.8133 78.8848 92.5968 78.9217 92.3213C78.998 91.7432 79.1062 90.9142 79.244 89.8613C79.5293 87.7433 79.9278 84.7642 80.3928 81.2833V81.2144L80.4592 81.2341L86.2378 83.0151L89.8687 84.1369L89.9819 84.1713L89.8909 84.2451C86.715 86.806 83.9377 89.0446 81.95 90.6411L79.6302 92.5034L79.0103 92.9954L78.8528 93.1208L78.8085 93.1848Z" fill="#263238"/>
<g opacity="0.3">
<path d="M68.944 12.0097L68.265 15.9703H69.1112L69.7976 12.0097H68.7176" fill="black"/>
</g>
<path d="M32.8238 53.7805C33.1204 53.8029 33.4184 53.7653 33.7002 53.6699C33.9819 53.5746 34.2415 53.4234 34.4635 53.2255C34.6856 53.0276 34.8654 52.787 34.9924 52.518C35.1194 52.249 35.1909 51.9572 35.2026 51.66C35.2493 50.4546 35.2912 49.2369 35.2912 49.2369C35.2912 49.2369 37.1165 49.0672 37.2592 47.2689C37.4018 45.4707 37.3305 41.2936 37.3305 41.2936C36.3299 40.7887 35.2126 40.5604 34.0942 40.6322C32.9757 40.704 31.8968 41.0733 30.9689 41.7019L31.0796 48.0586V51.4804C31.0821 52.617 31.6799 53.6944 32.8238 53.7805Z" fill="#FFBE9D"/>
<path d="M35.4486 45.0549C35.3153 44.8633 35.1146 44.729 34.8866 44.6788C34.6586 44.6286 34.42 44.6663 34.2186 44.7843C34.0141 44.9264 33.8668 45.1364 33.8028 45.377C33.7388 45.6176 33.7624 45.8731 33.8693 46.0979C33.9624 46.2648 34.0892 46.4105 34.2417 46.5256C34.3942 46.6408 34.5689 46.7231 34.7549 46.7671C34.9197 46.8029 35.0659 46.8976 35.166 47.0335C35.266 47.1693 35.3132 47.337 35.2985 47.5051C35.2228 47.9799 35.001 48.4193 34.6639 48.7621C34.1066 49.3292 33.3649 49.6782 32.5729 49.7461C31.8029 49.8371 30.9222 49.6772 30.4745 49.045C30.1473 48.585 30.1252 47.9823 30.1129 47.419C30.085 46.0873 30.0571 44.7556 30.0292 43.4239C30.0002 42.9439 30.0308 42.4622 30.1202 41.9897C30.2145 41.5132 30.485 41.0897 30.8779 40.804C31.3183 40.5137 31.8742 40.4891 32.3736 40.3292C33.0009 40.1251 33.5323 39.7118 34.1177 39.4117C34.7032 39.1115 35.4191 38.932 36.007 39.2272C36.4301 39.4387 36.713 39.8594 37.1214 40.0931C37.7069 40.4252 38.5015 40.3391 38.7844 41.2099C38.8839 41.5077 38.8839 41.8297 38.7844 42.1275C38.3883 43.296 36.9418 43.7683 35.8988 43.264C35.8791 43.4608 36.0734 43.9012 35.8643 44.526C35.7979 44.7277 35.7758 45.0303 35.4634 45.0377" fill="#263238"/>
<path d="M30.4622 41.328C30.7489 40.7567 30.9447 40.1442 31.0427 39.5125C31.0891 39.1962 31.062 38.8734 30.9634 38.5692C30.8649 38.265 30.6976 37.9876 30.4745 37.7586C30.1452 37.4726 29.7197 37.3223 29.2838 37.3379C28.8698 37.3615 28.4732 37.5124 28.1482 37.77C27.8233 38.0276 27.5858 38.3793 27.4684 38.777C27.367 39.178 27.3827 39.5996 27.5135 39.992C27.6443 40.3843 27.8847 40.731 28.2064 40.991C28.5353 41.2436 28.9251 41.4049 29.3363 41.4584C29.7475 41.512 30.1656 41.456 30.5483 41.296" fill="#263238"/>
<path d="M30.8164 40.6761C30.8031 40.897 30.7081 41.1049 30.5498 41.2596C30.3916 41.4142 30.1814 41.5043 29.9603 41.5125C29.9603 41.4756 30.226 41.4043 30.4523 41.1681C30.6787 40.9319 30.782 40.6663 30.8164 40.6761Z" fill="#E9EDDA"/>
<path d="M30.2236 41.1189C30.0826 41.2667 29.9159 41.3876 29.7316 41.4756C29.5346 41.5879 29.3136 41.6512 29.087 41.6601C28.9432 41.6679 28.7996 41.6411 28.6682 41.5821C28.5368 41.523 28.4215 41.4334 28.3318 41.3206C28.2525 41.202 28.1995 41.0676 28.1766 40.9267C28.1537 40.7858 28.1613 40.6416 28.199 40.5039C28.2561 40.2854 28.3592 40.0816 28.5016 39.9061C28.6194 39.7399 28.764 39.5944 28.9296 39.4756C28.8201 39.6457 28.7019 39.8099 28.5754 39.9676C28.4519 40.139 28.3633 40.3329 28.3146 40.5384C28.2839 40.6595 28.2788 40.7857 28.2995 40.909C28.3203 41.0322 28.3665 41.1498 28.4351 41.2542C28.5138 41.3503 28.6135 41.4268 28.7266 41.478C28.8396 41.5292 28.963 41.5537 29.087 41.5494C29.2973 41.5461 29.504 41.4956 29.6922 41.4018C30.012 41.237 30.2113 41.0992 30.2236 41.1189Z" fill="#263238"/>
<path d="M27.1535 43.1583C27.1906 43.2207 27.2195 43.2877 27.2396 43.3575C27.3034 43.5418 27.3937 43.7159 27.5077 43.8741C27.5836 43.9886 27.6898 44.0796 27.8145 44.1369C27.9393 44.1943 28.0775 44.2157 28.2137 44.1988C28.3768 44.1528 28.5252 44.0654 28.6446 43.9452C28.764 43.8249 28.8503 43.6759 28.8952 43.5125C28.9835 43.1684 29.0452 42.8181 29.0797 42.4645C29.1144 42.1614 29.2337 41.8741 29.4241 41.6355C29.5604 41.4786 29.746 41.3727 29.9505 41.3354C30.0244 41.3173 30.1023 41.3242 30.1719 41.3551C30.1719 41.3551 30.0907 41.3551 29.9603 41.3846C29.7756 41.4357 29.6119 41.5442 29.4929 41.6946C29.3253 41.9257 29.2225 42.1975 29.1953 42.4818C29.1669 42.8438 29.1068 43.2027 29.0157 43.5543C28.9649 43.7389 28.866 43.9066 28.7289 44.0402C28.5918 44.1738 28.4217 44.2684 28.2359 44.3145C28.066 44.3416 27.892 44.3085 27.7439 44.221C27.621 44.1464 27.5154 44.0466 27.4339 43.9282C27.3211 43.759 27.2379 43.5719 27.1879 43.3747C27.1627 43.3055 27.151 43.232 27.1535 43.1583Z" fill="#263238"/>
<path d="M26.2654 58.334C26.2654 58.334 25.3429 65.0793 26.2654 65.9354C27.1879 66.7915 28.0711 66.5061 28.0711 66.5061L29.825 65.0301L30.1694 58.3242L26.2654 58.334Z" fill="#FFBE9D"/>
<path d="M45.3181 39.3994L46.4891 38.1423L48.4399 39.702L52.9048 35.3674L53.9749 36.6294L48.3538 42.1743L45.3181 39.3994Z" fill="#E9EDDA"/>
<path d="M50.8187 39.7413L49.1213 40.8311C49.045 40.1595 48.5333 39.4953 48.5579 39.8323C48.5825 40.1693 48.5579 41.9184 48.5579 41.9184L45.5346 48.2873C45.1238 49.2959 44.2898 49.9306 43.6675 50.0807L40.836 50.922L41.9405 54.6587L45.8765 53.3549C46.3789 53.1885 46.8353 52.9066 47.2091 52.532C47.5829 52.1573 47.8637 51.7003 48.029 51.1975L50.735 42.9516C50.9147 42.4205 51.0594 41.8781 51.168 41.328C51.2861 40.6367 50.8187 39.7413 50.8187 39.7413Z" fill="#FFBE9D"/>
<path d="M36.9123 109.401L36.868 107.514L33.3305 107.571L33.3625 110.333L33.5839 110.346C34.5679 110.383 38.5556 110.471 39.205 110.265C39.9283 110.031 36.9123 109.401 36.9123 109.401Z" fill="#E9EDDA"/>
<g opacity="0.5">
<path d="M34.6466 110.287C34.587 109.992 34.4216 109.73 34.1817 109.549C33.9454 109.365 33.6485 109.277 33.3502 109.303L33.365 110.287H34.6466Z" fill="white"/>
</g>
<g opacity="0.4">
<path d="M38.376 109.763C38.376 109.763 39.4338 110.048 39.3059 110.225C39.178 110.402 35.1386 110.471 33.3527 110.333V110.255L38.066 110.223C38.066 110.223 38.1817 109.775 38.376 109.763Z" fill="white"/>
</g>
<path d="M33.3109 110.252H33.3724H33.547L34.1915 110.27C34.7352 110.282 35.4855 110.287 36.3145 110.27C37.1435 110.252 37.8963 110.23 38.4375 110.203L39.082 110.166L39.2567 110.154H39.3157H39.2542H39.0796L38.4375 110.179C37.8938 110.196 37.1435 110.22 36.3145 110.233C35.4855 110.245 34.7352 110.233 34.1915 110.233H33.5495H33.3035L33.3109 110.252Z" fill="#263238"/>
<path d="M38.0808 110.277C38.1064 110.17 38.1452 110.067 38.1964 109.969C38.2584 109.88 38.3301 109.797 38.4104 109.723C38.3057 109.773 38.2183 109.852 38.1595 109.952C38.1007 110.051 38.0733 110.166 38.0808 110.282V110.277Z" fill="#263238"/>
<path d="M37.0279 109.763C37.0279 109.763 37.087 109.709 37.1386 109.627C37.1903 109.546 37.2198 109.472 37.21 109.468C37.2001 109.463 37.1509 109.522 37.1017 109.603C37.0525 109.684 37.0181 109.758 37.0279 109.763Z" fill="#263238"/>
<path d="M36.7401 109.618C36.7401 109.618 36.8016 109.588 36.8631 109.532C36.9246 109.475 36.964 109.423 36.9566 109.416C36.9492 109.409 36.8926 109.445 36.8336 109.5C36.7745 109.554 36.7303 109.608 36.7401 109.618Z" fill="#263238"/>
<path d="M36.5531 109.286C36.6121 109.307 36.6754 109.314 36.7376 109.305C36.8 109.312 36.8632 109.305 36.9221 109.283C36.8626 109.264 36.7998 109.257 36.7376 109.263C36.6752 109.256 36.6121 109.264 36.5531 109.286Z" fill="#263238"/>
<path d="M36.4867 109.052C36.5488 109.09 36.6205 109.11 36.6934 109.108C36.7663 109.119 36.8407 109.108 36.9074 109.076C36.837 109.07 36.7662 109.07 36.6958 109.076C36.627 109.062 36.557 109.054 36.4867 109.052Z" fill="#263238"/>
<path d="M37.146 109.453C37.2208 109.467 37.2975 109.467 37.3723 109.453C37.4559 109.442 37.5383 109.423 37.6183 109.396C37.6661 109.381 37.7123 109.361 37.7561 109.337C37.7699 109.33 37.7821 109.32 37.7919 109.307C37.8016 109.295 37.8087 109.281 37.8127 109.266C37.8156 109.249 37.8136 109.231 37.8071 109.215C37.8006 109.199 37.7897 109.185 37.7758 109.175C37.6881 109.134 37.5892 109.125 37.4955 109.149C37.4019 109.173 37.3193 109.228 37.2616 109.305C37.2285 109.351 37.2043 109.403 37.1903 109.458C37.186 109.478 37.186 109.499 37.1903 109.519C37.2138 109.45 37.2478 109.384 37.2911 109.325C37.3419 109.265 37.4083 109.219 37.483 109.195C37.5725 109.163 37.6705 109.169 37.7561 109.209C37.7905 109.236 37.7782 109.278 37.7389 109.303C37.6981 109.326 37.6553 109.345 37.6109 109.359C37.5307 109.387 37.4485 109.408 37.3649 109.423C37.2296 109.445 37.146 109.445 37.146 109.453Z" fill="#263238"/>
<path d="M37.2026 109.47C37.2303 109.422 37.239 109.366 37.2272 109.313C37.2179 109.253 37.1952 109.197 37.1608 109.148C37.1413 109.114 37.1137 109.087 37.0806 109.067C37.0475 109.047 37.0099 109.036 36.9713 109.035C36.9598 109.037 36.9489 109.042 36.9392 109.048C36.9295 109.055 36.9211 109.063 36.9147 109.073C36.9083 109.083 36.9039 109.094 36.9018 109.105C36.8997 109.117 36.8999 109.129 36.9024 109.14C36.9079 109.177 36.9214 109.211 36.9418 109.241C36.9717 109.292 37.009 109.337 37.0525 109.377C37.0876 109.417 37.1325 109.449 37.1829 109.468C37.1829 109.468 37.1386 109.428 37.0747 109.357C37.0378 109.315 37.0049 109.27 36.9763 109.222C36.9443 109.175 36.9221 109.089 36.9763 109.076C37.0304 109.064 37.0919 109.126 37.1263 109.17C37.1592 109.214 37.1827 109.264 37.1952 109.318C37.202 109.368 37.2044 109.419 37.2026 109.47Z" fill="#263238"/>
<path d="M33.3699 109.283C33.3699 109.283 33.4708 109.283 33.6307 109.283C33.8392 109.303 34.0379 109.381 34.2038 109.509C34.3697 109.637 34.4959 109.81 34.5679 110.006C34.6245 110.156 34.6319 110.252 34.6392 110.252C34.6441 110.229 34.6441 110.204 34.6392 110.181C34.6312 110.117 34.6172 110.053 34.5974 109.992C34.5292 109.786 34.4008 109.606 34.2288 109.474C34.0569 109.343 33.8493 109.266 33.6331 109.254C33.5685 109.246 33.5033 109.246 33.4388 109.254C33.4141 109.259 33.3907 109.269 33.3699 109.283Z" fill="#263238"/>
<path d="M33.7143 107.807C33.6923 108.048 33.6857 108.291 33.6946 108.533C33.6868 108.779 33.6942 109.025 33.7168 109.271C33.7391 109.025 33.7457 108.779 33.7364 108.533C33.7424 108.291 33.735 108.048 33.7143 107.807Z" fill="#263238"/>
<path d="M35.0845 109.935C35.2552 109.97 35.4295 109.984 35.6036 109.977C35.7772 109.984 35.9511 109.968 36.1202 109.928C36.1202 109.915 35.8742 109.928 35.6036 109.928C35.333 109.928 35.087 109.923 35.0845 109.935Z" fill="#263238"/>
<path d="M34.3932 109.942C34.3932 109.942 34.4129 109.992 34.4351 110.046C34.4572 110.1 34.4744 110.144 34.4867 110.144C34.499 110.144 34.5039 110.087 34.4744 110.026C34.4449 109.964 34.4006 109.935 34.3932 109.942Z" fill="#263238"/>
<path d="M34.1251 109.623C34.1251 109.623 34.1399 109.667 34.1792 109.704C34.2186 109.741 34.253 109.763 34.2604 109.755C34.2678 109.748 34.2457 109.709 34.2088 109.674C34.1719 109.64 34.135 109.613 34.1251 109.623Z" fill="#263238"/>
<path d="M33.7487 109.47C33.7487 109.47 33.8004 109.47 33.8521 109.497C33.9037 109.524 33.9406 109.541 33.9505 109.534C33.9603 109.527 33.9308 109.477 33.8644 109.458C33.7979 109.438 33.7463 109.47 33.7487 109.47Z" fill="#263238"/>
<path d="M33.4831 109.413C33.4831 109.413 33.4978 109.443 33.5273 109.453C33.5569 109.463 33.5839 109.465 33.5888 109.453C33.5938 109.44 33.5716 109.423 33.5421 109.413C33.5126 109.404 33.4855 109.401 33.4831 109.413Z" fill="#263238"/>
<path d="M24.4253 108.798L25.6258 107.34L22.9051 105.074L21.1289 107.19L21.2864 107.342C22.0022 108.009 24.9764 110.68 25.6012 110.946C26.3023 111.244 24.4253 108.798 24.4253 108.798Z" fill="#E9EDDA"/>
<g opacity="0.5">
<path d="M22.14 107.994C22.2905 107.731 22.3387 107.422 22.2753 107.126C22.215 106.833 22.0463 106.574 21.803 106.4L21.156 107.155L22.14 107.994Z" fill="white"/>
</g>
<g opacity="0.4">
<path d="M25.3085 110.033C25.3085 110.033 25.9235 110.941 25.7119 110.99C25.5004 111.039 22.386 108.452 21.1289 107.19L21.1831 107.133L24.7771 110.183C24.7771 110.183 25.1437 109.908 25.3085 110.033Z" fill="white"/>
</g>
<path d="M21.1412 107.096L21.1831 107.14L21.311 107.261L21.7882 107.694C22.1917 108.056 22.7575 108.55 23.3946 109.081C24.0317 109.613 24.6246 110.083 25.0477 110.417L25.5594 110.808L25.6996 110.912L25.7513 110.946L25.7045 110.904L25.5692 110.794L25.0772 110.393C24.6517 110.053 24.0686 109.581 23.4315 109.049C22.7944 108.518 22.2261 108.028 21.8177 107.672L21.3257 107.249L21.1929 107.133L21.1412 107.096Z" fill="#263238"/>
<path d="M24.7402 110.225C24.8299 110.16 24.9274 110.106 25.0305 110.065C25.1369 110.038 25.2456 110.022 25.3552 110.016C25.2456 109.976 25.1253 109.976 25.0157 110.016C24.9016 110.05 24.8037 110.124 24.7402 110.225Z" fill="#263238"/>
<path d="M24.2777 109.148C24.2777 109.16 24.3589 109.148 24.4499 109.116C24.541 109.084 24.6148 109.054 24.6098 109.042C24.6049 109.03 24.5287 109.042 24.4376 109.074C24.3797 109.087 24.3251 109.112 24.2777 109.148Z" fill="#263238"/>
<path d="M24.1547 108.848C24.1547 108.848 24.2212 108.867 24.3048 108.865C24.3884 108.862 24.4524 108.85 24.4524 108.838C24.4524 108.825 24.3835 108.818 24.3023 108.821C24.2517 108.818 24.2012 108.827 24.1547 108.848Z" fill="#263238"/>
<path d="M24.2285 108.486C24.2285 108.486 24.2777 108.555 24.3565 108.621C24.4008 108.666 24.4535 108.702 24.5114 108.727C24.5114 108.727 24.4622 108.656 24.3835 108.589C24.3048 108.523 24.2384 108.466 24.2285 108.486Z" fill="#263238"/>
<path d="M24.3319 108.255C24.3586 108.322 24.3995 108.383 24.4516 108.434C24.5038 108.484 24.5661 108.523 24.6344 108.547C24.5868 108.496 24.5358 108.447 24.4819 108.402C24.4007 108.324 24.354 108.24 24.3319 108.255Z" fill="#263238"/>
<path d="M24.568 108.978C24.6168 109.037 24.676 109.086 24.7427 109.123C24.8125 109.168 24.8866 109.206 24.9641 109.236C25.0098 109.257 25.0576 109.273 25.1068 109.283C25.1377 109.288 25.1695 109.281 25.1953 109.263C25.2089 109.253 25.2191 109.239 25.2248 109.223C25.2305 109.206 25.2313 109.189 25.2273 109.172C25.1893 109.082 25.1211 109.008 25.0344 108.964C24.9476 108.919 24.8479 108.905 24.7525 108.926C24.6963 108.937 24.6434 108.961 24.5975 108.995C24.5803 109.006 24.5653 109.02 24.5533 109.037C24.6163 108.999 24.6853 108.971 24.7574 108.956C24.8355 108.942 24.9158 108.952 24.9887 108.983C25.0764 109.017 25.1471 109.084 25.1855 109.17C25.1855 109.214 25.1584 109.239 25.1117 109.231C25.0663 109.221 25.0219 109.207 24.9788 109.19C24.903 109.161 24.8298 109.127 24.7599 109.086C24.6394 109.04 24.5729 108.978 24.568 108.978Z" fill="#263238"/>
<path d="M24.6 109.035C24.6 109.035 24.664 109.015 24.723 108.931C24.7547 108.881 24.7748 108.823 24.782 108.764C24.7877 108.726 24.7841 108.686 24.7717 108.65C24.7593 108.613 24.7384 108.58 24.7107 108.552C24.6895 108.541 24.6646 108.539 24.6416 108.545C24.6185 108.552 24.5992 108.568 24.5877 108.589C24.569 108.62 24.5572 108.654 24.5533 108.69C24.5461 108.748 24.5461 108.807 24.5533 108.865C24.5532 108.919 24.5668 108.972 24.5926 109.02C24.5926 109.02 24.5926 108.958 24.5926 108.865C24.5919 108.809 24.5969 108.753 24.6074 108.698C24.6074 108.641 24.6517 108.562 24.7033 108.589C24.755 108.616 24.7574 108.702 24.7574 108.759C24.753 108.813 24.7371 108.866 24.7107 108.914C24.6784 108.958 24.6412 108.999 24.6 109.035Z" fill="#263238"/>
<path d="M21.8177 106.4C21.8177 106.4 21.9014 106.457 22.0121 106.572C22.1561 106.724 22.2557 106.913 22.2999 107.118C22.3406 107.324 22.3236 107.537 22.2507 107.733C22.1941 107.886 22.1326 107.967 22.14 107.979C22.1585 107.963 22.1743 107.944 22.1867 107.923C22.2234 107.87 22.2539 107.813 22.2778 107.753C22.3628 107.553 22.3851 107.331 22.3417 107.118C22.2973 106.906 22.1902 106.711 22.0342 106.56C21.9877 106.514 21.9366 106.474 21.8817 106.439C21.8631 106.422 21.8414 106.409 21.8177 106.4Z" fill="#263238"/>
<path d="M23.0428 105.502C22.8681 105.671 22.7038 105.851 22.5508 106.041C22.3884 106.221 22.2357 106.41 22.0933 106.607C22.2691 106.439 22.4335 106.26 22.5853 106.07C22.7474 105.889 22.9001 105.699 23.0428 105.502Z" fill="#263238"/>
<path d="M22.6935 108.011C22.7986 108.149 22.921 108.273 23.0576 108.38C23.1853 108.499 23.3284 108.6 23.4832 108.68C23.4832 108.68 23.3036 108.533 23.0871 108.348C22.8706 108.164 22.7033 107.994 22.6935 108.011Z" fill="#263238"/>
<path d="M22.1621 107.566C22.1621 107.566 22.1449 107.615 22.1302 107.672C22.1154 107.728 22.0933 107.77 22.1031 107.778C22.1129 107.785 22.1523 107.748 22.172 107.682C22.1917 107.615 22.1744 107.564 22.1621 107.566Z" fill="#263238"/>
<path d="M22.1695 107.148C22.1572 107.148 22.1523 107.192 22.1572 107.244C22.1621 107.295 22.1744 107.337 22.1867 107.337C22.199 107.337 22.204 107.293 22.1867 107.241C22.1695 107.19 22.1818 107.148 22.1695 107.148Z" fill="#263238"/>
<path d="M21.9776 106.794C21.9776 106.806 22.0096 106.835 22.0367 106.882C22.0637 106.929 22.076 106.976 22.0883 106.976C22.1006 106.976 22.108 106.919 22.0736 106.86C22.0391 106.801 21.9826 106.784 21.9776 106.794Z" fill="#263238"/>
<path d="M21.8177 106.57C21.8177 106.57 21.8177 106.604 21.8177 106.631C21.8177 106.658 21.8546 106.675 21.8645 106.671C21.8743 106.666 21.8645 106.636 21.8645 106.609C21.8645 106.582 21.8276 106.565 21.8177 106.57Z" fill="#263238"/>
<path d="M31.7881 69.2711C31.7881 69.2711 30.6098 74.2551 30.9443 75.2416C31.2789 76.228 33.4363 76.7963 33.4363 76.7963L33.3625 90.4468L21.4266 105.207L25.83 108.808C25.83 108.808 38.7548 94.0261 39.8938 91.3423C41.0328 88.6584 39.1558 69.0424 39.1558 69.0424L31.7881 69.2711Z" fill="#263238"/>
<path d="M37.884 67.2392L38.467 108.695L32.3982 108.732L29.3503 74.9611C28.7057 74.3461 27.798 73.2933 27.9235 70.944L28.0711 68.2158L37.884 67.2392Z" fill="#263238"/>
<path d="M31.488 92.7543C31.4969 92.7324 31.5084 92.7118 31.5224 92.6928C31.5544 92.6485 31.5913 92.5919 31.6381 92.5231L32.0882 91.8859L33.7364 89.603V89.635C33.6036 88.1959 33.4437 86.4518 33.2715 84.5699C33.0501 82.1099 32.873 79.8713 32.7672 78.2501C32.7131 77.4408 32.6786 76.7864 32.659 76.3338C32.659 76.1173 32.6442 75.9427 32.6417 75.8098C32.6342 75.7494 32.6342 75.6882 32.6417 75.6278C32.6536 75.6878 32.661 75.7487 32.6639 75.8098C32.6639 75.9402 32.6885 76.1149 32.7057 76.3313C32.7426 76.7963 32.7918 77.4457 32.8558 78.2452C32.9837 79.8614 33.1756 82.0927 33.397 84.5576C33.5618 86.4469 33.7291 88.1885 33.8398 89.635V89.6522V89.667L32.1547 91.9204L31.6799 92.5427L31.5519 92.7026C31.5003 92.742 31.488 92.7568 31.488 92.7543Z" fill="#455A64"/>
<path d="M33.3478 75.6278C32.8047 75.5989 32.2658 75.5165 31.7389 75.3818C31.2029 75.2911 30.6772 75.1478 30.1694 74.9537C30.7072 75.0227 31.2403 75.1237 31.766 75.2563C32.2999 75.3499 32.828 75.4739 33.3478 75.6278Z" fill="#455A64"/>
<path d="M37.5052 89.79C36.9813 89.5727 36.43 89.4286 35.8668 89.362C35.2994 89.3392 34.7315 89.3946 34.1792 89.5268C34.3235 89.4357 34.4838 89.3731 34.6515 89.3423C35.0526 89.2376 35.4684 89.2011 35.8815 89.234C36.2921 89.267 36.6944 89.3676 37.0722 89.5317C37.2308 89.5912 37.3775 89.6787 37.5052 89.79Z" fill="#455A64"/>
<path d="M39.6478 91.7039C39.6749 91.726 37.9676 94.0188 35.8323 96.8232C33.6971 99.6276 31.9431 101.888 31.916 101.869C31.889 101.849 33.5962 99.5538 35.7315 96.7469C37.8668 93.94 39.6207 91.6818 39.6478 91.7039Z" fill="#455A64"/>
<path d="M38.8262 70.3166C38.7562 70.4962 38.6378 70.6529 38.4842 70.7693C38.3084 70.9233 38.1027 71.0392 37.88 71.1099C37.6572 71.1805 37.4223 71.2044 37.1899 71.1799C36.9574 71.1554 36.7326 71.0831 36.5295 70.9676C36.3264 70.852 36.1493 70.6958 36.0095 70.5085C35.8793 70.3647 35.7938 70.186 35.7635 69.9944C35.8582 70.1518 35.9616 70.3037 36.0734 70.4495C36.3546 70.7903 36.7584 71.007 37.1978 71.053C37.6372 71.099 38.0771 70.9706 38.4227 70.6955C38.5637 70.5763 38.6984 70.4499 38.8262 70.3166Z" fill="#455A64"/>
<path d="M30.5286 48.986C29.5286 48.0358 28.9389 46.7329 28.8852 45.3545C28.8314 43.9761 29.3178 42.6311 30.2408 41.606" fill="#263238"/>
<path d="M27.1166 52.8531C27.1166 52.8531 25.798 54.3439 25.525 60.0437C25.525 60.0437 29.2814 60.7571 29.3503 60.5529C29.4191 60.3487 27.1166 52.8531 27.1166 52.8531Z" fill="#E9EDDA"/>
<g opacity="0.3">
<path d="M27.1166 52.8531C27.1166 52.8531 25.798 54.3439 25.525 60.0437C25.525 60.0437 29.2814 60.7571 29.3503 60.5529C29.4191 60.3487 27.1166 52.8531 27.1166 52.8531Z" fill="black"/>
</g>
<path d="M27.7266 69.4556H39.2616L39.0746 67.6525C39.0746 67.6525 37.7561 60.7989 37.7659 60.7079L37.9725 60.2725C38.2421 59.7071 38.3862 59.0901 38.3951 58.4639C38.4041 57.8376 38.2775 57.2168 38.0242 56.644L43.6822 54.7129L42.2997 50.0536C39.7364 50.4841 35.8619 50.9687 35.8619 50.9687L35.2862 51.0155C35.2862 51.0155 31.2863 51.2246 31.2002 51.2344C29.5274 51.4386 27.5815 51.5665 26.8706 53.3574C26.4893 54.3143 26.8509 55.751 27.4733 57.2319L28.9493 61.7829C29.5397 64.2847 28.5975 64.1642 28.0784 66.6832C27.9948 67.0621 27.7193 69.1063 27.7266 69.4556Z" fill="#E9EDDA"/>
<g opacity="0.3">
<path d="M27.7266 69.4556H39.2616L39.0746 67.6525C39.0746 67.6525 37.7561 60.7989 37.7659 60.7079L37.9725 60.2725C38.2421 59.7071 38.3862 59.0901 38.3951 58.4639C38.4041 57.8376 38.2775 57.2168 38.0242 56.644L43.6822 54.7129L42.2997 50.0536C39.7364 50.4841 35.8619 50.9687 35.8619 50.9687L35.2862 51.0155C35.2862 51.0155 31.2863 51.2246 31.2002 51.2344C29.5274 51.4386 27.5815 51.5665 26.8706 53.3574C26.4893 54.3143 26.8509 55.751 27.4733 57.2319L28.9493 61.7829C29.5397 64.2847 28.5975 64.1642 28.0784 66.6832C27.9948 67.0621 27.7193 69.1063 27.7266 69.4556Z" fill="black"/>
</g>
<path d="M43.6183 54.7891C43.5402 54.833 43.4578 54.8685 43.3723 54.8949C43.2099 54.9539 42.9713 55.0351 42.6761 55.1409C42.0857 55.3402 41.264 55.6034 40.3588 55.8937C39.4535 56.1839 38.6368 56.4718 38.071 56.7079C37.7807 56.826 37.5519 56.9293 37.392 56.9982C37.3144 57.0412 37.2318 57.0742 37.146 57.0966C37.2175 57.0398 37.295 56.9911 37.3772 56.9515C37.5322 56.8703 37.7561 56.7522 38.0414 56.6243C38.7872 56.2993 39.5501 56.0151 40.3268 55.7731C41.2345 55.4828 42.0488 55.2319 42.6564 55.0548C42.9541 54.9662 43.1976 54.8974 43.3649 54.8506C43.4464 54.8197 43.5316 54.799 43.6183 54.7891Z" fill="#263238"/>
<path d="M42.9491 52.307C42.9491 52.3414 39.5371 52.371 35.3231 52.371C31.1091 52.371 27.6971 52.3414 27.6971 52.307C27.6971 52.2726 31.1067 52.243 35.3231 52.243C39.5396 52.243 42.9491 52.2726 42.9491 52.307Z" fill="#FAFAFA"/>
<path d="M43.296 54.5727C43.296 54.6071 39.5002 54.6366 34.8188 54.6366C30.1375 54.6366 26.3441 54.6071 26.3441 54.5727C26.3441 54.5382 30.1375 54.5087 34.8188 54.5087C39.5002 54.5087 43.296 54.5382 43.296 54.5727Z" fill="#FAFAFA"/>
<path d="M27.306 57.1507C27.0754 57.2133 26.8356 57.2349 26.5975 57.2147C26.3602 57.2348 26.1213 57.2132 25.8915 57.1507C26.1213 57.0882 26.3602 57.0666 26.5975 57.0868C26.8356 57.0665 27.0754 57.0882 27.306 57.1507Z" fill="#FAFAFA"/>
<path d="M38.376 57.2295C38.376 57.2639 35.8938 57.2934 32.8336 57.2934C29.7734 57.2934 27.2912 57.2639 27.2912 57.2295C27.2912 57.195 29.7709 57.1655 32.8336 57.1655C35.8963 57.1655 38.376 57.1926 38.376 57.2295Z" fill="#FAFAFA"/>
<path d="M38.13 59.8838C38.13 59.9207 35.9012 59.9477 33.1559 59.9477C30.4105 59.9477 28.1793 59.9207 28.1793 59.8838C28.1793 59.8469 30.4056 59.8198 33.1559 59.8198C35.9061 59.8198 38.13 59.8493 38.13 59.8838Z" fill="#FAFAFA"/>
<path d="M38.0611 62.3462C38.0611 62.3807 36.0439 62.4102 33.5544 62.4102C31.0649 62.4102 29.0428 62.3807 29.0428 62.3462C29.0428 62.3118 31.0624 62.2823 33.5544 62.2823C36.0464 62.2823 38.0611 62.3093 38.0611 62.3462Z" fill="#FAFAFA"/>
<path d="M38.4572 64.3364C38.4572 64.3733 36.2973 64.4004 33.6331 64.4004C30.9689 64.4004 28.8091 64.3733 28.8091 64.3364C28.8091 64.2995 30.9689 64.2724 33.6331 64.2724C36.2973 64.2724 38.4572 64.302 38.4572 64.3364Z" fill="#FAFAFA"/>
<path d="M39.082 66.8751C39.082 66.912 36.622 66.9391 33.5938 66.9391C30.5655 66.9391 28.1055 66.912 28.1055 66.8751C28.1055 66.8382 30.5655 66.8112 33.5938 66.8112C36.622 66.8112 39.082 66.8407 39.082 66.8751Z" fill="#FAFAFA"/>
<path d="M28.873 61.5689C28.8266 61.4995 28.7917 61.4231 28.7697 61.3426L28.5237 60.7128C28.3195 60.1814 28.0317 59.4484 27.7365 58.6292C27.4413 57.81 27.1928 57.0622 27.0379 56.5136C26.9616 56.2381 26.9026 56.0216 26.8706 55.8592C26.8469 55.7792 26.8329 55.6966 26.8288 55.6132C26.9426 55.8989 27.0411 56.1904 27.124 56.4865C27.3011 57.0277 27.5594 57.7706 27.862 58.5874C28.1645 59.4041 28.4302 60.1421 28.6 60.6833C28.691 60.9539 28.7599 61.1753 28.8041 61.3278C28.8373 61.4049 28.8604 61.4859 28.873 61.5689Z" fill="#263238"/>
</svg>
