<svg width="140" height="140" viewBox="0 0 140 140" fill="none" xmlns="http://www.w3.org/2000/svg">
<path d="M46.8132 20.1376C46.8132 20.1376 25.5976 30.9456 15.0164 47.6C4.4352 64.2544 5.2724 85.68 18.13 101.584C30.9876 117.488 55.5632 115.399 76.1404 125.474C96.7176 135.548 119.42 133.473 129.15 112.129C138.88 90.7844 124.208 82.8072 121.688 58.1056C119.168 33.404 96.8996 -2.76641 46.8132 20.1376Z" fill="#DAE1C2"/>
<path opacity="0.7" d="M46.8132 20.1376C46.8132 20.1376 25.5976 30.9456 15.0164 47.6C4.4352 64.2544 5.2724 85.68 18.13 101.584C30.9876 117.488 55.5632 115.399 76.1404 125.474C96.7176 135.548 119.42 133.473 129.15 112.129C138.88 90.7844 124.208 82.8072 121.688 58.1056C119.168 33.404 96.8996 -2.76641 46.8132 20.1376Z" fill="white"/>
<path d="M70.42 128.24C105.91 128.24 134.68 124.228 134.68 119.28C134.68 114.332 105.91 110.32 70.42 110.32C34.9302 110.32 6.16 114.332 6.16 119.28C6.16 124.228 34.9302 128.24 70.42 128.24Z" fill="#DAE1C2"/>
<path opacity="0.5" d="M70.42 128.24C105.91 128.24 134.68 124.228 134.68 119.28C134.68 114.332 105.91 110.32 70.42 110.32C34.9302 110.32 6.16 114.332 6.16 119.28C6.16 124.228 34.9302 128.24 70.42 128.24Z" fill="white"/>
<path d="M97.9636 25.0992C97.3364 26.6 95.0432 27.72 92.3132 27.72C89.5832 27.72 87.29 26.6 86.6628 25.102" stroke="#263238" stroke-miterlimit="10"/>
<path d="M97.9636 25.0992C98.076 24.8334 98.1341 24.5478 98.1344 24.2592C98.1344 23.4752 97.692 22.7528 96.9444 22.176" stroke="#263238" stroke-miterlimit="10"/>
<path d="M86.6628 25.0992C86.549 24.8339 86.4909 24.548 86.492 24.2592C86.492 23.4752 86.9344 22.7528 87.6792 22.176" stroke="#263238" stroke-miterlimit="10"/>
<path d="M86.6628 25.0992C85.9544 25.7068 85.5428 26.432 85.5428 27.2104C85.5428 29.3272 88.5752 31.0436 92.316 31.0436C96.0568 31.0436 99.0864 29.3272 99.0864 27.2104C99.0864 26.432 98.6748 25.7068 97.9664 25.0992" stroke="#263238" stroke-miterlimit="10"/>
<path d="M88.5472 24.0268C89.3872 24.822 90.762 25.34 92.3132 25.34C93.8644 25.34 95.2364 24.822 96.0764 24.0268" stroke="#263238" stroke-miterlimit="10"/>
<path d="M96.9444 22.1872C96.9444 21.3668 96.4796 20.622 95.7236 20.062" stroke="#263238" stroke-miterlimit="10"/>
<path d="M96.0764 24.0268C96.3399 23.7974 96.5532 23.5162 96.703 23.2006C96.8529 22.885 96.936 22.542 96.9472 22.1928" stroke="#263238" stroke-miterlimit="10"/>
<path d="M88.5472 24.0268C88.2841 23.7973 88.0712 23.5159 87.9218 23.2004C87.7725 22.8848 87.6899 22.5418 87.6792 22.1928" stroke="#263238" stroke-miterlimit="10"/>
<path d="M88.9 20.062C88.144 20.622 87.682 21.3668 87.6792 22.1872" stroke="#263238" stroke-miterlimit="10"/>
<path d="M88.9 20.062C88.9 20.0284 88.9 19.9976 88.9 19.964C88.9 19.208 89.3732 18.5332 90.1152 18.0796" stroke="#263238" stroke-miterlimit="10"/>
<path d="M95.2 21.28C95.5069 20.9447 95.6914 20.5154 95.7236 20.062" stroke="#263238" stroke-miterlimit="10"/>
<path d="M89.4264 21.28C90.0312 21.9688 91.1064 22.4308 92.3132 22.4308C93.52 22.4308 94.5952 21.9688 95.2 21.28" stroke="#263238" stroke-miterlimit="10"/>
<path d="M89.4264 21.28C89.1176 20.9457 88.9319 20.516 88.9 20.062" stroke="#263238" stroke-miterlimit="10"/>
<path d="M94.5168 18.0796C95.2588 18.5332 95.732 19.1996 95.732 19.964C95.732 19.9976 95.732 20.0284 95.732 20.062" stroke="#263238" stroke-miterlimit="10"/>
<path d="M90.2104 19.3872C90.3754 19.8108 90.6644 20.1747 91.0396 20.4315C91.4147 20.6882 91.8586 20.8259 92.3132 20.8264" stroke="#263238" stroke-miterlimit="10"/>
<path d="M94.5168 18.0796C94.4059 17.5778 94.127 17.1289 93.7263 16.8071C93.3256 16.4853 92.8271 16.3099 92.3132 16.3099C91.7993 16.3099 91.3008 16.4853 90.9001 16.8071C90.4994 17.1289 90.2205 17.5778 90.1096 18.0796" stroke="#263238" stroke-miterlimit="10"/>
<path d="M94.4132 19.3872C94.2486 19.8106 93.9602 20.1744 93.5855 20.4312C93.2108 20.688 92.7674 20.8257 92.3132 20.8264" stroke="#263238" stroke-miterlimit="10"/>
<path d="M94.5168 18.0796C94.5515 18.2406 94.5694 18.4048 94.57 18.5696C94.57 18.8496 94.5167 19.127 94.4132 19.3872" stroke="#263238" stroke-miterlimit="10"/>
<path d="M90.2104 19.3872C90.1091 19.1265 90.0569 18.8493 90.0564 18.5696C90.057 18.4048 90.0749 18.2406 90.1096 18.0796" stroke="#263238" stroke-miterlimit="10"/>
<path d="M122.864 26.5468L126.19 28.5292C126.415 28.664 126.665 28.7531 126.924 28.7912C127.183 28.8294 127.448 28.816 127.702 28.7518C127.956 28.6875 128.195 28.5737 128.405 28.4168C128.615 28.2599 128.792 28.0631 128.926 27.8376C128.94 27.8152 128.948 27.7928 128.962 27.7732" stroke="#263238" stroke-miterlimit="10"/>
<path d="M125.72 23.6012L121.96 21.3584" stroke="#263238" stroke-miterlimit="10"/>
<path d="M115.578 21.8792C115.748 22.1914 115.999 22.4524 116.304 22.6352L118.432 23.9036" stroke="#263238" stroke-miterlimit="10"/>
<path d="M115.578 21.8792C115.367 21.4955 115.287 21.0527 115.352 20.6194C115.418 20.186 115.624 19.7861 115.939 19.4817C116.254 19.1773 116.661 18.9852 117.096 18.9353C117.532 18.8853 117.972 18.9802 118.348 19.2052L121.96 21.3584" stroke="#263238" stroke-miterlimit="10"/>
<path d="M125.72 23.6012L128.24 25.0992C128.684 25.364 129.008 25.7906 129.144 26.2893C129.279 26.788 129.216 27.3199 128.968 27.7732" stroke="#263238" stroke-miterlimit="10"/>
<path d="M115.578 21.8792C115.329 22.332 115.265 22.8639 115.401 23.3628C115.536 23.8616 115.86 24.2885 116.304 24.5532L117.233 25.1132" stroke="#263238" stroke-miterlimit="10"/>
<path d="M121.579 27.6976L126.19 30.4472C126.567 30.671 127.006 30.7649 127.441 30.7145C127.876 30.6641 128.282 30.4722 128.597 30.1682C128.912 29.8643 129.119 29.4653 129.185 29.0325C129.251 28.5997 129.173 28.1573 128.962 27.7732" stroke="#263238" stroke-miterlimit="10"/>
<path d="M116.693 27.2776C116.731 27.4171 116.782 27.5529 116.844 27.6836" stroke="#263238" stroke-miterlimit="10"/>
<path d="M126 19.0792C125.849 19.1436 125.703 19.208 125.569 19.2752" stroke="#263238" stroke-miterlimit="10"/>
<path d="M127.033 21.994C126.652 22.5064 126.193 23.0524 125.72 23.6012" stroke="#263238" stroke-miterlimit="10"/>
<path d="M121.414 27.8348L121.579 27.6976L122.864 26.5468L118.44 23.9036L117.242 25.1076C117.01 25.3734 116.821 25.6739 116.682 25.998" stroke="#263238" stroke-miterlimit="10"/>
<path d="M119.812 28.8204C119.118 29.0202 118.375 28.9491 117.732 28.6216" stroke="#263238" stroke-miterlimit="10"/>
<path d="M128.047 20.3756C128.186 20.1173 128.26 19.829 128.262 19.5356C128.262 19.4177 128.237 19.3012 128.189 19.1936C128.141 19.086 128.07 18.9898 127.982 18.9112" stroke="#263238" stroke-miterlimit="10"/>
<path d="M121.96 21.3584C123.511 20.3784 124.793 19.6784 124.793 19.6784C124.793 19.6784 125.112 19.4824 125.558 19.2668" stroke="#263238" stroke-miterlimit="10"/>
<path d="M127.977 18.9056C127.991 18.1776 127.977 15.9012 127.316 15.9012C126.834 15.9012 126.316 17.6904 125.989 19.0792" stroke="#263238" stroke-miterlimit="10"/>
<path d="M127.977 18.9056C127.977 19.0428 127.977 19.1268 127.977 19.1268L125.656 20.6752C125.656 20.6752 125.787 19.9584 125.994 19.0792" stroke="#263238" stroke-miterlimit="10"/>
<path d="M128.047 20.3756L128.005 20.3392L126.526 21.7392C126.526 21.7392 126.731 21.8512 127.033 21.994" stroke="#263238" stroke-miterlimit="10"/>
<path d="M127.033 21.994C127.798 22.3552 129.203 22.9096 129.682 22.3692C129.934 22.0892 128.321 20.6192 128.047 20.3756" stroke="#263238" stroke-miterlimit="10"/>
<path d="M125.558 19.2752C124.748 19.0456 122.774 18.522 122.9 18.9C123.057 19.3732 123.847 20.16 123.847 20.16" stroke="#263238" stroke-miterlimit="10"/>
<path d="M116.693 27.2776C116.796 27.3756 116.894 27.4624 116.973 27.5408" stroke="#263238" stroke-miterlimit="10"/>
<path d="M116.684 25.998C116.175 24.8276 115.461 23.6376 114.8 24.1304C114.075 24.6736 115.704 26.3704 116.693 27.2776" stroke="#263238" stroke-miterlimit="10"/>
<path d="M116.684 25.998C116.922 26.5384 117.113 27.076 117.244 27.4372" stroke="#263238" stroke-miterlimit="10"/>
<path d="M117.9 28.028C118.74 27.8628 120.501 27.5688 121.414 27.8348" stroke="#263238" stroke-miterlimit="10"/>
<path d="M117.88 28.28C118.51 28.4923 119.151 28.6708 119.801 28.8148" stroke="#263238" stroke-miterlimit="10"/>
<path d="M121.414 27.8348C121.792 27.944 122.027 28.1484 121.974 28.4984C121.898 29.0976 120.854 29.0416 119.804 28.8204" stroke="#263238" stroke-miterlimit="10"/>
<path d="M117.018 28.7364C116.679 30.0804 116.236 32.4352 117.298 32.3764C118.191 32.3316 117.81 30.0972 117.505 28.7728" stroke="#263238" stroke-miterlimit="10"/>
<path d="M117.018 28.7364C116.919 28.6686 116.838 28.5774 116.784 28.4708C116.729 28.3643 116.702 28.2458 116.704 28.126C116.703 27.9675 116.752 27.8127 116.844 27.6836" stroke="#263238" stroke-miterlimit="10"/>
<path d="M116.844 27.6836C116.882 27.6288 116.928 27.5806 116.981 27.5408" stroke="#263238" stroke-miterlimit="10"/>
<path d="M117.88 28.28C117.856 28.4038 117.801 28.5195 117.72 28.616" stroke="#263238" stroke-miterlimit="10"/>
<path d="M117.236 27.44C117.259 27.4385 117.283 27.4385 117.306 27.44C117.461 27.4506 117.607 27.5173 117.716 27.6276C117.825 27.7379 117.89 27.8842 117.9 28.0392" stroke="#263238" stroke-miterlimit="10"/>
<path d="M117.88 28.28C117.891 28.2275 117.897 28.174 117.897 28.1204C117.897 28.0868 117.897 28.056 117.897 28.0224" stroke="#263238" stroke-miterlimit="10"/>
<path d="M117.018 28.7364C117.102 28.7897 117.198 28.8196 117.298 28.8232C117.369 28.8226 117.44 28.8074 117.505 28.7784" stroke="#263238" stroke-miterlimit="10"/>
<path d="M117.513 28.7784C117.598 28.7446 117.673 28.6908 117.732 28.6216" stroke="#263238" stroke-miterlimit="10"/>
<path d="M116.981 27.5408C117.056 27.4849 117.144 27.4492 117.236 27.4372" stroke="#263238" stroke-miterlimit="10"/>
<path d="M94.6988 107.786L87.8668 104.51V95.9504L94.6988 99.2264V107.786Z" stroke="#263238" stroke-linejoin="round"/>
<path d="M94.6988 99.2264L101.408 96.9584V105.039L94.6988 107.786V99.2264Z" stroke="#263238" stroke-linejoin="round"/>
<path d="M87.8668 95.9504L94.4804 93.8336L101.408 96.9584L94.6988 99.2264L87.8668 95.9504Z" stroke="#263238" stroke-linejoin="round"/>
<path d="M93.6348 101.948V105.37C93.6348 105.482 93.5732 105.515 93.4612 105.468L92.3664 105C92.3153 104.981 92.2711 104.948 92.24 104.903C92.2089 104.858 92.1924 104.805 92.1928 104.751V104.504C92.1928 104.454 92.162 104.429 92.12 104.454C91.8036 104.661 91.3304 104.63 90.72 104.362C89.7176 103.922 88.97 103.113 88.97 102.057C88.97 101.002 89.7176 100.727 91.098 101.332L92.134 101.786C92.1648 101.786 92.1956 101.786 92.1956 101.749V101.536C92.1841 101.295 92.0995 101.063 91.953 100.871C91.8064 100.679 91.6049 100.536 91.3752 100.461C90.9664 100.279 90.6892 100.302 90.5968 100.509C90.5576 100.593 90.496 100.607 90.3924 100.551L89.2556 99.9096C89.1548 99.8536 89.082 99.7724 89.0932 99.694C89.194 98.8904 90.1068 98.6636 91.3332 99.2068C92.694 99.7864 93.6348 100.957 93.6348 101.948ZM92.1928 103.068V102.707C92.1913 102.688 92.1848 102.67 92.174 102.655C92.1631 102.64 92.1484 102.628 92.1312 102.62L91.4032 102.301C90.79 102.021 90.4092 102.102 90.4092 102.53C90.4311 102.736 90.5112 102.931 90.6401 103.093C90.7691 103.255 90.9415 103.376 91.1372 103.443C91.7112 103.706 92.1928 103.58 92.1928 103.079V103.068Z" stroke="#263238" stroke-miterlimit="10"/>
<path d="M100.772 101.968C100.779 102.408 100.72 102.847 100.598 103.27C100.46 103.779 100.211 104.251 99.8693 104.653C99.5276 105.055 99.1017 105.377 98.6216 105.596C98.0784 105.823 97.7116 105.762 97.454 105.532C97.4232 105.504 97.384 105.532 97.384 105.582V105.862C97.3853 105.917 97.3688 105.971 97.337 106.015C97.3051 106.06 97.2597 106.092 97.2076 106.109L96.1128 106.565C96.0008 106.613 95.9392 106.565 95.9392 106.464V99.6408C95.9386 99.5867 95.955 99.5338 95.9862 99.4896C96.0174 99.4453 96.0616 99.412 96.1128 99.3944L97.2076 98.938C97.3224 98.8904 97.384 98.938 97.384 99.0388V101.147C97.384 101.2 97.4232 101.203 97.454 101.147C97.7249 100.699 98.135 100.352 98.6216 100.159C99.5652 99.7668 100.282 100.041 100.582 100.778C100.725 101.157 100.79 101.562 100.772 101.968ZM99.2572 102.631C99.2827 102.288 99.1963 101.946 99.0108 101.657C98.9196 101.562 98.7987 101.501 98.6683 101.485C98.5378 101.469 98.4057 101.498 98.294 101.567C97.9896 101.705 97.7457 101.949 97.608 102.253C97.4562 102.614 97.3827 103.004 97.3924 103.396C97.3695 103.719 97.4405 104.042 97.5968 104.325C97.6736 104.432 97.7877 104.507 97.9167 104.534C98.0456 104.562 98.1802 104.54 98.294 104.474C98.6307 104.329 98.8985 104.06 99.0416 103.723C99.1877 103.378 99.2611 103.006 99.2572 102.631Z" stroke="#263238" stroke-miterlimit="10"/>
<path d="M93.1364 97.5632C92.7624 97.4433 92.4042 97.2788 92.0696 97.0732C91.7976 96.9285 91.5583 96.7293 91.3668 96.488C91.014 95.9756 91.4424 95.4576 92.5428 95.1216C93.6291 94.7946 94.7852 94.7781 95.8804 95.074C95.9892 95.1034 96.0951 95.1428 96.1968 95.1916C96.2836 95.2336 96.2668 95.2812 96.18 95.3204L95.2224 95.7236C95.1784 95.7435 95.1307 95.7539 95.0824 95.7539C95.0341 95.7539 94.9864 95.7435 94.9424 95.7236L94.808 95.6704C94.3642 95.5368 93.891 95.5368 93.4472 95.6704C93.0076 95.8076 92.8732 96.0064 93.03 96.2136C93.1704 96.3826 93.3426 96.5224 93.5368 96.6252C93.7644 96.7659 94.0066 96.8814 94.2592 96.9696C94.7025 97.1172 95.1805 97.125 95.6284 96.992C96.0596 96.8604 96.2164 96.6476 96.0596 96.432C96.0525 96.4215 96.0441 96.4121 96.0344 96.404C96.012 96.3844 96.0036 96.3032 96.1324 96.278L97.3336 96.0204C97.3807 96.0072 97.4302 96.0044 97.4785 96.0121C97.5269 96.0198 97.5729 96.0379 97.6136 96.0652C97.6619 96.0972 97.7037 96.138 97.7368 96.1856C98.1204 96.6896 97.6164 97.2076 96.5496 97.5352C95.4378 97.8694 94.2536 97.8791 93.1364 97.5632Z" stroke="#263238" stroke-miterlimit="10"/>
<path d="M49 98.532L50.9348 96.7204C50.9839 96.6752 51.021 96.6186 51.043 96.5556C51.065 96.4926 51.0711 96.4251 51.0608 96.3592L50.68 93.7384C50.669 93.6631 50.6792 93.5862 50.7095 93.5163C50.7398 93.4465 50.789 93.3865 50.8516 93.3431C50.9142 93.2997 50.9877 93.2747 51.0637 93.2709C51.1397 93.267 51.2153 93.2844 51.282 93.3212L53.6032 94.6008C53.6618 94.6319 53.7272 94.6482 53.7936 94.6482C53.86 94.6482 53.9254 94.6319 53.984 94.6008L56.3556 93.4164C56.4238 93.3821 56.5003 93.3675 56.5763 93.3745C56.6524 93.3814 56.725 93.4094 56.7859 93.4555C56.8468 93.5015 56.8936 93.5637 56.921 93.635C56.9484 93.7063 56.9552 93.7838 56.9408 93.8588L56.4396 96.4628C56.426 96.5278 56.4288 96.5951 56.4479 96.6587C56.467 96.7223 56.5017 96.7801 56.5488 96.8268L58.408 98.714C58.4621 98.7683 58.4998 98.8367 58.5169 98.9114C58.534 98.9861 58.5297 99.0641 58.5046 99.1365C58.4795 99.2089 58.4346 99.2727 58.3749 99.3208C58.3153 99.3689 58.2433 99.3993 58.1672 99.4084L55.538 99.736C55.4722 99.7441 55.4094 99.7679 55.3548 99.8054C55.3002 99.8429 55.2555 99.8931 55.2244 99.9516L54.0036 102.306C53.9683 102.374 53.9148 102.431 53.849 102.47C53.7833 102.509 53.708 102.528 53.6316 102.526C53.5552 102.525 53.4808 102.502 53.4169 102.46C53.353 102.418 53.3021 102.359 53.27 102.29L52.15 99.89C52.1221 99.83 52.08 99.7777 52.0273 99.7377C51.9746 99.6977 51.9129 99.6711 51.8476 99.6604L49.2324 99.2264C49.1576 99.215 49.0874 99.1832 49.0295 99.1344C48.9716 99.0857 48.9282 99.0219 48.9042 98.9502C48.8802 98.8784 48.8764 98.8014 48.8933 98.7276C48.9102 98.6538 48.9471 98.5862 49 98.532Z" stroke="#263238" stroke-miterlimit="10"/>
<path d="M56.7504 107.064L57.68 106.196C57.7033 106.174 57.7211 106.146 57.7318 106.116C57.7425 106.086 57.7459 106.054 57.7416 106.022L57.5512 104.765C57.5466 104.73 57.5516 104.694 57.5657 104.662C57.5798 104.629 57.6023 104.601 57.631 104.58C57.6597 104.56 57.6935 104.547 57.7287 104.544C57.764 104.541 57.7994 104.548 57.8312 104.563L58.9512 105.176C58.9796 105.192 59.0114 105.2 59.0436 105.2C59.0758 105.2 59.1076 105.192 59.136 105.176L60.2728 104.616C60.3055 104.6 60.3422 104.593 60.3787 104.597C60.4151 104.6 60.4499 104.614 60.479 104.636C60.5082 104.658 60.5305 104.688 60.5436 104.722C60.5566 104.756 60.5598 104.793 60.5528 104.829L60.312 106.081C60.3062 106.112 60.308 106.144 60.3173 106.174C60.3266 106.204 60.343 106.232 60.3652 106.254L61.2584 107.162C61.2844 107.188 61.3026 107.22 61.3108 107.256C61.3191 107.292 61.3171 107.329 61.3052 107.364C61.2932 107.399 61.2717 107.43 61.2431 107.453C61.2146 107.476 61.1801 107.49 61.1436 107.495L59.8808 107.652C59.8489 107.656 59.8184 107.668 59.7921 107.686C59.7657 107.705 59.7443 107.729 59.7296 107.758L59.1444 108.878C59.1283 108.911 59.1033 108.939 59.0721 108.959C59.0409 108.978 59.0048 108.989 58.968 108.989C58.9312 108.989 58.8951 108.978 58.8639 108.959C58.8327 108.939 58.8076 108.911 58.7916 108.878L58.2512 107.724C58.2377 107.695 58.2175 107.67 58.1921 107.651C58.1668 107.631 58.1371 107.618 58.1056 107.612L56.8512 107.405C56.8147 107.399 56.7808 107.382 56.7532 107.358C56.7255 107.333 56.7054 107.301 56.6949 107.266C56.6844 107.23 56.684 107.192 56.6939 107.157C56.7037 107.121 56.7232 107.089 56.7504 107.064Z" stroke="#263238" stroke-miterlimit="10"/>
<path d="M19.8212 63.3528L17.8472 65.1252C17.7978 65.1692 17.7599 65.2246 17.737 65.2866C17.714 65.3486 17.7067 65.4153 17.7156 65.4808L18.0544 68.11C18.0642 68.1857 18.0526 68.2625 18.0209 68.3319C17.9893 68.4013 17.9389 68.4605 17.8754 68.5027C17.8119 68.5449 17.7378 68.5686 17.6616 68.5709C17.5853 68.5733 17.51 68.5543 17.444 68.516L15.1508 67.2C15.0937 67.1658 15.029 67.1464 14.9625 67.1434C14.896 67.1405 14.8299 67.1542 14.77 67.1832L12.376 68.32C12.3068 68.3522 12.2301 68.3646 12.1543 68.3557C12.0785 68.3468 12.0067 68.317 11.9469 68.2697C11.8871 68.2223 11.8416 68.1593 11.8155 68.0876C11.7894 68.0159 11.7838 67.9384 11.7992 67.8636L12.3592 65.2708C12.3728 65.2059 12.3705 65.1386 12.3524 65.0747C12.3344 65.0109 12.3012 64.9523 12.2556 64.904L10.4356 62.9776C10.3825 62.9226 10.3461 62.8537 10.3305 62.7788C10.3149 62.704 10.3207 62.6262 10.3473 62.5545C10.374 62.4829 10.4203 62.4202 10.481 62.3736C10.5417 62.3271 10.6143 62.2987 10.6904 62.2916L13.328 62.0116C13.3937 62.0046 13.4568 61.9819 13.5119 61.9453C13.5669 61.9088 13.6124 61.8595 13.6444 61.8016L14.9128 59.4748C14.9493 59.4076 15.0039 59.352 15.0705 59.3143C15.137 59.2766 15.2128 59.2583 15.2892 59.2615C15.3656 59.2647 15.4396 59.2893 15.5027 59.3324C15.5659 59.3756 15.6157 59.4356 15.6464 59.5056L16.7216 61.9276C16.7476 61.9884 16.7884 62.0418 16.8402 62.0828C16.892 62.1239 16.9533 62.1514 17.0184 62.1628L19.6252 62.6528C19.6988 62.6679 19.7667 62.703 19.8217 62.7542C19.8766 62.8054 19.9164 62.8707 19.9367 62.9431C19.9569 63.0154 19.9569 63.0919 19.9365 63.1642C19.9161 63.2365 19.8762 63.3017 19.8212 63.3528Z" stroke="#263238" stroke-miterlimit="10"/>
<path d="M12.2528 54.6616L11.3064 55.5016C11.2826 55.5227 11.2643 55.5493 11.2531 55.579C11.2419 55.6088 11.2381 55.6408 11.242 55.6724L11.4072 56.9352C11.4117 56.9715 11.406 57.0084 11.3907 57.0417C11.3753 57.0749 11.351 57.1032 11.3204 57.1233C11.2897 57.1434 11.2541 57.1546 11.2175 57.1555C11.1809 57.1564 11.1448 57.147 11.1132 57.1284L10.0128 56.4928C9.98437 56.4776 9.95263 56.4696 9.9204 56.4696C9.88816 56.4696 9.85643 56.4776 9.828 56.4928L8.68 57.0416C8.64678 57.0585 8.60943 57.0656 8.57233 57.062C8.53522 57.0585 8.4999 57.0444 8.47051 57.0215C8.44112 56.9985 8.41887 56.9677 8.40638 56.9326C8.39389 56.8975 8.39168 56.8595 8.4 56.8232L8.666 55.5772C8.67263 55.5459 8.6715 55.5135 8.66271 55.4827C8.65393 55.452 8.63775 55.4238 8.6156 55.4008L7.742 54.4768C7.71661 54.4502 7.69922 54.4169 7.69182 54.3809C7.68443 54.3449 7.68732 54.3075 7.70017 54.273C7.71302 54.2385 7.73532 54.2084 7.7645 54.186C7.79368 54.1636 7.82858 54.1499 7.8652 54.1464L9.1308 54.0148C9.16244 54.0108 9.19275 53.9996 9.21943 53.9822C9.24611 53.9647 9.26847 53.9414 9.2848 53.914L9.8924 52.794C9.90972 52.7614 9.93588 52.7344 9.96786 52.7161C9.99984 52.6977 10.0363 52.6888 10.0732 52.6902C10.11 52.6917 10.1457 52.7035 10.1762 52.7243C10.2066 52.7452 10.2305 52.7742 10.2452 52.808L10.7604 53.97C10.7737 53.9994 10.7939 54.0251 10.8192 54.0451C10.8446 54.0651 10.8743 54.0787 10.906 54.0848L12.1548 54.32C12.1917 54.3258 12.2261 54.342 12.2541 54.3667C12.2821 54.3915 12.3024 54.4237 12.3127 54.4595C12.323 54.4954 12.3228 54.5335 12.3122 54.5693C12.3016 54.6051 12.281 54.6371 12.2528 54.6616Z" stroke="#263238" stroke-miterlimit="10"/>
<path d="M63.0448 31.7968L61.2136 31.4272C61.1678 31.4172 61.1202 31.4189 61.0751 31.4321C61.0301 31.4453 60.9892 31.4696 60.956 31.5028L59.6148 32.802C59.5775 32.8432 59.5288 32.8723 59.4749 32.8857C59.4209 32.8991 59.3643 32.8961 59.312 32.8772C59.2598 32.8583 59.2144 32.8243 59.1815 32.7795C59.1487 32.7347 59.1299 32.6811 59.1276 32.6256L58.912 30.7692C58.9073 30.7226 58.891 30.678 58.8646 30.6393C58.8382 30.6007 58.8025 30.5693 58.7608 30.548L57.12 29.68C57.07 29.6571 57.0279 29.6201 56.9988 29.5735C56.9698 29.5268 56.9551 29.4727 56.9566 29.4178C56.9581 29.3628 56.9757 29.3096 57.0072 29.2646C57.0388 29.2196 57.0829 29.1849 57.134 29.1648L58.8336 28.3864C58.8768 28.3677 58.9146 28.3384 58.9435 28.3012C58.9723 28.264 58.9914 28.2201 58.9988 28.1736L59.3124 26.32C59.3179 26.2645 59.34 26.2119 59.3756 26.169C59.4113 26.126 59.4589 26.0948 59.5125 26.0791C59.566 26.0635 59.6231 26.0642 59.6762 26.0812C59.7294 26.0981 59.7762 26.1306 59.8108 26.1744L61.0736 27.552C61.1048 27.5868 61.1442 27.6132 61.1882 27.6288C61.2322 27.6445 61.2794 27.6489 61.3256 27.6416L63.1764 27.3812C63.2294 27.373 63.2837 27.3802 63.3328 27.402C63.3819 27.4237 63.4237 27.4592 63.4532 27.504C63.4827 27.5489 63.4987 27.6012 63.4993 27.6549C63.4998 27.7086 63.4849 27.7613 63.4564 27.8068L62.538 29.4364C62.5173 29.4777 62.5065 29.5232 62.5065 29.5694C62.5065 29.6156 62.5173 29.6611 62.538 29.7024L63.3584 31.3824C63.3872 31.4303 63.401 31.4857 63.398 31.5416C63.395 31.5974 63.3754 31.651 63.3417 31.6956C63.3079 31.7402 63.2616 31.7736 63.2087 31.7917C63.1558 31.8097 63.0987 31.8115 63.0448 31.7968Z" stroke="#263238" stroke-miterlimit="10"/>
<path d="M64.7752 23.8616L63.896 23.6824C63.874 23.6784 63.8515 23.6797 63.8301 23.686C63.8087 23.6923 63.7891 23.7035 63.7728 23.7188L63.1288 24.3432C63.11 24.361 63.0867 24.3733 63.0614 24.3786C63.0361 24.3839 63.0098 24.3822 62.9854 24.3734C62.961 24.3647 62.9396 24.3495 62.9234 24.3293C62.9072 24.3091 62.8969 24.2849 62.8936 24.2592L62.79 23.3688C62.7888 23.3465 62.7817 23.3248 62.7694 23.3061C62.7571 23.2874 62.7401 23.2723 62.72 23.2624L61.9248 22.8396C61.9018 22.8283 61.8823 22.8108 61.8688 22.789C61.8552 22.7672 61.848 22.7421 61.848 22.7164C61.848 22.6907 61.8552 22.6656 61.8688 22.6438C61.8823 22.622 61.9018 22.6045 61.9248 22.5932L62.7424 22.218C62.7625 22.2086 62.7801 22.1946 62.7938 22.1771C62.8074 22.1595 62.8167 22.139 62.8208 22.1172L62.9748 21.2324C62.9798 21.2073 62.9915 21.1841 63.0088 21.1652C63.026 21.1464 63.0481 21.1326 63.0726 21.1254C63.0971 21.1182 63.1232 21.1178 63.1479 21.1243C63.1726 21.1309 63.195 21.144 63.2128 21.1624L63.84 21.8232C63.855 21.8397 63.8738 21.8524 63.8948 21.8602C63.9157 21.868 63.9382 21.8707 63.9604 21.868L64.8508 21.742C64.8761 21.7391 64.9018 21.7431 64.925 21.7537C64.9482 21.7642 64.9681 21.7809 64.9825 21.802C64.9969 21.823 65.0053 21.8476 65.0067 21.873C65.0082 21.8985 65.0027 21.9239 64.9908 21.9464L64.5484 22.7304C64.5381 22.7503 64.5327 22.7724 64.5327 22.7948C64.5327 22.8172 64.5381 22.8393 64.5484 22.8592L64.9432 23.6628C64.9564 23.6875 64.9619 23.7157 64.959 23.7436C64.9561 23.7715 64.9448 23.7978 64.9267 23.8193C64.9086 23.8407 64.8845 23.8562 64.8575 23.8637C64.8304 23.8713 64.8018 23.8705 64.7752 23.8616Z" stroke="#263238" stroke-miterlimit="10"/>
<path d="M98.4172 79.3044L96.6 78.932C96.5541 78.9239 96.507 78.9265 96.4623 78.9396C96.4177 78.9527 96.3766 78.976 96.3424 79.0076L95.0012 80.3068C94.9641 80.3478 94.9156 80.3769 94.8619 80.3904C94.8082 80.4039 94.7518 80.4012 94.6996 80.3826C94.6475 80.364 94.6021 80.3304 94.569 80.286C94.536 80.2416 94.5168 80.1885 94.514 80.1332L94.2984 78.2768C94.2937 78.2302 94.2774 78.1856 94.251 78.1469C94.2246 78.1083 94.1889 78.0769 94.1472 78.0556L92.498 77.1792C92.4472 77.1567 92.4042 77.1197 92.3745 77.0727C92.3448 77.0258 92.3297 76.971 92.3312 76.9155C92.3327 76.8599 92.3507 76.8061 92.3829 76.7608C92.4151 76.7155 92.46 76.6809 92.512 76.6612L94.2116 75.8856C94.2548 75.8669 94.2926 75.8375 94.3215 75.8004C94.3503 75.7632 94.3694 75.7193 94.3768 75.6728L94.6988 73.8332C94.7043 73.7777 94.7264 73.7251 94.762 73.6821C94.7977 73.6392 94.8453 73.6079 94.8989 73.5923C94.9524 73.5766 95.0095 73.5774 95.0626 73.5943C95.1158 73.6113 95.1626 73.6438 95.1972 73.6876L96.46 75.0624C96.4918 75.0965 96.5312 75.1226 96.575 75.1387C96.6187 75.1547 96.6657 75.1603 96.712 75.1548L98.5628 74.8916C98.6163 74.8829 98.6711 74.8899 98.7207 74.9118C98.7702 74.9337 98.8124 74.9694 98.842 75.0148C98.8717 75.0601 98.8875 75.1131 98.8877 75.1673C98.8878 75.2214 98.8722 75.2745 98.8428 75.32L97.9244 76.9468C97.9011 76.9898 97.8889 77.0379 97.8889 77.0868C97.8889 77.1357 97.9011 77.1838 97.9244 77.2268L98.7448 78.9068C98.7701 78.9555 98.7805 79.0106 98.7747 79.0652C98.769 79.1198 98.7473 79.1715 98.7124 79.2138C98.6775 79.2562 98.6309 79.2874 98.5784 79.3035C98.5259 79.3196 98.4699 79.3199 98.4172 79.3044Z" stroke="#263238" stroke-miterlimit="10"/>
<path d="M100.148 71.3664L99.2684 71.19C99.2465 71.1853 99.2237 71.1862 99.2022 71.1925C99.1806 71.1989 99.1611 71.2105 99.1452 71.2264L98.5012 71.848C98.4826 71.8657 98.4595 71.878 98.4344 71.8835C98.4093 71.889 98.3831 71.8874 98.3589 71.879C98.3346 71.8706 98.3131 71.8557 98.2967 71.8359C98.2803 71.8161 98.2697 71.7922 98.266 71.7668L98.1624 70.8736C98.1604 70.8511 98.1527 70.8295 98.1399 70.8109C98.1272 70.7922 98.1098 70.7772 98.0896 70.7672L97.2972 70.3472C97.2743 70.3354 97.255 70.3176 97.2416 70.2956C97.2281 70.2736 97.221 70.2483 97.221 70.2226C97.221 70.1968 97.2281 70.1715 97.2416 70.1496C97.255 70.1276 97.2743 70.1097 97.2972 70.098L98.112 69.7256C98.1326 69.7166 98.1508 69.7027 98.1649 69.6851C98.1791 69.6676 98.1888 69.6469 98.1932 69.6248L98.3472 68.74C98.3522 68.7149 98.3639 68.6917 98.3812 68.6728C98.3984 68.6539 98.4205 68.6402 98.445 68.6329C98.4695 68.6257 98.4956 68.6254 98.5203 68.6319C98.545 68.6384 98.5674 68.6516 98.5852 68.67L99.1928 69.3308C99.2078 69.3473 99.2266 69.36 99.2476 69.3678C99.2685 69.3756 99.291 69.3783 99.3132 69.3756L100.204 69.2496C100.229 69.2456 100.255 69.2489 100.279 69.2591C100.303 69.2694 100.323 69.2862 100.338 69.3076C100.353 69.329 100.361 69.3541 100.362 69.38C100.363 69.4059 100.357 69.4316 100.344 69.454L99.9012 70.2352C99.8909 70.2551 99.8855 70.2772 99.8855 70.2996C99.8855 70.322 99.8909 70.3441 99.9012 70.364L100.293 71.1704C100.304 71.193 100.309 71.2183 100.307 71.2434C100.304 71.2686 100.295 71.2926 100.28 71.3129C100.265 71.3331 100.245 71.3488 100.221 71.3583C100.198 71.3677 100.172 71.3705 100.148 71.3664Z" stroke="#263238" stroke-miterlimit="10"/>
<path d="M30.5984 27.8292L31.4104 28.0476" stroke="#263238" stroke-miterlimit="10"/>
<path d="M35.0896 29.0388L35.994 29.2824" stroke="#263238" stroke-miterlimit="10"/>
<path d="M35.91 30.4192L34.5604 30.0552" stroke="#263238" stroke-miterlimit="10"/>
<path d="M25.424 27.594L26.4264 27.8628" stroke="#263238" stroke-miterlimit="10"/>
<path d="M25.9392 26.5748L26.9192 26.838" stroke="#263238" stroke-miterlimit="10"/>
<path d="M30.0832 28.8484L31.1444 29.1368" stroke="#263238" stroke-miterlimit="10"/>
<path d="M28.9464 22.834L28.0672 22.372" stroke="#263238" stroke-miterlimit="10"/>
<path d="M37.9624 26.3228L36.6884 25.6508" stroke="#263238" stroke-miterlimit="10"/>
<path d="M32.2476 24.5756L32.9756 24.9592" stroke="#263238" stroke-miterlimit="10"/>
<path d="M33.5944 24.0184L32.7544 23.576" stroke="#263238" stroke-miterlimit="10"/>
<path d="M37.0832 27.1236L36.2768 26.698" stroke="#263238" stroke-miterlimit="10"/>
<path d="M28.574 21.3724L29.4532 21.8372" stroke="#263238" stroke-miterlimit="10"/>
<path d="M28.574 21.3724L29.0528 20.44C29.2524 20.0017 29.2747 19.5033 29.1151 19.0489C28.9555 18.5946 28.6263 18.2196 28.1964 18.0025C27.7666 17.7854 27.2694 17.743 26.809 17.8842C26.3486 18.0254 25.9606 18.3392 25.7264 18.76L21.6272 26.8296C21.4142 27.2699 21.3828 27.7763 21.5397 28.2396C21.6965 28.7029 22.0291 29.086 22.4658 29.3064C22.9025 29.5268 23.4083 29.5667 23.8742 29.4177C24.3401 29.2686 24.7287 28.9425 24.9564 28.5096L25.424 27.5884" stroke="#263238" stroke-miterlimit="10"/>
<path d="M25.424 27.594L25.9392 26.5748" stroke="#263238" stroke-miterlimit="10"/>
<path d="M28.574 21.3724L28.0672 22.372" stroke="#263238" stroke-miterlimit="10"/>
<path d="M28.0672 22.372L25.9392 26.5748" stroke="#263238" stroke-miterlimit="10"/>
<path d="M30.0832 28.8484L30.5984 27.8292" stroke="#263238" stroke-miterlimit="10"/>
<path d="M32.7544 23.576L32.2476 24.5756" stroke="#263238" stroke-miterlimit="10"/>
<path d="M32.2476 24.5756L30.5984 27.8292" stroke="#263238" stroke-miterlimit="10"/>
<path d="M28.9464 22.834L26.9192 26.838" stroke="#263238" stroke-miterlimit="10"/>
<path d="M32.76 23.576L32.8328 23.4332C32.948 23.2141 33.0185 22.9743 33.0401 22.7277C33.0616 22.4811 33.0339 22.2327 32.9585 21.9969C32.883 21.7612 32.7614 21.5428 32.6007 21.3545C32.44 21.1663 32.2435 21.0119 32.0225 20.9003C31.8015 20.7888 31.5605 20.7224 31.3136 20.705C31.0667 20.6876 30.8187 20.7195 30.5843 20.7989C30.3498 20.8783 30.1335 21.0035 29.948 21.1674C29.7624 21.3312 29.6114 21.5304 29.5036 21.7532L29.4588 21.8428" stroke="#263238" stroke-miterlimit="10"/>
<path d="M29.4532 21.8372L28.9464 22.834" stroke="#263238" stroke-miterlimit="10"/>
<path d="M26.9192 26.838L26.5328 27.6024C26.4897 27.6859 26.4541 27.773 26.4264 27.8628" stroke="#263238" stroke-miterlimit="10"/>
<path d="M26.4264 27.8628C26.2832 28.3083 26.3128 28.7914 26.5092 29.2161C26.7056 29.6408 27.0546 29.9762 27.4867 30.1556C27.9189 30.3351 28.4028 30.3454 28.8423 30.1847C29.2817 30.024 29.6447 29.7039 29.8592 29.288L30.0832 28.8484" stroke="#263238" stroke-miterlimit="10"/>
<path d="M36.68 25.6508C36.7283 25.2751 36.6608 24.8936 36.4866 24.5573C36.3125 24.2209 36.0398 23.9457 35.7052 23.7683C35.3705 23.5909 34.9896 23.5198 34.6135 23.5645C34.2374 23.6092 33.8838 23.7676 33.6 24.0184" stroke="#263238" stroke-miterlimit="10"/>
<path d="M36.2768 26.698L36.5064 26.2472C36.6011 26.0604 36.6627 25.8586 36.6884 25.6508" stroke="#263238" stroke-miterlimit="10"/>
<path d="M33.6 24.0184C33.4296 24.1731 33.2883 24.3571 33.1828 24.5616L32.9812 24.9592" stroke="#263238" stroke-miterlimit="10"/>
<path d="M36.2768 26.698L35.0896 29.0388" stroke="#263238" stroke-miterlimit="10"/>
<path d="M34.5604 30.0552C34.6001 29.9956 34.6365 29.9339 34.6696 29.8704L35.0896 29.0304" stroke="#263238" stroke-miterlimit="10"/>
<path d="M31.1444 29.1368C31.1249 28.8074 31.1935 28.4788 31.3432 28.1848L31.4104 28.0476" stroke="#263238" stroke-miterlimit="10"/>
<path d="M31.4104 28.0476L32.9756 24.9592" stroke="#263238" stroke-miterlimit="10"/>
<path d="M31.1444 29.1368C31.1625 29.4447 31.2566 29.7433 31.4184 30.0058C31.5803 30.2684 31.8047 30.4867 32.0716 30.6413C32.3385 30.7958 32.6396 30.8818 32.9478 30.8914C33.2561 30.901 33.562 30.834 33.838 30.6964C34.1315 30.5506 34.3808 30.3293 34.5604 30.0552" stroke="#263238" stroke-miterlimit="10"/>
<path d="M35.91 30.4192C35.998 30.7909 36.1982 31.1265 36.4834 31.3806C36.7686 31.6347 37.125 31.7949 37.5044 31.8395C37.8837 31.8841 38.2676 31.811 38.604 31.6301C38.9404 31.4492 39.213 31.1691 39.3848 30.828L40.3732 28.868C40.5456 28.5255 40.6083 28.1382 40.5526 27.7588C40.497 27.3794 40.3257 27.0264 40.0622 26.7478C39.7986 26.4693 39.4556 26.2788 39.0799 26.2022C38.7041 26.1257 38.3139 26.1668 37.9624 26.32" stroke="#263238" stroke-miterlimit="10"/>
<path d="M37.0832 27.1236L37.0468 27.1908L36.0584 29.1508C36.0341 29.1961 36.0126 29.2429 35.994 29.2908" stroke="#263238" stroke-miterlimit="10"/>
<path d="M37.9624 26.32C37.5905 26.4849 37.282 26.7658 37.0832 27.1208" stroke="#263238" stroke-miterlimit="10"/>
<path d="M35.91 30.4192C35.8177 30.0409 35.8471 29.6431 35.994 29.2824" stroke="#263238" stroke-miterlimit="10"/>
<path d="M24.2984 26.544C24.3453 26.628 24.366 26.7241 24.3578 26.82C24.3496 26.9158 24.3129 27.007 24.2524 27.0818C24.1918 27.1566 24.1103 27.2116 24.0183 27.2396C23.9263 27.2676 23.828 27.2675 23.736 27.2391C23.6441 27.2108 23.5628 27.1555 23.5025 27.0805C23.4423 27.0055 23.4058 26.9142 23.398 26.8183C23.3901 26.7225 23.4111 26.6264 23.4583 26.5426C23.5055 26.4588 23.5767 26.391 23.6628 26.348C23.7173 26.3188 23.7771 26.3007 23.8387 26.2947C23.9003 26.2888 23.9624 26.2951 24.0215 26.3133C24.0806 26.3315 24.1356 26.3613 24.1831 26.4009C24.2306 26.4405 24.2698 26.4892 24.2984 26.544Z" stroke="#263238" stroke-miterlimit="10"/>
<path d="M29.1984 27.5996C29.2248 27.6558 29.2397 27.7167 29.2425 27.7787C29.2452 27.8408 29.2356 27.9027 29.2142 27.961C29.1929 28.0193 29.1602 28.0728 29.1181 28.1185C29.076 28.1641 29.0252 28.2009 28.9688 28.2268C28.8596 28.281 28.7334 28.2897 28.6179 28.2508C28.5024 28.2119 28.407 28.1288 28.3528 28.0196C28.2986 27.9105 28.29 27.7842 28.3288 27.6687C28.3677 27.5532 28.4508 27.4578 28.56 27.4036C28.6708 27.346 28.7999 27.3342 28.9193 27.3709C29.0388 27.4075 29.139 27.4897 29.1984 27.5996Z" stroke="#263238" stroke-miterlimit="10"/>
<path d="M33.4964 28.9016C33.5439 29.015 33.5465 29.1423 33.5036 29.2575C33.4608 29.3728 33.3757 29.4674 33.2656 29.5222C33.1556 29.5771 33.0288 29.588 32.911 29.5528C32.7932 29.5177 32.6932 29.439 32.6312 29.3328C32.5837 29.2194 32.5811 29.0922 32.624 28.977C32.6668 28.8617 32.7519 28.7671 32.862 28.7122C32.972 28.6574 33.0988 28.6464 33.2166 28.6816C33.3344 28.7168 33.4344 28.7954 33.4964 28.9016Z" stroke="#263238" stroke-miterlimit="10"/>
<path d="M27.2916 20.16C27.3391 20.2444 27.3602 20.3411 27.3521 20.4376C27.3441 20.5341 27.3074 20.626 27.2466 20.7014C27.1859 20.7768 27.1039 20.8323 27.0113 20.8606C26.9188 20.889 26.8198 20.889 26.7272 20.8606C26.6347 20.8322 26.5527 20.7766 26.492 20.7012C26.4313 20.6258 26.3946 20.5339 26.3867 20.4374C26.3787 20.3409 26.3998 20.2442 26.4473 20.1598C26.4948 20.0754 26.5666 20.0073 26.6532 19.964C26.7639 19.9056 26.8932 19.8935 27.0129 19.9302C27.1325 19.9669 27.2327 20.0496 27.2916 20.16Z" stroke="#263238" stroke-miterlimit="10"/>
<path d="M31.7128 22.96C31.7606 23.0444 31.7819 23.1412 31.774 23.2379C31.7661 23.3345 31.7294 23.4266 31.6686 23.5022C31.6078 23.5778 31.5258 23.6333 31.433 23.6617C31.3403 23.6901 31.2411 23.69 31.1485 23.6614C31.0558 23.6329 30.9738 23.5771 30.9132 23.5014C30.8525 23.4257 30.816 23.3336 30.8083 23.2369C30.8007 23.1402 30.8222 23.0434 30.8701 22.9591C30.918 22.8748 30.9902 22.8068 31.0772 22.764C31.1317 22.7348 31.1915 22.7166 31.2531 22.7107C31.3147 22.7047 31.3768 22.711 31.4359 22.7293C31.495 22.7475 31.55 22.7773 31.5975 22.8169C31.645 22.8565 31.6842 22.9051 31.7128 22.96Z" stroke="#263238" stroke-miterlimit="10"/>
<path d="M35.56 25.2C35.6075 25.2844 35.6286 25.3811 35.6205 25.4776C35.6125 25.5741 35.5758 25.666 35.515 25.7414C35.4543 25.8168 35.3723 25.8722 35.2797 25.9006C35.1872 25.929 35.0882 25.929 34.9956 25.9005C34.9031 25.8721 34.8211 25.8166 34.7604 25.7412C34.6997 25.6657 34.663 25.5738 34.6551 25.4773C34.6471 25.3808 34.6682 25.2842 34.7157 25.1998C34.7632 25.1154 34.835 25.0472 34.9216 25.004C35.0323 24.9456 35.1616 24.9334 35.2813 24.9702C35.4009 25.0069 35.5011 25.0896 35.56 25.2Z" stroke="#263238" stroke-miterlimit="10"/>
<path d="M39.1188 27.2832C39.1663 27.3676 39.1874 27.4643 39.1793 27.5608C39.1713 27.6573 39.1346 27.7492 39.0738 27.8246C39.0131 27.9 38.9311 27.9554 38.8385 27.9838C38.746 28.0122 38.647 28.0122 38.5544 27.9837C38.4619 27.9553 38.3799 27.8998 38.3192 27.8244C38.2585 27.7489 38.2218 27.657 38.2138 27.5605C38.2059 27.464 38.227 27.3674 38.2745 27.283C38.322 27.1986 38.3937 27.1304 38.4804 27.0872C38.5911 27.0288 38.7204 27.0166 38.8401 27.0534C38.9597 27.0901 39.0599 27.1727 39.1188 27.2832Z" stroke="#263238" stroke-miterlimit="10"/>
<path d="M37.8 30.2036C37.8475 30.288 37.8686 30.3847 37.8605 30.4812C37.8525 30.5777 37.8158 30.6696 37.755 30.745C37.6943 30.8204 37.6123 30.8759 37.5197 30.9042C37.4272 30.9326 37.3282 30.9326 37.2356 30.9042C37.1431 30.8757 37.0611 30.8202 37.0004 30.7448C36.9397 30.6694 36.903 30.5775 36.895 30.481C36.8871 30.3845 36.9082 30.2878 36.9557 30.2034C37.0032 30.119 37.0749 30.0508 37.1616 30.0076C37.2163 29.9783 37.2763 29.9602 37.3381 29.9542C37.3999 29.9482 37.4623 29.9545 37.5216 29.9727C37.581 29.9909 37.6361 30.0207 37.6839 30.0603C37.7317 30.1 37.7711 30.1487 37.8 30.2036Z" stroke="#263238" stroke-miterlimit="10"/>
<path d="M20.6612 30.17C20.5475 30.1656 20.4338 30.1807 20.3252 30.2148C20.2159 30.2489 20.1136 30.3019 20.0228 30.3716" stroke="#263238" stroke-miterlimit="10"/>
<path d="M20.0228 30.3716C19.8172 30.5199 19.6711 30.7367 19.6108 30.983C19.5505 31.2292 19.5799 31.4889 19.6937 31.7155C19.8075 31.9421 19.9983 32.1207 20.2319 32.2194C20.4654 32.3181 20.7265 32.3303 20.9683 32.254C21.21 32.1776 21.4167 32.0176 21.5513 31.8027C21.6858 31.5878 21.7394 31.332 21.7024 31.0812C21.6655 30.8303 21.5404 30.6009 21.3496 30.4339C21.1588 30.2669 20.9147 30.1734 20.6612 30.17" stroke="#263238" stroke-miterlimit="10"/>
<path d="M20.6612 30.17C20.6625 30.1504 20.6625 30.1308 20.6612 30.1112L17.598 20.4736C17.5704 20.3876 17.5098 20.316 17.4295 20.2745C17.3492 20.2331 17.2557 20.2251 17.1696 20.2524C17.1271 20.2658 17.0877 20.2874 17.0535 20.3161C17.0194 20.3447 16.9913 20.3798 16.9707 20.4193C16.9502 20.4589 16.9376 20.502 16.9338 20.5464C16.93 20.5908 16.9349 20.6355 16.9484 20.678L20.0004 30.3156C20.0062 30.3349 20.0137 30.3536 20.0228 30.3716" stroke="#263238" stroke-miterlimit="10"/>
<path d="M36.8872 21.6944C36.8636 21.583 36.822 21.4761 36.764 21.378C36.7031 21.2819 36.6275 21.196 36.54 21.1232" stroke="#263238" stroke-miterlimit="10"/>
<path d="M36.54 21.1232C36.3456 20.9585 36.0988 20.8687 35.844 20.8698C35.5892 20.8709 35.3432 20.963 35.1503 21.1293C34.9573 21.2957 34.8301 21.5255 34.7915 21.7773C34.7529 22.0292 34.8054 22.2865 34.9397 22.503C35.0739 22.7196 35.2811 22.8811 35.5238 22.9585C35.7665 23.0359 36.0289 23.0241 36.2637 22.9252C36.4985 22.8264 36.6904 22.647 36.8047 22.4193C36.919 22.1916 36.9482 21.9306 36.8872 21.6832" stroke="#263238" stroke-miterlimit="10"/>
<path d="M36.8872 21.6944C36.9057 21.6877 36.9235 21.6793 36.9404 21.6692L45.5644 16.3912C45.6025 16.3679 45.6355 16.3372 45.6618 16.3011C45.688 16.265 45.7068 16.224 45.7172 16.1806C45.7276 16.1372 45.7294 16.0921 45.7224 16.048C45.7154 16.0039 45.6997 15.9617 45.6764 15.9236C45.653 15.8856 45.6224 15.8525 45.5863 15.8262C45.5502 15.8 45.5092 15.7812 45.4658 15.7708C45.4224 15.7604 45.3773 15.7586 45.3332 15.7656C45.2891 15.7726 45.2469 15.7883 45.2088 15.8116L36.5848 21.0868L36.54 21.1232" stroke="#263238" stroke-miterlimit="10"/>
<path d="M118.966 37.2904C118.966 37.2904 118.174 33.1268 112.82 33.7232C107.467 34.3196 104.395 41.454 104.7 43.6352C105.006 45.8164 105.196 53.4352 105.196 53.4352L115.903 58.1952L123.032 54.04L123.329 43.6296C123.329 43.6296 123.528 36.596 118.966 37.2904Z" fill="#263238" stroke="#263238" stroke-linecap="round" stroke-linejoin="round"/>
<path d="M106.179 113.823C106.179 113.823 104.591 115.41 102.41 117.393C100.229 119.375 102.015 120.963 104.79 120.473C107.565 119.983 109.25 117.001 109.25 117.001C109.25 117.001 110.838 116.309 110.838 114.92C110.838 113.532 107.369 112.932 106.179 113.823Z" fill="white" stroke="#263238" stroke-linecap="round" stroke-linejoin="round"/>
<path d="M121.562 113.823C121.562 113.823 123.15 115.41 125.331 117.393C127.512 119.375 125.726 120.963 122.951 120.473C120.176 119.983 118.49 117.001 118.49 117.001C118.49 117.001 116.903 116.309 116.903 114.92C116.903 113.532 120.372 112.932 121.562 113.823Z" fill="white" stroke="#263238" stroke-linecap="round" stroke-linejoin="round"/>
<path d="M104.395 79.1252C104.395 79.1252 105.484 96.9696 105.683 100.044C105.882 103.118 106.378 110.849 106.378 110.849C106.378 110.849 105.582 112.14 105.582 112.636C105.582 113.131 105.683 114.419 105.683 114.419C105.683 114.419 107.363 115.114 108.161 115.212C108.959 115.31 110.936 115.609 110.936 115.609C110.936 115.609 111.334 113.929 111.135 112.932C110.936 111.936 110.74 110.849 110.74 110.849C110.74 110.849 111.236 109.362 111.236 108.469C111.236 107.576 111.135 107.083 111.135 106.487C111.135 105.89 113.218 86.3632 113.218 86.3632H114.209C114.209 86.3632 115.889 107.579 115.993 107.974C116.096 108.368 115.794 109.561 116.091 110.256C116.329 110.871 116.528 111.5 116.687 112.14C116.462 112.71 116.328 113.312 116.29 113.924C116.317 114.528 116.417 115.127 116.589 115.707C117.312 115.787 118.04 115.821 118.768 115.808C120.257 115.808 122.24 114.517 122.24 114.517C122.24 114.517 121.94 112.14 121.842 111.437C121.744 110.734 121.545 109.757 121.545 109.354V106.579C121.545 106.182 121.643 104.496 121.643 104.496L122.536 79.3156L112.722 74.1608L104.395 79.1252Z" fill="#263238" stroke="#263238" stroke-linecap="round" stroke-linejoin="round"/>
<path d="M111.72 52.2592C111.72 52.2592 108.052 51.3688 106.168 52.0632C104.283 52.7576 101.508 55.5324 100.814 56.3248C100.12 57.1172 98.0392 59.9928 98.0392 59.9928L100.814 62.4708L105.672 59.696L106.366 65.0496L100.24 76.944C100.24 76.944 104.6 81.5052 112.84 81.802C121.08 82.0988 127.512 77.6384 127.512 77.6384L121.346 64.652L121.444 58.408L127.4 62.6696L130.368 58.604C130.368 58.604 126.798 54.6392 124.718 53.2504C122.637 51.8616 119.462 52.1612 117.382 52.1612C115.301 52.1612 112.126 52.36 112.126 52.36L111.72 52.2592Z" fill="#DAE1C2"/>
<mask id="mask0_55812_25592" style="mask-type:luminance" maskUnits="userSpaceOnUse" x="98" y="51" width="33" height="31">
<path d="M111.72 52.2592C111.72 52.2592 108.052 51.3688 106.168 52.0632C104.283 52.7576 101.508 55.5324 100.814 56.3248C100.12 57.1172 98.0392 59.9928 98.0392 59.9928L100.814 62.4708L105.672 59.696L106.366 65.0496L100.24 76.944C100.24 76.944 104.6 81.5052 112.84 81.802C121.08 82.0988 127.512 77.6384 127.512 77.6384L121.346 64.652L121.444 58.408L127.4 62.6696L130.368 58.604C130.368 58.604 126.798 54.6392 124.718 53.2504C122.637 51.8616 119.462 52.1612 117.382 52.1612C115.301 52.1612 112.126 52.36 112.126 52.36L111.72 52.2592Z" fill="white"/>
</mask>
<g mask="url(#mask0_55812_25592)">
<path d="M101.727 49.8763V83.4371" stroke="white" stroke-linecap="round" stroke-linejoin="round"/>
<path d="M102.516 49.8763V83.4371" stroke="white" stroke-linecap="round" stroke-linejoin="round"/>
<path d="M104.656 49.8763V83.4371" stroke="white" stroke-linecap="round" stroke-linejoin="round"/>
<path d="M107.134 49.8763V83.4371" stroke="white" stroke-linecap="round" stroke-linejoin="round"/>
<path d="M107.92 49.8763V83.4371" stroke="white" stroke-linecap="round" stroke-linejoin="round"/>
<path d="M110.062 49.8763V83.4371" stroke="white" stroke-linecap="round" stroke-linejoin="round"/>
<path d="M112.54 49.8763V83.4371" stroke="white" stroke-linecap="round" stroke-linejoin="round"/>
<path d="M113.327 49.8763V83.4371" stroke="white" stroke-linecap="round" stroke-linejoin="round"/>
<path d="M115.466 49.8763V83.4371" stroke="white" stroke-linecap="round" stroke-linejoin="round"/>
<path d="M117.944 49.8763V83.4371" stroke="white" stroke-linecap="round" stroke-linejoin="round"/>
<path d="M118.734 49.8763V83.4371" stroke="white" stroke-linecap="round" stroke-linejoin="round"/>
<path d="M120.873 49.8763V83.4371" stroke="white" stroke-linecap="round" stroke-linejoin="round"/>
<path d="M123.351 49.8763V83.4371" stroke="white" stroke-linecap="round" stroke-linejoin="round"/>
<path d="M124.141 49.8763V83.4371" stroke="white" stroke-linecap="round" stroke-linejoin="round"/>
<path d="M126.28 49.8763V83.4371" stroke="white" stroke-linecap="round" stroke-linejoin="round"/>
<path d="M130.334 53.9307H96.7708" stroke="white" stroke-linecap="round" stroke-linejoin="round"/>
<path d="M130.334 54.7175H96.7708" stroke="white" stroke-linecap="round" stroke-linejoin="round"/>
<path d="M130.334 56.8596H96.7708" stroke="white" stroke-linecap="round" stroke-linejoin="round"/>
<path d="M130.334 58.9987H96.7708" stroke="white" stroke-linecap="round" stroke-linejoin="round"/>
<path d="M130.334 59.7855H96.7708" stroke="white" stroke-linecap="round" stroke-linejoin="round"/>
<path d="M130.334 61.9276H96.7708" stroke="white" stroke-linecap="round" stroke-linejoin="round"/>
<path d="M130.334 64.0667H96.7708" stroke="white" stroke-linecap="round" stroke-linejoin="round"/>
<path d="M130.334 64.8535H96.7708" stroke="white" stroke-linecap="round" stroke-linejoin="round"/>
<path d="M130.334 66.9955H96.7708" stroke="white" stroke-linecap="round" stroke-linejoin="round"/>
<path d="M130.334 69.1348H96.7708" stroke="white" stroke-linecap="round" stroke-linejoin="round"/>
<path d="M130.334 69.9243H96.7708" stroke="white" stroke-linecap="round" stroke-linejoin="round"/>
<path d="M130.334 72.0635H96.7708" stroke="white" stroke-linecap="round" stroke-linejoin="round"/>
<path d="M130.334 74.2028H96.7708" stroke="white" stroke-linecap="round" stroke-linejoin="round"/>
<path d="M130.334 74.9923H96.7708" stroke="white" stroke-linecap="round" stroke-linejoin="round"/>
<path d="M130.334 77.1315H96.7708" stroke="white" stroke-linecap="round" stroke-linejoin="round"/>
<path d="M130.334 79.2708H96.7708" stroke="white" stroke-linecap="round" stroke-linejoin="round"/>
<path d="M130.334 80.0604H96.7708" stroke="white" stroke-linecap="round" stroke-linejoin="round"/>
<path d="M130.334 82.1995H96.7708" stroke="white" stroke-linecap="round" stroke-linejoin="round"/>
</g>
<path d="M111.72 52.2592C111.72 52.2592 108.052 51.3688 106.168 52.0632C104.283 52.7576 101.508 55.5324 100.814 56.3248C100.12 57.1172 98.0392 59.9928 98.0392 59.9928L100.814 62.4708L105.672 59.696L106.366 65.0496L100.24 76.944C100.24 76.944 104.6 81.5052 112.84 81.802C121.08 82.0988 127.512 77.6384 127.512 77.6384L121.346 64.652L121.444 58.408L127.4 62.6696L130.368 58.604C130.368 58.604 126.798 54.6392 124.718 53.2504C122.637 51.8616 119.462 52.1612 117.382 52.1612C115.301 52.1612 112.126 52.36 112.126 52.36L111.72 52.2592Z" stroke="#263238" stroke-linecap="round" stroke-linejoin="round"/>
<path d="M119.694 46.0628C119.694 46.0628 120.744 44.1532 121.604 45.682C122.464 47.2108 120.84 48.7368 120.075 49.2156C119.311 49.6944 119.694 46.0628 119.694 46.0628Z" fill="white" stroke="#263238" stroke-linecap="round" stroke-linejoin="round"/>
<path d="M111.236 52.0632L111.63 56.4228C111.868 57.0226 112.283 57.5362 112.818 57.8956C113.354 58.2551 113.987 58.4435 114.632 58.436C117.037 58.436 117.58 55.916 117.58 55.916L118.076 51.3576C118.076 51.3576 114.108 52.458 111.236 52.0632Z" fill="white" stroke="#263238" stroke-linecap="round" stroke-linejoin="round"/>
<path d="M115.57 41.8572C115.57 41.8572 110.314 44.0552 108.119 44.6264L108.31 46.3456C108.31 46.3456 107.164 44.9148 106.305 46.1552C105.445 47.3956 106.4 48.8292 107.26 49.4984C108.119 50.1676 108.69 49.5936 108.69 49.5936C108.69 49.5936 109.648 52.6512 112.227 53.8944C114.806 55.1376 117.793 54.5104 119.129 51.4528C119.806 49.9072 120.274 47.2892 120.126 44.8336C117.384 44.7244 115.57 41.8572 115.57 41.8572Z" fill="white" stroke="#263238" stroke-linecap="round" stroke-linejoin="round"/>
<path d="M113.554 47.9192C113.554 47.9192 114.318 48.972 115.657 47.9192" stroke="#263238" stroke-linecap="round" stroke-linejoin="round"/>
<path d="M112.456 47.0036C112.667 47.0036 112.837 46.7078 112.837 46.3428C112.837 45.9779 112.667 45.682 112.456 45.682C112.246 45.682 112.076 45.9779 112.076 46.3428C112.076 46.7078 112.246 47.0036 112.456 47.0036Z" fill="#263238"/>
<path d="M116.119 47.0036C116.329 47.0036 116.5 46.7078 116.5 46.3428C116.5 45.9779 116.329 45.682 116.119 45.682C115.908 45.682 115.738 45.9779 115.738 46.3428C115.738 46.7078 115.908 47.0036 116.119 47.0036Z" fill="#263238"/>
<path d="M110.516 44.9596C110.516 44.9596 111.566 43.9068 112.904 44.2904" stroke="#263238" stroke-linecap="round" stroke-linejoin="round"/>
<path d="M115.657 44.2904C115.657 44.2904 117.281 43.6212 117.95 45.0548" stroke="#263238" stroke-linecap="round" stroke-linejoin="round"/>
<path d="M113.134 49.3808C113.134 49.3808 113.448 51.3996 114.408 51.6656C115.808 52.0548 116.136 49.3528 116.136 49.3528L113.134 49.3808Z" fill="#263238" stroke="#263238" stroke-linecap="round" stroke-linejoin="round"/>
<path d="M109.984 48.0564C109.984 48.0564 109.897 48.118 109.757 48.2272C109.301 48.5856 108.273 49.4536 107.797 50.3188C107.187 51.4388 106.84 54.0652 106.397 54.6756C105.955 55.286 98.84 57.9852 97.5268 59.0296C96.2136 60.074 96.1268 63.4732 98.7476 63.56C101.368 63.6468 102.318 62.5156 103.788 61.4712C105.258 60.4268 107.621 57.3748 107.621 57.3748C107.621 57.3748 110.06 56.3304 110.583 55.1992C111.107 54.068 111.266 51.744 111.454 51.5396C112.168 50.7612 112.759 49.7112 112.759 48.9272C112.759 48.1432 111.639 47.1828 109.984 48.0564Z" fill="white" stroke="#263238" stroke-linecap="round" stroke-linejoin="round"/>
<path d="M112.697 48.8012C112.697 48.8012 112.459 48.3616 112.059 48.8012C111.658 49.2408 110.099 50.6408 109.978 50.8816" stroke="#263238" stroke-linecap="round" stroke-linejoin="round"/>
<path d="M112.179 48.0396C112.179 48.0396 111.737 47.8016 111.499 48.0396C111.261 48.2776 109.656 49.5208 109.418 49.9604C109.303 50.1503 109.21 50.3522 109.138 50.5624" stroke="#263238" stroke-linecap="round" stroke-linejoin="round"/>
<path d="M110.138 48.0396C110.138 48.0396 108.898 49.1596 108.377 50.2404" stroke="#263238" stroke-linecap="round" stroke-linejoin="round"/>
<path d="M118.952 48.0564C118.952 48.0564 119.039 48.118 119.179 48.2272C119.636 48.5856 120.663 49.4536 121.139 50.3188C121.75 51.4388 122.097 54.0652 122.539 54.6756C122.982 55.286 130.116 57.9852 131.424 59.0296C132.731 60.074 132.824 63.4732 130.203 63.56C127.582 63.6468 126.633 62.5156 125.163 61.4712C123.693 60.4268 121.33 57.3748 121.33 57.3748C121.33 57.3748 118.891 56.3304 118.367 55.1992C117.844 54.068 117.684 51.744 117.496 51.5396C116.782 50.7612 116.192 49.7112 116.192 48.9272C116.192 48.1432 117.298 47.1828 118.952 48.0564Z" fill="white" stroke="#263238" stroke-linecap="round" stroke-linejoin="round"/>
<path d="M116.239 48.8012C116.239 48.8012 116.477 48.3616 116.878 48.8012C117.278 49.2408 118.838 50.6408 118.958 50.8816" stroke="#263238" stroke-linecap="round" stroke-linejoin="round"/>
<path d="M116.76 48.0396C116.76 48.0396 117.202 47.8016 117.44 48.0396C117.678 48.2776 119.283 49.5208 119.521 49.9604C119.636 50.1503 119.73 50.3522 119.801 50.5624" stroke="#263238" stroke-linecap="round" stroke-linejoin="round"/>
<path d="M118.798 48.0396C118.798 48.0396 120.039 49.1596 120.56 50.2404" stroke="#263238" stroke-linecap="round" stroke-linejoin="round"/>
<path d="M63.28 73.3376L60.1468 81.9168C60.1468 81.9168 62.1404 83.8516 61.9948 84.5852C61.8492 85.3188 61.838 86.4108 61.6448 86.8252C61.4516 87.2396 61.1016 87.7688 60.4856 87.3852C59.8696 87.0016 60.4436 85.7668 60.4436 85.7668L60.2336 85.3664L59.024 88.788C58.8723 88.9377 58.6757 89.0336 58.4643 89.0609C58.2529 89.0882 58.0384 89.0455 57.8536 88.9392C57.1172 88.5948 57.6268 87.934 57.6268 87.934L56.56 87.2312C56.56 87.2312 55.3644 86.3688 55.23 85.806C55.0956 85.2432 55.9104 82.2248 56.2184 81.5696C56.4208 81.1297 56.5993 80.6791 56.7532 80.22C56.7532 80.22 57.8956 73.458 58.6348 71.1536L63.28 73.3376Z" fill="white" stroke="#263238" stroke-linecap="round" stroke-linejoin="round"/>
<path d="M57.6268 87.934L58.1812 84.686" stroke="#263238" stroke-linecap="round" stroke-linejoin="round"/>
<path d="M56.5544 87.2312L56.826 84.6496" stroke="#263238" stroke-linecap="round" stroke-linejoin="round"/>
<path d="M55.5772 86.2092L55.916 84.3948" stroke="#263238" stroke-linecap="round" stroke-linejoin="round"/>
<path d="M65.4948 113.658C65.4948 113.658 62.5212 116.393 61.4516 117.818C60.382 119.244 62.048 120.434 64.4252 120.554C66.8024 120.674 68.7036 118.177 70.2492 117.342C71.7948 116.508 72.2708 116.393 72.2708 113.775C72.2708 111.157 65.4948 113.658 65.4948 113.658Z" fill="white" stroke="#263238" stroke-linecap="round" stroke-linejoin="round"/>
<path d="M70.2492 117.342C71.4168 116.715 71.974 116.502 72.1756 115.293C71.4002 115.578 70.6773 115.989 70.0364 116.511C69.09 117.396 66.6764 119.938 64.3048 119.7C61.9332 119.462 61.2248 118.46 61.2248 118.46L61.152 118.432C60.8916 119.574 62.3924 120.453 64.4196 120.554C66.8024 120.68 68.7036 118.177 70.2492 117.342Z" fill="white" stroke="#263238" stroke-linecap="round" stroke-linejoin="round"/>
<path d="M66.2088 83.6976L65.4948 108.545L64.4252 110.32L65.0188 114.125C65.0188 114.125 65.9708 114.839 68.0988 115.312C69.5922 115.625 71.1063 115.828 72.6292 115.92C72.6292 115.92 73.3404 110.807 73.1024 109.617C72.8644 108.427 72.7468 107.478 72.7468 107.478L73.2228 87.5028L73.3404 84.532L66.2088 83.6976Z" fill="#263238" stroke="#263238" stroke-linecap="round" stroke-linejoin="round"/>
<path d="M83.3028 113.658C83.3028 113.658 86.2764 116.393 87.346 117.818C88.4156 119.244 86.7496 120.434 84.3724 120.554C81.9952 120.674 80.094 118.177 78.5484 117.342C77.0028 116.508 76.5268 116.393 76.5268 113.775C76.5268 111.157 83.3028 113.658 83.3028 113.658Z" fill="white" stroke="#263238" stroke-linecap="round" stroke-linejoin="round"/>
<path d="M78.5484 117.342C77.3808 116.715 76.8236 116.502 76.6192 115.293C77.3958 115.577 78.1197 115.989 78.7612 116.511C79.7048 117.396 82.1212 119.938 84.4928 119.7C86.8644 119.462 87.5728 118.46 87.5728 118.46L87.6456 118.432C87.906 119.574 86.4052 120.453 84.378 120.554C81.9952 120.68 80.094 118.177 78.5484 117.342Z" fill="white" stroke="#263238" stroke-linecap="round" stroke-linejoin="round"/>
<path d="M82.6 83.6976L83.314 108.545L84.3836 110.328L83.79 114.134C83.79 114.134 82.838 114.848 80.71 115.321C79.2099 115.631 77.6892 115.831 76.16 115.92C76.16 115.92 75.4488 110.807 75.684 109.617C75.9192 108.427 76.0424 107.478 76.0424 107.478L75.5664 87.5028L75.4488 84.532L82.6 83.6976Z" fill="#263238" stroke="#263238" stroke-linecap="round" stroke-linejoin="round"/>
<path d="M71.3328 56.0756C71.3328 56.0756 64.2292 57.8536 63.8344 58.4444C63.4396 59.0352 58.9008 70.5796 58.9008 70.5796L63.2436 72.3576L65.52 68.32L65.1252 84.1064L73.0184 89.5328L74.6984 87.262L75.7848 89.5328L83.678 84.3024L82.4936 66.8388L86.6376 69.3056L88.6116 64.5708C88.6116 64.5708 83.678 56.8736 82.1968 56.6776C80.7156 56.4816 76.2776 55.6892 74.3036 55.79C73.3082 55.8203 72.3158 55.9157 71.3328 56.0756Z" fill="#DAE1C2" stroke="#263238" stroke-linecap="round" stroke-linejoin="round"/>
<path d="M75.1128 61.2164L74.8832 85.9012" stroke="#263238" stroke-linecap="round" stroke-linejoin="round"/>
<path d="M65.5116 68.3116L64.9404 61.3312" stroke="#263238" stroke-linecap="round" stroke-linejoin="round"/>
<path d="M82.4824 66.8304L82.4264 60.1888" stroke="#263238" stroke-linecap="round" stroke-linejoin="round"/>
<path d="M76.1404 62.93C76.1409 62.9983 76.1211 63.0653 76.0835 63.1224C76.0459 63.1794 75.9921 63.224 75.9291 63.2504C75.866 63.2768 75.7966 63.2839 75.7295 63.2707C75.6624 63.2575 75.6008 63.2246 75.5525 63.1763C75.5041 63.128 75.4713 63.0664 75.4581 62.9993C75.4449 62.9322 75.4519 62.8627 75.4784 62.7997C75.5048 62.7367 75.5493 62.6829 75.6064 62.6453C75.6635 62.6076 75.7304 62.5878 75.7988 62.5884C75.8892 62.5891 75.9756 62.6253 76.0395 62.6893C76.1034 62.7532 76.1397 62.8396 76.1404 62.93Z" fill="#263238"/>
<path d="M76.1404 70.7028C76.1404 70.771 76.1201 70.8377 76.0822 70.8944C76.0442 70.9511 75.9902 70.9953 75.9271 71.0213C75.864 71.0472 75.7947 71.0539 75.7278 71.0404C75.6609 71.0269 75.5995 70.9938 75.5515 70.9453C75.5034 70.8969 75.4708 70.8353 75.4579 70.7683C75.4449 70.7013 75.4521 70.6319 75.4786 70.5691C75.5051 70.5062 75.5497 70.4526 75.6067 70.4151C75.6637 70.3776 75.7306 70.3579 75.7988 70.3584C75.8439 70.3584 75.8885 70.3673 75.9302 70.3847C75.9718 70.402 76.0096 70.4274 76.0413 70.4594C76.0731 70.4915 76.0982 70.5295 76.1152 70.5712C76.1322 70.613 76.1408 70.6577 76.1404 70.7028Z" fill="#263238"/>
<path d="M76.1404 78.4728C76.1409 78.5411 76.1211 78.6081 76.0835 78.6652C76.0459 78.7222 75.9921 78.7668 75.9291 78.7932C75.866 78.8196 75.7966 78.8267 75.7295 78.8135C75.6624 78.8003 75.6008 78.7674 75.5525 78.7191C75.5041 78.6708 75.4713 78.6091 75.4581 78.5421C75.4449 78.475 75.4519 78.4055 75.4784 78.3425C75.5048 78.2794 75.5493 78.2257 75.6064 78.1881C75.6635 78.1504 75.7304 78.1306 75.7988 78.1312C75.8892 78.1319 75.9756 78.1681 76.0395 78.232C76.1034 78.2959 76.1397 78.3824 76.1404 78.4728Z" fill="#263238"/>
<path d="M76.1404 86.24C76.1404 86.3082 76.1201 86.3749 76.0822 86.4316C76.0442 86.4883 75.9902 86.5324 75.9271 86.5584C75.864 86.5844 75.7947 86.5911 75.7278 86.5776C75.6609 86.564 75.5995 86.531 75.5515 86.4825C75.5034 86.4341 75.4708 86.3724 75.4579 86.3054C75.4449 86.2384 75.4521 86.1691 75.4786 86.1062C75.5051 86.0434 75.5497 85.9898 75.6067 85.9523C75.6637 85.9148 75.7306 85.895 75.7988 85.8956C75.8439 85.8956 75.8885 85.9045 75.9302 85.9218C75.9718 85.9392 76.0096 85.9646 76.0413 85.9966C76.0731 86.0286 76.0982 86.0666 76.1152 86.1084C76.1322 86.1502 76.1408 86.1949 76.1404 86.24Z" fill="#263238"/>
<path d="M73.01 54.3004C73.01 54.3004 71.33 54.3984 71.33 54.8912C71.33 55.384 69.7508 57.064 69.7508 57.064C69.7508 57.064 70.0476 62.384 70.3444 62.6864C70.6412 62.9888 75.3844 58.8392 75.3844 58.8392C75.3844 58.8392 79.5284 62.3924 79.8252 62.4792C80.122 62.566 79.6264 57.7416 79.1336 56.658C78.6408 55.5744 77.4536 54.3872 76.5688 54.2892C75.684 54.1912 73.01 54.3004 73.01 54.3004Z" fill="white" stroke="#263238" stroke-linecap="round" stroke-linejoin="round"/>
<path d="M72.0244 52.7212C72.0244 52.7212 72.2204 56.4704 72.5172 57.162C72.814 57.8536 74.984 61.1072 75.4768 60.9112C75.9696 60.7152 77.7476 57.2712 77.7476 56.6692C77.7476 56.0672 78.1424 53.116 78.1424 53.116C78.1424 53.116 74.2924 53.6088 72.0244 52.7212Z" fill="white" stroke="#263238" stroke-linecap="round" stroke-linejoin="round"/>
<path d="M77.9856 54.32C78.0696 53.6536 78.1424 53.1104 78.1424 53.1104C78.1424 53.1104 74.2924 53.6032 72.0244 52.7156C72.0244 52.7156 72.058 53.3484 72.1168 54.1408C72.2157 54.1968 72.3165 54.25 72.4192 54.3004C74.1804 55.16 76.3308 55.2608 77.9856 54.32Z" fill="#263238" stroke="#263238" stroke-linecap="round" stroke-linejoin="round"/>
<path d="M58.3464 69.1992L57.9152 72.4556L63.8512 74.0348L64.82 70.9744L58.3464 69.1992Z" fill="white" stroke="#263238" stroke-linecap="round" stroke-linejoin="round"/>
<path d="M87.9564 62.7564C87.9564 62.7564 86.0104 64.7164 85.2936 65.9288C84.7602 66.8913 84.2815 67.8831 83.86 68.8996L86.5228 70.8596L90.6192 64.4196C90.6192 64.4196 88.2644 62.6528 87.9564 62.7564Z" fill="white" stroke="#263238" stroke-linecap="round" stroke-linejoin="round"/>
<path d="M90.7536 58.7132C90.7536 58.7132 89.9864 57.0052 89.9864 56.1512C89.9864 55.2972 91.0112 52.4804 91.0112 52.2312C91.0112 51.982 91.7784 51.3772 91.9492 52.2312C92.0458 52.8538 92.0458 53.4875 91.9492 54.11L92.2068 54.8772L94.0184 51.8C94.0824 51.6587 94.1894 51.5411 94.3242 51.4642C94.4589 51.3873 94.6145 51.3549 94.7688 51.3716C95.4128 51.4444 95.1272 52.3012 95.1272 52.3012L94.1836 54.9108L94.1696 54.9472L95.9616 51.618C95.9616 51.618 96.684 51.3072 97.0816 51.7664C97.4036 52.1248 97.0116 52.626 97.0116 52.626L95.5192 55.8012L97.3672 53.186C97.4193 53.1099 97.4916 53.0498 97.5761 53.0125C97.6605 52.9752 97.7536 52.9623 97.845 52.9751C97.9364 52.9879 98.0224 53.0259 98.0933 53.085C98.1642 53.144 98.2172 53.2217 98.2464 53.3092V53.326C98.4172 53.9252 96.796 56.3136 96.796 56.3136L98 55.384C98 55.384 98.5992 54.7008 98.77 55.468C98.8099 55.6718 98.7792 55.8831 98.6832 56.0672C98.5012 56.3472 96.3788 58.2848 96.3788 58.2848C96.3788 58.2848 94.8444 59.4804 94.5868 59.6512C94.2896 59.7853 93.973 59.8713 93.6488 59.906C93.6488 59.906 92.4868 67.6704 91.8904 68.95C91.294 70.2296 89.4964 71.3664 88.3568 71.2544C87.2172 71.1424 85.4392 69.874 86.2064 67.5696C86.9736 65.2652 90.7536 58.7132 90.7536 58.7132Z" fill="white" stroke="#263238" stroke-linecap="round" stroke-linejoin="round"/>
<path d="M92.2068 54.88C92.2068 54.88 92.8872 56.0756 92.974 56.672C93.0608 57.2684 92.7164 58.2932 92.7164 58.2932" fill="white"/>
<path d="M92.2068 54.88C92.2068 54.88 92.8872 56.0756 92.974 56.672C93.0608 57.2684 92.7164 58.2932 92.7164 58.2932" stroke="#263238" stroke-linecap="round" stroke-linejoin="round"/>
<path d="M80.9032 37.24C80.9032 37.24 81.102 35.364 79.2232 33.88C77.3444 32.396 75.9668 32.3988 76.0676 32.9924C76.1484 33.386 76.3168 33.7564 76.5604 34.076C76.5604 34.076 72.2176 32.396 69.258 33.796C66.2984 35.196 65.7104 37.52 66.3012 37.52C66.6093 37.5041 66.916 37.5718 67.1888 37.716C67.1888 37.716 64.722 40.7764 64.624 42.3528C64.526 43.9292 66.1052 44.3268 66.1052 44.3268L66.9928 46.4968C66.9928 46.4968 68.9528 47.6812 69.5576 46.9896C70.1624 46.298 69.3588 44.7216 69.8544 44.4248C70.35 44.128 74.8944 42.0588 74.8944 42.0588C75.2344 42.3804 75.639 42.6258 76.0812 42.7789C76.5234 42.9319 76.9932 42.989 77.4592 42.9464C79.1392 42.8484 79.6292 41.958 79.6292 41.958L80.4188 44.9176C80.4188 44.9176 82.6896 43.932 82.8856 42.5516C82.9832 41.561 82.917 40.5611 82.6896 39.592C82.6896 39.592 84.6496 39.592 83.6752 38.2088C82.7008 36.8256 80.9032 37.24 80.9032 37.24Z" fill="#263238" stroke="#263238" stroke-linecap="round" stroke-linejoin="round"/>
<path d="M80.2312 45.3432C80.2312 45.3432 81.3148 43.3692 82.1912 44.9484C83.0676 46.5276 81.4016 48.104 80.612 48.5884C79.8224 49.0728 80.2312 45.3432 80.2312 45.3432Z" fill="white" stroke="#263238" stroke-linecap="round" stroke-linejoin="round"/>
<path d="M80.2144 39.6984C80.2144 39.6984 79.226 41.6724 77.4508 42.2632C75.6756 42.854 75.9696 41.1768 75.9696 41.1768C75.9696 41.1768 70.5432 43.4476 68.2752 44.0384L68.4712 45.8164C68.4712 45.8164 67.2868 44.3352 66.3992 45.6176C65.5116 46.9 66.5 48.3812 67.3876 49.07C68.2752 49.7588 68.866 49.1708 68.866 49.1708C68.866 49.1708 69.8544 52.3264 72.506 53.6088C75.1576 54.8912 78.722 54.4992 80.1024 51.3408C81.4828 48.1824 80.2144 39.6984 80.2144 39.6984Z" fill="white" stroke="#263238" stroke-linecap="round" stroke-linejoin="round"/>
<path d="M74.0292 47.3592C74.0292 47.3592 74.8188 48.4456 76.1992 47.3592" stroke="#263238" stroke-linecap="round" stroke-linejoin="round"/>
<path d="M73.4384 45.7324C73.4384 46.2504 73.1948 46.6704 72.8952 46.6704C72.5956 46.6704 72.352 46.2504 72.352 45.7324C72.352 45.2144 72.5956 44.7944 72.8952 44.7944C73.1948 44.7944 73.4384 45.2144 73.4384 45.7324Z" fill="#263238"/>
<path d="M77.63 45.8808C77.63 46.3988 77.3892 46.8188 77.0896 46.8188C76.79 46.8188 76.5464 46.3988 76.5464 45.8808C76.5464 45.3628 76.79 44.9428 77.0896 44.9428C77.3892 44.9428 77.63 45.36 77.63 45.8808Z" fill="#263238"/>
<path d="M71.4644 44.3016C71.4644 44.3016 72.5508 43.2152 73.9312 43.61" stroke="#263238" stroke-width="2" stroke-linecap="round" stroke-linejoin="round"/>
<path d="M76.1992 43.61C76.1992 43.61 77.8792 42.9212 78.568 44.3996" stroke="#263238" stroke-width="2" stroke-linecap="round" stroke-linejoin="round"/>
<path d="M73.64 49.0364C73.64 49.0364 75.418 49.826 76.7004 48.8404" stroke="#263238" stroke-linecap="round" stroke-linejoin="round"/>
<path d="M14.1736 110.855C14.1736 110.855 12.6756 112.675 12.0316 113.21C11.3876 113.744 8.2852 115.993 7.1064 117.6C5.9276 119.207 7.2156 120.918 9.9988 120.49C12.782 120.061 12.3536 118.779 13.9608 118.25C15.568 117.72 16.422 117.074 16.6376 115.147C16.8532 113.221 16.8504 111.507 16.8504 111.507L14.1736 110.855Z" fill="white" stroke="#263238" stroke-linecap="round" stroke-linejoin="round"/>
<path d="M15.1368 114.817L14.602 113.532C14.0672 112.246 12.6756 112.89 12.6756 112.89L12.4152 112.848C12.2963 112.975 12.1711 113.096 12.04 113.21C11.3988 113.747 8.29361 115.993 7.11481 117.6C5.93601 119.207 7.22401 120.918 10.0072 120.49C12.7904 120.061 12.362 118.779 13.9692 118.25C15.5764 117.72 16.4304 117.074 16.646 115.147C16.6768 114.867 16.702 114.587 16.7272 114.307L15.1368 114.817Z" fill="#DAE1C2" stroke="#263238" stroke-linecap="round" stroke-linejoin="round"/>
<path d="M16.4388 116.119C15.6941 116.457 14.9729 116.844 14.28 117.278C12.782 118.241 12.3536 119.207 9.57039 119.518C8.00519 119.7 7.15119 119.067 6.70319 118.479C6.45679 119.759 7.73079 120.831 9.99879 120.481C12.782 120.056 12.3536 118.77 13.9608 118.241C15.2544 117.81 16.0636 117.32 16.4388 116.119Z" fill="white" stroke="#263238" stroke-linecap="round" stroke-linejoin="round"/>
<path d="M45.3208 110.855C45.3208 110.855 46.8216 112.675 47.4628 113.21C48.104 113.744 51.2092 115.993 52.388 117.6C53.5668 119.207 52.2816 120.918 49.4984 120.49C46.7152 120.061 47.1408 118.779 45.5364 118.25C43.932 117.72 43.0724 117.074 42.8596 115.147C42.6468 113.221 42.644 111.507 42.644 111.507L45.3208 110.855Z" fill="white" stroke="#263238" stroke-linecap="round" stroke-linejoin="round"/>
<path d="M44.3576 114.817L44.8924 113.532C45.43 112.246 46.8216 112.89 46.8216 112.89L47.082 112.848C47.2248 112.994 47.362 113.128 47.4628 113.21C48.1068 113.747 51.2092 115.993 52.388 117.6C53.5668 119.207 52.2816 120.918 49.4984 120.49C46.7152 120.061 47.1408 118.779 45.5364 118.25C43.932 117.72 43.0724 117.074 42.8596 115.147C42.8288 114.867 42.8008 114.587 42.7784 114.307L44.3576 114.817Z" fill="#DAE1C2" stroke="#263238" stroke-linecap="round" stroke-linejoin="round"/>
<path d="M43.0584 116.119C43.8025 116.456 44.5228 116.843 45.2144 117.278C46.7124 118.241 47.1408 119.207 49.9268 119.518C51.492 119.7 52.346 119.067 52.794 118.479C53.0376 119.759 51.7664 120.831 49.4984 120.481C46.7124 120.056 47.1408 118.77 45.5364 118.241C44.24 117.81 43.4336 117.32 43.0584 116.119Z" fill="white" stroke="#263238" stroke-linecap="round" stroke-linejoin="round"/>
<path d="M23.2848 75.614L13.426 109.57L18.7768 110.533L31.4384 86.5004L34.328 86.9288L42.0112 113.103L47.4712 112.568L43.3076 80.3236L33.4572 75.7204L23.2848 75.614Z" fill="#263238" stroke="#263238" stroke-linecap="round" stroke-linejoin="round"/>
<path d="M42.1288 52.5952C42.1288 52.5952 37.2036 50.5596 34.6332 50.1312C32.0628 49.7028 30.352 49.9184 29.2824 50.666C28.2128 51.4136 27.4624 55.0564 27.9972 56.3416C28.2757 56.9603 28.4906 57.6058 28.6384 58.268C28.6384 58.268 26.068 69.72 25.9616 70.3668C25.8552 71.0136 23.6068 71.652 23.6068 72.1868C23.6068 72.7216 22.96 76.0424 22.96 76.0424C22.96 76.0424 27.1348 77.9688 33.88 79.4668C40.6252 80.9648 43.5148 80.8668 43.5148 80.8668C43.5148 80.8668 43.6212 78.7276 43.7304 77.2268C43.8396 75.726 43.302 74.6592 43.302 74.3372C43.302 74.0152 47.1548 63.5236 47.1548 63.5236L50.582 68.7708L49.6188 79.5844C49.6188 79.5844 46.5136 80.654 46.298 81.5108C46.0824 82.3676 45.5504 83.5436 45.5504 84.0812C45.5504 84.6188 45.6568 85.3636 46.5136 85.2572C47.3704 85.1508 47.3704 83.5436 47.3704 83.5436L47.7988 83.2244L47.3704 87.5056C47.4572 87.7422 47.6193 87.9437 47.8317 88.0793C48.0442 88.2149 48.2953 88.2769 48.5464 88.256C49.5124 88.256 49.2968 87.2928 49.2968 87.2928L50.7948 87.0772C50.7948 87.0772 52.5084 86.758 52.9368 86.2204C53.3652 85.6828 54.0064 82.0456 54.0064 81.1804C54.0112 80.6076 54.0476 80.0355 54.1156 79.4668C54.1156 79.4668 57.0052 69.0816 56.6832 67.9056C56.3612 66.7296 52.08 57.4 51.24 56.3416C50.4 55.2832 46.2 53.5584 44.9232 53.3428C43.9743 53.1642 43.0402 52.9143 42.1288 52.5952Z" fill="#B2B2B2" stroke="#263238" stroke-linecap="round" stroke-linejoin="round"/>
<path d="M49.3024 87.2844L50.3412 83.5296" stroke="#263238" stroke-linecap="round" stroke-linejoin="round"/>
<path d="M50.8004 87.0688L51.8112 84.1708" stroke="#263238" stroke-linecap="round" stroke-linejoin="round"/>
<path d="M52.3628 86.4668L52.9116 84.3556" stroke="#263238" stroke-linecap="round" stroke-linejoin="round"/>
<path d="M51.24 56.3416C50.3832 55.272 46.2 53.5584 44.9232 53.3428C43.9781 53.1636 43.0477 52.9137 42.14 52.5952C42.14 52.5952 37.2148 50.5596 34.6444 50.1312C32.074 49.7028 30.3632 49.9184 29.2936 50.666C28.224 51.4136 27.4736 55.0564 28.0084 56.3416C28.2869 56.9603 28.5018 57.6058 28.6496 58.268C28.6496 58.268 26.068 69.72 25.9616 70.3668C25.8552 71.0136 23.6068 71.652 23.6068 72.1868C23.6068 72.7216 22.96 76.0424 22.96 76.0424C22.96 76.0424 27.1348 77.9688 33.88 79.4668C40.6252 80.9648 43.5148 80.8668 43.5148 80.8668C43.5148 80.8668 43.6212 78.7276 43.7304 77.2268C43.8396 75.726 43.302 74.6592 43.302 74.3372C43.302 74.0152 47.1548 63.5236 47.1548 63.5236L49.4984 67.1132L54.7148 63.3052C53.3624 60.3316 51.7244 56.9604 51.24 56.3416Z" fill="white" stroke="#263238" stroke-linecap="round" stroke-linejoin="round"/>
<path d="M49.504 67.1048L54.7204 63.2968C54.3004 62.3756 53.8524 61.418 53.4184 60.5136L53.3904 60.4548C53.3176 60.3036 53.2448 60.1552 53.1748 60.0068C53.158 59.9704 53.1412 59.934 53.1216 59.9004L52.9312 59.5056L52.8752 59.3908C52.8108 59.262 52.752 59.1388 52.6904 59.0184L52.6372 58.912L52.4412 58.5172C52.4307 58.4991 52.4214 58.4804 52.4132 58.4612C52.3404 58.3156 52.2676 58.1812 52.1976 58.0384L52.1752 57.9964C52.1164 57.8816 52.0576 57.7724 52.0044 57.666L51.94 57.5484C51.9008 57.47 51.8588 57.3944 51.8196 57.3244C51.7804 57.2544 51.7776 57.2432 51.7552 57.2068L51.6544 57.022L51.5928 56.9156L51.5032 56.7588L51.45 56.672L51.3688 56.5404L51.3296 56.4816C51.2988 56.4329 51.2652 56.3862 51.2288 56.3416C50.372 55.272 46.1888 53.5584 44.912 53.3428C43.9669 53.1636 43.0365 52.9137 42.1288 52.5952C42.1288 52.5952 37.2036 50.5596 34.6332 50.1312C32.0628 49.7028 30.352 49.9184 29.2824 50.666C28.2128 51.4136 27.4624 55.0564 27.9972 56.3416C28.2757 56.9603 28.4905 57.6058 28.6384 58.268C28.6384 58.268 28.252 59.9956 27.7732 62.1432C30.7272 61.2668 39.032 58.5732 41.916 55.1628L42.6636 55.272C42.6636 55.272 42.4872 63.028 45.0968 69.1852C46.102 66.3852 47.1604 63.5152 47.1604 63.5152L49.504 67.1048Z" fill="#DAE1C2" stroke="#263238" stroke-linecap="round" stroke-linejoin="round"/>
<path d="M28.6384 58.268C28.6384 58.268 31.1584 58.2484 31.9088 54.2584L28.6384 58.268Z" fill="#DAE1C2"/>
<path d="M28.6384 58.268C28.6384 58.268 31.1584 58.2484 31.9088 54.2584" stroke="#263238" stroke-linecap="round" stroke-linejoin="round"/>
<path d="M49.0448 59.0016L47.1604 63.5152L50.876 59.2172" fill="#DAE1C2"/>
<path d="M49.0448 59.0016L47.1604 63.5152L50.876 59.2172" stroke="#263238" stroke-linecap="round" stroke-linejoin="round"/>
<path d="M45.5196 53.48C45.1052 53.4044 44.6796 53.312 44.2204 53.2C43.1452 52.9508 42.1288 52.5896 42.1288 52.5896C42.1288 52.5896 40.5048 51.9176 38.6372 51.2652C38.5616 53.8216 38.6372 58.7328 40.3172 59.9452C42.21 61.3452 46.5136 56.196 47.9444 54.376C47.1544 54.03 46.3448 53.7308 45.5196 53.48Z" fill="white" stroke="#263238" stroke-linecap="round" stroke-linejoin="round"/>
<path d="M39.8804 50.68C39.8804 50.68 39.0236 57.3188 40.7372 58.7104C42.4508 60.102 47.2696 54.2136 47.2696 54.2136C47.2696 54.2136 41.8068 53.9868 39.8804 50.68Z" fill="#B2B2B2" stroke="#263238" stroke-linecap="round" stroke-linejoin="round"/>
<path d="M39.732 43.6464C39.732 43.6464 38.654 41.734 37.8168 43.6464C36.9796 45.5588 38.178 47.0064 39.1328 47.1156C40.0876 47.2248 39.732 43.6464 39.732 43.6464Z" fill="#B2B2B2" stroke="#263238" stroke-linecap="round" stroke-linejoin="round"/>
<path d="M51.5424 46.6648C51.5424 46.6648 53.424 45.5448 53.2084 47.6084C52.9928 49.672 51.2484 50.344 50.3552 49.9772C49.462 49.6104 51.5424 46.6648 51.5424 46.6648Z" fill="#B2B2B2" stroke="#263238" stroke-linecap="round" stroke-linejoin="round"/>
<path d="M40.32 39.9392C40.32 39.9392 38.766 45.3208 38.8864 48.6696C39.0068 52.0184 41.1572 54.53 43.0864 55.2468C45.0156 55.9636 48.5884 53.6928 49.9044 51.422C51.2204 49.1512 53.2644 43.7668 53.0124 41.1348C52.7604 38.5028 48.9468 36.3496 46.0768 36.232C43.2068 36.1144 40.8072 37.0692 40.32 39.9392Z" fill="#B2B2B2" stroke="#263238" stroke-linecap="round" stroke-linejoin="round"/>
<path d="M41.4064 44.9624C42.3081 44.8588 43.2142 45.1165 43.9264 45.6792" stroke="#263238" stroke-width="2" stroke-linecap="round" stroke-linejoin="round"/>
<path d="M41.286 43.0472C42.3212 42.6274 43.4792 42.6274 44.5144 43.0472" stroke="#263238" stroke-linecap="round" stroke-linejoin="round"/>
<path d="M46.788 46.76C46.788 46.76 48.5828 46.6396 49.308 47.8352" stroke="#263238" stroke-width="2" stroke-linecap="round" stroke-linejoin="round"/>
<path d="M47.7456 44.4836C48.2555 44.4768 48.758 44.6063 49.2011 44.8588C49.6441 45.1114 50.0117 45.4777 50.2656 45.92" stroke="#263238" stroke-linecap="round" stroke-linejoin="round"/>
<path d="M43.5596 46.9952C43.5596 46.9952 43.2012 47.9528 44.3996 48.4316C44.7063 48.5788 45.0555 48.6115 45.3842 48.5237C45.7128 48.4358 45.9992 48.2334 46.1916 47.9528" stroke="#263238" stroke-linecap="round" stroke-linejoin="round"/>
<path d="M46.5192 49.56C46.1548 49.7627 45.7487 49.8791 45.3323 49.9005C44.9159 49.9219 44.5001 49.8475 44.1168 49.6832C43.204 49.308 43.134 48.636 42.3332 48.2048C41.5324 47.7736 40.8548 48.3896 41.1628 49.7448C41.4708 51.1 43.0724 51.898 44.6096 52.0828C46.1468 52.2676 47.4432 51.4668 47.5048 50.4812C47.5664 49.4956 46.5192 49.56 46.5192 49.56Z" fill="white" stroke="#263238" stroke-linecap="round" stroke-linejoin="round"/>
<path d="M41.16 48.4596C41.785 49.5733 42.7898 50.425 43.9908 50.8592C45.1124 51.2716 46.3511 51.2274 47.4404 50.736" stroke="#263238" stroke-linecap="round" stroke-linejoin="round"/>
<path d="M53.0068 41.1348C52.7688 38.5028 48.9412 36.3496 46.0712 36.232C43.2012 36.1144 40.8072 37.072 40.3284 39.9392C40.3284 39.9392 39.9476 41.2608 39.578 43.0024C39.8124 42.7067 40.0855 42.4439 40.39 42.2212C41.5324 41.3644 41.818 41.5548 41.818 40.4124C41.818 39.27 42.5824 37.9344 43.4392 37.8392C44.296 37.744 45.0604 38.0296 46.8692 38.8864C48.678 39.7432 50.5876 39.5528 51.4444 40.222C52.3012 40.8912 52.6848 41.9356 51.7244 43.176C50.764 44.4164 51.3436 45.178 51.3436 45.7492C51.3436 46.3204 51.1532 47.4628 51.6236 47.5608C52.4804 45.2704 53.1496 42.7112 53.0068 41.1348Z" fill="#263238"/>
<path d="M23.1784 51.2036C23.1784 51.2036 23.2848 55.0564 24.0352 56.6636C24.7856 58.2708 27.2468 58.9036 29.0752 57.5204C30.9036 56.1372 30.3604 53.5584 29.7192 52.2732C29.078 50.988 28.6468 50.2404 28.6468 50.2404L23.1784 51.2036Z" fill="#B2B2B2" stroke="#263238" stroke-linecap="round" stroke-linejoin="round"/>
<path d="M29.8172 51.4164L33.1352 48.9552C33.5636 48.6332 33.992 47.5552 33.3508 47.1352C32.7096 46.7152 31.9508 47.4544 31.9508 47.4544C31.9508 47.4544 29.5932 48.6332 29.1508 48.6332C28.7084 48.6332 28.0812 47.348 27.7508 46.8132C27.4204 46.2784 26.712 42.6384 26.4964 42C26.2808 41.3616 24.892 41.5716 24.892 42.5348C24.892 43.498 25.5332 46.284 25.5332 46.284L24.0352 46.4968C24.0352 46.4968 22.75 43.4 22.428 42.7448C22.106 42.0896 20.7172 42.3164 20.93 43.1732C21.1428 44.03 22.33 47.1352 22.33 47.1352H21.4648C21.4648 47.1352 19.432 44.6712 19.0036 44.5648C18.5752 44.4584 18.1468 45.0996 18.8972 46.1692C19.6476 47.2388 20.608 48.4092 20.608 48.4092C20.608 48.4092 18.368 48.1964 18.0404 48.09C17.7128 47.9836 16.968 48.8376 17.8248 49.266C18.6573 49.6192 19.5169 49.9048 20.3952 50.12C20.3952 50.12 21.8932 52.1556 23.394 51.94C24.2381 51.8304 25.065 51.615 25.8552 51.2988C25.8552 51.2988 27.3532 52.4888 29.8172 51.4164Z" fill="#B2B2B2" stroke="#263238" stroke-linecap="round" stroke-linejoin="round"/>
<path d="M40.5132 110.104L41.6892 113.21L47.7932 112.675V108.072L40.5132 110.104Z" fill="white" stroke="#263238" stroke-linecap="round" stroke-linejoin="round"/>
<path d="M13.2104 108.072L12.782 111.07L18.0292 112.781L20.4904 109.141L13.2104 108.072Z" fill="white" stroke="#263238" stroke-linecap="round" stroke-linejoin="round"/>
</svg>
