<svg width="220" height="35" viewBox="0 0 220 35" fill="none" xmlns="http://www.w3.org/2000/svg">
<path d="M39.6783 25.79H36V7.40991H39.6783V25.79ZM46.2274 25.79H42.7286V12.0627H43.5745L44.7279 13.3957C45.2919 12.883 45.9284 12.4899 46.6376 12.2165C47.3553 11.9344 48.103 11.7935 48.8804 11.7935C49.7178 11.7935 50.5081 11.9558 51.2515 12.2805C51.9948 12.5966 52.6443 13.0368 53.1996 13.6007C53.755 14.1561 54.1907 14.8098 54.5068 15.5617C54.8316 16.3052 54.9939 17.0999 54.9939 17.9458V25.79H51.495V17.9458C51.495 17.5869 51.4267 17.2493 51.2899 16.9332C51.1533 16.6085 50.9653 16.3266 50.7261 16.0873C50.4868 15.848 50.2091 15.6601 49.8929 15.5233C49.5768 15.3866 49.2394 15.3182 48.8804 15.3182C48.5131 15.3182 48.167 15.3866 47.8424 15.5233C47.5177 15.6601 47.2357 15.848 46.9964 16.0873C46.7572 16.3266 46.5692 16.6085 46.4326 16.9332C46.2958 17.2493 46.2274 17.5869 46.2274 17.9458V25.79ZM69.4893 14.7927L66.9259 17.369C66.7978 17.0101 66.6227 16.6897 66.4005 16.4077C66.1783 16.1171 65.9263 15.8736 65.6444 15.6771C65.371 15.4806 65.0719 15.331 64.7472 15.2286C64.4225 15.126 64.0893 15.0747 63.7475 15.0747C63.2691 15.0747 62.8162 15.1729 62.3889 15.3695C61.9704 15.566 61.6029 15.8437 61.2868 16.2027C60.9792 16.553 60.7357 16.9716 60.5562 17.4588C60.3768 17.9458 60.287 18.4841 60.287 19.0737C60.287 19.5522 60.3768 20.0009 60.5562 20.4196C60.7357 20.8382 60.9792 21.2057 61.2868 21.5219C61.6029 21.838 61.9704 22.0858 62.3889 22.2653C62.8162 22.4447 63.2691 22.5345 63.7475 22.5345C64.0893 22.5345 64.4182 22.4874 64.7343 22.3934C65.0505 22.2995 65.3453 22.167 65.6187 21.9961C65.9007 21.8166 66.1485 21.603 66.3621 21.3552C66.5843 21.0989 66.7636 20.8169 66.9004 20.5093L69.4636 23.0856C69.139 23.547 68.763 23.9614 68.3359 24.3289C67.9172 24.6963 67.46 25.0082 66.9644 25.2646C66.4774 25.5209 65.9605 25.7131 65.4137 25.8413C64.8754 25.978 64.32 26.0464 63.7475 26.0464C62.782 26.0464 61.872 25.8669 61.0176 25.5081C60.1717 25.1406 59.4283 24.6408 58.7876 24.0084C58.1553 23.3761 57.6554 22.6369 57.2881 21.7911C56.9206 20.9451 56.737 20.0393 56.737 19.0737C56.737 18.0227 56.9206 17.04 57.2881 16.1258C57.6554 15.2114 58.1553 14.4168 58.7876 13.7417C59.4283 13.0581 60.1717 12.5197 61.0176 12.1267C61.872 11.7336 62.782 11.5371 63.7475 11.5371C64.32 11.5371 64.8796 11.6097 65.4265 11.755C65.9818 11.9002 66.5074 12.1139 67.0028 12.3959C67.507 12.6693 67.9684 13.0069 68.3871 13.4084C68.8143 13.81 69.1817 14.2715 69.4893 14.7927ZM74.7312 25.79H71.2067V6.60241H74.7312V25.79ZM87.4963 24.1879C87.2144 24.4443 86.9111 24.6878 86.5864 24.9185C86.2703 25.1406 85.937 25.3371 85.5867 25.5081C85.2364 25.6704 84.8733 25.7986 84.4973 25.8926C84.1299 25.9951 83.7539 26.0464 83.3694 26.0464C82.5236 26.0464 81.7289 25.8969 80.9856 25.5978C80.2422 25.2987 79.5887 24.8758 79.0247 24.3289C78.4693 23.7734 78.0293 23.1026 77.7046 22.3165C77.3884 21.5219 77.2304 20.6332 77.2304 19.6505V12.0627H80.7164V19.6505C80.7164 20.112 80.7848 20.5263 80.9216 20.8938C81.0667 21.2527 81.259 21.5561 81.4982 21.8038C81.7375 22.0516 82.0152 22.2396 82.3314 22.3677C82.656 22.496 83.0021 22.56 83.3694 22.56C83.7284 22.56 84.0658 22.4789 84.3819 22.3165C84.7067 22.1457 84.9886 21.9235 85.2279 21.65C85.4671 21.3766 85.6551 21.0689 85.7917 20.7271C85.9285 20.3768 85.9969 20.0179 85.9969 19.6505V12.0627H89.4957V25.79H88.6499L87.4963 24.1879ZM99.7104 25.79H91.713V22.3037H99.7104C99.9497 22.3037 100.155 22.2183 100.326 22.0473C100.496 21.8765 100.582 21.6714 100.582 21.4321C100.582 21.1843 100.496 21.022 100.326 20.9451C100.155 20.8682 99.9497 20.8297 99.7104 20.8297H96.0706C95.4639 20.8297 94.8956 20.7143 94.366 20.4836C93.8362 20.2529 93.3749 19.941 92.9817 19.5479C92.5887 19.1464 92.2768 18.6807 92.0462 18.1508C91.8241 17.6211 91.713 17.0528 91.713 16.4462C91.713 15.8394 91.8241 15.2713 92.0462 14.7414C92.2768 14.2117 92.5887 13.7503 92.9817 13.3572C93.3749 12.9641 93.8362 12.6565 94.366 12.4343C94.8956 12.2036 95.4639 12.0882 96.0706 12.0882H103.158V15.5745H96.0706C95.8312 15.5745 95.6262 15.6601 95.4554 15.8309C95.2844 16.0018 95.199 16.2069 95.199 16.4462C95.199 16.6939 95.2844 16.9076 95.4554 17.087C95.6262 17.258 95.8312 17.3434 96.0706 17.3434H99.7104C100.308 17.3434 100.872 17.4459 101.402 17.651C101.932 17.8476 102.393 18.1253 102.786 18.4841C103.179 18.843 103.491 19.2745 103.722 19.7787C103.953 20.2828 104.068 20.834 104.068 21.4321C104.068 22.0388 103.953 22.6071 103.722 23.1368C103.491 23.658 103.179 24.1195 102.786 24.5212C102.393 24.9142 101.932 25.2261 101.402 25.4567C100.872 25.6789 100.308 25.79 99.7104 25.79ZM110.066 8.33276C110.066 8.65747 110.002 8.96082 109.874 9.2428C109.754 9.52478 109.588 9.77259 109.374 9.9862C109.16 10.1913 108.908 10.3579 108.618 10.4861C108.336 10.6057 108.033 10.6655 107.708 10.6655C107.383 10.6655 107.076 10.6057 106.785 10.4861C106.503 10.3579 106.255 10.1913 106.042 9.9862C105.837 9.77259 105.67 9.52478 105.542 9.2428C105.422 8.96082 105.362 8.65747 105.362 8.33276C105.362 8.0166 105.422 7.71752 105.542 7.43554C105.67 7.14502 105.837 6.89721 106.042 6.69214C106.255 6.47851 106.503 6.31189 106.785 6.19226C107.076 6.06408 107.383 6 107.708 6C108.033 6 108.336 6.06408 108.618 6.19226C108.908 6.31189 109.16 6.47851 109.374 6.69214C109.588 6.89721 109.754 7.14502 109.874 7.43554C110.002 7.71752 110.066 8.0166 110.066 8.33276ZM109.464 25.79H105.939V12.0627H109.464V25.79ZM116.039 25.79L110.809 12.0627H114.795L117.794 20.6247L120.78 12.0627H124.78L119.55 25.79H116.039ZM138.993 25.79H138.147L136.788 23.9059C136.456 24.2049 136.101 24.487 135.724 24.7518C135.357 25.0082 134.968 25.2346 134.558 25.4312C134.148 25.6192 133.725 25.7686 133.29 25.8797C132.863 25.9908 132.426 26.0464 131.982 26.0464C131.017 26.0464 130.106 25.884 129.252 25.5593C128.406 25.2346 127.664 24.7647 127.022 24.1494C126.39 23.5256 125.89 22.7652 125.522 21.868C125.155 20.9707 124.972 19.9495 124.972 18.8045C124.972 17.7365 125.155 16.7581 125.522 15.8694C125.89 14.9722 126.39 14.2031 127.022 13.5623C127.664 12.9214 128.406 12.4258 129.252 12.0754C130.106 11.7166 131.017 11.5371 131.982 11.5371C132.426 11.5371 132.866 11.5927 133.302 11.7037C133.737 11.8148 134.161 11.9686 134.571 12.1651C134.981 12.3617 135.37 12.5924 135.737 12.8573C136.114 13.1222 136.464 13.4084 136.788 13.7161L138.147 12.0882H138.993V25.79ZM135.468 18.8045C135.468 18.3261 135.374 17.8646 135.187 17.4203C135.007 16.9674 134.759 16.5701 134.443 16.2282C134.127 15.8779 133.755 15.6002 133.328 15.3952C132.91 15.1815 132.461 15.0747 131.982 15.0747C131.504 15.0747 131.05 15.1559 130.623 15.3182C130.205 15.4806 129.837 15.7198 129.522 16.036C129.214 16.3521 128.97 16.7452 128.791 17.2151C128.611 17.6766 128.521 18.2064 128.521 18.8045C128.521 19.4027 128.611 19.9367 128.791 20.4067C128.97 20.8682 129.214 21.257 129.522 21.5731C129.837 21.8893 130.205 22.1285 130.623 22.2908C131.05 22.4533 131.504 22.5345 131.982 22.5345C132.461 22.5345 132.91 22.4319 133.328 22.2268C133.755 22.0131 134.127 21.7354 134.443 21.3936C134.759 21.0433 135.007 20.646 135.187 20.2017C135.374 19.7487 135.468 19.283 135.468 18.8045Z" fill="black"/>
<path d="M156.376 25.7895H152.889V17.0737C152.889 16.8344 152.843 16.608 152.749 16.3943C152.663 16.1807 152.539 15.9927 152.377 15.8304C152.214 15.668 152.027 15.5441 151.813 15.4587C151.6 15.3647 151.373 15.3177 151.133 15.3177C150.894 15.3177 150.668 15.3647 150.454 15.4587C150.249 15.5441 150.066 15.668 149.904 15.8304C149.75 15.9927 149.625 16.1807 149.532 16.3943C149.446 16.608 149.403 16.8344 149.403 17.0737V25.7895H145.905V17.0737C145.905 16.8344 145.857 16.608 145.764 16.3943C145.678 16.1807 145.555 15.9927 145.392 15.8304C145.23 15.668 145.041 15.5441 144.828 15.4587C144.614 15.3647 144.388 15.3177 144.149 15.3177C143.909 15.3177 143.683 15.3647 143.47 15.4587C143.265 15.5441 143.081 15.668 142.918 15.8304C142.765 15.9927 142.641 16.1807 142.546 16.3943C142.461 16.608 142.419 16.8344 142.419 17.0737V25.7895H138.92V12.0621H139.765L140.714 13.113C141.201 12.7029 141.735 12.3868 142.316 12.1646C142.906 11.9338 143.517 11.8185 144.149 11.8185C144.79 11.8185 145.413 11.9381 146.02 12.1775C146.636 12.4167 147.173 12.8311 147.635 13.4207C147.849 13.1302 148.092 12.8824 148.366 12.6773C148.639 12.4722 148.925 12.3056 149.224 12.1775C149.532 12.0492 149.848 11.9595 150.172 11.9083C150.497 11.8484 150.818 11.8185 151.133 11.8185C151.86 11.8185 152.539 11.9553 153.171 12.2287C153.812 12.5021 154.367 12.878 154.838 13.3566C155.316 13.8266 155.692 14.382 155.965 15.0228C156.239 15.6638 156.376 16.3473 156.376 17.0737V25.7895ZM164.399 22.4313C164.535 22.474 164.672 22.504 164.809 22.521C164.946 22.5296 165.082 22.5339 165.219 22.5339C165.561 22.5339 165.89 22.4868 166.205 22.3929C166.522 22.2989 166.817 22.1664 167.091 21.9955C167.373 21.8161 167.62 21.6025 167.833 21.3546C168.055 21.0983 168.235 20.8164 168.372 20.5087L170.935 23.085C170.61 23.5465 170.235 23.9608 169.808 24.3283C169.388 24.6957 168.931 25.0076 168.436 25.264C167.949 25.5203 167.433 25.7126 166.885 25.8407C166.347 25.9775 165.791 26.0459 165.219 26.0459C164.254 26.0459 163.343 25.8664 162.489 25.5075C161.643 25.1487 160.899 24.6488 160.259 24.0078C159.627 23.367 159.126 22.6065 158.759 21.7264C158.392 20.8377 158.209 19.8635 158.209 18.804C158.209 17.7188 158.392 16.7276 158.759 15.8304C159.126 14.9331 159.627 14.1683 160.259 13.536C160.899 12.9037 161.643 12.4125 162.489 12.0621C163.343 11.7118 164.254 11.5365 165.219 11.5365C165.791 11.5365 166.352 11.6049 166.898 11.7416C167.445 11.8784 167.962 12.0749 168.449 12.3312C168.944 12.5876 169.406 12.9037 169.833 13.2797C170.26 13.6471 170.636 14.0616 170.961 14.523L164.399 22.4313ZM166.193 15.2151C166.03 15.1553 165.868 15.1169 165.706 15.0997C165.553 15.0827 165.39 15.0742 165.219 15.0742C164.741 15.0742 164.287 15.1639 163.86 15.3434C163.441 15.5142 163.074 15.762 162.759 16.0868C162.451 16.4114 162.207 16.8045 162.028 17.2659C161.848 17.7188 161.758 18.2315 161.758 18.804C161.758 18.9321 161.763 19.0774 161.772 19.2398C161.788 19.4021 161.81 19.5688 161.835 19.7397C161.87 19.902 161.908 20.0601 161.95 20.2139C161.993 20.3677 162.049 20.5045 162.117 20.6241L166.193 15.2151ZM176.228 25.7895H172.729V12.0621H173.576L174.729 13.3951C175.293 12.8824 175.93 12.4894 176.639 12.2159C177.356 11.9338 178.103 11.7929 178.882 11.7929C179.718 11.7929 180.509 11.9553 181.252 12.2799C181.996 12.5961 182.645 13.0362 183.201 13.6001C183.756 14.1555 184.192 14.8093 184.508 15.5612C184.832 16.3046 184.995 17.0993 184.995 17.9452V25.7895H181.496V17.9452C181.496 17.5864 181.428 17.2488 181.291 16.9326C181.154 16.608 180.966 16.326 180.727 16.0868C180.487 15.8474 180.21 15.6595 179.893 15.5227C179.578 15.3861 179.241 15.3177 178.882 15.3177C178.514 15.3177 178.168 15.3861 177.843 15.5227C177.518 15.6595 177.236 15.8474 176.997 16.0868C176.758 16.326 176.57 16.608 176.433 16.9326C176.297 17.2488 176.228 17.5864 176.228 17.9452V25.7895ZM194.197 25.7895C193.351 25.7895 192.557 25.6314 191.813 25.3152C191.07 24.9906 190.416 24.5504 189.852 23.995C189.297 23.4311 188.857 22.7774 188.532 22.034C188.216 21.2906 188.058 20.4958 188.058 19.65V15.574H186.353V12.0877H188.058V6.60185H191.544V12.0877H196.85V15.574H191.544V19.65C191.544 20.0174 191.612 20.3634 191.749 20.6881C191.886 21.0044 192.073 21.2821 192.313 21.5213C192.552 21.7606 192.834 21.9528 193.159 22.0981C193.484 22.2348 193.829 22.3032 194.197 22.3032H196.85V25.7895H194.197ZM204.283 22.4313C204.42 22.474 204.557 22.504 204.693 22.521C204.83 22.5296 204.967 22.5339 205.104 22.5339C205.445 22.5339 205.774 22.4868 206.091 22.3929C206.406 22.2989 206.701 22.1664 206.975 21.9955C207.257 21.8161 207.505 21.6025 207.719 21.3546C207.941 21.0983 208.119 20.8164 208.256 20.5087L210.82 23.085C210.495 23.5465 210.119 23.9608 209.692 24.3283C209.273 24.6957 208.816 25.0076 208.321 25.264C207.834 25.5203 207.317 25.7126 206.77 25.8407C206.231 25.9775 205.676 26.0459 205.104 26.0459C204.138 26.0459 203.228 25.8664 202.374 25.5075C201.527 25.1487 200.785 24.6488 200.144 24.0078C199.512 23.367 199.012 22.6065 198.645 21.7264C198.276 20.8377 198.093 19.8635 198.093 18.804C198.093 17.7188 198.276 16.7276 198.645 15.8304C199.012 14.9331 199.512 14.1683 200.144 13.536C200.785 12.9037 201.527 12.4125 202.374 12.0621C203.228 11.7118 204.138 11.5365 205.104 11.5365C205.676 11.5365 206.236 11.6049 206.783 11.7416C207.33 11.8784 207.846 12.0749 208.333 12.3312C208.828 12.5876 209.29 12.9037 209.717 13.2797C210.144 13.6471 210.521 14.0616 210.845 14.523L204.283 22.4313ZM206.078 15.2151C205.916 15.1553 205.754 15.1169 205.591 15.0997C205.437 15.0827 205.275 15.0742 205.104 15.0742C204.625 15.0742 204.173 15.1639 203.745 15.3434C203.327 15.5142 202.959 15.762 202.643 16.0868C202.336 16.4114 202.091 16.8045 201.912 17.2659C201.733 17.7188 201.644 18.2315 201.644 18.804C201.644 18.9321 201.647 19.0774 201.656 19.2398C201.674 19.4021 201.694 19.5688 201.72 19.7397C201.754 19.902 201.793 20.0601 201.836 20.2139C201.878 20.3677 201.934 20.5045 202.002 20.6241L206.078 15.2151Z" fill="#007198"/>
</svg>
