<svg width="142" height="142" viewBox="0 0 142 142" fill="none" xmlns="http://www.w3.org/2000/svg">
<path d="M142 108.602H0V108.673H142V108.602Z" fill="#EBEBEB"/>
<path d="M127.772 113.171H118.366V113.242H127.772V113.171Z" fill="#EBEBEB"/>
<path d="M94.0665 113.944H91.5985V114.015H94.0665V113.944Z" fill="#EBEBEB"/>
<path d="M118.082 110.536H112.632V110.607H118.082V110.536Z" fill="#EBEBEB"/>
<path d="M27.1646 111.013H14.8986V111.084H27.1646V111.013Z" fill="#EBEBEB"/>
<path d="M31.4928 111.013H29.695V111.084H31.4928V111.013Z" fill="#EBEBEB"/>
<path d="M63.9426 112.211H37.3375V112.282H63.9426V112.211Z" fill="#EBEBEB"/>
<path d="M67.308 95.9352H12.4704C12.0408 95.9344 11.6291 95.7633 11.3256 95.4592C11.0221 95.1552 10.8516 94.7431 10.8516 94.3135V17.2274C10.8554 16.8003 11.0275 16.3919 11.3306 16.0909C11.6337 15.79 12.0433 15.6207 12.4704 15.62H67.308C67.7381 15.62 68.1506 15.7908 68.4547 16.095C68.7588 16.3991 68.9296 16.8115 68.9296 17.2416V94.3135C68.9296 94.7436 68.7588 95.1561 68.4547 95.4602C68.1506 95.7643 67.7381 95.9352 67.308 95.9352ZM12.4704 15.6768C12.0597 15.6775 11.666 15.8412 11.3758 16.132C11.0856 16.4227 10.9226 16.8167 10.9226 17.2274V94.3135C10.9226 94.7243 11.0856 95.1183 11.3758 95.409C11.666 95.6997 12.0597 95.8634 12.4704 95.8642H67.308C67.719 95.8634 68.113 95.6998 68.4036 95.4092C68.6943 95.1185 68.8579 94.7246 68.8586 94.3135V17.2274C68.8579 16.8164 68.6943 16.4224 68.4036 16.1318C68.113 15.8412 67.719 15.6775 67.308 15.6768H12.4704Z" fill="#EBEBEB"/>
<path d="M128.74 95.9352H73.8996C73.4698 95.9344 73.0578 95.7634 72.7538 95.4594C72.4498 95.1554 72.2788 94.7434 72.278 94.3135V17.2274C72.2825 16.8 72.4552 16.3916 72.7588 16.0908C73.0623 15.7899 73.4722 15.6207 73.8996 15.62H128.74C129.167 15.6215 129.576 15.791 129.878 16.0919C130.181 16.3928 130.352 16.8008 130.356 17.2274V94.3135C130.356 94.7427 130.186 95.1543 129.883 95.4582C129.58 95.7622 129.169 95.9337 128.74 95.9352ZM73.8996 15.6768C73.4886 15.6775 73.0946 15.8412 72.804 16.1318C72.5134 16.4224 72.3498 16.8164 72.349 17.2274V94.3135C72.3498 94.7246 72.5134 95.1185 72.804 95.4092C73.0946 95.6998 73.4886 95.8634 73.8996 95.8642H128.74C129.151 95.8634 129.545 95.6998 129.836 95.4092C130.126 95.1185 130.29 94.7246 130.291 94.3135V17.2274C130.29 16.8164 130.126 16.4224 129.836 16.1318C129.545 15.8412 129.151 15.6775 128.74 15.6768H73.8996Z" fill="#EBEBEB"/>
<path d="M47.3598 26.8068H27.1248V95.4524H47.3598V26.8068Z" fill="#FAFAFA"/>
<path d="M44.3466 26.8068H43.1652L36.1078 95.4524H37.2892L44.3466 26.8068Z" fill="#F5F5F5"/>
<path d="M47.002 27.0709H26.9942V27.6758H47.002V27.0709Z" fill="#E0E0E0"/>
<path d="M47.002 94.8503H26.9942V96.1454H47.002V94.8503Z" fill="#EBEBEB"/>
<path d="M46.6697 96.0886H27.7638V96.1454H46.6697V96.0886Z" fill="#EBEBEB"/>
<path d="M27.7638 27.0709H46.6697V96.0885H47.8V26.2245H26.6307V96.0885H27.7638V27.0709Z" fill="#EBEBEB"/>
<path d="M69.8754 26.8068H49.6404V95.4524H69.8754V26.8068Z" fill="#FAFAFA"/>
<path d="M64.2635 26.8068H57.8139L50.7565 95.4524H57.2061L64.2635 26.8068Z" fill="#F5F5F5"/>
<path d="M70.0884 27.0709H49.5126V27.6758H70.0884V27.0709Z" fill="#E0E0E0"/>
<path d="M70.0884 94.8503H49.5126V96.1454H70.0884V94.8503Z" fill="#EBEBEB"/>
<path d="M69.1881 96.0886H50.2822V96.1454H69.1881V96.0886Z" fill="#EBEBEB"/>
<path d="M50.2822 27.0709H69.1881V96.0885H70.3184V26.2245H49.149V96.0885H50.2822V27.0709Z" fill="#EBEBEB"/>
<path d="M91.8257 26.8068H72.1587V95.4524H91.8257V26.8068Z" fill="#FAFAFA"/>
<path d="M83.3029 26.8068H82.1214L75.064 95.4524H76.2455L83.3029 26.8068Z" fill="#F5F5F5"/>
<path d="M92.0387 27.0709H72.0309V27.6758H92.0387V27.0709Z" fill="#E0E0E0"/>
<path d="M92.0387 94.8503H72.0309V96.1454H92.0387V94.8503Z" fill="#EBEBEB"/>
<path d="M91.7064 96.0886H72.8006V96.1454H91.7064V96.0886Z" fill="#EBEBEB"/>
<path d="M72.7977 27.0709H91.7036V96.0885H92.8368V26.2245H71.6674V96.0885H72.7977V27.0709Z" fill="#EBEBEB"/>
<path d="M114.912 26.8068H94.6771V95.4524H114.912V26.8068Z" fill="#FAFAFA"/>
<path d="M112.933 26.8068H106.483L99.4227 95.4524H105.875L112.933 26.8068Z" fill="#F5F5F5"/>
<path d="M114.554 27.0709H94.5464V27.6758H114.554V27.0709Z" fill="#E0E0E0"/>
<path d="M114.554 94.8503H94.5464V96.1454H114.554V94.8503Z" fill="#EBEBEB"/>
<path d="M95.3161 27.0709H114.222V96.0885H115.355V26.2245H94.1858V96.0885H95.3161V27.0709Z" fill="#EBEBEB"/>
<path d="M114.222 96.0886H95.3161V96.1454H114.222V96.0886Z" fill="#EBEBEB"/>
<path d="M42.5176 79.662H33.7335V94.8531H42.5176V79.662Z" fill="#EBEBEB"/>
<path d="M40.8307 77.5405V81.349H40.1406H36.1134H35.4205V77.5405H40.8307Z" fill="#EBEBEB"/>
<path d="M40.8335 81.3489H41.9582V80.2243H40.8335V81.3489Z" fill="#FAFAFA"/>
<path d="M38.6552 81.3489H39.7799V80.2243H38.6552V81.3489Z" fill="#FAFAFA"/>
<path d="M36.477 81.3489H37.6016V80.2243H36.477V81.3489Z" fill="#FAFAFA"/>
<path d="M34.2958 81.3489H35.4205V80.2243H34.2958V81.3489Z" fill="#F0F0F0"/>
<path d="M40.8335 83.3937H41.9582V82.2691H40.8335V83.3937Z" fill="#F0F0F0"/>
<path d="M38.6552 83.3937H39.7799V82.2691H38.6552V83.3937Z" fill="#F0F0F0"/>
<path d="M36.477 83.3937H37.6016V82.2691H36.477V83.3937Z" fill="#FAFAFA"/>
<path d="M34.2958 83.3937H35.4205V82.2691H34.2958V83.3937Z" fill="#FAFAFA"/>
<path d="M40.8335 85.4385H41.9582V84.3139H40.8335V85.4385Z" fill="#F0F0F0"/>
<path d="M38.6552 85.4385H39.7799V84.3139H38.6552V85.4385Z" fill="#FAFAFA"/>
<path d="M36.477 85.4385H37.6016V84.3139H36.477V85.4385Z" fill="#FAFAFA"/>
<path d="M38.6552 79.5825H39.7799V78.4578H38.6552V79.5825Z" fill="#FAFAFA"/>
<path d="M36.477 79.5825H37.6016V78.4578H36.477V79.5825Z" fill="#F0F0F0"/>
<path d="M34.2958 85.4385H35.4205V84.3139H34.2958V85.4385Z" fill="#F0F0F0"/>
<path d="M40.8335 87.4805H41.9582V86.3559H40.8335V87.4805Z" fill="#FAFAFA"/>
<path d="M38.6552 87.4805H39.7799V86.3559H38.6552V87.4805Z" fill="#F0F0F0"/>
<path d="M36.477 87.4805H37.6016V86.3559H36.477V87.4805Z" fill="#F0F0F0"/>
<path d="M34.2958 87.4805H35.4205V86.3559H34.2958V87.4805Z" fill="#FAFAFA"/>
<path d="M40.8335 89.5253H41.9582V88.4007H40.8335V89.5253Z" fill="#F0F0F0"/>
<path d="M38.6552 89.5253H39.7799V88.4007H38.6552V89.5253Z" fill="#FAFAFA"/>
<path d="M36.477 89.5253H37.6016V88.4007H36.477V89.5253Z" fill="#FAFAFA"/>
<path d="M34.2958 89.5253H35.4205V88.4007H34.2958V89.5253Z" fill="#F0F0F0"/>
<path d="M40.8335 91.5673H41.9582V90.4426H40.8335V91.5673Z" fill="#F0F0F0"/>
<path d="M38.6552 91.5673H39.7799V90.4426H38.6552V91.5673Z" fill="#FAFAFA"/>
<path d="M36.477 91.5673H37.6016V90.4426H36.477V91.5673Z" fill="#F0F0F0"/>
<path d="M34.2958 91.5673H35.4205V90.4426H34.2958V91.5673Z" fill="#FAFAFA"/>
<path d="M40.8335 93.6093H41.9582V92.4846H40.8335V93.6093Z" fill="#FAFAFA"/>
<path d="M38.6552 93.6093H39.7799V92.4846H38.6552V93.6093Z" fill="#FAFAFA"/>
<path d="M36.477 93.6093H37.6016V92.4846H36.477V93.6093Z" fill="#F0F0F0"/>
<path d="M34.2958 93.6093H35.4205V92.4846H34.2958V93.6093Z" fill="#F0F0F0"/>
<path d="M104.398 85.1971H96.5288V94.8531H104.398V85.1971Z" fill="#F0F0F0"/>
<path d="M97.216 86.2678H99.045H99.5505H100.053V87.276H99.5505H99.045H97.216V86.2678Z" fill="#E6E6E6"/>
<path d="M97.216 88.2189H99.045H99.5505H100.053V89.2271H99.5505H99.045H97.216V88.2189Z" fill="#FAFAFA"/>
<path d="M97.216 90.17H99.045H99.5505H100.053V91.1782H99.5505H99.045H97.216V90.17Z" fill="#E6E6E6"/>
<path d="M97.216 92.1211H99.045H99.8232H100.053V93.1293H99.8232H99.045H97.216V92.1211Z" fill="#FAFAFA"/>
<path d="M100.877 86.2678H102.706H103.211H103.714V87.276H103.211H102.706H100.877V86.2678Z" fill="#FAFAFA"/>
<path d="M100.877 88.2189H102.706H103.416H103.714V89.2271H103.416H102.706H100.877V88.2189Z" fill="#FAFAFA"/>
<path d="M100.877 90.17H102.706H103.211H103.714V91.1782H103.211H102.706H100.877V90.17Z" fill="#E6E6E6"/>
<path d="M100.877 92.1211H102.706H103.211H103.714V93.1293H103.211H102.706H100.877V92.1211Z" fill="#FAFAFA"/>
<path d="M66.4787 88.8522H59.3276V94.8532H66.4787V88.8522Z" fill="#F0F0F0"/>
<path d="M65.107 90.5136H66.0215V89.5991H65.107V90.5136Z" fill="#FAFAFA"/>
<path d="M63.332 90.5136H64.2465V89.5991H63.332V90.5136Z" fill="#FAFAFA"/>
<path d="M61.5598 90.5136H62.4743V89.5991H61.5598V90.5136Z" fill="#FAFAFA"/>
<path d="M59.7877 90.5136H60.7022V89.5991H59.7877V90.5136Z" fill="#FAFAFA"/>
<path d="M65.107 92.1807H66.0215V91.2662H65.107V92.1807Z" fill="#FAFAFA"/>
<path d="M63.332 92.1807H64.2465V91.2662H63.332V92.1807Z" fill="#FAFAFA"/>
<path d="M61.5598 92.1807H62.4743V91.2662H61.5598V92.1807Z" fill="#FAFAFA"/>
<path d="M59.7877 92.1807H60.7022V91.2662H59.7877V92.1807Z" fill="#E6E6E6"/>
<path d="M65.107 93.8421H66.0215V92.9276H65.107V93.8421Z" fill="#E6E6E6"/>
<path d="M63.332 93.8421H64.2465V92.9276H63.332V93.8421Z" fill="#E6E6E6"/>
<path d="M61.5598 93.8421H62.4743V92.9276H61.5598V93.8421Z" fill="#FAFAFA"/>
<path d="M59.7877 93.8421H60.7022V92.9276H59.7877V93.8421Z" fill="#E6E6E6"/>
<path d="M58.3592 84.4161H51.208V94.8531H58.3592V84.4161Z" fill="#F0F0F0"/>
<path d="M57.9019 84.8734H55.2124V87.4521H57.9019V84.8734Z" fill="#FAFAFA"/>
<path d="M54.3548 84.8734H51.6653V87.4521H54.3548V84.8734Z" fill="#FAFAFA"/>
<path d="M57.9019 88.199H55.2124V90.7778H57.9019V88.199Z" fill="#FAFAFA"/>
<path d="M54.3548 88.199H51.6653V90.7778H54.3548V88.199Z" fill="#FAFAFA"/>
<path d="M57.9019 91.5275H55.2124V94.1062H57.9019V91.5275Z" fill="#FAFAFA"/>
<path d="M54.3548 91.5275H51.6653V94.1062H54.3548V91.5275Z" fill="#FAFAFA"/>
<path d="M71 121.427C101.411 121.427 126.065 119.988 126.065 118.212C126.065 116.437 101.411 114.997 71 114.997C40.5886 114.997 15.9352 116.437 15.9352 118.212C15.9352 119.988 40.5886 121.427 71 121.427Z" fill="#F5F5F5"/>
<path d="M117.264 109.828C117.264 109.735 116.951 100.559 115.463 99.1131C114.029 97.7187 112.373 99.062 112.305 99.1131L112.123 98.8945C112.14 98.8803 114.043 97.3296 115.662 98.8945C117.23 100.42 117.536 109.422 117.548 109.806L117.264 109.828Z" fill="#DAE1C2"/>
<path d="M117.391 111.635C117.349 111.186 116.369 100.596 120.365 96.0147L120.578 96.2022C116.664 100.695 117.664 111.504 117.675 111.612L117.391 111.635Z" fill="#DAE1C2"/>
<path d="M117.292 110.476L117.008 110.459C117.008 110.334 117.789 98.0566 114.872 95.3728L115.065 95.1627C118.084 97.9402 117.329 109.968 117.292 110.476Z" fill="#DAE1C2"/>
<path d="M117.675 110.476H117.391C117.391 110.138 117.488 102.16 119.763 100.857C119.981 100.716 120.23 100.629 120.488 100.604C120.747 100.579 121.007 100.617 121.248 100.715C122.628 101.283 123.31 103.728 123.338 103.839L123.054 103.913C123.054 103.89 122.381 101.499 121.132 100.982C120.931 100.901 120.713 100.871 120.498 100.893C120.283 100.915 120.076 100.99 119.896 101.11C117.769 102.319 117.675 110.391 117.675 110.476Z" fill="#DAE1C2"/>
<path d="M116.795 110.476L116.511 110.459C116.511 110.396 116.852 104.174 115.176 101.987C114.776 101.462 114.324 101.215 113.881 101.246C112.793 101.32 111.876 102.922 111.868 102.95L111.612 102.808C111.652 102.737 112.612 101.059 113.853 100.973C114.421 100.936 114.929 101.22 115.395 101.825C117.141 104.089 116.809 110.218 116.795 110.476Z" fill="#DAE1C2"/>
<path d="M117.113 111.328C117.068 110.723 116.014 96.489 117.871 93.9756L118.101 94.1431C116.304 96.5742 117.386 111.16 117.397 111.308L117.113 111.328Z" fill="#DAE1C2"/>
<path d="M121.742 102.169C121.742 102.169 120.632 102.581 120.961 103.546C121.291 104.512 124.809 106.102 124.809 106.102C124.809 106.102 126.281 104.753 124.929 102.558C123.577 100.363 121.774 101.476 121.742 102.169Z" fill="#DAE1C2"/>
<path opacity="0.5" d="M121.742 102.169C121.742 102.169 120.632 102.581 120.961 103.546C121.291 104.512 124.809 106.102 124.809 106.102C124.809 106.102 126.281 104.753 124.929 102.558C123.577 100.363 121.774 101.476 121.742 102.169Z" fill="white"/>
<path d="M116.909 100.329C116.909 100.329 118.093 100.278 118.161 101.297C118.229 102.317 115.605 105.142 115.605 105.142C115.605 105.142 113.725 104.464 114.128 101.916C114.532 99.3687 116.616 99.701 116.909 100.329Z" fill="#DAE1C2"/>
<path opacity="0.5" d="M116.909 100.329C116.909 100.329 118.093 100.278 118.161 101.297C118.229 102.317 115.605 105.142 115.605 105.142C115.605 105.142 113.725 104.464 114.128 101.916C114.532 99.3687 116.616 99.701 116.909 100.329Z" fill="white"/>
<path d="M115.906 95.4438C115.906 95.4438 116.696 95.3586 116.633 94.8758C116.571 94.393 113.563 93.1576 111.791 95.1598C111.791 95.1598 112.927 97.1109 114.568 97.1478C116.21 97.1848 115.906 95.4438 115.906 95.4438Z" fill="#DAE1C2"/>
<path opacity="0.5" d="M115.906 95.4438C115.906 95.4438 116.696 95.3586 116.633 94.8758C116.571 94.393 113.563 93.1576 111.791 95.1598C111.791 95.1598 112.927 97.1109 114.568 97.1478C116.21 97.1848 115.906 95.4438 115.906 95.4438Z" fill="white"/>
<path d="M117.377 94.288C117.377 94.288 116.664 94.6316 116.463 94.1914C116.261 93.7512 118.167 91.11 120.723 91.8711C120.723 91.8711 120.788 94.1261 119.411 95.015C118.033 95.9039 117.377 94.288 117.377 94.288Z" fill="#DAE1C2"/>
<path opacity="0.5" d="M117.377 94.288C117.377 94.288 116.664 94.6316 116.463 94.1914C116.261 93.7512 118.167 91.11 120.723 91.8711C120.723 91.8711 120.788 94.1261 119.411 95.015C118.033 95.9039 117.377 94.288 117.377 94.288Z" fill="white"/>
<path d="M113.64 101.78C113.64 101.78 114.185 101.34 113.597 101.127C113.009 100.914 110.124 100.973 110.095 103.83C110.095 103.83 113.455 104.398 113.87 103.299C114.284 102.2 113.64 101.78 113.64 101.78Z" fill="#DAE1C2"/>
<path opacity="0.5" d="M113.64 101.78C113.64 101.78 114.185 101.34 113.597 101.127C113.009 100.914 110.124 100.973 110.095 103.83C110.095 103.83 113.455 104.398 113.87 103.299C114.284 102.2 113.64 101.78 113.64 101.78Z" fill="white"/>
<path d="M120.493 95.3728C120.493 95.3728 119.947 94.9326 120.535 94.7168C121.123 94.501 124.009 94.5634 124.037 97.4205C124.037 97.4205 120.677 97.9885 120.263 96.8922C119.848 95.796 120.493 95.3728 120.493 95.3728Z" fill="#DAE1C2"/>
<path opacity="0.5" d="M120.493 95.3728C120.493 95.3728 119.947 94.9326 120.535 94.7168C121.123 94.501 124.009 94.5634 124.037 97.4205C124.037 97.4205 120.677 97.9885 120.263 96.8922C119.848 95.796 120.493 95.3728 120.493 95.3728Z" fill="white"/>
<path d="M118.712 97.6732C118.712 97.6732 118.664 97.1393 119.095 97.3495C119.527 97.5596 121.032 99.1813 119.473 100.721C119.473 100.721 117.374 99.1671 117.752 98.3577C118.13 97.5483 118.712 97.6732 118.712 97.6732Z" fill="#DAE1C2"/>
<path opacity="0.5" d="M118.712 97.6732C118.712 97.6732 118.664 97.1393 119.095 97.3495C119.527 97.5596 121.032 99.1813 119.473 100.721C119.473 100.721 117.374 99.1671 117.752 98.3577C118.13 97.5483 118.712 97.6732 118.712 97.6732Z" fill="white"/>
<path d="M113.154 98.4344C113.154 98.4344 113.481 98.0084 113.004 97.9573C112.526 97.9061 110.388 98.4741 110.885 100.607C110.885 100.607 113.489 100.411 113.603 99.5249C113.716 98.6389 113.154 98.4344 113.154 98.4344Z" fill="#DAE1C2"/>
<path opacity="0.5" d="M113.154 98.4344C113.154 98.4344 113.481 98.0084 113.004 97.9573C112.526 97.9061 110.388 98.4741 110.885 100.607C110.885 100.607 113.489 100.411 113.603 99.5249C113.716 98.6389 113.154 98.4344 113.154 98.4344Z" fill="white"/>
<path d="M121.95 118.391H113.015L112.052 108.61H122.915L121.95 118.391Z" fill="#263238"/>
<path opacity="0.2" d="M121.95 118.391H113.015L112.052 108.61H122.915L121.95 118.391Z" fill="white"/>
<path d="M123.392 107.531H111.575V109.689H123.392V107.531Z" fill="#263238"/>
<path opacity="0.4" d="M123.392 107.531H111.575V109.689H123.392V107.531Z" fill="white"/>
<path d="M28.8118 112.649C28.8606 112.547 28.8839 112.436 28.8799 112.323C28.8759 112.211 28.8445 112.101 28.7886 112.004C28.7327 111.906 28.6539 111.823 28.559 111.763C28.464 111.703 28.3559 111.667 28.2438 111.657C28.3393 111.373 28.3459 111.067 28.2627 110.779C28.1795 110.492 28.0104 110.236 27.778 110.047C27.7223 109.994 27.6501 109.962 27.5736 109.956C27.4925 109.965 27.4162 109.999 27.3549 110.053L26.0655 110.979C25.961 111.042 25.8733 111.13 25.8099 111.234C25.5458 111.745 26.4972 112.399 26.0939 112.822C25.9803 112.944 25.8099 112.967 25.6594 113.055C25.3527 113.248 25.3158 113.668 25.1738 114.003C25.0318 114.338 24.5291 114.594 24.3388 114.287C24.4808 113.969 24.0548 113.694 23.7055 113.654C23.3562 113.614 22.9983 113.594 22.8052 113.268C22.3139 113.699 21.212 112.498 21.2375 112.015C21.0433 112.051 20.865 112.146 20.7271 112.288C20.5893 112.429 20.4987 112.61 20.4679 112.805C20.412 113.204 20.3986 113.607 20.4281 114.009C20.4281 114.793 20.1612 115.56 20.1754 116.343C20.1754 116.951 20.4224 117.63 20.9791 117.874C21.2569 117.971 21.5516 118.011 21.8453 117.991L28.2012 117.951C28.3672 117.961 28.5332 117.93 28.684 117.86C28.968 117.712 29.0305 117.335 29.056 117.008C29.1696 115.628 29.2842 114.247 29.3997 112.864L28.8118 112.649Z" fill="#DAE1C2"/>
<path opacity="0.3" d="M28.8118 112.649C28.8606 112.547 28.8839 112.436 28.8799 112.323C28.8759 112.211 28.8445 112.101 28.7886 112.004C28.7327 111.906 28.6539 111.823 28.559 111.763C28.464 111.703 28.3559 111.667 28.2438 111.657C28.3393 111.373 28.3459 111.067 28.2627 110.779C28.1795 110.492 28.0104 110.236 27.778 110.047C27.7223 109.994 27.6501 109.962 27.5736 109.956C27.4925 109.965 27.4162 109.999 27.3549 110.053L26.0655 110.979C25.961 111.042 25.8733 111.13 25.8099 111.234C25.5458 111.745 26.4972 112.399 26.0939 112.822C25.9803 112.944 25.8099 112.967 25.6594 113.055C25.3527 113.248 25.3158 113.668 25.1738 114.003C25.0318 114.338 24.5291 114.594 24.3388 114.287C24.4808 113.969 24.0548 113.694 23.7055 113.654C23.3562 113.614 22.9983 113.594 22.8052 113.268C22.3139 113.699 21.212 112.498 21.2375 112.015C21.0433 112.051 20.865 112.146 20.7271 112.288C20.5893 112.429 20.4987 112.61 20.4679 112.805C20.412 113.204 20.3986 113.607 20.4281 114.009C20.4281 114.793 20.1612 115.56 20.1754 116.343C20.1754 116.951 20.4224 117.63 20.9791 117.874C21.2569 117.971 21.5516 118.011 21.8453 117.991L28.2012 117.951C28.3672 117.961 28.5332 117.93 28.684 117.86C28.968 117.712 29.0305 117.335 29.056 117.008C29.1696 115.628 29.2842 114.247 29.3997 112.864L28.8118 112.649Z" fill="white"/>
<path d="M29.1838 105.932H19.312L19.3944 106.929L19.4512 107.639L19.6017 109.491L19.6869 110.553L19.8005 111.973L19.8516 112.578V112.759L19.9112 113.472L19.9879 114.449L20.039 115.057L20.0873 115.673L20.164 116.383L20.2066 116.923L20.2549 117.531L20.2776 117.795H29.3258L29.3457 117.531L29.394 116.926L29.4394 116.383L29.4962 115.668L29.5474 115.054L29.5956 114.446L29.6752 113.467L29.732 112.757V112.575L29.7802 111.97L29.8967 110.55L29.9819 109.491L30.1296 107.636L30.1892 106.926L30.2687 105.929L29.1838 105.932ZM29.7774 106.585L29.5871 106.395H29.7916L29.7774 106.585ZM29.7263 107.19L29.7092 107.432L28.826 108.315L27.815 107.301L28.7209 106.395H28.9339L29.7263 107.19ZM29.4735 110.345L28.826 110.99L27.815 109.979L28.826 108.968L29.5246 109.669L29.4735 110.345ZM20.1015 109.669L20.803 108.968L21.814 109.979L20.803 110.99L20.1583 110.345L20.1015 109.669ZM28.5108 108.641L27.4997 109.652L26.4858 108.641L27.4884 107.636L28.5108 108.641ZM26.9204 106.395H28.0791L27.5111 106.963L26.9204 106.395ZM27.1703 109.979L26.1592 110.99L25.1482 109.979L26.1592 108.968L27.1703 109.979ZM23.7964 111.328L24.8102 110.32L25.8184 111.328L24.8102 112.342L23.7964 111.328ZM24.4808 112.668L23.4669 113.68L22.4587 112.671L23.4698 111.657L24.4808 112.668ZM26.1479 111.657L27.1589 112.671L26.1479 113.68L25.1368 112.668L26.1479 111.657ZM24.8102 109.669L23.7964 108.658L24.8102 107.636L25.8184 108.65L24.8102 109.669ZM24.4808 109.996L23.4698 111.007L22.4587 109.996L23.4698 108.985L24.4808 109.996ZM22.1293 109.669L21.1182 108.658L22.1293 107.636L23.1403 108.65L22.1293 109.669ZM22.1293 110.325L23.1403 111.328L22.1293 112.342L21.1182 111.328L22.1293 110.325ZM23.1403 114.017L22.1293 115.02L21.1182 114.009L22.1293 112.998L23.1403 114.017ZM23.4669 114.344L24.4808 115.358L23.4698 116.369L22.4587 115.358L23.4669 114.344ZM23.7964 114.017L24.8102 113.006L25.8184 114.017L24.8102 115.02L23.7964 114.017ZM26.1479 114.344L27.1589 115.358L26.1479 116.369L25.1368 115.358L26.1479 114.344ZM27.4884 115.685L28.4994 116.696L27.832 117.332H27.1305L26.4745 116.676L27.4884 115.685ZM26.4745 114.017L27.4884 113.006L28.4994 114.017L27.4884 115.02L26.4745 114.017ZM26.4745 111.337L27.4884 110.328L28.4994 111.337L27.4884 112.35L26.4745 111.337ZM27.1589 107.321L26.1479 108.335L25.1368 107.321L26.0428 106.415H26.2558L27.1589 107.321ZM24.8102 106.994L24.2422 106.426H25.3981L24.8102 106.994ZM24.4808 107.321L23.4698 108.335L22.4587 107.321L23.3647 106.415H23.572L24.4808 107.321ZM22.72 106.395L22.152 106.963L21.584 106.395H22.72ZM20.9081 106.395L21.814 107.301L20.803 108.315L19.9226 107.432L19.9027 107.19L20.6951 106.395H20.9081ZM20.0561 106.395L19.8686 106.582L19.8516 106.395H20.0561ZM19.9936 108.144L20.4906 108.641L20.0419 109.056L19.9936 108.144ZM20.2776 111.538L20.2378 111.058L20.4991 111.317L20.2776 111.538ZM20.3259 112.146L20.8257 111.646L21.8368 112.66L20.8257 113.668L20.4168 113.262L20.3259 112.146ZM20.4764 114.02V113.975L20.502 113.998L20.4792 114.02H20.4764ZM20.6525 116.176L20.5247 114.622L20.8257 114.324L21.8368 115.338L20.8257 116.346L20.6525 116.176ZM20.7462 117.332L20.7263 117.099L20.8257 117.002L21.1523 117.332H20.7462ZM21.1523 116.676L22.1634 115.665L23.1744 116.676L22.5212 117.332H21.7714L21.1523 116.676ZM23.1772 117.332L23.4698 117.008L23.7992 117.337L23.1772 117.332ZM24.4865 117.332L23.8304 116.676L24.8443 115.665L25.8525 116.676L25.1993 117.332H24.4865ZM25.8525 117.332L26.1479 117.008L26.4773 117.337L25.8525 117.332ZM28.9396 117.332H28.5306L28.826 117.008L28.9226 117.105L28.9396 117.332ZM29.0333 116.176L28.8601 116.346L27.849 115.338L28.8601 114.324L29.1441 114.622L29.0333 116.176ZM29.2122 113.972V114.02L29.1924 113.998L29.2179 113.972H29.2122ZM29.269 113.262L28.8601 113.668L27.849 112.66L28.8601 111.646L29.3599 112.146L29.269 113.262ZM29.4082 111.541L29.1867 111.317L29.448 111.058L29.4082 111.541ZM29.6922 108.133L29.6184 109.056L29.1952 108.633L29.6922 108.133Z" fill="#DAE1C2"/>
<g opacity="0.6">
<path d="M29.1838 105.932H19.312L19.3944 106.929L19.4512 107.639L19.6017 109.491L19.6869 110.553L19.8005 111.973L19.8516 112.578V112.759L19.9112 113.472L19.9879 114.449L20.039 115.057L20.0873 115.673L20.164 116.383L20.2066 116.923L20.2549 117.531L20.2776 117.795H29.3258L29.3457 117.531L29.394 116.926L29.4394 116.383L29.4962 115.668L29.5474 115.054L29.5956 114.446L29.6752 113.467L29.732 112.757V112.575L29.7802 111.97L29.8967 110.55L29.9819 109.491L30.1296 107.636L30.1892 106.926L30.2687 105.929L29.1838 105.932ZM29.7774 106.585L29.5871 106.395H29.7916L29.7774 106.585ZM29.7263 107.19L29.7092 107.432L28.826 108.315L27.815 107.301L28.7209 106.395H28.9339L29.7263 107.19ZM29.4735 110.345L28.826 110.99L27.815 109.979L28.826 108.968L29.5246 109.669L29.4735 110.345ZM20.1015 109.669L20.803 108.968L21.814 109.979L20.803 110.99L20.1583 110.345L20.1015 109.669ZM28.5108 108.641L27.4997 109.652L26.4858 108.641L27.4884 107.636L28.5108 108.641ZM26.9204 106.395H28.0791L27.5111 106.963L26.9204 106.395ZM27.1703 109.979L26.1592 110.99L25.1482 109.979L26.1592 108.968L27.1703 109.979ZM23.7964 111.328L24.8102 110.32L25.8184 111.328L24.8102 112.342L23.7964 111.328ZM24.4808 112.668L23.4669 113.68L22.4587 112.671L23.4698 111.657L24.4808 112.668ZM26.1479 111.657L27.1589 112.671L26.1479 113.68L25.1368 112.668L26.1479 111.657ZM24.8102 109.669L23.7964 108.658L24.8102 107.636L25.8184 108.65L24.8102 109.669ZM24.4808 109.996L23.4698 111.007L22.4587 109.996L23.4698 108.985L24.4808 109.996ZM22.1293 109.669L21.1182 108.658L22.1293 107.636L23.1403 108.65L22.1293 109.669ZM22.1293 110.325L23.1403 111.328L22.1293 112.342L21.1182 111.328L22.1293 110.325ZM23.1403 114.017L22.1293 115.02L21.1182 114.009L22.1293 112.998L23.1403 114.017ZM23.4669 114.344L24.4808 115.358L23.4698 116.369L22.4587 115.358L23.4669 114.344ZM23.7964 114.017L24.8102 113.006L25.8184 114.017L24.8102 115.02L23.7964 114.017ZM26.1479 114.344L27.1589 115.358L26.1479 116.369L25.1368 115.358L26.1479 114.344ZM27.4884 115.685L28.4994 116.696L27.832 117.332H27.1305L26.4745 116.676L27.4884 115.685ZM26.4745 114.017L27.4884 113.006L28.4994 114.017L27.4884 115.02L26.4745 114.017ZM26.4745 111.337L27.4884 110.328L28.4994 111.337L27.4884 112.35L26.4745 111.337ZM27.1589 107.321L26.1479 108.335L25.1368 107.321L26.0428 106.415H26.2558L27.1589 107.321ZM24.8102 106.994L24.2422 106.426H25.3981L24.8102 106.994ZM24.4808 107.321L23.4698 108.335L22.4587 107.321L23.3647 106.415H23.572L24.4808 107.321ZM22.72 106.395L22.152 106.963L21.584 106.395H22.72ZM20.9081 106.395L21.814 107.301L20.803 108.315L19.9226 107.432L19.9027 107.19L20.6951 106.395H20.9081ZM20.0561 106.395L19.8686 106.582L19.8516 106.395H20.0561ZM19.9936 108.144L20.4906 108.641L20.0419 109.056L19.9936 108.144ZM20.2776 111.538L20.2378 111.058L20.4991 111.317L20.2776 111.538ZM20.3259 112.146L20.8257 111.646L21.8368 112.66L20.8257 113.668L20.4168 113.262L20.3259 112.146ZM20.4764 114.02V113.975L20.502 113.998L20.4792 114.02H20.4764ZM20.6525 116.176L20.5247 114.622L20.8257 114.324L21.8368 115.338L20.8257 116.346L20.6525 116.176ZM20.7462 117.332L20.7263 117.099L20.8257 117.002L21.1523 117.332H20.7462ZM21.1523 116.676L22.1634 115.665L23.1744 116.676L22.5212 117.332H21.7714L21.1523 116.676ZM23.1772 117.332L23.4698 117.008L23.7992 117.337L23.1772 117.332ZM24.4865 117.332L23.8304 116.676L24.8443 115.665L25.8525 116.676L25.1993 117.332H24.4865ZM25.8525 117.332L26.1479 117.008L26.4773 117.337L25.8525 117.332ZM28.9396 117.332H28.5306L28.826 117.008L28.9226 117.105L28.9396 117.332ZM29.0333 116.176L28.8601 116.346L27.849 115.338L28.8601 114.324L29.1441 114.622L29.0333 116.176ZM29.2122 113.972V114.02L29.1924 113.998L29.2179 113.972H29.2122ZM29.269 113.262L28.8601 113.668L27.849 112.66L28.8601 111.646L29.3599 112.146L29.269 113.262ZM29.4082 111.541L29.1867 111.317L29.448 111.058L29.4082 111.541ZM29.6922 108.133L29.6184 109.056L29.1952 108.633L29.6922 108.133Z" fill="white"/>
</g>
<path d="M19.1586 106.807H30.459C30.7162 106.807 30.9248 106.598 30.9248 106.341V105.983C30.9248 105.726 30.7162 105.517 30.459 105.517H19.1586C18.9014 105.517 18.6929 105.726 18.6929 105.983V106.341C18.6929 106.598 18.9014 106.807 19.1586 106.807Z" fill="#DAE1C2"/>
<path d="M29.5786 117.102H20.0419C19.7846 117.102 19.5761 117.31 19.5761 117.567V117.925C19.5761 118.183 19.7846 118.391 20.0419 118.391H29.5786C29.8358 118.391 30.0444 118.183 30.0444 117.925V117.567C30.0444 117.31 29.8358 117.102 29.5786 117.102Z" fill="#DAE1C2"/>
<path d="M96.2959 118.391H69.9322C69.5539 118.398 69.1786 118.324 68.8312 118.174C68.4838 118.025 68.1722 117.803 67.9173 117.523C67.6623 117.244 67.4698 116.913 67.3525 116.554C67.2352 116.194 67.1958 115.814 67.237 115.438L74.053 37.5874C74.1338 36.7899 74.503 36.0494 75.0914 35.5049C75.6797 34.9605 76.4466 34.6497 77.248 34.631H103.612C103.99 34.6242 104.366 34.6982 104.713 34.8481C105.061 34.9979 105.373 35.2201 105.628 35.4998C105.883 35.7795 106.075 36.1104 106.192 36.4704C106.309 36.8304 106.349 37.2112 106.307 37.5874L99.4909 115.438C99.4095 116.234 99.0399 116.974 98.4516 117.518C97.8634 118.062 97.0968 118.372 96.2959 118.391Z" fill="#DAE1C2"/>
<path opacity="0.4" d="M96.2959 118.391H69.9322C69.5539 118.398 69.1786 118.324 68.8312 118.174C68.4838 118.025 68.1722 117.803 67.9173 117.523C67.6623 117.244 67.4698 116.913 67.3525 116.554C67.2352 116.194 67.1958 115.814 67.237 115.438L74.053 37.5874C74.1338 36.7899 74.503 36.0494 75.0914 35.5049C75.6797 34.9605 76.4466 34.6497 77.248 34.631H103.612C103.99 34.6242 104.366 34.6982 104.713 34.8481C105.061 34.9979 105.373 35.2201 105.628 35.4998C105.883 35.7795 106.075 36.1104 106.192 36.4704C106.309 36.8304 106.349 37.2112 106.307 37.5874L99.4909 115.438C99.4095 116.234 99.0399 116.974 98.4516 117.518C97.8634 118.062 97.0968 118.372 96.2959 118.391Z" fill="white"/>
<path d="M93.4559 118.391H67.0922C66.7139 118.398 66.3386 118.324 65.9912 118.174C65.6438 118.025 65.3323 117.803 65.0773 117.523C64.8223 117.244 64.6298 116.913 64.5125 116.554C64.3952 116.194 64.3558 115.814 64.397 115.438L71.213 37.5874C71.2938 36.7899 71.663 36.0494 72.2514 35.5049C72.8397 34.9605 73.6066 34.6497 74.408 34.631H100.772C101.15 34.6242 101.526 34.6982 101.873 34.8481C102.221 34.9979 102.533 35.2201 102.788 35.4998C103.043 35.7795 103.235 36.1104 103.352 36.4704C103.469 36.8304 103.509 37.2112 103.467 37.5874L96.6509 115.438C96.5695 116.234 96.1999 116.974 95.6116 117.518C95.0234 118.062 94.2568 118.372 93.4559 118.391Z" fill="#263238"/>
<path d="M93.4559 118.391H67.0922C66.7139 118.398 66.3386 118.324 65.9912 118.174C65.6438 118.025 65.3323 117.803 65.0773 117.523C64.8223 117.244 64.6298 116.913 64.5125 116.554C64.3952 116.194 64.3558 115.814 64.397 115.438L71.213 37.5874C71.2938 36.7899 71.663 36.0494 72.2514 35.5049C72.8397 34.9605 73.6066 34.6497 74.408 34.631H100.772C101.15 34.6242 101.526 34.6982 101.873 34.8481C102.221 34.9979 102.533 35.2201 102.788 35.4998C103.043 35.7795 103.235 36.1104 103.352 36.4704C103.469 36.8304 103.509 37.2112 103.467 37.5874L96.6509 115.438C96.5695 116.234 96.1999 116.974 95.6116 117.518C95.0234 118.062 94.2568 118.372 93.4559 118.391Z" fill="#DAE1C2"/>
<path opacity="0.4" d="M102.402 37.4369L95.5859 115.435C95.5291 116.076 95.1286 116.571 94.6828 116.571H66.1038C65.6949 116.571 65.4251 116.113 65.479 115.523L72.3178 37.3375C72.3632 36.8263 72.6614 36.3804 73.0164 36.3804H80.159C80.3606 36.3804 80.5282 36.5707 80.5793 36.8462L80.7838 37.897C80.8349 38.1668 80.9996 38.3542 81.2013 38.3542H93.365C93.4838 38.3374 93.5949 38.2854 93.684 38.2049C93.773 38.1244 93.836 38.0192 93.8648 37.9027L94.2511 36.8462C94.2804 36.728 94.3436 36.621 94.4329 36.5382C94.5222 36.4555 94.6337 36.4006 94.7538 36.3804H101.794C102.183 36.3861 102.453 36.8746 102.402 37.4369Z" fill="white"/>
<path d="M102.07 41.2595L96.2135 108.187H66.1209L71.977 41.2595H102.07Z" fill="#DAE1C2"/>
<path opacity="0.6" d="M75.4418 39.53H75.8138L75.8763 38.8143H75.5071L75.4418 39.53Z" fill="white"/>
<path opacity="0.6" d="M74.8368 39.53H75.2089L75.2912 38.5757H74.922L74.8368 39.53Z" fill="white"/>
<path opacity="0.6" d="M74.2319 39.53H74.604L74.709 38.3372H74.337L74.2319 39.53Z" fill="white"/>
<path opacity="0.6" d="M73.627 39.53H73.999L74.124 38.0986H73.752L73.627 39.53Z" fill="white"/>
<path opacity="0.6" d="M98.8377 39.2687H98.6162L98.6786 38.553H98.9002L98.8377 39.2687Z" fill="white"/>
<path opacity="0.6" d="M98.9655 39.53H100.721L100.829 38.2917H99.0734L98.9655 39.53Z" fill="white"/>
<path opacity="0.6" d="M87.4351 36.4883C87.4067 36.8177 87.1965 37.0847 86.9693 37.0847C86.7421 37.0847 86.5802 36.8177 86.6086 36.4883C86.637 36.1589 86.8444 35.8919 87.0744 35.8919C87.3044 35.8919 87.472 36.1589 87.4351 36.4883Z" fill="#263238"/>
<path opacity="0.6" d="M88.27 36.4883C88.253 36.7013 88.1195 36.8717 87.9718 36.8717C87.8242 36.8717 87.7219 36.7013 87.7418 36.4883C87.7617 36.2753 87.8923 36.1078 88.04 36.1078C88.1877 36.1078 88.2899 36.2782 88.27 36.4883Z" fill="#263238"/>
<path d="M102.067 41.2595L101.255 50.5435L101.115 52.1452L100.465 59.5832L100.363 60.7391L99.4398 71.284L99.3404 72.4399L98.4543 82.5645L98.3265 84.0214L96.2135 108.184H66.118L71.9741 41.2595H102.067Z" fill="#263238"/>
<path opacity="0.5" d="M72.3433 61.9348C72.3737 61.9595 72.412 61.9726 72.4512 61.9717C72.4812 61.9706 72.5106 61.9632 72.5375 61.95C72.5644 61.9368 72.5883 61.9181 72.6074 61.895C72.6235 61.877 72.6357 61.856 72.6436 61.8332C72.6514 61.8104 72.6546 61.7863 72.653 61.7622C72.6514 61.7382 72.6451 61.7147 72.6343 61.6931C72.6236 61.6715 72.6087 61.6523 72.5904 61.6366L72.0735 61.2333L72.6557 60.8272C72.6978 60.8008 72.7279 60.759 72.7396 60.7107C72.7513 60.6624 72.7436 60.6114 72.7182 60.5687C72.7039 60.5491 72.6858 60.5325 72.665 60.5199C72.6443 60.5073 72.6212 60.4989 72.5972 60.4952C72.5732 60.4915 72.5487 60.4926 72.5251 60.4984C72.5015 60.5042 72.4793 60.5146 72.4598 60.529L71.6617 61.097C71.6371 61.1143 71.6165 61.1367 71.6014 61.1627C71.5862 61.1886 71.5767 61.2175 71.5737 61.2475C71.5712 61.2757 71.5756 61.3042 71.5865 61.3304C71.5973 61.3566 71.6144 61.3798 71.6362 61.398L72.3433 61.9348Z" fill="white"/>
<path opacity="0.5" d="M74.922 61.2304L74.3398 61.628C74.298 61.6554 74.2684 61.6979 74.2573 61.7466C74.2462 61.7953 74.2544 61.8465 74.2802 61.8893C74.2958 61.9125 74.317 61.9314 74.3418 61.9443C74.3666 61.9572 74.3942 61.9636 74.4222 61.9631C74.4631 61.9635 74.503 61.9506 74.5358 61.9262L75.3338 61.3724C75.3591 61.3564 75.3802 61.3347 75.3955 61.3091C75.4108 61.2834 75.4198 61.2545 75.4219 61.2247C75.4251 61.1964 75.4211 61.1677 75.4102 61.1414C75.3992 61.115 75.3818 61.0919 75.3594 61.0742L74.6551 60.5232C74.6147 60.4939 74.5643 60.4816 74.5149 60.489C74.4655 60.4964 74.4209 60.523 74.391 60.563C74.3749 60.581 74.3627 60.602 74.3548 60.6248C74.347 60.6476 74.3438 60.6717 74.3454 60.6958C74.347 60.7198 74.3533 60.7433 74.3641 60.7649C74.3748 60.7865 74.3898 60.8057 74.408 60.8214L74.922 61.2304Z" fill="white"/>
<path opacity="0.5" d="M73.1783 61.9603C73.199 61.9633 73.22 61.9633 73.2408 61.9603C73.2803 61.9596 73.3188 61.9474 73.3516 61.9252C73.3844 61.903 73.41 61.8718 73.4254 61.8354L73.911 60.7278C73.9217 60.7063 73.9277 60.6829 73.9287 60.659C73.9296 60.6351 73.9256 60.6112 73.9167 60.589C73.9079 60.5667 73.8945 60.5466 73.8773 60.5299C73.8602 60.5132 73.8397 60.5003 73.8173 60.492C73.7694 60.4767 73.7174 60.4799 73.6717 60.5009C73.626 60.5219 73.5898 60.5593 73.5702 60.6056L73.0846 61.7104C73.0719 61.7325 73.0642 61.7572 73.0622 61.7826C73.0601 61.808 73.0637 61.8335 73.0726 61.8574C73.0816 61.8813 73.0957 61.9029 73.114 61.9207C73.1322 61.9385 73.1542 61.952 73.1783 61.9603Z" fill="white"/>
<path opacity="0.5" d="M76.2796 62.0313H77.248C77.3149 62.0285 77.3786 62.0022 77.428 61.957C77.4773 61.9118 77.5092 61.8506 77.5178 61.7842C77.521 61.7527 77.5175 61.7208 77.5075 61.6907C77.4975 61.6606 77.4812 61.633 77.4597 61.6096C77.4383 61.5863 77.4121 61.5677 77.3829 61.5552C77.3538 61.5427 77.3223 61.5366 77.2906 61.5371H76.308C76.2386 61.5366 76.1715 61.5614 76.1191 61.6069C76.0668 61.6524 76.033 61.7155 76.024 61.7842C76.0201 61.8184 76.0242 61.8529 76.0358 61.8852C76.0474 61.9176 76.0663 61.9468 76.091 61.9706C76.1157 61.9945 76.1455 62.0124 76.1782 62.0229C76.2109 62.0334 76.2456 62.0363 76.2796 62.0313Z" fill="white"/>
<path d="M79.7472 68.444C79.7504 68.4125 79.7469 68.3806 79.7369 68.3505C79.7269 68.3204 79.7106 68.2927 79.6891 68.2694C79.6677 68.246 79.6415 68.2275 79.6123 68.215C79.5832 68.2025 79.5517 68.1964 79.52 68.1969H71C70.9336 68.2004 70.8706 68.227 70.8218 68.2721C70.773 68.3173 70.7416 68.3781 70.733 68.444C70.7293 68.4757 70.7325 68.5077 70.7424 68.538C70.7522 68.5683 70.7684 68.5962 70.79 68.6196C70.8116 68.6431 70.8379 68.6616 70.8673 68.6739C70.8967 68.6863 70.9284 68.6921 70.9602 68.6911H79.4802C79.5466 68.6877 79.6097 68.661 79.6585 68.6159C79.7072 68.5708 79.7386 68.5099 79.7472 68.444Z" fill="white"/>
<path opacity="0.5" d="M80.8179 68.6939H83.3256C83.392 68.6905 83.455 68.6639 83.5038 68.6187C83.5526 68.5736 83.584 68.5127 83.5926 68.4468C83.5958 68.4153 83.5923 68.3834 83.5823 68.3533C83.5723 68.3232 83.556 68.2956 83.5345 68.2722C83.513 68.2489 83.4869 68.2303 83.4577 68.2178C83.4285 68.2053 83.3971 68.1992 83.3654 68.1997H80.8605C80.7911 68.1992 80.724 68.224 80.6717 68.2695C80.6193 68.315 80.5855 68.3781 80.5765 68.4468C80.573 68.4796 80.5769 68.5128 80.5877 68.5439C80.5985 68.5751 80.6161 68.6035 80.6391 68.6271C80.6622 68.6507 80.6901 68.6689 80.721 68.6804C80.7519 68.692 80.785 68.6966 80.8179 68.6939Z" fill="white"/>
<path opacity="0.5" d="M71.088 67.1263H74.3143C74.3812 67.1235 74.4449 67.0972 74.4943 67.052C74.5436 67.0068 74.5754 66.9456 74.5841 66.8792C74.5873 66.8476 74.5838 66.8158 74.5738 66.7857C74.5638 66.7556 74.5475 66.7279 74.526 66.7046C74.5046 66.6812 74.4784 66.6627 74.4492 66.6502C74.4201 66.6377 74.3886 66.6316 74.3569 66.6321H71.1306C71.0613 66.6315 70.9941 66.6563 70.9418 66.7018C70.8895 66.7474 70.8557 66.8104 70.8466 66.8792C70.8432 66.912 70.847 66.9452 70.8578 66.9763C70.8687 67.0075 70.8862 67.0359 70.9093 67.0595C70.9323 67.083 70.9603 67.1013 70.9912 67.1128C71.0221 67.1244 71.0552 67.129 71.088 67.1263Z" fill="white"/>
<path d="M86.2082 66.8792C86.2114 66.8476 86.2079 66.8158 86.1979 66.7857C86.1879 66.7556 86.1716 66.7279 86.1501 66.7046C86.1287 66.6812 86.1025 66.6627 86.0733 66.6502C86.0442 66.6377 86.0127 66.6316 85.981 66.6321H75.9586C75.8918 66.6349 75.828 66.6612 75.7787 66.7064C75.7293 66.7516 75.6975 66.8128 75.6888 66.8792C75.6856 66.9108 75.6891 66.9426 75.6991 66.9727C75.7091 67.0028 75.7254 67.0305 75.7469 67.0538C75.7684 67.0772 75.7945 67.0957 75.8237 67.1082C75.8528 67.1207 75.8843 67.1268 75.916 67.1263H85.9384C86.0053 67.1235 86.069 67.0972 86.1184 67.052C86.1677 67.0068 86.1996 66.9456 86.2082 66.8792Z" fill="white"/>
<path d="M71.2215 65.5614H77.0691C77.136 65.5586 77.1997 65.5323 77.2491 65.4871C77.2984 65.4419 77.3302 65.3807 77.3389 65.3143C77.3421 65.2828 77.3386 65.2509 77.3286 65.2208C77.3186 65.1907 77.3023 65.163 77.2808 65.1397C77.2594 65.1163 77.2332 65.0978 77.204 65.0853C77.1749 65.0728 77.1434 65.0667 77.1117 65.0672H71.2641C71.1948 65.0666 71.1276 65.0914 71.0753 65.137C71.023 65.1825 70.9891 65.2456 70.9801 65.3143C70.9767 65.3471 70.9805 65.3803 70.9913 65.4114C71.0022 65.4426 71.0197 65.471 71.0428 65.4946C71.0658 65.5182 71.0938 65.5364 71.1247 65.5479C71.1556 65.5595 71.1886 65.5641 71.2215 65.5614Z" fill="white"/>
<path opacity="0.5" d="M78.188 65.32C78.1848 65.3515 78.1883 65.3834 78.1983 65.4135C78.2083 65.4436 78.2246 65.4713 78.2461 65.4946C78.2676 65.518 78.2937 65.5365 78.3229 65.549C78.352 65.5615 78.3835 65.5676 78.4152 65.5671H79.8636C79.933 65.5677 80.0001 65.5429 80.0524 65.4973C80.1048 65.4518 80.1386 65.3887 80.1476 65.32C80.1508 65.2884 80.1473 65.2566 80.1373 65.2265C80.1273 65.1964 80.111 65.1687 80.0896 65.1454C80.0681 65.122 80.0419 65.1035 80.0128 65.091C79.9836 65.0785 79.9521 65.0723 79.9204 65.0729H78.472C78.4027 65.0723 78.3355 65.0971 78.2832 65.1426C78.2309 65.1882 78.197 65.2512 78.188 65.32Z" fill="white"/>
<path opacity="0.5" d="M71.355 63.9937H78.259C78.3259 63.9909 78.3897 63.9646 78.439 63.9194C78.4884 63.8742 78.5202 63.813 78.5288 63.7466C78.5321 63.7151 78.5285 63.6832 78.5185 63.6531C78.5085 63.623 78.4923 63.5954 78.4708 63.572C78.4493 63.5487 78.4231 63.5301 78.394 63.5176C78.3648 63.5051 78.3334 63.499 78.3016 63.4995H71.3948C71.3279 63.5023 71.2641 63.5287 71.2148 63.5739C71.1654 63.6191 71.1336 63.6803 71.125 63.7466C71.1217 63.7784 71.1253 63.8106 71.1355 63.8409C71.1456 63.8712 71.1622 63.8989 71.1839 63.9223C71.2057 63.9457 71.2323 63.9642 71.2618 63.9765C71.2913 63.9888 71.323 63.9947 71.355 63.9937Z" fill="white"/>
<path d="M83.3909 63.9937H88.6875C88.7569 63.9943 88.824 63.9695 88.8763 63.924C88.9287 63.8785 88.9625 63.8154 88.9715 63.7466C88.9747 63.7151 88.9712 63.6832 88.9612 63.6531C88.9512 63.623 88.9349 63.5954 88.9135 63.572C88.892 63.5487 88.8658 63.5301 88.8367 63.5176C88.8075 63.5051 88.776 63.499 88.7443 63.4995H83.4307C83.3643 63.503 83.3012 63.5296 83.2525 63.5747C83.2037 63.6199 83.1723 63.6807 83.1637 63.7466C83.1605 63.7782 83.164 63.8101 83.174 63.8402C83.184 63.8703 83.2003 63.8979 83.2218 63.9212C83.2432 63.9446 83.2694 63.9631 83.2986 63.9756C83.3277 63.9881 83.3592 63.9943 83.3909 63.9937Z" fill="white"/>
<path opacity="0.5" d="M94.4754 76.0325H79.111C79.0442 76.0353 78.9804 76.0616 78.9311 76.1068C78.8817 76.152 78.8499 76.2132 78.8412 76.2796C78.838 76.3111 78.8415 76.343 78.8515 76.3731C78.8616 76.4032 78.8778 76.4309 78.8993 76.4542C78.9208 76.4776 78.9469 76.4961 78.9761 76.5086C79.0053 76.5211 79.0367 76.5272 79.0684 76.5267H94.4329C94.4997 76.5239 94.5635 76.4976 94.6128 76.4524C94.6622 76.4071 94.694 76.346 94.7026 76.2796C94.7059 76.248 94.7024 76.2162 94.6923 76.1861C94.6823 76.156 94.6661 76.1283 94.6446 76.105C94.6231 76.0816 94.597 76.0631 94.5678 76.0506C94.5386 76.0381 94.5072 76.0319 94.4754 76.0325Z" fill="white"/>
<path d="M97.8494 76.0325H95.9494C95.8801 76.0319 95.8129 76.0567 95.7606 76.1022C95.7083 76.1477 95.6744 76.2108 95.6654 76.2796C95.6622 76.3111 95.6657 76.343 95.6757 76.3731C95.6857 76.4032 95.702 76.4308 95.7235 76.4542C95.7449 76.4775 95.7711 76.4961 95.8003 76.5086C95.8294 76.521 95.8609 76.5272 95.8926 76.5266H97.7926C97.8594 76.5239 97.9232 76.4975 97.9725 76.4523C98.0219 76.4071 98.0537 76.3459 98.0624 76.2796C98.0655 76.2492 98.0624 76.2185 98.0532 76.1893C98.0441 76.1602 98.0291 76.1333 98.0091 76.1101C97.9892 76.087 97.9647 76.0682 97.9372 76.0548C97.9098 76.0415 97.8799 76.0339 97.8494 76.0325Z" fill="white"/>
<path d="M83.834 74.959H90.028C90.0949 74.9562 90.1586 74.9299 90.208 74.8847C90.2573 74.8395 90.2892 74.7783 90.2978 74.7119C90.301 74.6803 90.2975 74.6485 90.2875 74.6184C90.2775 74.5883 90.2612 74.5606 90.2398 74.5373C90.2183 74.5139 90.1921 74.4954 90.1629 74.4829C90.1338 74.4704 90.1023 74.4643 90.0706 74.4648H83.8766C83.8097 74.4676 83.7459 74.4939 83.6966 74.5391C83.6472 74.5843 83.6154 74.6455 83.6068 74.7119C83.6035 74.7435 83.6071 74.7753 83.6171 74.8054C83.6271 74.8355 83.6433 74.8632 83.6648 74.8865C83.6863 74.9099 83.7125 74.9284 83.7416 74.9409C83.7708 74.9534 83.8022 74.9595 83.834 74.959Z" fill="white"/>
<path opacity="0.5" d="M94.572 74.959C94.6389 74.9562 94.7026 74.9299 94.752 74.8847C94.8013 74.8395 94.8332 74.7783 94.8418 74.7119C94.8451 74.6801 94.8415 74.648 94.8313 74.6177C94.8211 74.5874 94.8046 74.5596 94.7828 74.5362C94.761 74.5128 94.7345 74.4943 94.705 74.482C94.6755 74.4697 94.6437 74.4639 94.6118 74.4648H91.0987C91.0318 74.4676 90.9681 74.4939 90.9187 74.5391C90.8693 74.5843 90.8375 74.6455 90.8289 74.7119C90.8257 74.7435 90.8292 74.7753 90.8392 74.8054C90.8492 74.8355 90.8655 74.8632 90.8869 74.8865C90.9084 74.9099 90.9346 74.9284 90.9637 74.9409C90.9929 74.9534 91.0244 74.9595 91.0561 74.959H94.572Z" fill="white"/>
<path opacity="0.5" d="M97.98 74.4648H96.1113C96.0444 74.4676 95.9807 74.4939 95.9313 74.5391C95.8819 74.5843 95.8501 74.6455 95.8415 74.7119C95.8383 74.7435 95.8418 74.7753 95.8518 74.8054C95.8618 74.8355 95.8781 74.8632 95.8995 74.8865C95.921 74.9099 95.9472 74.9284 95.9763 74.9409C96.0055 74.9534 96.037 74.9595 96.0687 74.959H97.9374C98.0043 74.9562 98.068 74.9299 98.1174 74.8847C98.1667 74.8395 98.1985 74.7783 98.2072 74.7119C98.2104 74.6803 98.2069 74.6485 98.1969 74.6184C98.1869 74.5883 98.1706 74.5606 98.1491 74.5373C98.1277 74.5139 98.1015 74.4954 98.0723 74.4829C98.0432 74.4704 98.0117 74.4643 97.98 74.4648Z" fill="white"/>
<path d="M94.7651 72.9H86.4922C86.4253 72.9028 86.3616 72.9291 86.3122 72.9743C86.2628 73.0195 86.231 73.0807 86.2224 73.1471C86.2192 73.1786 86.2227 73.2105 86.2327 73.2406C86.2427 73.2707 86.259 73.2983 86.2804 73.3217C86.3019 73.345 86.3281 73.3636 86.3572 73.376C86.3864 73.3885 86.4179 73.3947 86.4496 73.3941H94.7225C94.7919 73.3947 94.859 73.3699 94.9113 73.3244C94.9636 73.2789 94.9975 73.2158 95.0065 73.1471C95.01 73.1143 95.0061 73.0811 94.9953 73.0499C94.9845 73.0188 94.9669 72.9904 94.9439 72.9668C94.9208 72.9432 94.8928 72.925 94.8619 72.9134C94.8311 72.9019 94.798 72.8973 94.7651 72.9Z" fill="white"/>
<path d="M98.1135 72.9H96.2277C96.1608 72.9028 96.0971 72.9291 96.0477 72.9743C95.9984 73.0195 95.9666 73.0807 95.9579 73.1471C95.9547 73.1786 95.9582 73.2105 95.9682 73.2406C95.9782 73.2707 95.9945 73.2984 96.016 73.3217C96.0374 73.345 96.0636 73.3636 96.0928 73.3761C96.1219 73.3886 96.1534 73.3947 96.1851 73.3942H98.0737C98.1401 73.3907 98.2032 73.3641 98.2519 73.319C98.3007 73.2738 98.3321 73.213 98.3407 73.1471C98.3439 73.1155 98.3404 73.0836 98.3304 73.0535C98.3204 73.0234 98.3041 72.9958 98.2826 72.9725C98.2611 72.9491 98.235 72.9306 98.2058 72.9181C98.1767 72.9056 98.1452 72.8994 98.1135 72.9Z" fill="white"/>
<path opacity="0.5" d="M90.312 71.568C90.3157 71.5363 90.3125 71.5043 90.3027 71.474C90.2929 71.4437 90.2766 71.4158 90.255 71.3924C90.2335 71.3689 90.2071 71.3504 90.1777 71.3381C90.1483 71.3257 90.1167 71.3199 90.0848 71.3209H81.6585C81.5916 71.3237 81.5279 71.35 81.4785 71.3952C81.4292 71.4404 81.3974 71.5016 81.3887 71.568C81.3855 71.5996 81.389 71.6314 81.399 71.6615C81.409 71.6916 81.4253 71.7193 81.4468 71.7426C81.4682 71.766 81.4944 71.7845 81.5236 71.797C81.5527 71.8095 81.5842 71.8156 81.6159 71.8151H90.0507C90.1161 71.8104 90.1778 71.7832 90.2255 71.7382C90.2731 71.6931 90.3037 71.633 90.312 71.568Z" fill="white"/>
<path opacity="0.5" d="M91.6212 71.3323C91.5544 71.3351 91.4906 71.3614 91.4413 71.4066C91.3919 71.4518 91.3601 71.513 91.3514 71.5794C91.3482 71.6109 91.3517 71.6428 91.3617 71.6729C91.3717 71.703 91.388 71.7307 91.4095 71.754C91.431 71.7774 91.4571 71.7959 91.4863 71.8084C91.5155 71.8209 91.5469 71.827 91.5786 71.8265H94.856C94.9229 71.8237 94.9866 71.7974 95.036 71.7522C95.0853 71.707 95.1172 71.6458 95.1258 71.5794C95.129 71.5478 95.1255 71.516 95.1155 71.4859C95.1055 71.4558 95.0892 71.4281 95.0677 71.4048C95.0463 71.3814 95.0201 71.3629 94.9909 71.3504C94.9618 71.3379 94.9303 71.3317 94.8986 71.3323H91.6212Z" fill="white"/>
<path d="M98.247 71.3323H96.3811C96.3142 71.3351 96.2505 71.3614 96.2011 71.4066C96.1517 71.4518 96.1199 71.513 96.1113 71.5794C96.1081 71.6109 96.1116 71.6428 96.1216 71.6729C96.1316 71.703 96.1479 71.7307 96.1693 71.754C96.1908 71.7774 96.217 71.7959 96.2461 71.8084C96.2753 71.8209 96.3068 71.827 96.3385 71.8265H98.2044C98.2712 71.8237 98.335 71.7974 98.3843 71.7522C98.4337 71.707 98.4655 71.6458 98.4742 71.5794C98.4774 71.5478 98.4739 71.516 98.4639 71.4859C98.4539 71.4558 98.4376 71.4281 98.4161 71.4048C98.3946 71.3814 98.3685 71.3629 98.3393 71.3504C98.3101 71.3379 98.2787 71.3317 98.247 71.3323Z" fill="white"/>
<path d="M92.1779 70.2616H93.7995C93.8689 70.2622 93.936 70.2374 93.9883 70.1919C94.0407 70.1464 94.0745 70.0833 94.0835 70.0146C94.0872 69.9828 94.084 69.9506 94.0742 69.9201C94.0644 69.8897 94.0482 69.8617 94.0266 69.838C94.0051 69.8144 93.9788 69.7956 93.9494 69.7829C93.92 69.7702 93.8883 69.764 93.8563 69.7646H92.2318C92.1645 69.7675 92.1004 69.7942 92.051 69.84C92.0016 69.8858 91.9701 69.9477 91.962 70.0146C91.9589 70.0452 91.9621 70.0761 91.9714 70.1054C91.9808 70.1347 91.996 70.1618 92.0163 70.185C92.0365 70.2082 92.0613 70.2269 92.0891 70.2401C92.1169 70.2533 92.1471 70.2606 92.1779 70.2616Z" fill="white"/>
<path opacity="0.5" d="M94.9554 70.2616H98.3379C98.4047 70.2588 98.4685 70.2325 98.5178 70.1873C98.5672 70.1421 98.599 70.0809 98.6076 70.0146C98.6113 69.9828 98.6081 69.9506 98.5983 69.9201C98.5885 69.8897 98.5723 69.8617 98.5508 69.838C98.5293 69.8144 98.5029 69.7956 98.4736 69.7829C98.4442 69.7702 98.4124 69.764 98.3805 69.7646H94.998C94.9307 69.7675 94.8666 69.7942 94.8172 69.84C94.7678 69.8858 94.7362 69.9477 94.7282 70.0146C94.725 70.0461 94.7285 70.078 94.7385 70.1081C94.7485 70.1382 94.7648 70.1658 94.7863 70.1892C94.8077 70.2125 94.8339 70.2311 94.8631 70.2435C94.8922 70.256 94.9237 70.2622 94.9554 70.2616Z" fill="white"/>
<path d="M73.8883 43.6679C73.9187 43.6926 73.957 43.7057 73.9962 43.7048C74.026 43.7046 74.0555 43.6979 74.0825 43.6852C74.1095 43.6724 74.1333 43.6539 74.1524 43.631C74.1685 43.6127 74.1808 43.5915 74.1887 43.5684C74.1966 43.5454 74.1998 43.5211 74.1982 43.4968C74.1966 43.4725 74.1903 43.4488 74.1795 43.427C74.1687 43.4051 74.1537 43.3857 74.1354 43.3697L73.6185 42.9664L74.1865 42.5631C74.2286 42.5367 74.2587 42.4949 74.2703 42.4466C74.282 42.3983 74.2743 42.3474 74.249 42.3047C74.2349 42.2848 74.2169 42.2679 74.1962 42.255C74.1754 42.2422 74.1523 42.2337 74.1282 42.23C74.1041 42.2262 74.0794 42.2274 74.0558 42.2334C74.0321 42.2394 74.0099 42.2502 73.9905 42.2649L73.1925 42.8329C73.1676 42.85 73.1468 42.8723 73.1316 42.8983C73.1164 42.9243 73.1071 42.9534 73.1044 42.9834C73.1019 43.0113 73.1063 43.0393 73.1172 43.0651C73.1281 43.0908 73.1452 43.1135 73.1669 43.1311L73.8883 43.6679Z" fill="white"/>
<path d="M76.467 42.9635L75.8848 43.3696C75.8432 43.3965 75.8137 43.4385 75.8025 43.4868C75.7914 43.535 75.7995 43.5857 75.8252 43.6281C75.8401 43.6522 75.861 43.6719 75.8859 43.6854C75.9108 43.6988 75.9389 43.7055 75.9672 43.7048C76.008 43.7052 76.0479 43.6922 76.0808 43.6678L76.8816 43.114C76.9061 43.0966 76.9266 43.0741 76.9418 43.0482C76.9569 43.0223 76.9665 42.9934 76.9697 42.9635C76.9719 42.9354 76.967 42.9072 76.9556 42.8815C76.9442 42.8557 76.9266 42.8331 76.9044 42.8158L76.2 42.262C76.1594 42.2334 76.1092 42.2215 76.06 42.2289C76.0108 42.2363 75.9663 42.2624 75.9359 42.3018C75.9198 42.32 75.9075 42.3413 75.8996 42.3643C75.8918 42.3873 75.8885 42.4117 75.8901 42.436C75.8917 42.4603 75.8981 42.484 75.9088 42.5058C75.9196 42.5276 75.9346 42.5471 75.953 42.5631L76.467 42.9635Z" fill="white"/>
<path d="M74.7232 43.6934C74.7438 43.6977 74.7651 43.6977 74.7857 43.6934C74.8253 43.6927 74.8638 43.6805 74.8966 43.6583C74.9293 43.6361 74.9549 43.6049 74.9703 43.5685L75.456 42.4637C75.4666 42.4423 75.4726 42.4188 75.4736 42.3949C75.4746 42.371 75.4705 42.3472 75.4617 42.3249C75.4529 42.3027 75.4394 42.2826 75.4223 42.2659C75.4052 42.2492 75.3847 42.2363 75.3622 42.228C75.3147 42.2125 75.263 42.2153 75.2173 42.2357C75.1717 42.2562 75.1353 42.2929 75.1152 42.3387L74.6295 43.4463C74.6168 43.4682 74.6092 43.4927 74.6072 43.5179C74.6051 43.5431 74.6087 43.5685 74.6177 43.5922C74.6266 43.6158 74.6408 43.6372 74.659 43.6547C74.6773 43.6722 74.6992 43.6854 74.7232 43.6934Z" fill="white"/>
<path opacity="0.5" d="M77.816 43.7673H78.7958C78.8627 43.7645 78.9264 43.7382 78.9758 43.693C79.0251 43.6478 79.057 43.5866 79.0656 43.5202C79.0688 43.4886 79.0653 43.4568 79.0553 43.4267C79.0453 43.3966 79.029 43.3689 79.0075 43.3456C78.9861 43.3222 78.9599 43.3037 78.9308 43.2912C78.9016 43.2787 78.8701 43.2725 78.8384 43.2731H77.8558C77.7894 43.2765 77.7263 43.3032 77.6775 43.3483C77.6288 43.3934 77.5974 43.4543 77.5888 43.5202C77.5851 43.5518 77.5883 43.5839 77.5981 43.6142C77.6079 43.6445 77.6242 43.6724 77.6458 43.6958C77.6673 43.7193 77.6937 43.7378 77.7231 43.7501C77.7525 43.7624 77.7842 43.7683 77.816 43.7673Z" fill="white"/>
<path opacity="0.5" d="M90.3944 45.724H91.732C91.7984 45.7206 91.8614 45.694 91.9102 45.6488C91.959 45.6037 91.9904 45.5428 91.999 45.4769C92.0026 45.4453 91.9995 45.4132 91.9896 45.3829C91.9798 45.3526 91.9636 45.3248 91.942 45.3013C91.9204 45.2779 91.894 45.2593 91.8647 45.247C91.8353 45.2347 91.8036 45.2288 91.7718 45.2299H90.4455C90.3786 45.2326 90.3149 45.259 90.2655 45.3042C90.2161 45.3494 90.1843 45.4106 90.1757 45.4769C90.1725 45.5078 90.1758 45.5389 90.1853 45.5684C90.1948 45.598 90.2103 45.6252 90.2309 45.6484C90.2514 45.6716 90.2766 45.6903 90.3047 45.7033C90.3328 45.7163 90.3634 45.7234 90.3944 45.724Z" fill="white"/>
<path d="M76.0467 45.4826C76.0435 45.5141 76.047 45.546 76.057 45.5761C76.067 45.6062 76.0833 45.6339 76.1047 45.6572C76.1262 45.6806 76.1524 45.6991 76.1815 45.7116C76.2107 45.7241 76.2422 45.7302 76.2739 45.7297H88.6875C88.7569 45.7303 88.824 45.7055 88.8763 45.6599C88.9287 45.6144 88.9625 45.5513 88.9715 45.4826C88.9747 45.451 88.9712 45.4192 88.9612 45.3891C88.9512 45.359 88.9349 45.3313 88.9135 45.308C88.892 45.2846 88.8658 45.2661 88.8367 45.2536C88.8075 45.2411 88.776 45.2349 88.7443 45.2355H76.3136C76.2473 45.2389 76.1842 45.2656 76.1354 45.3107C76.0866 45.3558 76.0552 45.4167 76.0467 45.4826Z" fill="white"/>
<path opacity="0.5" d="M72.9 45.724H74.7971C74.864 45.7212 74.9277 45.6949 74.9771 45.6497C75.0264 45.6045 75.0582 45.5433 75.0669 45.4769C75.0701 45.4454 75.0666 45.4135 75.0566 45.3834C75.0466 45.3533 75.0303 45.3256 75.0088 45.3023C74.9874 45.2789 74.9612 45.2604 74.932 45.2479C74.9029 45.2354 74.8714 45.2293 74.8397 45.2298H72.9397C72.8733 45.2333 72.8103 45.2599 72.7615 45.305C72.7127 45.3502 72.6813 45.411 72.6728 45.4769C72.6691 45.5086 72.6722 45.5406 72.6821 45.5709C72.6919 45.6012 72.7082 45.6291 72.7297 45.6525C72.7513 45.676 72.7777 45.6945 72.807 45.7068C72.8364 45.7192 72.8681 45.725 72.9 45.724Z" fill="white"/>
<path d="M85.6317 47.2946C85.701 47.2951 85.7682 47.2703 85.8205 47.2248C85.8728 47.1793 85.9067 47.1162 85.9157 47.0475C85.9189 47.0157 85.9154 46.9836 85.9052 46.9532C85.895 46.9229 85.8785 46.8952 85.8567 46.8718C85.8349 46.8484 85.8084 46.8299 85.7789 46.8176C85.7494 46.8053 85.7176 46.7994 85.6856 46.8004H80.744C80.6772 46.8032 80.6134 46.8295 80.5641 46.8747C80.5147 46.9199 80.4829 46.9811 80.4742 47.0475C80.471 47.079 80.4745 47.1109 80.4845 47.141C80.4946 47.1711 80.5108 47.1987 80.5323 47.2221C80.5538 47.2454 80.5799 47.264 80.6091 47.2765C80.6383 47.289 80.6697 47.2951 80.7014 47.2946H85.6317Z" fill="white"/>
<path d="M76.1404 47.2946H79.6478C79.7147 47.2918 79.7784 47.2654 79.8278 47.2202C79.8771 47.175 79.909 47.1138 79.9176 47.0475C79.9208 47.0159 79.9173 46.984 79.9073 46.9539C79.8973 46.9238 79.881 46.8962 79.8595 46.8729C79.8381 46.8495 79.8119 46.831 79.7827 46.8185C79.7536 46.806 79.7221 46.7998 79.6904 46.8004H76.183C76.1161 46.8032 76.0524 46.8295 76.003 46.8747C75.9536 46.9199 75.9218 46.9811 75.9132 47.0475C75.91 47.079 75.9135 47.1109 75.9235 47.141C75.9335 47.1711 75.9498 47.1987 75.9712 47.2221C75.9927 47.2454 76.0189 47.264 76.0481 47.2765C76.0772 47.2889 76.1087 47.2951 76.1404 47.2946Z" fill="white"/>
<path opacity="0.5" d="M72.7665 47.2946H74.6324C74.6992 47.2918 74.763 47.2654 74.8123 47.2202C74.8617 47.175 74.8935 47.1138 74.9022 47.0475C74.9054 47.0159 74.9019 46.984 74.8919 46.9539C74.8819 46.9238 74.8656 46.8962 74.8441 46.8729C74.8226 46.8495 74.7965 46.831 74.7673 46.8185C74.7382 46.806 74.7067 46.7998 74.675 46.8004H72.8091C72.7397 46.7998 72.6726 46.8246 72.6203 46.8701C72.5679 46.9156 72.5341 46.9787 72.5251 47.0475C72.5216 47.0803 72.5255 47.1134 72.5363 47.1446C72.5471 47.1757 72.5647 47.2041 72.5877 47.2277C72.6108 47.2513 72.6387 47.2695 72.6696 47.2811C72.7005 47.2926 72.7336 47.2972 72.7665 47.2946Z" fill="white"/>
<path d="M83.2858 48.6152C83.2891 48.5836 83.2855 48.5517 83.2755 48.5216C83.2655 48.4915 83.2493 48.4639 83.2278 48.4405C83.2063 48.4172 83.1801 48.3987 83.151 48.3862C83.1218 48.3737 83.0903 48.3675 83.0586 48.3681H76.024C75.9576 48.3715 75.8945 48.3981 75.8457 48.4433C75.7969 48.4884 75.7655 48.5492 75.757 48.6152C75.7538 48.6467 75.7573 48.6786 75.7673 48.7087C75.7773 48.7388 75.7936 48.7664 75.815 48.7898C75.8365 48.8131 75.8627 48.8317 75.8919 48.8441C75.921 48.8566 75.9525 48.8628 75.9842 48.8622H83.016C83.0829 48.8595 83.1467 48.8331 83.196 48.7879C83.2454 48.7427 83.2772 48.6815 83.2858 48.6152Z" fill="white"/>
<path opacity="0.5" d="M72.633 48.8622H74.5216C74.5909 48.8628 74.6581 48.838 74.7104 48.7925C74.7627 48.747 74.7966 48.6839 74.8056 48.6152C74.8088 48.5836 74.8053 48.5517 74.7953 48.5216C74.7853 48.4915 74.769 48.4639 74.7475 48.4405C74.7261 48.4172 74.6999 48.3987 74.6707 48.3862C74.6416 48.3737 74.6101 48.3675 74.5784 48.3681H72.6756C72.6063 48.3675 72.5391 48.3923 72.4868 48.4378C72.4345 48.4833 72.4006 48.5464 72.3916 48.6152C72.3881 48.648 72.392 48.6811 72.4028 48.7123C72.4136 48.7434 72.4312 48.7718 72.4542 48.7954C72.4773 48.819 72.5053 48.8372 72.5362 48.8488C72.5671 48.8603 72.6001 48.8649 72.633 48.8622Z" fill="white"/>
<path d="M80.656 50.4299H87.8497C87.9165 50.4264 87.9799 50.3994 88.0288 50.3536C88.0776 50.3079 88.1087 50.2464 88.1167 50.18C88.1204 50.1483 88.1172 50.1163 88.1074 50.086C88.0975 50.0557 88.0813 50.0278 88.0597 50.0044C88.0382 49.9809 88.0118 49.9624 87.9824 49.9501C87.953 49.9377 87.9213 49.9319 87.8895 49.9329H80.6986C80.6317 49.9357 80.568 49.962 80.5186 50.0072C80.4693 50.0524 80.4374 50.1136 80.4288 50.18C80.4252 50.2118 80.4283 50.244 80.4381 50.2744C80.448 50.3049 80.4642 50.3328 80.4857 50.3565C80.5072 50.3802 80.5335 50.399 80.5629 50.4116C80.5923 50.4243 80.624 50.4305 80.656 50.4299Z" fill="white"/>
<path d="M75.8962 49.9329C75.8298 49.9363 75.7667 49.9629 75.7179 50.0081C75.6691 50.0532 75.6377 50.1141 75.6292 50.18C75.6251 50.2118 75.6279 50.2442 75.6375 50.2749C75.6472 50.3055 75.6633 50.3337 75.685 50.3575C75.7066 50.3813 75.7331 50.4001 75.7627 50.4126C75.7923 50.4251 75.8243 50.431 75.8564 50.4299H79.1281C79.1949 50.4264 79.2583 50.3993 79.3071 50.3536C79.356 50.3079 79.3871 50.2464 79.395 50.18C79.3983 50.1484 79.3947 50.1165 79.3847 50.0864C79.3747 50.0563 79.3585 50.0287 79.337 50.0054C79.3155 49.982 79.2893 49.9635 79.2602 49.951C79.231 49.9385 79.1996 49.9323 79.1678 49.9329H75.8962Z" fill="white"/>
<path opacity="0.5" d="M72.5024 50.4299H74.3682C74.435 50.4264 74.4985 50.3993 74.5473 50.3536C74.5961 50.3079 74.6273 50.2464 74.6352 50.18C74.6384 50.1484 74.6349 50.1165 74.6249 50.0864C74.6149 50.0563 74.5986 50.0287 74.5771 50.0054C74.5557 49.982 74.5295 49.9635 74.5003 49.951C74.4712 49.9385 74.4397 49.9323 74.408 49.9329H72.5421C72.4757 49.9363 72.4127 49.9629 72.3639 50.0081C72.3151 50.0532 72.2837 50.1141 72.2752 50.18C72.271 50.2118 72.2739 50.2442 72.2835 50.2749C72.2931 50.3055 72.3093 50.3337 72.3309 50.3575C72.3525 50.3813 72.3791 50.4001 72.4087 50.4126C72.4383 50.4251 72.4702 50.431 72.5024 50.4299Z" fill="white"/>
<path d="M78.5714 51.5006H76.964C76.8971 51.5033 76.8334 51.5297 76.784 51.5749C76.7347 51.6201 76.7028 51.6813 76.6942 51.7476C76.691 51.7792 76.6945 51.8111 76.7045 51.8412C76.7145 51.8713 76.7308 51.8989 76.7523 51.9223C76.7737 51.9456 76.7999 51.9641 76.8291 51.9766C76.8582 51.9891 76.8897 51.9953 76.9214 51.9947H78.543C78.6099 51.9919 78.6737 51.9656 78.723 51.9204C78.7724 51.8752 78.8042 51.814 78.8128 51.7476C78.8163 51.7148 78.8125 51.6817 78.8016 51.6505C78.7908 51.6194 78.7732 51.591 78.7502 51.5674C78.7271 51.5438 78.6992 51.5256 78.6683 51.514C78.6374 51.5025 78.6043 51.4979 78.5714 51.5006Z" fill="white"/>
<path d="M75.7939 51.5006H72.42C72.3531 51.5034 72.2894 51.5297 72.24 51.5749C72.1907 51.6201 72.1588 51.6813 72.1502 51.7477C72.147 51.7792 72.1505 51.8111 72.1605 51.8412C72.1705 51.8713 72.1868 51.8989 72.2083 51.9223C72.2297 51.9456 72.2559 51.9642 72.2851 51.9767C72.3142 51.9892 72.3457 51.9953 72.3774 51.9948H75.7598C75.8267 51.992 75.8905 51.9657 75.9398 51.9204C75.9892 51.8752 76.021 51.8141 76.0296 51.7477C76.033 51.7154 76.0293 51.6827 76.0188 51.652C76.0083 51.6213 75.9912 51.5932 75.9688 51.5697C75.9464 51.5462 75.9191 51.5279 75.889 51.516C75.8588 51.504 75.8263 51.4988 75.7939 51.5006Z" fill="white"/>
<path d="M86.282 53.3153C86.2788 53.3469 86.2823 53.3788 86.2923 53.4089C86.3023 53.439 86.3186 53.4666 86.3401 53.4899C86.3616 53.5133 86.3877 53.5318 86.4169 53.5443C86.4461 53.5568 86.4775 53.563 86.5092 53.5624H99.7493C99.8162 53.5596 99.8799 53.5333 99.9293 53.4881C99.9787 53.4429 100.01 53.3817 100.019 53.3153C100.023 53.2835 100.02 53.2514 100.01 53.2209C100 53.1905 99.9838 53.1625 99.9622 53.1388C99.9407 53.1151 99.9144 53.0963 99.885 53.0837C99.8556 53.071 99.8239 53.0648 99.7919 53.0654H86.5518C86.4845 53.0683 86.4204 53.095 86.371 53.1408C86.3216 53.1866 86.2901 53.2484 86.282 53.3153Z" fill="white"/>
<path opacity="0.5" d="M82.7065 53.0654C82.6367 53.0649 82.5692 53.0901 82.5168 53.1362C82.4644 53.1823 82.4308 53.2461 82.4225 53.3153C82.4193 53.3469 82.4228 53.3788 82.4328 53.4089C82.4428 53.439 82.4591 53.4666 82.4805 53.4899C82.502 53.5133 82.5282 53.5318 82.5573 53.5443C82.5865 53.5568 82.618 53.563 82.6497 53.5624H85.1574C85.2267 53.563 85.2939 53.5382 85.3462 53.4927C85.3985 53.4472 85.4324 53.3841 85.4414 53.3153C85.4446 53.2834 85.441 53.2511 85.4309 53.2207C85.4207 53.1903 85.4042 53.1623 85.3825 53.1387C85.3608 53.1151 85.3343 53.0963 85.3048 53.0837C85.2753 53.0711 85.2434 53.0648 85.2114 53.0654H82.7065Z" fill="white"/>
<path opacity="0.5" d="M99.6584 54.6331H96.435C96.3682 54.6359 96.3044 54.6622 96.2551 54.7074C96.2057 54.7526 96.1739 54.8138 96.1652 54.8802C96.162 54.9117 96.1655 54.9436 96.1755 54.9737C96.1856 55.0038 96.2018 55.0314 96.2233 55.0548C96.2448 55.0781 96.2709 55.0967 96.3001 55.1092C96.3293 55.1217 96.3607 55.1278 96.3924 55.1273H99.6187C99.6851 55.1238 99.7481 55.0972 99.7969 55.0521C99.8457 55.0069 99.8771 54.9461 99.8856 54.8802C99.8889 54.8486 99.8854 54.8167 99.8753 54.7866C99.8653 54.7565 99.8491 54.7289 99.8276 54.7056C99.8061 54.6822 99.78 54.6637 99.7508 54.6512C99.7216 54.6387 99.6902 54.6325 99.6584 54.6331Z" fill="white"/>
<path d="M95.0576 54.8802C95.0609 54.8486 95.0574 54.8167 95.0473 54.7866C95.0373 54.7565 95.0211 54.7289 94.9996 54.7056C94.9781 54.6822 94.9519 54.6637 94.9228 54.6512C94.8936 54.6387 94.8622 54.6325 94.8304 54.6331H81.3319C81.265 54.6359 81.2013 54.6622 81.1519 54.7074C81.1026 54.7526 81.0708 54.8138 81.0621 54.8802C81.0589 54.9117 81.0624 54.9436 81.0724 54.9737C81.0824 55.0038 81.0987 55.0314 81.1202 55.0548C81.1416 55.0781 81.1678 55.0967 81.197 55.1092C81.2261 55.1217 81.2576 55.1278 81.2893 55.1273H94.7907C94.8571 55.1238 94.9201 55.0972 94.9689 55.0521C95.0177 55.0069 95.0491 54.9461 95.0576 54.8802Z" fill="white"/>
<path d="M99.5278 56.2008H93.6802C93.6134 56.2036 93.5496 56.2299 93.5003 56.2751C93.4509 56.3203 93.4191 56.3815 93.4104 56.4479C93.4072 56.4794 93.4107 56.5113 93.4207 56.5414C93.4307 56.5715 93.447 56.5991 93.4685 56.6225C93.49 56.6458 93.5161 56.6644 93.5453 56.6768C93.5745 56.6893 93.6059 56.6955 93.6376 56.6949H99.4852C99.5521 56.6922 99.6158 56.6658 99.6652 56.6206C99.7145 56.5754 99.7464 56.5142 99.755 56.4479C99.7582 56.4163 99.7547 56.3844 99.7447 56.3543C99.7347 56.3242 99.7184 56.2966 99.6969 56.2732C99.6755 56.2499 99.6493 56.2314 99.6201 56.2189C99.591 56.2064 99.5595 56.2002 99.5278 56.2008Z" fill="white"/>
<path opacity="0.5" d="M90.88 56.2008C90.8131 56.2036 90.7494 56.2299 90.7 56.2751C90.6506 56.3203 90.6188 56.3815 90.6102 56.4479C90.607 56.4794 90.6105 56.5113 90.6205 56.5414C90.6305 56.5715 90.6468 56.5991 90.6682 56.6225C90.6897 56.6458 90.7159 56.6644 90.7451 56.6768C90.7742 56.6893 90.8057 56.6955 90.8374 56.6949H92.3C92.3664 56.6915 92.4294 56.6649 92.4782 56.6197C92.527 56.5746 92.5584 56.5138 92.567 56.4479C92.5702 56.4163 92.5667 56.3844 92.5567 56.3543C92.5467 56.3242 92.5304 56.2966 92.5089 56.2732C92.4874 56.2499 92.4613 56.2314 92.4321 56.2189C92.4029 56.2064 92.3715 56.2002 92.3398 56.2008H90.88Z" fill="white"/>
<path d="M99.4 57.7656H87.7702C87.7038 57.7691 87.6408 57.7957 87.592 57.8408C87.5432 57.886 87.5118 57.9468 87.5032 58.0127C87.5 58.0443 87.5035 58.0761 87.5135 58.1062C87.5236 58.1363 87.5398 58.164 87.5613 58.1873C87.5828 58.2107 87.6089 58.2292 87.6381 58.2417C87.6673 58.2542 87.6987 58.2604 87.7304 58.2598H99.3517C99.4186 58.257 99.4823 58.2307 99.5317 58.1855C99.5811 58.1403 99.6129 58.0791 99.6215 58.0127C99.6247 57.9816 99.6213 57.9502 99.6117 57.9205C99.602 57.8908 99.5862 57.8635 99.5654 57.8402C99.5445 57.8169 99.519 57.7983 99.4906 57.7855C99.4621 57.7726 99.4312 57.7659 99.4 57.7656Z" fill="white"/>
<path d="M82.644 57.7656H78.5856C78.5188 57.7684 78.455 57.7947 78.4057 57.8399C78.3563 57.8851 78.3245 57.9463 78.3158 58.0127C78.3126 58.0442 78.3161 58.0761 78.3261 58.1062C78.3361 58.1363 78.3524 58.164 78.3739 58.1873C78.3954 58.2107 78.4215 58.2292 78.4507 58.2417C78.4798 58.2542 78.5113 58.2603 78.543 58.2598H82.5986C82.6679 58.2604 82.7351 58.2356 82.7874 58.19C82.8397 58.1445 82.8735 58.0814 82.8826 58.0127C82.8859 57.9801 82.8822 57.9472 82.8715 57.9163C82.8608 57.8854 82.8435 57.8571 82.8208 57.8336C82.7981 57.8101 82.7705 57.7918 82.7399 57.78C82.7094 57.7683 82.6766 57.7634 82.644 57.7656Z" fill="white"/>
<path d="M97.696 91.0021L96.1681 108.184V108.244H66.172V108.184L69.4153 71.6674L71.0625 72.0991L79.0968 74.1922L79.5427 74.3086L80.0908 74.4506L80.7668 74.6267L81.1871 74.7375L86.5689 76.1404H86.603C86.9949 76.2427 87.3783 76.3591 87.7532 76.4897C90.7395 77.5323 93.3146 79.5018 95.1027 82.1109C96.8908 84.72 97.7985 87.8323 97.6932 90.9936L97.696 91.0021Z" fill="#DAE1C2"/>
<path opacity="0.8" d="M97.696 91.0021L96.1681 108.184V108.244H66.172V108.184L69.4153 71.6674L71.0625 72.0991L79.0968 74.1922L79.5427 74.3086L80.0908 74.4506L80.7668 74.6267L81.1871 74.7375L86.5689 76.1404H86.603C86.9949 76.2427 87.3783 76.3591 87.7532 76.4897C90.7395 77.5323 93.3146 79.5018 95.1027 82.1109C96.8908 84.72 97.7985 87.8323 97.6932 90.9936L97.696 91.0021Z" fill="white"/>
<path opacity="0.6" d="M81.1928 74.7375H70.8353L70.8836 74.1922L71.0682 72.0991L79.1025 74.1922L79.5484 74.3086L80.0965 74.4506L80.7724 74.6267L81.1928 74.7375Z" fill="black"/>
<path opacity="0.5" d="M81.1928 74.7375H70.8353L70.8836 74.1922H79.1025L79.5484 74.3086L80.0965 74.4506L80.7724 74.6267L81.1928 74.7375Z" fill="black"/>
<path opacity="0.6" d="M80.0965 74.4506L80.071 74.7375H70.8353L70.8836 74.1922H79.1025L79.5484 74.3086L80.0965 74.4506Z" fill="white"/>
<path d="M80.7724 74.6267C80.761 74.665 80.7458 74.7021 80.727 74.7374C80.6671 74.8536 80.5768 74.9513 80.4658 75.0203C80.3548 75.0893 80.2272 75.127 80.0965 75.1294C79.972 75.1355 79.8488 75.1004 79.7462 75.0295C79.6435 74.9587 79.567 74.8561 79.5285 74.7374C79.4994 74.6556 79.4887 74.5683 79.4973 74.4818C79.5031 74.4226 79.5165 74.3644 79.537 74.3086L80.0852 74.4506L80.7724 74.6267Z" fill="white"/>
<path opacity="0.4" d="M84.1151 78.7419H71C70.9344 78.7435 70.8692 78.7311 70.8089 78.7054C70.7486 78.6796 70.6945 78.6412 70.6503 78.5927C70.6061 78.5442 70.5729 78.4868 70.5528 78.4243C70.5328 78.3618 70.5265 78.2958 70.5342 78.2307C70.549 78.0906 70.6153 77.961 70.7203 77.8671C70.8253 77.7731 70.9614 77.7215 71.1022 77.7223H84.206C84.2712 77.7211 84.3359 77.7338 84.3958 77.7596C84.4557 77.7853 84.5094 77.8234 84.5535 77.8715C84.5975 77.9196 84.6308 77.9764 84.6512 78.0384C84.6716 78.1003 84.6786 78.1658 84.6718 78.2307C84.6578 78.3693 84.5934 78.498 84.4908 78.5923C84.3882 78.6865 84.2545 78.7398 84.1151 78.7419Z" fill="#DAE1C2"/>
<path opacity="0.4" d="M87.756 76.6516C87.7412 76.7917 87.6749 76.9213 87.5699 77.0152C87.465 77.1091 87.3289 77.1607 87.188 77.1599H71.1306C71.0655 77.1611 71.0008 77.1484 70.9409 77.1227C70.881 77.097 70.8272 77.0588 70.7832 77.0107C70.7391 76.9627 70.7058 76.9058 70.6854 76.8439C70.665 76.782 70.658 76.7164 70.6649 76.6516C70.679 76.511 70.745 76.3807 70.8501 76.2862C70.9551 76.1917 71.0916 76.1397 71.2329 76.1404H86.5859H86.62C87.0119 76.2426 87.3953 76.3591 87.7702 76.4897C87.7736 76.5441 87.7688 76.5986 87.756 76.6516Z" fill="#DAE1C2"/>
<path opacity="0.3" d="M96.5884 84.862L95.8557 93.1151H69.2023L70.2304 81.5506H94.6998C95.4694 82.5684 96.1042 83.6814 96.5884 84.862Z" fill="#DAE1C2"/>
<path opacity="0.5" d="M87.8923 83.5642H85.8021C85.7427 83.5653 85.6838 83.5538 85.6293 83.5304C85.5747 83.507 85.5258 83.4722 85.4858 83.4284C85.4457 83.3846 85.4155 83.3328 85.3971 83.2764C85.3786 83.2199 85.3725 83.1602 85.3789 83.1012C85.3921 82.9757 85.4508 82.8592 85.5439 82.7739C85.637 82.6887 85.7582 82.6404 85.8844 82.6383H87.9747C88.0339 82.6371 88.0927 82.6486 88.1472 82.672C88.2016 82.6955 88.2503 82.7303 88.2902 82.7742C88.33 82.818 88.36 82.8699 88.3781 82.9263C88.3961 82.9828 88.4019 83.0424 88.395 83.1012C88.3825 83.2266 88.3244 83.343 88.2317 83.4283C88.1391 83.5137 88.0183 83.562 87.8923 83.5642Z" fill="white"/>
<path opacity="0.5" d="M93.6689 85.0495H85.6686C85.6094 85.0507 85.5506 85.0392 85.4961 85.0158C85.4417 84.9923 85.3929 84.9575 85.3531 84.9137C85.3133 84.8698 85.2833 84.8179 85.2652 84.7615C85.2471 84.705 85.2414 84.6454 85.2483 84.5866C85.2614 84.4617 85.3198 84.346 85.4124 84.2612C85.505 84.1765 85.6254 84.1286 85.751 84.1265H93.7512C93.8103 84.1254 93.869 84.1368 93.9233 84.16C93.9776 84.1833 94.0264 84.2178 94.0664 84.2613C94.1064 84.3048 94.1367 84.3562 94.1553 84.4123C94.1739 84.4684 94.1804 84.5278 94.1744 84.5866C94.1612 84.7122 94.1025 84.8286 94.0094 84.9139C93.9163 84.9992 93.7951 85.0474 93.6689 85.0495Z" fill="white"/>
<path opacity="0.3" d="M82.6724 92.0274H70.557L71.3919 82.6384H83.5045L82.6724 92.0274Z" fill="#DAE1C2"/>
<path opacity="0.5" d="M70.7416 89.957L74.3114 87.3329L76.183 88.8154L80.1391 85.9839L82.9706 88.6592L82.6724 92.0274H70.557L70.7416 89.957Z" fill="white"/>
<path opacity="0.5" d="M74.7971 84.8507C74.7753 85.1156 74.6577 85.3635 74.4664 85.548C74.2751 85.7325 74.0231 85.841 73.7576 85.8532C73.6331 85.8513 73.5104 85.8229 73.3977 85.7697C73.2851 85.7166 73.1851 85.64 73.1044 85.5451C73.0238 85.4502 72.9643 85.3391 72.93 85.2194C72.8957 85.0996 72.8874 84.9739 72.9056 84.8507C72.928 84.5861 73.0458 84.3385 73.237 84.1541C73.4281 83.9697 73.6798 83.861 73.9451 83.8482C74.0698 83.8496 74.1927 83.8778 74.3056 83.9308C74.4185 83.9838 74.5187 84.0604 74.5994 84.1554C74.6802 84.2504 74.7396 84.3617 74.7737 84.4816C74.8078 84.6016 74.8158 84.7274 74.7971 84.8507Z" fill="white"/>
<path opacity="0.3" d="M94.697 106.182H68.0407L69.0688 94.6146H95.725L94.697 106.182Z" fill="#DAE1C2"/>
<path opacity="0.5" d="M86.7308 96.6282H84.632C84.5728 96.6294 84.5139 96.6179 84.4595 96.5945C84.4051 96.571 84.3563 96.5362 84.3165 96.4923C84.2767 96.4485 84.2467 96.3966 84.2286 96.3402C84.2105 96.2837 84.2048 96.2241 84.2117 96.1652C84.2248 96.0404 84.2832 95.9247 84.3758 95.8399C84.4684 95.7552 84.5888 95.7072 84.7144 95.7052H86.8046C86.8636 95.704 86.9221 95.7154 86.9763 95.7387C87.0305 95.762 87.0791 95.7965 87.1189 95.8401C87.1587 95.8836 87.1887 95.9351 87.207 95.9912C87.2253 96.0473 87.2314 96.1066 87.2249 96.1652C87.2126 96.2892 87.1557 96.4044 87.0648 96.4896C86.9739 96.5747 86.8552 96.624 86.7308 96.6282Z" fill="white"/>
<path opacity="0.5" d="M92.5073 98.1164H84.5099C84.4505 98.1175 84.3916 98.106 84.3371 98.0826C84.2825 98.0592 84.2336 98.0244 84.1936 97.9806C84.1535 97.9368 84.1233 97.885 84.1049 97.8285C84.0864 97.7721 84.0802 97.7124 84.0867 97.6534C84.0999 97.5278 84.1586 97.4114 84.2517 97.3261C84.3448 97.2408 84.466 97.1926 84.5922 97.1905H92.584C92.6433 97.1893 92.7023 97.2009 92.7568 97.2243C92.8113 97.2477 92.8603 97.2824 92.9003 97.3262C92.9404 97.37 92.9706 97.4219 92.989 97.4783C93.0075 97.5347 93.0136 97.5944 93.0072 97.6534C92.9941 97.7781 92.9362 97.8937 92.8443 97.9789C92.7523 98.0641 92.6326 98.1129 92.5073 98.1164Z" fill="white"/>
<path opacity="0.3" d="M81.5108 105.091H69.3954L70.2304 95.7052H82.3458L81.5108 105.091Z" fill="#DAE1C2"/>
<path opacity="0.5" d="M69.58 103.021L73.1499 100.397L75.0243 101.879L78.9776 99.0479L81.809 101.726L81.5108 105.091H69.3954L69.58 103.021Z" fill="white"/>
<path opacity="0.5" d="M73.6384 97.9147C73.616 98.1794 73.4982 98.4269 73.307 98.6113C73.1159 98.7957 72.8642 98.9044 72.5989 98.9172C72.4742 98.9158 72.3513 98.8876 72.2384 98.8346C72.1255 98.7817 72.0253 98.7051 71.9446 98.61C71.8638 98.515 71.8044 98.4038 71.7703 98.2838C71.7362 98.1639 71.7282 98.038 71.7469 97.9147C71.7688 97.6501 71.8864 97.4026 72.0778 97.2185C72.2692 97.0345 72.5211 96.9266 72.7864 96.915C72.9108 96.9165 73.0334 96.9446 73.1461 96.9975C73.2587 97.0503 73.3588 97.1266 73.4395 97.2213C73.5202 97.316 73.5797 97.4269 73.614 97.5465C73.6483 97.6661 73.6566 97.7916 73.6384 97.9147Z" fill="white"/>
<path opacity="0.2" d="M92.016 79.1678C84.1549 75.243 71.7157 82.9678 71.3522 83.1012C70.0997 83.567 68.6428 82.9422 67.325 82.0022L68.3474 70.2985L68.9438 70.2616C68.9438 70.2616 85.8106 74.408 92.016 79.1678Z" fill="black"/>
<path d="M50.9837 66.6321C50.9837 66.6321 52.8013 67.7255 53.7868 68.1998C54.3548 68.4639 56.4336 68.0805 58.1206 69.1625C59.7479 70.2048 59.5662 71.2528 60.2534 72.1786C62.3352 74.9845 66.7854 74.8936 66.7854 74.8936C66.7854 74.8936 85.7282 71.3323 95.4439 82.644C95.4439 82.644 88.253 68.6116 50.9837 66.6321Z" fill="#DAE1C2"/>
<path opacity="0.4" d="M50.9837 66.6321C50.9837 66.6321 52.8013 67.7255 53.7868 68.1998C54.3548 68.4639 56.4336 68.0805 58.1206 69.1625C59.7479 70.2048 59.5662 71.2528 60.2534 72.1786C62.3352 74.9845 66.7854 74.8936 66.7854 74.8936C66.7854 74.8936 85.7282 71.3323 95.4439 82.644C95.4439 82.644 88.253 68.6116 50.9837 66.6321Z" fill="white"/>
<path d="M41.18 39.8935H27.9882C27.6282 39.8935 27.2829 40.0365 27.0283 40.2911C26.7737 40.5457 26.6307 40.891 26.6307 41.251V48.3851C26.6314 48.7446 26.7748 49.0892 27.0293 49.3432C27.2838 49.5971 27.6287 49.7398 27.9882 49.7398H37.1642C37.5192 50.5918 38.5246 52.2731 41.1062 53.0512C41.1062 53.0512 39.5584 51.6511 39.6379 49.7398H41.18C41.5395 49.7398 41.8844 49.5971 42.1389 49.3432C42.3934 49.0892 42.5368 48.7446 42.5375 48.3851V41.251C42.5375 40.891 42.3945 40.5457 42.1399 40.2911C41.8853 40.0365 41.54 39.8935 41.18 39.8935Z" fill="#DAE1C2"/>
<path opacity="0.6" d="M41.18 39.8935H27.9882C27.6282 39.8935 27.2829 40.0365 27.0283 40.2911C26.7737 40.5457 26.6307 40.891 26.6307 41.251V48.3851C26.6314 48.7446 26.7748 49.0892 27.0293 49.3432C27.2838 49.5971 27.6287 49.7398 27.9882 49.7398H37.1642C37.5192 50.5918 38.5246 52.2731 41.1062 53.0512C41.1062 53.0512 39.5584 51.6511 39.6379 49.7398H41.18C41.5395 49.7398 41.8844 49.5971 42.1389 49.3432C42.3934 49.0892 42.5368 48.7446 42.5375 48.3851V41.251C42.5375 40.891 42.3945 40.5457 42.1399 40.2911C41.8853 40.0365 41.54 39.8935 41.18 39.8935Z" fill="white"/>
<g opacity="0.5">
<path d="M28.2495 42.2706C28.2495 41.7452 28.5335 41.4186 28.9084 41.4186C29.2832 41.4186 29.5701 41.7338 29.5701 42.2706C29.5701 42.8073 29.2861 43.1226 28.9084 43.1226C28.5306 43.1226 28.2495 42.7988 28.2495 42.2706ZM29.3855 42.2706C29.3855 41.8304 29.1867 41.5861 28.897 41.5861C28.6073 41.5861 28.4114 41.8304 28.4114 42.2706C28.4114 42.7108 28.6102 42.955 28.897 42.955C29.1838 42.955 29.3968 42.7136 29.3968 42.2706H29.3855Z" fill="black"/>
<path d="M30.2659 41.4442V43.097H30.104V41.5947H29.7064V41.4442H30.2659Z" fill="black"/>
<path d="M30.672 42.2706C30.672 41.7452 30.956 41.4186 31.3309 41.4186C31.7058 41.4186 31.9926 41.7338 31.9926 42.2706C31.9926 42.8073 31.7086 43.1226 31.3309 43.1226C30.9532 43.1226 30.672 42.7988 30.672 42.2706ZM31.808 42.2706C31.808 41.8304 31.6092 41.5861 31.3224 41.5861C31.0355 41.5861 30.8367 41.8304 30.8367 42.2706C30.8367 42.7108 31.0327 42.955 31.3224 42.955C31.612 42.955 31.808 42.7136 31.808 42.2706Z" fill="black"/>
<path d="M32.2226 42.2706C32.2226 41.7452 32.5066 41.4186 32.8815 41.4186C33.2564 41.4186 33.5432 41.7338 33.5432 42.2706C33.5432 42.8073 33.2592 43.1226 32.8815 43.1226C32.5038 43.1226 32.2226 42.7988 32.2226 42.2706ZM33.3586 42.2706C33.3586 41.8304 33.1627 41.5861 32.873 41.5861C32.5833 41.5861 32.3874 41.8304 32.3874 42.2706C32.3874 42.7108 32.5862 42.955 32.873 42.955C33.1598 42.955 33.3672 42.7136 33.3672 42.2706H33.3586Z" fill="black"/>
<path d="M34.239 41.4442V43.097H34.08V41.5947H33.6909V41.4442H34.239Z" fill="black"/>
<path d="M35.091 41.4442V43.097H34.932V41.5947H34.5429V41.4442H35.091Z" fill="black"/>
<path d="M35.943 41.4442V43.097H35.784V41.5947H35.3949V41.4442H35.943Z" fill="black"/>
<path d="M36.352 42.2706C36.352 41.7452 36.636 41.4186 37.0109 41.4186C37.3858 41.4186 37.6726 41.7338 37.6726 42.2706C37.6726 42.8073 37.3886 43.1226 37.0109 43.1226C36.6332 43.1226 36.352 42.7988 36.352 42.2706ZM37.488 42.2706C37.488 41.8304 37.2892 41.5861 37.0024 41.5861C36.7155 41.5861 36.5139 41.8304 36.5139 42.2706C36.5139 42.7108 36.7127 42.955 37.0024 42.955C37.292 42.955 37.488 42.7136 37.488 42.2706Z" fill="black"/>
<path d="M37.8998 42.2706C37.8998 41.7452 38.1838 41.4186 38.5587 41.4186C38.9336 41.4186 39.2204 41.7338 39.2204 42.2706C39.2204 42.8073 38.9364 43.1226 38.5587 43.1226C38.181 43.1226 37.8998 42.7988 37.8998 42.2706ZM39.0358 42.2706C39.0358 41.8304 38.837 41.5861 38.5502 41.5861C38.2633 41.5861 38.0645 41.8304 38.0645 42.2706C38.0645 42.7108 38.2605 42.955 38.5502 42.955C38.8398 42.955 39.0443 42.7136 39.0443 42.2706H39.0358Z" fill="black"/>
<path d="M39.9162 41.4442V43.097H39.76V41.5947H39.3709V41.4442H39.9162Z" fill="black"/>
<path d="M40.7682 41.4442V43.097H40.612V41.5947H40.2229V41.4442H40.7682Z" fill="black"/>
<path d="M28.7067 43.8383V45.4911H28.5363V43.9888H28.1472V43.8383H28.7067Z" fill="black"/>
<path d="M29.1015 44.6647C29.1015 44.1364 29.3855 43.8127 29.7604 43.8127C30.1352 43.8127 30.4192 44.1251 30.4192 44.6647C30.4192 45.2043 30.1352 45.5167 29.7604 45.5167C29.3855 45.5167 29.1015 45.1901 29.1015 44.6647ZM30.2375 44.6647C30.2375 44.2216 30.0387 43.9802 29.7518 43.9802C29.465 43.9802 29.2634 44.2216 29.2634 44.6647C29.2634 45.1077 29.4622 45.3491 29.7518 45.3491C30.0415 45.3491 30.246 45.1049 30.246 44.6647H30.2375Z" fill="black"/>
<path d="M30.672 44.6647C30.672 44.1364 30.956 43.8127 31.3309 43.8127C31.7058 43.8127 31.9926 44.1251 31.9926 44.6647C31.9926 45.2043 31.7086 45.5167 31.3309 45.5167C30.9532 45.5167 30.672 45.1901 30.672 44.6647ZM31.808 44.6647C31.808 44.2216 31.6092 43.9802 31.3224 43.9802C31.0355 43.9802 30.8339 44.2216 30.8339 44.6647C30.8339 45.1077 31.0327 45.3491 31.3224 45.3491C31.612 45.3491 31.808 45.1049 31.808 44.6647Z" fill="black"/>
<path d="M32.6799 43.8383V45.4911H32.5095V43.9888H32.1176V43.8383H32.6799Z" fill="black"/>
<path d="M33.5319 43.8383V45.4911H33.3615V43.9888H32.9724V43.8383H33.5319Z" fill="black"/>
<path d="M34.3839 43.8383V45.4911H34.2135V43.9888H33.8244V43.8383H34.3839Z" fill="black"/>
<path d="M34.7758 44.6647C34.7758 44.1364 35.0598 43.8127 35.4347 43.8127C35.8096 43.8127 36.0964 44.1251 36.0964 44.6647C36.0964 45.2043 35.8124 45.5167 35.4347 45.5167C35.057 45.5167 34.7758 45.1901 34.7758 44.6647ZM35.9118 44.6647C35.9118 44.2216 35.713 43.9802 35.4233 43.9802C35.1336 43.9802 34.9377 44.2216 34.9377 44.6647C34.9377 45.1077 35.1365 45.3491 35.4233 45.3491C35.7102 45.3491 35.9232 45.1049 35.9232 44.6647H35.9118Z" fill="black"/>
<path d="M36.352 44.6647C36.352 44.1364 36.636 43.8127 37.0137 43.8127C37.3914 43.8127 37.6726 44.1251 37.6726 44.6647C37.6726 45.2043 37.3886 45.5167 37.0137 45.5167C36.6388 45.5167 36.352 45.1901 36.352 44.6647ZM37.488 44.6647C37.488 44.2216 37.2892 43.9802 37.0024 43.9802C36.7155 43.9802 36.5139 44.2216 36.5139 44.6647C36.5139 45.1077 36.7127 45.3491 37.0024 45.3491C37.292 45.3491 37.488 45.1049 37.488 44.6647Z" fill="black"/>
<path d="M38.3542 43.8383V45.4911H38.1838V43.9888H37.7947V43.8383H38.3542Z" fill="black"/>
<path d="M39.2062 43.8383V45.4911H39.0386V43.9888H38.6467V43.8383H39.2062Z" fill="black"/>
<path d="M39.601 44.6647C39.601 44.1364 39.885 43.8127 40.2598 43.8127C40.6347 43.8127 40.9216 44.1251 40.9216 44.6647C40.9216 45.2043 40.6376 45.5167 40.2598 45.5167C39.8821 45.5167 39.601 45.1901 39.601 44.6647ZM40.737 44.6647C40.737 44.2216 40.541 43.9802 40.2513 43.9802C39.9616 43.9802 39.7657 44.2216 39.7657 44.6647C39.7657 45.1077 39.9645 45.3491 40.2513 45.3491C40.5382 45.3491 40.7455 45.1049 40.7455 44.6647H40.737Z" fill="black"/>
<path d="M28.2495 47.056C28.2495 46.5306 28.5335 46.204 28.9084 46.204C29.2832 46.204 29.5701 46.5192 29.5701 47.056C29.5701 47.5927 29.2861 47.908 28.9084 47.908C28.5306 47.908 28.2495 47.5842 28.2495 47.056ZM29.3855 47.056C29.3855 46.6158 29.1867 46.3715 28.897 46.3715C28.6073 46.3715 28.4114 46.6158 28.4114 47.056C28.4114 47.4962 28.6102 47.7433 28.897 47.7433C29.1838 47.7433 29.3968 47.499 29.3968 47.056H29.3855Z" fill="black"/>
<path d="M29.82 47.056C29.82 46.5306 30.104 46.204 30.4789 46.204C30.8538 46.204 31.1378 46.5192 31.1378 47.056C31.1378 47.5927 30.8538 47.908 30.4789 47.908C30.104 47.908 29.82 47.5842 29.82 47.056ZM30.956 47.056C30.956 46.6158 30.7572 46.3715 30.4704 46.3715C30.1835 46.3715 29.9819 46.6158 29.9819 47.056C29.9819 47.4962 30.1807 47.7433 30.4704 47.7433C30.76 47.7433 30.956 47.499 30.956 47.056Z" fill="black"/>
<path d="M31.8279 46.2296V47.8824H31.6603V46.3801H31.2684V46.2296H31.8279Z" fill="black"/>
<path d="M32.6799 46.2296V47.8824H32.5123V46.3801H32.1204V46.2296H32.6799Z" fill="black"/>
<path d="M33.0746 47.056C33.0746 46.5306 33.3586 46.204 33.7335 46.204C34.1084 46.204 34.3952 46.5192 34.3952 47.056C34.3952 47.5927 34.1112 47.908 33.7335 47.908C33.3558 47.908 33.0746 47.5842 33.0746 47.056ZM34.2106 47.056C34.2106 46.6158 34.0147 46.3715 33.725 46.3715C33.4353 46.3715 33.2394 46.6158 33.2394 47.056C33.2394 47.4962 33.4382 47.7433 33.725 47.7433C34.0118 47.7433 34.2192 47.499 34.2192 47.056H34.2106Z" fill="black"/>
<path d="M34.648 47.056C34.648 46.5306 34.932 46.204 35.3069 46.204C35.6818 46.204 35.9686 46.5192 35.9686 47.056C35.9686 47.5927 35.6846 47.908 35.3069 47.908C34.9292 47.908 34.648 47.5842 34.648 47.056ZM35.784 47.056C35.784 46.6158 35.5852 46.3715 35.2955 46.3715C35.0058 46.3715 34.8099 46.6158 34.8099 47.056C34.8099 47.4962 35.0087 47.7433 35.2955 47.7433C35.5824 47.7433 35.784 47.499 35.784 47.056Z" fill="black"/>
<path d="M36.653 46.2296V47.8824H36.4826V46.3801H36.0936V46.2296H36.653Z" fill="black"/>
<path d="M37.505 46.2296V47.8824H37.3346V46.3801H36.9456V46.2296H37.505Z" fill="black"/>
<path d="M38.357 46.2296V47.8824H38.1866V46.3801H37.7976V46.2296H38.357Z" fill="black"/>
<path d="M38.7518 47.056C38.7518 46.5306 39.0358 46.204 39.4107 46.204C39.7856 46.204 40.0724 46.5192 40.0724 47.056C40.0724 47.5927 39.7884 47.908 39.4107 47.908C39.033 47.908 38.7518 47.5842 38.7518 47.056ZM39.8878 47.056C39.8878 46.6158 39.689 46.3715 39.4022 46.3715C39.1153 46.3715 38.9165 46.6158 38.9165 47.056C38.9165 47.4962 39.1125 47.7433 39.4022 47.7433C39.6918 47.7433 39.8963 47.499 39.8963 47.056H39.8878Z" fill="black"/>
<path d="M40.7682 46.2296V47.8824H40.612V46.3801H40.2229V46.2296H40.7682Z" fill="black"/>
</g>
<path d="M52.6792 67.9868C52.9813 67.6573 53.3318 67.3758 53.7186 67.1518C54.1489 66.9813 54.6051 66.8852 55.0676 66.8678L55.2863 68.3588C54.9456 68.6266 54.5816 68.8632 54.1986 69.066C53.8152 69.2278 52.9461 69.154 52.9461 69.154L52.6792 67.9868Z" fill="#EBB376"/>
<path d="M43.9518 64.5958C43.9518 64.5958 45.9029 67.4017 46.6442 67.8902C47.3854 68.3787 52.6792 67.9868 52.6792 67.9868L52.9461 69.1398C52.9461 69.1398 47.516 70.131 46.3744 69.5232C45.2327 68.9155 42.3728 65.7489 42.3728 65.7489L43.9518 64.5958Z" fill="#EBB376"/>
<path opacity="0.2" d="M52.6792 67.9868C52.9813 67.6573 53.3318 67.3758 53.7186 67.1518C54.1489 66.9813 54.6051 66.8852 55.0676 66.8678L55.2863 68.3588C54.9456 68.6266 54.5816 68.8632 54.1986 69.066C53.8152 69.2278 52.9461 69.154 52.9461 69.154L52.6792 67.9868Z" fill="black"/>
<path opacity="0.2" d="M43.9518 64.5958C43.9518 64.5958 45.9029 67.4017 46.6442 67.8902C47.3854 68.3787 52.6792 67.9868 52.6792 67.9868L52.9461 69.1398C52.9461 69.1398 47.516 70.131 46.3744 69.5232C45.2327 68.9155 42.3728 65.7489 42.3728 65.7489L43.9518 64.5958Z" fill="black"/>
<path d="M50.6372 57.8366C50.6182 57.8368 50.5999 57.8297 50.5861 57.8167C50.5793 57.8104 50.5739 57.8027 50.5702 57.7941C50.5665 57.7856 50.5646 57.7763 50.5646 57.767C50.5646 57.7577 50.5665 57.7485 50.5702 57.74C50.5739 57.7314 50.5793 57.7237 50.5861 57.7173C50.7054 57.6113 50.8482 57.5349 51.0026 57.4944C51.1571 57.4539 51.319 57.4505 51.475 57.4845C51.4842 57.4865 51.4928 57.4903 51.5005 57.4957C51.5082 57.501 51.5147 57.5079 51.5197 57.5158C51.5247 57.5237 51.5281 57.5326 51.5297 57.5418C51.5313 57.551 51.5311 57.5605 51.529 57.5697C51.5243 57.5872 51.5133 57.6024 51.4981 57.6124C51.4829 57.6223 51.4646 57.6263 51.4466 57.6236C51.3138 57.5962 51.1766 57.5994 51.0452 57.6329C50.9139 57.6663 50.7918 57.7292 50.6883 57.8167C50.6745 57.8297 50.6562 57.8368 50.6372 57.8366Z" fill="#263238"/>
<path d="M51.0036 58.7397C51.1285 59.0276 51.2878 59.2994 51.4778 59.5491C51.4178 59.6208 51.339 59.6745 51.2502 59.7041C51.1615 59.7336 51.0662 59.738 50.9752 59.7167L51.0036 58.7397Z" fill="#D58745"/>
<path d="M51.3671 58.2569C51.3671 58.4103 51.2677 58.5409 51.1654 58.5239C51.0632 58.5069 50.9894 58.3876 50.9979 58.2399C51.0064 58.0922 51.0973 57.9701 51.1995 57.9758C51.3018 57.9815 51.3756 58.1064 51.3671 58.2569Z" fill="#263238"/>
<path d="M51.1569 57.9758L51.4949 57.8679C51.4949 57.8679 51.3131 58.1348 51.1569 57.9758Z" fill="#263238"/>
<path d="M46.843 61.0913C46.8581 61.1111 46.8763 61.1284 46.8969 61.1424C47.1518 61.4009 47.456 61.6057 47.7915 61.7445C48.7742 62.1194 49.4955 62.0768 50.0039 61.6792C50.7338 61.0771 51.0604 59.8786 51.174 58.3933C51.2389 57.8046 51.2102 57.2093 51.0888 56.6296C51.0888 56.6296 51.0888 56.6069 51.0888 56.6012C51.0888 56.5956 51.0888 56.5558 51.0888 56.5359C51.0056 56.2091 50.8424 55.9082 50.6138 55.6603C50.3852 55.4124 50.0985 55.2253 49.7795 55.1159C49.5038 55.014 49.2183 54.9407 48.9275 54.8972C46.0392 54.4627 44.872 59.1487 46.843 61.0913Z" fill="#EBB376"/>
<path opacity="0.2" d="M46.8969 61.1424C47.1562 61.3897 47.4623 61.5828 47.7972 61.7104C48.7798 62.0852 49.5012 61.9944 50.0152 61.6053C49.3875 61.6705 48.7556 61.53 48.2147 61.2048C48.0143 61.0948 47.7914 61.032 47.563 61.0212C47.3347 61.0104 47.1068 61.0518 46.8969 61.1424Z" fill="black"/>
<path d="M47.8824 53.9856C47.8824 53.9856 49.8704 53.7641 50.8275 54.6842C51.9436 55.7577 52.2844 56.7546 50.6145 58.0013C50.6145 58.0013 47.5331 56.5103 46.4312 56.5813C45.7863 56.6229 45.1461 56.7179 44.517 56.8653C44.588 54.7041 46.86 53.392 47.8824 53.9856Z" fill="#263238"/>
<path d="M48.297 61.8609C48.1262 61.9369 47.9741 62.0496 47.8516 62.1909C47.7291 62.3322 47.6392 62.4987 47.5882 62.6787C47.5373 62.8586 47.5265 63.0476 47.5568 63.2322C47.587 63.4167 47.6574 63.5924 47.7631 63.7467L43.6139 62.5851C43.6139 62.5851 45.582 61.7331 45.741 60.3415C45.741 60.3415 47.9222 60.1654 48.297 61.8609Z" fill="#EBB376"/>
<path d="M48.297 54.4627C48.297 54.4627 47.8086 51.2024 45.3008 51.279C42.7931 51.3557 42.4921 53.9742 44.0626 55.0988C45.6331 56.2235 48.1096 56.3712 48.297 54.4627Z" fill="#263238"/>
<path d="M44.7385 55.1727C44.7385 55.1727 42.6142 54.7609 42.5347 56.6353C42.7139 56.3087 43.004 56.0568 43.3526 55.9253C43.3526 55.9253 42.617 56.2973 43.097 57.2715C43.097 57.2715 42.9436 56.6665 43.895 56.4422C44.8464 56.2178 47.2462 56.7091 47.019 55.4368C46.7918 54.1645 44.7385 55.1727 44.7385 55.1727Z" fill="#263238"/>
<path d="M47.9222 54.457C47.913 54.4567 47.9039 54.4544 47.8956 54.4505C47.8873 54.4466 47.8798 54.441 47.8737 54.4341C47.8676 54.4272 47.863 54.4191 47.8601 54.4103C47.8572 54.4016 47.8561 54.3924 47.8568 54.3832C47.8568 54.3633 47.9364 52.486 46.9083 51.4693C46.6516 51.2277 46.3454 51.0449 46.0109 50.9336C45.6764 50.8222 45.3217 50.7851 44.9714 50.8247C44.953 50.8254 44.9351 50.8191 44.9213 50.8069C44.9075 50.7947 44.899 50.7777 44.8976 50.7593C44.8967 50.7407 44.903 50.7224 44.9151 50.7081C44.9272 50.6939 44.9443 50.6848 44.9629 50.6827C45.3332 50.6412 45.7081 50.6813 46.0613 50.8C46.4146 50.9187 46.7375 51.1132 47.0077 51.3699C48.0812 52.4292 48.0017 54.3122 47.9988 54.3917C47.9981 54.401 47.9956 54.4101 47.9913 54.4185C47.9871 54.4268 47.9812 54.4342 47.9741 54.4403C47.967 54.4464 47.9587 54.451 47.9498 54.4538C47.9409 54.4567 47.9315 54.4578 47.9222 54.457Z" fill="#263238"/>
<path d="M45.6956 59.7138C45.6818 59.7186 45.6668 59.7186 45.653 59.7138C45.6331 59.6996 43.6366 58.1433 44.3665 56.4308C44.3694 56.4213 44.3742 56.4126 44.3807 56.4051C44.3871 56.3976 44.3951 56.3915 44.404 56.3873C44.413 56.3831 44.4227 56.3808 44.4326 56.3805C44.4425 56.3803 44.4524 56.3821 44.4615 56.3859C44.4707 56.3897 44.4789 56.3953 44.4857 56.4025C44.4926 56.4096 44.4978 56.4181 44.5012 56.4274C44.5046 56.4367 44.5059 56.4467 44.5052 56.4565C44.5045 56.4664 44.5018 56.476 44.4971 56.4848C43.8098 58.0979 45.7212 59.586 45.7382 59.6088C45.7508 59.6228 45.7577 59.641 45.7577 59.6599C45.7577 59.6787 45.7508 59.6969 45.7382 59.711C45.7246 59.7163 45.7098 59.7173 45.6956 59.7138Z" fill="#263238"/>
<path d="M42.191 56.1013H42.1683C42.1508 56.0955 42.1362 56.083 42.1277 56.0666C42.1192 56.0501 42.1175 56.031 42.1229 56.0133C42.5489 54.6899 44.5113 55.0761 44.5312 55.0789C44.5498 55.0831 44.5662 55.0942 44.5768 55.1101C44.5874 55.126 44.5914 55.1454 44.588 55.1641C44.586 55.1733 44.5822 55.182 44.5768 55.1897C44.5714 55.1973 44.5646 55.2039 44.5566 55.2089C44.5487 55.2139 44.5399 55.2173 44.5306 55.2189C44.5214 55.2205 44.5119 55.2202 44.5028 55.2181C44.4858 55.2181 42.6454 54.8546 42.2592 56.0701C42.2519 56.0812 42.2416 56.0899 42.2296 56.0955C42.2175 56.101 42.2042 56.103 42.191 56.1013Z" fill="#263238"/>
<path d="M51.0944 56.6097C51.0944 56.6097 50.9752 58.646 48.9474 59.2481C48.9474 59.2481 47.8398 61.2361 46.63 61.0913C44.9771 60.9038 43.8524 58.362 44.7499 56.0588C45.9143 53.0683 50.6315 53.463 51.0944 56.6097Z" fill="#263238"/>
<path d="M49.984 58.8022C50.0266 58.487 49.8477 57.9247 49.3507 57.9303C48.8537 57.936 48.3822 59.143 49.5864 59.5917C49.7682 59.6571 49.9045 59.4583 49.984 58.8022Z" fill="#EBB376"/>
<path d="M52.4406 116.324L53.7868 115.954C53.2954 109.161 51.9606 100.965 50.8275 94.8191C50.6514 93.8563 50.481 92.9447 50.3134 92.0955C50.2368 91.6923 50.1601 91.306 50.0862 90.9311C49.7284 89.0908 49.4245 87.6339 49.2342 86.7365C49.0951 86.0804 49.0156 85.7197 49.0156 85.7197L44.1876 87.1227L44.5908 88.3439L45.9228 92.3739L46.0733 92.8339L46.9537 95.495L48.4504 100.022C48.6464 106.952 52.4406 116.324 52.4406 116.324Z" fill="#EBB376"/>
<path d="M40.6944 115.994L42.086 115.861C42.813 108.494 42.8414 99.3205 42.742 92.9475C42.725 91.9592 42.7079 91.0362 42.688 90.2012C42.688 90.1586 42.688 90.1189 42.688 90.0791C42.6454 88.4177 42.6028 87.0999 42.5716 86.265L42.5318 85.2511L37.5192 85.8191L37.8316 87.9037L38.286 90.968L38.3769 91.5673L38.6893 93.6575L39.5271 99.2551C38.5502 106.111 40.6944 115.994 40.6944 115.994Z" fill="#EBB376"/>
<path opacity="0.2" d="M38.2832 90.9624L42.688 90.2013C42.688 90.1587 42.688 90.1189 42.688 90.0791C42.6454 88.4177 42.6028 87.1 42.5716 86.265L37.8288 87.898L38.2832 90.9624Z" fill="black"/>
<path opacity="0.2" d="M49.7227 89.0908L45.0878 89.8775L44.5795 88.3439L49.2342 86.7365C49.3564 87.3073 49.5239 88.1082 49.7227 89.0908Z" fill="black"/>
<path d="M37.7124 72.579C37.7124 72.579 34.7076 79.6024 37.5164 89.7838L42.9919 89.159V86.7364L43.8439 88.9431L49.6688 87.8639C47.9818 79.6024 46.4596 75.8536 46.4596 75.8536L46.0506 71.6958L37.7124 72.579Z" fill="#DAE1C2"/>
<path d="M40.044 115.71C40.044 115.537 42.1967 115.673 42.1967 115.673C42.1967 115.673 43.5173 117.017 44.801 117.318C46.0847 117.619 45.369 118.391 43.9348 118.391H40.3848C39.3539 118.391 39.99 117.522 40.044 115.71Z" fill="#263238"/>
<path d="M43.3157 116.221C43.005 116.18 42.704 116.084 42.4268 115.937C42.4189 115.933 42.4121 115.927 42.4069 115.92C42.4025 115.906 42.4025 115.892 42.4069 115.878C42.4069 115.855 42.5972 115.355 42.8868 115.233C42.9314 115.213 42.9798 115.202 43.0288 115.202C43.0778 115.202 43.1263 115.213 43.1708 115.233C43.2674 115.278 43.3157 115.341 43.3128 115.412C43.31 115.483 43.1538 115.639 42.9777 115.733C43.1403 115.705 43.3074 115.723 43.4605 115.784C43.4886 115.799 43.5132 115.821 43.5327 115.846C43.5523 115.871 43.5664 115.901 43.5741 115.932C43.5889 115.97 43.592 116.013 43.5829 116.053C43.5738 116.093 43.553 116.13 43.523 116.159C43.4649 116.206 43.3903 116.229 43.3157 116.221ZM42.6227 115.915C42.938 116.048 43.3327 116.167 43.4321 116.082C43.4321 116.082 43.469 116.054 43.4321 115.971C43.4289 115.955 43.4218 115.939 43.4114 115.926C43.4011 115.913 43.3877 115.902 43.3725 115.895C43.1253 115.834 42.8663 115.841 42.6227 115.915ZM43.0061 115.324C42.976 115.324 42.9462 115.33 42.9181 115.341C42.7501 115.453 42.6218 115.615 42.5517 115.804C42.8698 115.682 43.1765 115.52 43.1822 115.418C43.1822 115.389 43.1339 115.361 43.1055 115.347C43.0748 115.331 43.0406 115.323 43.0061 115.324Z" fill="#DAE1C2"/>
<path d="M52.0572 115.71C52.0572 115.537 54.2099 115.673 54.2099 115.673C54.2099 115.673 55.5305 117.017 56.8142 117.318C58.0979 117.619 57.3822 118.391 55.9452 118.391H52.398C51.3784 118.391 52.0146 117.522 52.0572 115.71Z" fill="#263238"/>
<path d="M55.3402 116.221C55.0287 116.179 54.727 116.083 54.4485 115.937C54.4485 115.937 54.4343 115.937 54.4314 115.92C54.4286 115.914 54.4271 115.906 54.4271 115.899C54.4271 115.892 54.4286 115.884 54.4314 115.878C54.4314 115.855 54.6189 115.355 54.9114 115.233C54.956 115.213 55.0044 115.202 55.0534 115.202C55.1024 115.202 55.1509 115.213 55.1954 115.233C55.292 115.278 55.3402 115.341 55.3346 115.412C55.3289 115.483 55.1755 115.639 55.0023 115.733C55.1639 115.705 55.3301 115.723 55.4822 115.784C55.5106 115.799 55.5356 115.82 55.5556 115.846C55.5756 115.871 55.5903 115.9 55.5987 115.932C55.6135 115.97 55.6166 116.013 55.6075 116.053C55.5984 116.093 55.5775 116.13 55.5476 116.159C55.4886 116.205 55.4147 116.227 55.3402 116.221ZM54.6473 115.915C54.9625 116.048 55.3573 116.167 55.4567 116.082C55.4567 116.082 55.4936 116.054 55.4567 115.971C55.4525 115.955 55.4451 115.94 55.4348 115.927C55.4246 115.914 55.4117 115.903 55.397 115.895C55.1499 115.834 54.8909 115.841 54.6473 115.915ZM55.0307 115.324C55.0006 115.324 54.9707 115.33 54.9426 115.341C54.7739 115.452 54.6447 115.615 54.5734 115.804C54.8915 115.682 55.2011 115.52 55.2068 115.418C55.2068 115.389 55.1585 115.361 55.1301 115.347C55.0992 115.331 55.0651 115.324 55.0307 115.324Z" fill="#DAE1C2"/>
<path opacity="0.2" d="M42.9919 86.7336V88.1678C37.2722 85.7766 38.6893 80.0596 38.6893 80.0596C39.0557 82.255 41.5691 83.07 41.5691 83.07L42.9919 86.7336Z" fill="black"/>
<path d="M39.5697 74.1751L44.1876 74.6579V73.6099L39.706 73.1641C39.6691 73.4197 39.6152 73.84 39.5697 74.1751Z" fill="#263238"/>
<path d="M44.5482 73.644V74.6948L46.4596 74.8936V73.8343L44.5482 73.644Z" fill="#263238"/>
<path d="M39.3368 73.13L37.3971 72.9369L37.1529 73.9224L39.1551 74.1297L39.3368 73.13Z" fill="#263238"/>
<path opacity="0.2" d="M40.1491 76.5238H42.5318L42.7846 78.8952L41.4668 79.9204L40.1491 79.1054V76.5238Z" fill="black"/>
<path opacity="0.2" d="M37.8458 76.1347L37.7152 78.8952L36.8632 80.0596C36.8632 80.0596 36.5792 79.8182 36.3548 79.5739C36.4135 78.4203 36.5454 77.2716 36.7496 76.1347H37.8458Z" fill="black"/>
<path d="M58.9925 71.8321C59.359 71.5762 59.7621 71.377 60.1881 71.2414C60.6458 71.163 61.1135 71.163 61.5712 71.2414L61.4633 72.7438C61.0729 72.933 60.666 73.0861 60.2478 73.201C59.836 73.2749 59.0067 73.0136 59.0067 73.0136L58.9925 71.8321Z" fill="#EBB376"/>
<path d="M43.452 88.608C43.452 88.608 43.5656 89.3947 43.753 89.2442C43.9405 89.0937 49.8931 88.1621 49.8931 88.1621V87.3726L43.452 88.608Z" fill="#DAE1C2"/>
<path opacity="0.7" d="M43.452 88.608C43.452 88.608 43.5656 89.3947 43.753 89.2442C43.9405 89.0937 49.8931 88.1621 49.8931 88.1621V87.3726L43.452 88.608Z" fill="white"/>
<path d="M37.3346 89.6418C37.3346 89.6418 37.4369 90.4342 37.6044 90.2893C37.772 90.1445 43.1112 89.4032 43.1112 89.4032V88.608L37.3346 89.6418Z" fill="#DAE1C2"/>
<path opacity="0.7" d="M37.3346 89.6418C37.3346 89.6418 37.4369 90.4342 37.6044 90.2893C37.772 90.1445 43.1112 89.4032 43.1112 89.4032V88.608L37.3346 89.6418Z" fill="white"/>
<path d="M37.7124 72.5791L46.2324 73.5333L50.464 63.9937C50.464 63.9937 47.516 61.4548 42.0604 62.2897C42.0576 62.2784 40.1008 63.1474 37.7124 72.5791Z" fill="#263238"/>
<path d="M51.2052 66.6321C51.2052 66.6321 52.5059 69.7958 53.1222 70.432C53.7385 71.0682 58.9925 71.8321 58.9925 71.8321L59.0067 73.0136C59.0067 73.0136 53.4886 72.8091 52.5059 71.9684C51.5233 71.1278 49.4132 67.4244 49.4132 67.4244L51.2052 66.6321Z" fill="#EBB376"/>
<path d="M50.4611 63.9937C51.0944 64.6668 51.7931 67.7226 51.7931 67.7226H48.76L47.7631 66.0754C48.1184 65.5503 48.5739 65.1005 49.1036 64.752C49.528 64.4519 49.9831 64.1978 50.4611 63.9937Z" fill="#263238"/>
</svg>
